<?xml version="1.0" encoding="UTF-8"?>
<svg id="Camada_1" data-name="Camada 1" xmlns="http://www.w3.org/2000/svg" viewBox="0 0 1280 1024">
  <defs>
    <style>
      .cls-1 {
        fill: #eae54e;
      }
    </style>
  </defs>
  <path d="m.76,915.42c5.4.68,10.85,1.86,16.32,1.64s10.37-1.53,15.83-.97,10.2.81,15.54.53c2.65-.14,5.09.48,7.72.5s5.09-.64,7.72-.51c2.91.14,5.7-.25,8.59-.18,2.19.05,4.38.88,6.55.62,3.12-.36,5.47-1.7,8.74-1.61,2.56.07,4.95.91,7.49,1.12,5.43.45,10.86-.98,16.22-.82,2.47.07,4.78.85,7.27.79,3.01-.08,6.14-.09,9.14-.26,2.06-.11,4.1-.59,6.15-.73,3.62-.25,6.56.74,10.07.9,2.16.1,4.18-.96,6.34-1.05,2.97-.12,5.79.48,8.81.27,4.79-.34,9.67,1.74,14.36,1.13,3.1-.41,5.65-1.68,8.88-1.36,2.44.24,4.77,1.81,7.19,1.66,1.46-.09,2.83-1.34,4.29-1.48,1.19-.11,2,.25,3.66.8,2.86.94,4.92.62,7.97.16,2.19-.33,4.75-1.01,6.39-.95,3.12.11,6.18,1.3,9.28,1.49,2.34.15,4.4-.8,6.73-.98,2.46-.19,5.14.3,7.63.4,5.26.21,10.31-.38,15.54-.64,10.75-.52,21.46.38,32.15-.24s21.82.05,32.54.88c5.17.4,10.04-1.35,15.15-.94,2.52.2,5.05,1.32,7.52,1.38s5.31-.99,7.92-1.22,5.58-.58,8.2-.37,4.8,1.31,7.34,1.34c5.13.06,10.71-.08,15.83-.32,10.86-.52,21.82-.36,32.63.11,2.19.09,4.37-.34,6.55-.16,3.25.27,5.45.76,8.74.58,4.72-.27,11.14-1.54,15.09-.57,4.92,1.22,9.88-.77,14.95-.92,5.38-.17,10.65,1.66,15.92,1.54,2.6-.06,5.07-1.12,7.72-1.16,2.85-.04,5.74.04,8.59.07,5.14.05,10.05.53,15.15.12,4.35-.35,9.28,1.76,14.36.66,3.28-.71,5.81-1.63,9.28-1.3,2.23.21,4.32,1.18,6.55,1.11,1.64-.05,3.29-.95,4.93-.94.39,0,2.91.76,3.95.9,2.35.33,4.58-.12,6.95-.02s4.68.76,7.13.56c3.11-.25,6.12-1.05,9.28-1.02,2.19.02,4.36.6,6.55.53,3.11-.1,6.15-.71,9.28-.75,5.19-.06,10.33-.02,15.54-.16s10.35,1.32,15.44.81c2.57-.26,5.22-.83,7.8-.81s5.14.75,7.74,1.05c5.61.66,10.59-1.5,16.22-.88,2.32.25,4.07.83,6.34.57,1.05-.12,3.57-.95,3.95-.92,1.77.15,3.48,1.39,5.23,1.69,5.06.86,10.34-.63,15.38-.92,2.34-.13,4.78-.82,7.09-.77,2.8.06,5.56.92,8.4.97,2.65.04,5.01-.69,7.61-.79,1.73-.06,4.6.75,6.94,1.02,2.68.31,4.83.4,7.42-.14,3.18-.67,5.33.16,8.5.04,2.62-.1,5.06-.96,7.72-.93,3.04.04,5.56,1.38,8.5,1.64,2.29.2,4.75-.33,7.04-.6,3.57-.42,5.74.05,9.28.44,4.92.54,10.21-.07,15.15-.34,2.6-.15,5.16.48,7.72.34s5.02-1.09,7.72-1.01c5.2.17,10.35.16,15.54-.28,5.48-.46,10.39,1.37,15.83,1.3,10.77-.14,21.88-2.15,32.63-1.62,5.28.26,10.55.73,15.83.93,2.18.08,4.38-.43,6.55-.31,3.24.18,5.71,1.03,8.99.79,2.43-.18,4.99-.71,7.42-.66,2.69.05,5.3.79,8.03.78s4.49-.54,7.12-1.08,4.67.98,7.72,1.04c2.36.05,4.9-.98,7.32-1.08,2.91-.12,5.84-.19,8.75-.26,5.47-.13,10.64.97,16.07,1.2s10.47-.55,15.69-.62c2.42-.04,4.79.86,7.18.82,2.91-.06,4.81-1.18,7.32-.84,10.69,1.45,20.76.45,31.46-.25,3-.2,5.55-.31,8.5.2,2.8.49,4.62-.34,7.42-.49,1.64-.09,4.3.75,6.55.87,2.8.15,5.79-.31,8.59-.49,2.46-.15,5.2-.65,7.63-.37,2.65.3,4.49,1.57,7.13,1.27,1.12-.13,3.39-.93,3.95-.92,1.65.03,3.28,1.08,4.93,1.15,2.27.1,4.3-1.14,6.55-1.39,5.24-.58,11.01.95,16.32,1.06,2.24.05,4.43.39,6.64.05,1.47-.22,3.05-1.11,4.53-1.11.8,0,3.34,1.08,4.74,1.15,2.2.12,4.25-.93,6.45-1.04,2.8-.15,5.13.55,7.92.05,4.34-.78,10.14.52,15.14.84,2.7.17,4.45.43,7.02-.25,3.42-.9,4.82-.05,8.5.14,2.5.13,4.82-.5,7.32-.22,3.22.36,5.72.41,8.99.24,5.08-.27,10.21-.81,15.29-.99,2.47-.09,4.72.69,7.18.83,2.69.15,5.6-.45,8.31-.58s5.2.9,7.91.95,5.08-1.05,7.18-.91c5.17.35,10.19.14,15.38.67,2.41.25,4.66.55,7.04.26,3.86-.47,4.85-.29,8.88.2,5.16.62,10.03-.92,15.15-.7,2.71.11,5.2-1.12,7.81-1.06,1.16.03,3.92,1.43,5.76,1.55,2.84.18,5.7-.45,8.59-.26,2.57.17,5.14.25,7.72.32,1.93.06,1.93-2.94,0-3-2.58-.08-5.15-.15-7.72-.32-2.85-.19-5.82.5-8.59.26-2.26-.2-4.27-1.52-6.55-1.44-1.65.05-3.28.95-4.93,1.07-1.44.1-2.91-.27-4.35-.25-2.36.04-4.59.73-6.95.94-3.34.29-6.05-.55-9.28-.87-2.53-.25-4.58.69-7.13.83s-5.17-.5-7.63-.76c-3.02-.32-5.59.22-8.59.19-2.2-.02-4.35-.85-6.55-.71-1.64.1-3.28,1.01-4.93,1.03-.39,0-2.91-.71-3.95-.85-2.35-.32-4.65-.16-7.04-.01-5.58.36-10.74-.53-16.32-.05-5.21.45-10.6.95-15.83.93s-10.91-.59-16.22-1.05c-2.49-.21-4.23.81-6.73,1.13s-5.41-.33-8.03-.38c-2.87-.06-5.38-.97-8.2-1.17-2.45-.17-4.88.79-7.35.8-2.61,0-4.47-.43-7.02.1-3.42.71-4.94-.65-8.5-.63-2.21,0-4.42,1.18-6.64,1.3-2.98.17-6.7.04-9.68-.17-5.11-.38-9.46-1.77-14.56-.3-3.02.87-4.15-.45-7.51-.53-2.68-.06-4.99,1.15-7.18.76-2.98-.52-4.61-1.18-7.66-1.02-2.63.13-5.25.32-7.88.48-2.96.17-5.45.23-8.35-.31s-4.78.38-7.82.55c-1.42.08-4.13-.79-6.15-.88-2.8-.12-5.8.35-8.59.56-2.61.19-5.22.96-7.81,1.06s-5.04-.46-7.63-.26c-5.16.4-10.17-1.33-15.15-1.03-1.65.1-3.27,1.01-4.93,1.07-.55.02-2.84-.55-3.95-.67-2.37-.26-4.64.02-7.04.13-5.45.26-10.89.59-16.32-.05s-10.38-.79-15.83-.62-10.7,1.55-15.14.28c-3.15-.9-4.14.02-7.42.62-2.65.49-5.35.41-8.02.07-5.26-.65-10.32.65-15.54.21s-10.53-.69-15.92-.96-10.98-.93-16.32-.65c-5.27.28-10.53,1.21-15.83,1.39-5.01.18-10.59.64-15.54-.04-2.41-.33-4.92-1.19-7.32-1.31-2.66-.14-5.44.45-8.12.6-5.01.28-10.22-.43-15.15.04-3.03.29-5.14.92-8.2.71-2.72-.18-5.3.15-8.03.26-2.47.1-4.95.05-7.42.1-3.05.06-5.72-.91-8.7-1.04-2.22-.09-4.61.57-6.84.8-3.74.39-5.79-.44-9.43-1.04-5.24-.86-10.32.49-15.54.18-2.57-.15-4.72.8-7.27.98-2.99.21-6.03-.72-8.95-1.16-4.91-.73-9.81.9-14.9.2s-10.19-.19-15.24.36c-2.93.32-5.53,1-8.5.81-2.67-.17-5.13-1.74-7.72-1.83-2.77-.1-4.85,1.23-7.32.92-2.85-.35-5.27-.87-8.2-.64-2.36.19-4.61,1.19-6.95,1.36-3.11.23-6.23-.91-9.28-1.26-5.21-.6-10.33,1.24-15.54.47-4.94-.73-9.78-.7-14.76-.43-5.29.28-10.54-.27-15.83.18s-10.83-.29-16.32.35-9.88.54-15.52.37c-2.31-.07-4.55-1.11-6.84-1.11-3.57,0-4.89,1.07-8.3.34-5.49-1.18-9.48.56-14.76,1.15-3.15.35-5.46-.59-8.49-.99-2.53-.33-4.8.4-7.35.43-5.37.08-10.91-.56-16.32-.62-5.84-.06-10.48,1.09-15.92.31-4.91-.71-9.61-.92-14.56-.55-2.56.19-5.1,1.1-7.61,1.23-1.71.09-4.47-1.07-6.79-1.03-5.39.09-10.89,1.7-16.38,1.29s-10.75-1.23-16.17-1.28c-10.34-.11-20.88.81-31.22.43-5.4-.2-11.02,1.04-16.22-.28-4.51-1.14-9.78-.63-14.37.02-4.09.58-4.92.73-8.88,0-2.26-.42-4.74-.78-7.04-.61-2.6.19-5.1.99-7.72,1.12-2.95.16-5.59-.58-8.5-.67-2.64-.08-5.08.51-7.72.16-2.94-.39-5.21-.49-8.2-.43-5.19.1-10.34.08-15.54.28-10.27.4-20.65-.69-30.99.16-5.34.44-10.46.66-15.83.39-5.88-.29-10.38.85-15.92-.03-2.06-.33-4.26-.92-6.34-.84-3.19.14-6.35,1.68-9.58,1.53-2.26-.11-4.41-1.8-6.64-1.8-1.23,0-2.59.92-3.76,1.21-2.4.6-1.97.51-4.74-.34-5.2-1.61-9.92.73-14.36.76-2.47.02-5.33-.79-7.8-1.13-2.83-.38-5.29.23-8.12.22-2.1-.01-4.15-.67-6.25-.5-1.64.13-3.29,1.02-4.93,1.05-.52,0-3.16-.76-4.35-.91-5.01-.67-9.95.66-14.95.62-2.66-.02-5.36.46-8,.38s-4.92-.84-7.49-.71c-5.37.27-10.87,1.18-16.22.36-2.8-.43-4.82-.88-7.66-.78s-5.13,1.46-7.81,1.67c-1.45.12-4.42-.68-6.55-.67-2.99.02-5.89.06-8.89.04-10.38-.08-20.54.44-30.99-.53-5.03-.47-9.75.85-14.75,1.07-5.44.24-10.93-.96-16.32-1.64-1.91-.24-1.89,2.76,0,3h0Z"/>
  <g>
    <path d="m963.62,227.33l10.69-.7c2.98-.2,5.94-.74,8.9-1.17,1.66-.24,3.32-.49,4.98-.72.32-.05-.5-.05-.19.04.19.06.49.02.69.03l2.66.1c3.1.12,6.23.4,9.33.31,3.78-.11,7.58-.31,11.36-.32,3.31-.01,6.64.24,9.95.37,2.85.11,5.6-.18,8.45-.42,1.89-.16,3.78-.37,5.67-.47.93-.05,1.86.13,2.79.23l6.8.76c1.05.12,2.13.33,3.18.33,3.77,0,7.59-.4,11.36-.6.97-.05,1.83-.31,2.76-.57l6.5-1.8,2.75-.76c.25-.07.53-.11.77-.21.57-.24-.28.07-.52-.07.36.21,1.1.19,1.49.26l3.03.53,6.44,1.12c.93.16,1.75.27,2.69.22,3.68-.18,7.43-.16,11.1-.56,1.24-.13,2.49-.69,3.67-1.06l6.49-2.01c.63-.2,1.35-.33,1.95-.6s-.2.14-.51-.09c.1.07.37.06.48.08,1.91.37,3.86.63,5.78.94s3.75.62,5.63.91c1.11.17,2.07-.14,3.15-.39l6.63-1.53,2.56-.59c.22-.05.47-.08.69-.16.41-.14-.46-.03-.14.01,1.57.22,3.39-.09,4.98-.13l6.26-.16c3.09-.08,6.22-.82,9.27-1.27l3.99-.59c1.9-.28,1.09-3.17-.8-2.89-3.53.53-7.07,1.05-10.6,1.58-.47.07-.95.16-1.43.21.9-.09-.53-.03-.79-.02l-6.51.16c-1.47.04-2.98-.02-4.45.11-1.32.12-2.65.57-3.93.87l-6.61,1.53c-.54.13-1.27.17-1.77.41-.33.16.95.12.59,0-.21-.07-.46-.08-.68-.11-3.76-.61-7.52-1.25-11.29-1.83-1.13-.17-2.18.32-3.26.66l-6.49,2.01-2.5.77c-.18.06-.46.09-.62.19-.29.18.45,0,.17-.01-1.66-.11-3.44.17-5.1.26l-6.2.31c-.19,0-.46-.03-.64.03-.3.1.51.11.19.04-.61-.13-1.24-.22-1.86-.32l-6.56-1.14c-1.33-.23-2.98-.81-4.34-.68s-2.78.74-4.09,1.1l-6.47,1.79c-.51.14-1.12.22-1.6.44-.15.07.59-.01.18-.03-.26,0-.53.03-.78.04l-6.24.33c-1.62.09-3.28.29-4.89.26-1.17-.02-2.36-.25-3.52-.38l-6.74-.75c-.88-.1-1.73-.25-2.61-.17-3.76.31-7.53.77-11.3.95-3.2.15-6.5-.22-9.7-.34-2.85-.11-5.66-.02-8.51.06s-5.67.2-8.51.1l-6.75-.25c-1.21-.05-2.48-.22-3.68-.06-3.7.48-7.39,1.07-11.08,1.6-.26.04-.51.07-.77.11-.44.07.07-.02.13-.02-.53,0-1.06.07-1.59.1l-6.62.43-3.9.26c-1.92.13-1.93,3.13,0,3h0Z"/>
    <path d="m962.1,225.15c.35,4.06.9,8.15,1.03,12.22.08,2.52.01,5.05.02,7.57,0,1.6.08,3.21-.02,4.81l-.5,8.26c-.1,1.59-.22,3.08,0,4.65l1.17,8.51c.1.76.07,1.78.34,2.51-.06-.16.2-1.05-.08-.45-.19.41-.29.9-.43,1.33l-2.68,8.32c-.22.67-.52,1.36-.66,2.05s-.08,1.51-.09,2.24c-.09,4.31-.31,8.62-.05,12.93.54,8.88.81,17.81,2.08,26.62l.62,4.32c.06.44.13.88.19,1.32.02.12.04.24.05.37.02.25.05-.52-.05-.24-.32.82-.23,2.09-.32,2.96l-.49,4.59c-.47,4.4-.56,8.81-.72,13.24-.06,1.68.49,3.09.97,4.7.72,2.41,1.34,4.89,2.16,7.27.32.92,1.23,1.71,1.86,2.44s1.26,1.73,2.08,2.29c1.96,1.33,4.3,2.3,6.39,3.42l3.24,1.73c.56.3,1.04.51,1.69.47,2.67-.14,5.35-.49,8.02-.73,4.41-.4,8.81-.82,13.21-1.23s8.65-.22,12.97-.22,8.47-.38,12.7-.6,8.27-.36,12.38-.71c1.89-.16,3.79-.47,5.67-.71,2.08-.26,4.24-.74,6.33-.8,2.25-.06,4.61.36,6.86.53,1.76.14,3.62.47,5.38.38,2.6-.14,5.21-.54,7.8-.8,1.64-.17,3.27-.31,4.9-.54l8.3-1.16c.95-.13,1.91-.26,2.86-.4.48-.07-.61.03,0,.01.42-.01.85-.06,1.27-.09,4.3-.3,8.6-.81,12.91-.62s8.85.46,13.31.28,8.71-.36,13.06-.7l4.68-.37c.69-.05,1.72.06,2.38-.19-.29.11-.5-.08.08.02.49.08.98.16,1.47.24l4.44.73,4.15.68c.76.12,1.54.33,2.3.24,2.32-.27,4.64-.81,6.94-1.21l4-.7c.29-.05.62-.06.9-.16s-1.14-.2-.4.06c2.46.87,5.15,1.33,7.68,1.98,1.56.4,3.26,1.1,4.89,1.07l8.24-.17c1.01-.02,2.04,0,3.05-.06s1.71-.83,2.46-1.43c.83-.66,1.94-1.29,2.5-2.22s1.4-2.17,1.66-3.24c.18-.71-.11-1.62-.2-2.33l-.58-4.46c-.24-1.87-.71-3.84-.73-5.72-.02-2.4.37-4.86.55-7.25l.3-3.91c.02-.23.06-.47.05-.71,0,.74-.02.15.02-.13.4-2.74.79-5.48,1.19-8.22.23-1.56.52-3.1.53-4.68.02-4.27.05-8.53.05-12.8s.11-8.67-.2-12.99-.67-8.56-.58-12.88c.05-2.66.2-5.33.16-7.99-.03-1.76-.73-3.6-1.13-5.3l-1.05-4.46c-.19-.79-.24-2.02-.64-2.73.08.14-.11,1.14.03.44.09-.43.14-.87.2-1.3l.66-4.26c.33-2.1.8-4.23.99-6.35.08-.86-.21-1.67-.41-2.5l-1.04-4.3c-2.07-8.55-4.03-17.12-6.15-25.65-.26-1.04-.47-2.11-.78-3.14-.17-.56-.03.09-.03,0,0-.37-.06-.75-.08-1.12-.17-2.36-.35-4.73-.52-7.09-.06-.82-.64-1.49-1.5-1.5-3.35-.04-6.63-.1-9.97.18-2.17.18-4.35.33-6.52.54-1.43.14-2.83.91-4.16,1.41-2.01.76-4.03,1.53-6.04,2.29-1.79.68-1.01,3.58.8,2.89l5.01-1.9,3.31-1.26c.3-.11.61-.21.9-.34.4-.19.3-.11,0-.08,1.95-.22,3.92-.33,5.87-.49,1.44-.12,2.89-.32,4.34-.33,2.15,0,4.31.05,6.46.08l-1.5-1.5c.2,2.75.31,5.52.61,8.25.1.95.42,1.9.65,2.83l1.32,5.33c1.27,5.12,2.43,10.26,3.64,15.4.58,2.48,1.2,4.96,1.8,7.43.34,1.4.6,2.84,1.02,4.22.26.86.19-.74.06-.29s-.15.98-.22,1.44l-1.56,10.01c-.35,2.25.7,4.76,1.22,6.95l1.21,5.15c.08.36.15.73.25,1.08.06.22.04-.55-.04-.24-.05.19,0,.44-.01.63l-.2,9.97c-.09,4.54.76,9.07.83,13.61.08,5.32,0,10.64-.02,15.96l-.03,5.66c0,.55-.03,1.1,0,1.65.03.78.08-.17.03.17-.5,3.2-.93,6.41-1.39,9.61-.29,2.03-.48,4.03-.63,6.08l-.43,5.68c-.07.92-.24,1.9-.21,2.82.03,1.04.28,2.12.41,3.15l.73,5.61.29,2.26c.02.18,0,.88.13,1-.64-.6.47-.97.12-.58-.1.11-.16.31-.23.44l-.54,1.03c-.2.37-.43.74-.59,1.13-.24.56.32-.1-.12.15-1.15.66-2.17,1.74-3.21,2.57l1.06-.44c-3.33.07-6.67.14-10,.21-.57.01-1.2-.05-1.76.04-.36.06.01,0,.17.05-.15-.05-.3-.07-.45-.12-1.67-.46-3.35-.86-5.02-1.29l-5.57-1.43c-.91-.23-1.62-.24-2.55-.08-3.57.62-7.22,1.07-10.76,1.87-.9.2.92.21.17.02-.63-.16-1.3-.21-1.94-.32l-6.19-1.01c-1.25-.2-2.53-.52-3.79-.62-1.19-.09-2.48.15-3.67.25-6.51.51-12.98.84-19.51,1.1-5.24.21-10.47-.67-15.72-.31-3.19.22-6.45.28-9.63.7-3.42.46-6.83.95-10.25,1.43-.52.07-1.04.14-1.56.22-.29.04.56-.05.21-.03-.19,0-.39.04-.58.06l-5.65.58c-2.54.26-4.97.62-7.52.42l-6.26-.49c-1.25-.1-2.57-.33-3.82-.3-1.11.03-2.25.28-3.35.42l-6.28.79c-5.1.64-10.28.77-15.42,1.04-3.54.19-7.09.44-10.63.56-3.04.1-6.09.01-9.12.02-5.26,0-10.49.72-15.73,1.2l-5.64.51c-1.67.15-3.45.14-5.1.46-.07.01-.3-.02-.36.03.21-.2,1.09.47.46.05-.56-.38-1.23-.66-1.83-.98l-5.52-2.95-2.07-1.11c-.14-.08-.29-.17-.44-.23-.05-.02.32.39.03-.03-.54-.77-1.26-1.47-1.87-2.18-.28-.32-.55-.66-.84-.98-.58-.62.15.09.09.29.09-.28-.33-1.11-.42-1.39l-.83-2.79-1.65-5.52c-.06-.21-.1-.47-.2-.66-.17-.34-.01.24,0,.17.13-.47.04-1.13.06-1.62l.23-6.13c.1-2.64.33-5.2.61-7.83l.61-5.65c.09-.88-.07-1.69-.19-2.56l-.88-6.13-.35-2.46c-.03-.23-.06-.46-.1-.68-.06-.42.02.32.02.17.04-3.45-.44-6.98-.66-10.42-.16-2.53-.31-5.06-.46-7.59s-.38-5.11-.33-7.68c.07-3.42.36-6.92.21-10.34,0-.01-.18.48-.01.23.11-.16.14-.44.2-.62l.74-2.3,1.94-6.01c.37-1.16,1.06-2.5.94-3.73s-.33-2.43-.5-3.64l-.84-6.15c-.09-.65-.18-1.31-.27-1.96s-.05.5.03-.26c.39-3.55.43-7.17.64-10.73.16-2.68.04-5.38.04-8.07,0-2.5-.02-4.94-.23-7.43-.27-3.18-.54-6.35-.81-9.53-.16-1.91-3.16-1.93-3,0h0Z"/>
  </g>
  <g>
    <path d="m1177.42,357.45c-3.3.07-6.6.14-9.91.21-.57.01-1.23-.07-1.78.04-.33.06.1,0,.21.05-.14-.07-.3-.09-.45-.14-1.69-.58-3.42-1.08-5.13-1.61l-5.43-1.71c-.93-.29-1.59-.3-2.53-.07-3.51.85-7.17,1.48-10.61,2.58-.9.29.96.21.14.04-.65-.14-1.33-.19-1.98-.29l-6.16-.89c-1.21-.17-2.43-.42-3.65-.53s-2.58.05-3.84.09c-6.46.21-12.89.28-19.35.3-2.78,0-5.66.82-8.39,1.28-1.48.25-2.98.46-4.45.75-.3.06.42.07.21-.04-.14-.07-.45-.05-.6-.06l-2.4-.26-6.28-.67c-.99-.11-2.1-.39-3.08-.19-3.47.7-6.9,1.71-10.33,2.57-.29.07-1.03.11-1.26.31.08-.07,1.09.13.58-.03-.23-.07-.5-.08-.74-.12l-5.67-.92c-1.69-.27-3.37-.56-5.06-.82-1.01-.16-1.79.15-2.76.44-3.3.97-6.76,1.74-9.99,2.95-.05.02.47.09.21-.05-.14-.08-.44-.05-.6-.07l-2.4-.27-6.32-.71c-.96-.11-2.04-.39-3-.2-1.45.28-2.89.67-4.33,1l-5.93,1.38c-.44.1-.9.19-1.34.31.13-.04.53.02.21-.05-.22-.05-.5-.02-.72-.03-3.58-.15-7.18-.45-10.76-.45-.9,0-1.81.26-2.69.44l-6.23,1.21c-1.16.23-2.32.45-3.48.68-1.89.37-1.09,3.26.8,2.89,3.27-.64,6.54-1.27,9.8-1.91.57-.11,1.16-.2,1.73-.34.39-.1-.08.04-.18.02.15.04.33.01.49.02l5.32.22c2.68.11,5.31.47,7.92-.14l5.85-1.36c1.4-.33,2.97-.51,4.33-1,.27-.1-.4-.06-.22.04.14.07.44.05.59.07l2.36.26,6.22.7c.99.11,2.17.44,3.16.23,1.4-.29,2.79-.82,4.15-1.22l5.84-1.72c.46-.14,1.14-.2,1.56-.46.29-.18-.79-.08-.64-.02.16.06.38.06.55.09l10.8,1.75c.97.16,1.7,0,2.64-.23l5.79-1.44c1.43-.36,3.2-.52,4.54-1.13.29-.13-.24.02-.23.03.14.06.38.04.53.06l2.3.25,6.29.67c1.05.11,2.19.38,3.25.23,3.45-.52,6.88-1.16,10.31-1.74.46-.08.92-.16,1.38-.23-.82.12.22.05.51.05h5.8c2.48-.02,4.96-.02,7.43-.1l6.33-.21,2.42-.08c.31-.01,1.3,0,.52-.08,3.42.32,6.83.99,10.23,1.47.93.13,1.85.36,2.78.15,1.66-.37,3.3-.8,4.95-1.2l5.59-1.36c.22-.05.48-.08.7-.17.56-.23-.41.1-.55-.05.19.21,1.03.32,1.29.41,3.44,1.08,6.86,2.32,10.34,3.25.9.24,1.87.11,2.79.09l6.19-.13c1.17-.02,2.35-.05,3.52-.07,1.93-.04,1.93-3.04,0-3h0Z"/>
    <path d="m1178.97,356.55c.13-2.18.27-4.35.4-6.53.12-1.92.42-3.92.35-5.85-.08-2.32-.53-4.68-.79-6.98-.2-1.76-.67-3.7-.58-5.47.13-2.52.68-5.08,1.02-7.58.22-1.64.77-3.53.53-5.19-.38-2.55-.79-5.1-1.19-7.65l-.58-3.73c-.04-.24-.1-.49-.11-.74.06.8.06.11.09-.12.35-2.66.43-5.39.65-8.07.12-1.48.37-2.99.24-4.47-.36-4.21-.99-8.48-.99-12.71s-.34-8.59.19-12.8l1.09-8.72c.19-1.51.36-2.76.13-4.25-.42-2.86-.85-5.72-1.27-8.58-.15-1-.29-2-.44-2.99-.08-.54,0,.11,0,.04-.03-.32-.07-.63-.11-.95-.53-4.57-1.21-9.14-1.49-13.73l-.2-3.33c-.05-.85-.65-1.44-1.5-1.5-3.65-.24-7.31-.48-10.96-.73-3.34-.23-6.69-.77-10.02-1.16-3.05-.36-6.08-.33-9.15-.38-1.55-.03-3.17-.19-4.72-.08-1.45.11-2.99.84-4.37,1.26l-6.44,1.96c-.27.08-.58.14-.83.25-.53.24.21-.13.53.06-.42-.25-1.32-.23-1.79-.32l-6.87-1.21c-1.16-.2-2.43-.6-3.62-.58-3.76.08-7.53.86-11.29,1.14-3.47.26-7,.21-10.48.3-3.25.09-6.51.12-9.76.17-1.23.02-2.51-.06-3.73.13-1.88.3-3.75.65-5.63.97s-3.74.58-5.59.97c-.45.09.26-.01.14-.02-.21,0-.43.02-.65.03l-2.8.15-6.92.36c-.29.02-.59.01-.88.05-.38.05-.34.05.05.07-.55-.02-1.12-.16-1.66-.23l-6.89-.96c-1.23-.17-2.76-.63-4-.41-3.72.66-7.46,1.45-11.15,2.28-.48.11-.28-.09.04.02-.14-.05-.31-.03-.46-.05-.87-.15-1.76-.21-2.63-.31l-6.88-.8c-3.1-.36-6.23.38-9.32.78-1.33.17-2.7.46-4.05.51-1.7.07-3.45-.13-5.15-.19-2.04-.08-4.08-.21-6.12-.23-1.07,0-2.14.2-3.2.32l-6.91.8c-.54.06-1.3.01-1.81.21-.05.02.54.16.15.01-.25-.1-.53-.14-.78-.21l-6.48-1.73c-1.4-.37-2.91-1-4.36-1.13-.84-.08-1.79.4-2.58.65l-2.46.77c-1,.31-1.3,1.31-.9,2.2.6,1.35,1.2,2.69,1.8,4.04l-.15-1.16c-.45,2.86-.89,5.72-1.34,8.59-.16,1.03-.36,2.07-.48,3.1s.06,2.07.13,3.08c.21,3,.55,6.02.63,9.03.07,2.72-.1,5.46-.15,8.18-.04,2.05-.12,4-.34,6.03-.33,3.03-.94,6.15-1.01,9.19-.07,2.62.43,5.37.64,7.98.17,2.03.31,4.02.32,6.06.02,3.1-.12,6.25.06,9.35.15,2.63.78,5.3,1.17,7.9.2,1.36.39,2.72.62,4.07.07.39.09-.56-.07.08-.14.55-.15,1.17-.22,1.73-.41,3.18-1.01,6.4-1.23,9.6-.05.7.07,1.41.13,2.11l.46,5.33c.19,2.16.29,4.28.81,6.39.79,3.19,1.61,6.38,2.37,9.57.55,2.31.82,4.7,1.21,7.04.25,1.5.44,3.03.76,4.52.21.98.94,1.65,1.57,2.41.86,1.04,1.72,2.47,2.79,3.29.5.38,1.22.4,1.81.51l2.63.49c2.7.51,5.65.19,8.39.21,2.44.02,4.87-.14,7.31-.26,1.14-.05,2.29-.11,3.43-.16,1.92-.09,1.93-3.09,0-3-5.6.27-11.13.42-16.73.38-.47,0-.97-.05-1.44-.01.21-.02.52.1.12,0s-.85-.16-1.28-.24c-.84-.16-1.71-.39-2.56-.48-.79-.08.36-.13.28.3.02-.09-.41-.49-.47-.56-1.03-1.24-2-2.66-3.15-3.79-.41-.4.19.58.25.45.03-.07-.05-.27-.06-.35-.04-.67-.23-1.36-.34-2.03-.51-3.03-.91-6.09-1.53-9.1-.57-2.76-1.36-5.49-2.04-8.23-.27-1.08-.48-2.18-.8-3.25.23.77.01-.07-.02-.37l-.18-2.14-.49-5.71c-.09-1.02-.29-2.09-.27-3.11s.27-2.07.39-3.08l.73-5.72c.13-.99.4-2.07.39-3.08,0-1.07-.33-2.22-.49-3.27l-.86-5.67-.31-2.06c-.04-.24-.07-.47-.11-.71-.05-.29.05-.53,0,.08.22-2.97-.04-6.06-.06-9.03-.01-2.1-.14-4.14-.31-6.24-.22-2.68-.7-5.48-.66-8.18.02-1.17.26-2.37.39-3.54l.63-5.69c.23-2.11.3-4.14.35-6.26.05-2.66.23-5.36.14-8.03-.11-3.19-.44-6.38-.66-9.56-.04-.55-.04-1.11-.12-1.66-.11-.8-.13.27-.05-.25.24-1.42.44-2.84.66-4.26l.86-5.5c.17-1.08.46-2.06,0-3.09-.56-1.27-1.13-2.53-1.69-3.8l-.9,2.2,2.46-.77c.51-.16,1.03-.29,1.53-.48.81-.3,0,.1-.29-.13.39.3,1.34.36,1.8.48l3.23.86,5.98,1.59c1.06.28,2.01.07,3.09-.05l7.04-.81c.99-.11,1.99-.3,2.98-.26l6.29.23c1.59.06,3.23.25,4.82.18,1.45-.06,2.93-.37,4.36-.56l6.46-.82c.96-.12,1.81.01,2.78.12l7.03.82c1.12.13,2.26.41,3.37.19,1.92-.36,3.83-.78,5.74-1.17l3.37-.69c.59-.12,1.48-.14,2.03-.41.43-.22-.76-.09-.55-.02s.46.06.67.09l2.8.39c3.21.45,6.57,1.28,9.81,1.12l6.95-.36c1.29-.07,2.62-.05,3.9-.25,3.72-.59,7.46-1.23,11.16-1.93.31-.06.5.04-.07,0,.17.01.34,0,.51,0l2.64-.04,7.01-.11c6.33-.1,12.6-.3,18.89-.94l3.5-.35c.63-.06,1.53,0,2.13-.22.36-.14-.26-.07-.17-.06.23.03.45.08.68.12l2.75.49,6.86,1.21c1.15.2,1.99.31,3.12-.03l6.35-1.94,2.99-.91c.3-.09.61-.17.9-.28.42-.15.22,0-.07-.04,1.59.22,3.34.06,4.95.08l6.18.1c3.27.05,6.61.73,9.85,1.11s6.24.54,9.37.75c1.5.1,2.99.2,4.49.3l-1.5-1.5c.53,8.73,1.7,17.39,2.98,26.04l.59,3.99c.06.39.11.78.17,1.16.08.5.13-.39-.04-.04-.34.7-.25,1.97-.34,2.73l-.56,4.51c-.24,1.89-.6,3.82-.71,5.72-.14,2.43,0,4.91,0,7.35,0,1.72-.08,3.47.03,5.19.16,2.58.44,5.16.66,7.74.13,1.58.45,3.25.33,4.84-.2,2.69-.43,5.38-.65,8.07-.13,1.58-.4,3.17-.16,4.74l1.27,8.2c.16,1.06.33,2.13.49,3.19.09.55-.08.22,0,.02-.1.24-.08.62-.12.87-.38,2.81-.75,5.61-1.13,8.42-.2,1.49-.42,2.78-.25,4.26l.98,8.6c.48,4.26-.1,8.54-.36,12.81l-.12,1.97c-.12,1.93,2.88,1.92,3,0h0Z"/>
  </g>
  <g>
    <path d="m916.01,333.07c-3.25-.38-6.5-.77-9.76-1.15-1.02-.12-2.11-.37-3.14-.37-1.23,0-2.52.27-3.75.4-6.48.69-12.95,1.44-19.41,2.23-2.37.29-4.72.66-7.07,1.04l-6.12.99c-.63.1-1.26.2-1.89.3-.8.13.38-.02-.23.03-6.02.56-11.98,1.33-18.02,1.66-2.63.14-5.31.14-7.92.48l-11.11,1.43-.97.12c-1.89.24-1.91,3.25,0,3,5.58-.72,11.11-1.55,16.73-1.85,2.97-.16,5.96-.23,8.93-.49,3.54-.3,7.06-.77,10.59-1.15,2.42-.26,4.8-.66,7.21-1.05l6.02-.97c.56-.09,1.12-.17,1.68-.27.49-.09-.6.07.24-.03,6.04-.72,12.07-1.48,18.12-2.12l5.77-.62c.72-.08,1.29-.13,2-.04l11.16,1.32.95.11c1.91.23,1.9-2.78,0-3h0Z"/>
    <path d="m916.11,333.04c.5-2.64.99-5.29,1.49-7.93.36-1.94.78-3.84.91-5.81.21-3.26.43-6.52.64-9.78.13-1.99-.72-3.94-1.24-5.84l-1.42-5.11-.49-1.76c-.09-.31-.13-1.07-.14-.3.03-2.8-.08-5.61-.13-8.41-.08-5.05.11-10.09.23-15.14.05-2.13.08-4.27.13-6.4l.09-4.83c0-.38.08-.84.02-1.21-.05-.29-.05.31-.05.27.02-.16.05-.32.07-.48l1.38-9.5c.12-.8.31-1.63.35-2.45.04-1.07-.11-2.18-.16-3.24-.14-2.88-.47-5.82-.44-8.71.03-2.55.44-5.14.66-7.68.09-1.06.3-2.18.28-3.24-.02-.93-.25-1.9-.38-2.82-.39-2.81-.95-5.65-1.16-8.48.07.92.05-.22.04-.41l-.02-2.01-.06-5.45c-.02-1.98.02-3.92.11-5.9l.22-5.26c.05-1.14.36-2.5-.34-3.47-1.36-1.9-3.07-3.6-4.55-5.42l-2.49-3.06c-.32-.4-.99-.53-1.46-.39-3.4,1.01-6.79,2.02-10.19,3.02-.28.08-.57.16-.85.25-.42.14-.32-.01.05.05-.43-.07-.89-.05-1.33-.07l-6.56-.35c-1.35-.07-3.05-.46-4.4-.16s-2.61.92-3.87,1.36l-6.16,2.16c-.46.16-.94.3-1.39.49.28-.12.5,0,.11-.07-.29-.05-.6-.04-.9-.06l-6.34-.41c-1.42-.09-2.91-.32-4.34-.28-1.33.04-2.71.35-4.03.52l-6.49.84c-2.91.38-6-.34-8.9-.63-1.35-.14-2.72-.36-4.08-.42s-2.86.06-4.28.09c-3,.07-6.05-.04-9.03.39l-6.43.92-2.96.43c-.22.03-1.79.25-.85.17.65-.06.29-.01.03-.15-.22-.12-.47-.19-.7-.28l-1.08-.44c-.81-.32-1.58.37-1.85,1.05-.47,1.21-1.14,2.46-1.46,3.72-.22.85.18,1.99.34,2.83.6,3.18,1.16,6.36,1.79,9.53.03.13.04.26.07.39.08.32.03-.47-.04-.24-.11.38-.07.88-.11,1.28l-.43,5.13c-.17,2.07-.43,4.15-.48,6.23-.13,5.32-.27,10.63-.21,15.96.03,2.46-.02,4.93.1,7.39.15,3.08.43,6.16.65,9.23.66,9.39-.11,18.87.89,28.25l1.03,9.64c.24,2.2-.14,4.55-.25,6.75s-.4,4.35-.22,6.49l.82,9.75c.03.32-.05,1,.11,1.28.1.19,0,.21.06-.24-.02.12-.04.24-.07.36-.27,1.37-.5,2.75-.75,4.12l-.96,5.31c-.18.97-.55,2.12-.42,3.12.36,2.73,1.2,5.47,1.79,8.16.47,2.16.94,4.32,1.4,6.48.27,1.27.54,2.53.81,3.8.15.7.81,1.02,1.45,1.1,1.06.13,2.21.44,3.27.31.8-.1,1.6-.26,2.4-.38,2.28-.36,4.57-.73,6.85-1.09,1.9-.3,1.09-3.19-.8-2.89-2.21.35-4.42.71-6.63,1.06-.84.13-1.74.39-2.58.41.33-.01.39,0,0-.09-.31-.07-.64-.08-.95-.12l-1.56-.2,1.45,1.1c-1.13-5.29-2.28-10.58-3.44-15.87l-.4-1.85c-.04-.16-.06-.34-.11-.5-.17-.54.23.15-.04.55.13-.19.12-.66.16-.87l.37-2.03c.55-3.01,1.15-6.03,1.64-9.05.12-.75,0-1.48-.06-2.23l-.44-5.27c-.17-1.99-.46-4-.37-6l.48-9.92c.1-2.08-.29-4.18-.51-6.25-.25-2.3-.6-4.62-.73-6.94-.18-3.15-.23-6.31-.35-9.46-.17-4.73.01-9.48-.17-14.21s-.8-9.34-.86-14.03c-.07-5.47-.1-10.91.03-16.39s.57-10.72,1.02-16.1c.17-2.07-.37-4.01-.75-6.05l-1-5.32-.33-1.75c-.03-.14-.04-.31-.08-.44-.18-.51-.29.85.03.49.38-.43.56-1.43.77-1.97l.65-1.67-1.85,1.05c.69.28,1.43.7,2.15.87.52.12,1.16-.04,1.68-.12l6.24-.9c1.54-.22,3.1-.52,4.65-.67-.87.08.4.03.66.03l2.88-.06c3-.07,6.07-.35,9.06-.05l6.35.65c1.37.14,2.82.44,4.2.43s2.87-.37,4.26-.55l6.41-.83c2.94-.38,6.08.19,9.02.38,1.31.08,2.96.48,4.27.19,1.38-.3,2.76-.97,4.09-1.44l6.09-2.14c.29-.1.58-.19.87-.3.1-.04.63-.18.18-.11-.41.07.03.03.16.04.32.03.65.03.97.05l6.56.35c1.38.07,3.03.43,4.4.16s2.73-.81,4.06-1.2l6.14-1.82,1.2-.36-1.46-.39c2.32,2.85,4.66,5.68,7.04,8.48l-.44-1.06c-.18,4.25-.48,8.51-.43,12.76.03,2.91-.01,5.83.1,8.73.08,2.06.52,4.14.8,6.18l.62,4.49c.04.3.11.62.13.92-.03-.86-.09.09-.11.3l-.76,8.78c-.15,1.73-.02,3.41.06,5.16l.25,5.05.1,1.95c.02.31-.07.89.06,1.18s.1-.55.03-.04c-.07.47-.14.95-.21,1.42l-.69,4.73c-.3,2.06-.76,4.16-.88,6.24-.24,4.4-.15,8.83-.26,13.24-.12,4.67-.28,9.34-.21,14.02.04,2.8,0,5.63.13,8.43.09,1.93.99,3.98,1.5,5.83l1.28,4.61.44,1.57c.04.15.07.32.13.47.12.29-.07.29,0-.18-.4,2.43-.33,5.03-.49,7.48l-.26,3.93c-.02.3-.13.94.01.22-.05.28-.1.56-.16.84l-1.67,8.92-.42,2.26c-.35,1.89,2.54,2.7,2.89.8h0Z"/>
  </g>
  <g>
    <path d="m817.51,201.65c5.18-.21,10.35-.49,15.54-.4,5.96.1,11.91.23,17.87.36,2.23.05,4.33-.3,6.54-.62,2.55-.37,5.22-.54,7.72-1.15,3.2-.78,6.37-1.73,9.55-2.59,2.16-.58,4.34-.91,6.54-1.3l5.75-1c.32-.06,1.32-.16.54-.11.48-.03.97-.09,1.45-.14l10.17-.98c1.9-.18,1.92-3.18,0-3-5.22.5-10.43.89-15.59,1.79-2.69.47-5.44.81-8.1,1.42-3.11.71-6.18,1.67-9.25,2.51-2.06.56-4.06.86-6.18,1.16l-5.59.8c-.58.08-1.16.17-1.74.25-.71.1.48.05-.24-.02-3.28-.3-6.66-.15-9.95-.22-2.26-.05-4.53-.09-6.79-.13-6.1-.11-12.13.11-18.23.36-1.92.08-1.93,3.08,0,3h0Z"/>
    <path d="m817.06,201.27c-.25,2.34-.5,4.68-.75,7.02-.2,1.88-.74,4.01-.49,5.89.37,2.68.74,5.36,1.11,8.04.17,1.2.3,2.42.5,3.62.15.89-.11,0,.06-.28-.13.22-.13.69-.17.93-.53,2.89-1.07,5.77-1.6,8.66-.31,1.65-.56,3.05-.48,4.71l.44,9.02c.08,1.56-.07,2.91-.27,4.47-.37,2.92-.75,5.85-1.12,8.77-.21,1.64.48,3.31.86,4.89.67,2.75,1.26,5.54,2.03,8.27.13.47-.03.35.04.02-.06.29-.02.64-.03.94l-.15,4.08c-.34,9.18-.39,18.32.12,27.49.25,4.55.55,9.1.88,13.65.14,1.96.31,3.91.4,5.87.06,1.27-.22,3.26.59,4.32.65.85,1.47,1.61,2.19,2.41s1.46,1.6,2.19,2.41c.36.39.96.52,1.46.39,3.02-.83,6.03-1.67,9.05-2.5l2.19-.6c.39-.11.99-.14.34-.14,1.3,0,2.61-.12,3.9-.18l6.03-.28c.93-.04,1.89-.02,2.8-.18,3.31-.57,6.6-1.33,9.89-1.99.61-.12,1.22-.23,1.83-.37.64-.15-.42-.09.16.01,1.47.28,3.07.23,4.56.35,2.63.2,5.28.52,7.92.58,3.52.09,7.04.12,10.55.18,2.4.04,4.79-.3,7.18-.53,2.52-.24,5.11-.32,7.59-.82l10.55-2.13.96-.19-1.69-.69.15.2c.52.7,1.68,1.12,2.36.3s1.5-1.68,2.14-2.58.39-1.89.34-2.94l-.49-8.94c-.09-1.72-.3-3.44-.47-5.15l-.49-4.97-.17-1.71c-.03-.27,0-1.19-.13-.36.6-4.25,2.13-8.43,2.41-12.71l.6-8.91c.06-.84.21-1.73.09-2.56s-.31-1.6-.47-2.4l-1.69-8.67c-.05-.26-.06-1.03-.07-.22,0-.29-.02-.59-.03-.88l-.16-4.21-.18-4.71c-.02-.49-.02-.98-.06-1.46,0-.11,0-.24-.01-.35-.04-.21-.09.57-.04.23.38-2.64.77-5.28,1.16-7.92.27-1.86.67-3.61.41-5.47l-1.28-9.01c-.06-.46-.13-.91-.19-1.37-.09-.62-.1.14.02-.05.13-.21.09-.79.11-1.03l.23-2.11c.3-2.74.79-5.52.91-8.28.03-.61-.19-1.15-.37-1.74l-1.31-4.29-1.33-4.35c-.14-.45-.26-.92-.42-1.37-.04-.11-.06-.22-.1-.33-.07-.17-.06.54.04.23.29-.92.1-2.29.15-3.24l.22-4.84c.05-1.13.18-2.28.15-3.41-.02-.92-.56-1.82-.9-2.66l-1.31-3.22c-.25-.61-.73-1.12-1.45-1.1-3.53.1-7.09-.55-10.59-.92-1.92-.21-1.9,2.8,0,3,3.51.38,7.06,1.02,10.59.92l-1.45-1.1,1.31,3.22c.24.58.42,1.25.73,1.8.29.51.13-.38.06.13-.17,1.12-.1,2.33-.16,3.46l-.22,4.84c-.08,1.73-.23,3.17.27,4.82l2.61,8.56c.13.42.25.85.39,1.27.04.12.05.27.12.38.16.27.02-.42-.03-.24-.26.84-.21,1.91-.31,2.78l-.93,8.44c-.19,1.73.39,3.69.64,5.39l.67,4.71c.1.68.03,1.83.35,2.45-.33-.65.08-1.05-.02-.63-.04.15-.04.31-.07.45l-.23,1.6-.68,4.63c-.27,1.83-.76,3.76-.76,5.61,0,2.75.21,5.52.32,8.26.06,1.68.12,3.25.44,4.89l1.7,8.73c.08.42.15.84.24,1.25.14.63.12-.29,0,.08-.31.89-.15,2.23-.21,3.17-.18,2.7-.48,5.43-.54,8.14-.01.57.1-.34.02-.06-.12.39-.16.81-.24,1.21l-.85,4.29-.88,4.44c-.13.67-.36,1.39-.38,2.07-.02.86.18,1.79.26,2.65l.47,4.77c.45,4.56.69,9.12.94,13.7l.12,2.26.44-1.06c-.71.86-1.43,1.72-2.14,2.58l2.36.3-.15-.2c-.43-.58-.98-.83-1.69-.69-3.07.62-6.14,1.24-9.21,1.86l-2.3.46c-.26.05-1.28.19-.44.11-1.23.1-2.46.23-3.68.35-2.86.27-5.77.72-8.64.8-3.37.09-6.78-.12-10.15-.18-2.29-.04-4.55-.23-6.84-.4l-5.82-.44c-.83-.06-1.59-.17-2.4-.02-3.42.64-6.82,1.38-10.23,2.06-.48.1-1.02.15-1.49.3-.3.1.44-.02.24-.03-.16,0-.33.02-.5.02l-5.09.23c-2.5.12-5.3-.12-7.73.55l-10.28,2.84-.95.26,1.46.39c-1.46-1.6-2.93-3.21-4.39-4.81l.44,1.06c-.4-8.81-1.14-17.61-1.62-26.42-.46-8.41-.18-16.85.13-25.27.06-1.52.31-3.12-.06-4.61l-1.98-8.07c-.27-1.08-.5-2.17-.8-3.24-.15-.55.08-.43-.06-.07.08-.2.06-.5.09-.71l1.06-8.3c.18-1.44.44-2.84.37-4.29l-.41-8.48c-.04-.77.16-2.05-.13-2.77-.08-.19-.13.55-.02.08.09-.39.15-.79.22-1.19l1.56-8.41c.15-.81.36-1.64.46-2.46.08-.7-.07-1.42-.17-2.12l-1.18-8.49c-.11-.83-.31-1.68-.35-2.52.03.65.04.25.09-.03.08-.43.09-.88.14-1.31l.92-8.65c.07-.66.14-1.31.21-1.97.2-1.92-2.8-1.9-3,0h0Z"/>
  </g>
  <path d="m1075.36,320.16c-5.41-3.2-10.76-6.47-16.08-9.8-.45-.28-1.07-.27-1.51,0-.84.51-1.69.99-2.51,1.52-.95.62-.95,1.47-1.12,2.51-.24,1.48-.13,2.9-.08,4.4l.24,6.83c.02.69-.05,1.48.47,2.02.62.64,1.59,1.06,2.33,1.54l-.74-1.3.37,3.2c.12,1.07,1.2,1.95,2.26,1.3,4.13-2.55,8.17-5.09,12.13-7.88,4.25-2.99,8.34-6.13,12.92-8.59,2.85-1.54,5.71-3.07,8.56-4.61l-1.82-.23c.6.47,1.15,1,1.88,1.23s1.46.42,2.19.62l-1.1-1.45c.17,3.3.34,6.59.5,9.89.03.61,0,1.28.1,1.88.06.38-.06.06.06-.16-.11.22-.19.47-.28.7-.63,1.54-1.25,3.09-1.88,4.63l2.74-.36c-.6-1.23-1.05-3.04-2.33-3.68-1.63-.81-3.36-1.47-5.03-2.2-3.44-1.5-6.87-3-10.31-4.5-1.75-.77-3.28,1.82-1.51,2.59,3.33,1.45,6.66,2.91,9.98,4.36l5.11,2.23c.12.05.39.24.52.23-.07,0-.55-.87-.32-.2.31.92.88,1.81,1.31,2.68.63,1.29,2.31.71,2.74-.36.63-1.54,1.25-3.09,1.88-4.63.42-1.04.3-1.91.24-3.03-.17-3.36-.34-6.72-.51-10.08-.03-.67-.44-1.26-1.1-1.45s-1.29-.4-1.94-.55c-.08-.02-.28-.13-.36-.1-.1.03.63.5.4.23-.22-.26-.57-.45-.84-.66-.55-.43-1.18-.58-1.82-.23-2.45,1.32-4.89,2.63-7.34,3.95-1.68.9-3.44,1.71-5,2.81-4.53,3.2-8.99,6.55-13.62,9.6-2.5,1.65-5.11,3.15-7.66,4.73l2.26,1.3c-.12-1.06-.18-2.14-.36-3.19-.24-1.35-1.7-1.92-2.77-2.61l.74,1.3c-.08-2.4-.17-4.8-.25-7.2-.04-1.14,0-2.32-.12-3.46,0-.09,0-.19,0-.28.05.65-.02.18.03-.12.1-.61.2-1.21.3-1.82l-.69.9,2.69-1.63h-1.51c5.33,3.33,10.68,6.6,16.08,9.8,1.66.99,3.18-1.61,1.51-2.59h0Z"/>
  <path d="m1026.08,359.6c.22-3.96.43-7.93.65-11.89.19-3.43.06-6.89.05-10.33v-2.99c0-.2.05-.51,0-.7-.09-.33-.12.52-.03.12.41-1.87.65-3.79.97-5.67l1.1-6.47c.03-.18.09-.36.09-.54-.01.38-.24.4.02.09.52-.61.93-1.33,1.39-1.98l4.38-6.25c.61-.87,1.28-1.7,1.75-2.65l2.96-6.03,1.5-3.07c.13-.26.31-.53.4-.81.18-.59-.06.2-.37.26.52-.1,1.23-.78,1.67-1.06l3.07-1.94,3.15-2c.58-.37,1.43-.72,1.92-1.21.25-.25-.31.02-.12.04.21.02.53-.11.73-.15l2.98-.6,7.25-1.46c.32-.06.64-.12.95-.19.22-.05.76-.09,0-.02.56-.05,1.12-.1,1.68-.14l7.32-.62c3.32-.28,6.56-.25,9.9-.21l3.66.04c.65,0,1.44.14,2.08.02.32-.06-.55-.13-.15-.02.25.07.52.1.77.15l2.98.56c3.37.64,6.79,1.14,10.12,1.97l6.76,1.68c1.68.42,3.37.96,5.08,1.27-.24-.04-.43-.25-.12,0,.25.21.55.37.82.55l2.69,1.8,6.02,4.03c2.84,1.9,5.95,3.42,8.95,5.08.61.34,1.22.72,1.85,1.02-.24-.12-.29-.35-.11-.01.17.3.45.58.66.85l4.42,5.71c.45.58.88,1.34,1.42,1.83.29.26-.2-.78-.27-.41-.04.24.15.67.2.91l1.54,6.98c.27,1.24.45,2.51.98,3.67.94,2.04,1.9,4.08,2.85,6.12,1.48,3.18,3.17,6.2,4.89,9.27l1.59,2.84c.12.21.23.55.4.72.31.32,0-.76-.13-.46-.26.56-.09,1.7-.12,2.31l-.19,3.8-.25,5.01c-.1,1.93,2.9,1.92,3,0l.27-5.38c.1-1.9.43-3.94.3-5.84-.04-.62-.36-1.08-.65-1.61l-1.56-2.8c-1.09-1.96-2.22-3.9-3.28-5.87-1.69-3.14-3.02-6.5-4.56-9.71-.2-.41-.01-.26,0,.02-.01-.22-.1-.46-.15-.67l-.68-3.1c-.49-2.22-.94-4.45-1.47-6.65-.3-1.27-1.41-2.32-2.19-3.33l-4.42-5.71c-.8-1.03-1.67-1.45-2.81-2.08l-6.55-3.62c-3.06-1.69-5.9-3.8-8.8-5.75-1.15-.77-2.41-1.94-3.74-2.39-1.7-.58-3.55-.88-5.29-1.32-3.23-.81-6.45-1.67-9.72-2.29l-7.47-1.41c-1.28-.24-2.6-.62-3.9-.69-4.01-.21-8.14-.23-12.15-.12-3.77.1-7.57.63-11.33.95-3.55.3-7.07,1.27-10.56,1.97-1.25.25-2.79.31-3.91.95-1.82,1.04-3.55,2.25-5.32,3.37-1.47.93-3.08,1.78-4.47,2.83-.55.41-.73.93-1.03,1.53l-1.43,2.92-3.04,6.2c-.49,1-1.19,1.87-1.83,2.78l-4.38,6.25c-.66.94-1.5,1.82-1.73,2.96-.82,4.06-1.46,8.19-2.09,12.28-.21,1.34-.07,2.76-.07,4.11v7.65c.01,3.38-.26,6.75-.45,10.12-.09,1.56-.17,3.13-.26,4.69-.11,1.93,2.9,1.92,3,0h0Z"/>
  <path d="m1061.64,299.95l.98.9,1.82-2.36c-.55-.36-1.1-.73-1.65-1.09l-.24-.16c-.17-.11-.36-.17-.56-.18-.2-.04-.4-.04-.6.03-.2.05-.37.14-.51.27-.16.11-.29.25-.39.42-.18.35-.28.77-.15,1.16l.15.36c.13.23.31.4.54.54.55.36,1.1.73,1.65,1.09l.24.16c.17.11.36.17.56.18.2.04.4.04.6-.03l.36-.15c.17-.09.32-.22.42-.39.09-.09.16-.2.19-.33.09-.18.14-.37.13-.58-.02-.39-.14-.79-.44-1.06l-.98-.9c-.29-.27-.66-.44-1.06-.44-.21,0-.4.04-.58.13-.19.06-.35.16-.48.31-.26.29-.46.66-.44,1.06s.14.79.44,1.06h0Z"/>
  <path d="m1083.81,297.44c.14.42.28.84.42,1.26l2.89-.8c-.17-.5-.34-.99-.51-1.49l-.07-.21c-.05-.2-.14-.37-.27-.51-.11-.16-.25-.29-.42-.39-.17-.11-.36-.17-.56-.18-.2-.04-.4-.04-.6.03-.36.12-.71.34-.9.69s-.28.77-.15,1.16c.17.5.34.99.51,1.49l.07.21c.05.2.14.37.27.51.11.16.25.29.42.39.17.11.36.17.56.18.2.04.4.04.6-.03.36-.12.71-.34.9-.69s.28-.77.15-1.16c-.14-.42-.28-.84-.42-1.26-.05-.2-.14-.37-.27-.51-.11-.16-.25-.29-.42-.39-.17-.11-.36-.17-.56-.18-.2-.04-.4-.04-.6.03-.36.12-.71.34-.9.69s-.28.77-.15,1.16h0Z"/>
  <path d="m1056.3,307.35c3.98-.05,8.05.17,12.02-.23l8.54-.85c1.63-.16,3.01.02,4.65.23,2.68.34,5.36.68,8.04,1.01,1.91.24,1.89-2.76,0-3-2.29-.29-4.59-.58-6.88-.87-1.65-.21-3.35-.62-5.01-.45-4.39.44-8.77,1.01-13.18,1.06l-8.17.1c-1.93.02-1.93,3.02,0,3h0Z"/>
  <path d="m863.06,243.54c-2.01.94-4.02,1.88-6.03,2.82-.6.28-.84,1.09-.69,1.69.23.94.32,2.31,1.27,2.81.48.25,1,.44,1.49.66l.77.34c.07.03.16.09.24.11.27.04-.29.25-.21-.19-.02.08.6.55.66.61l1.32,1.22,1.88,1.74c.56.52,1.57.63,2.12,0l1.46-1.67.98-1.12c.1-.11.22-.22.3-.35.17-.26-.12.13-.2.12.2,0,.6-.3.77-.39l1.4-.7,1.95-.97c.68-.34.99-1.43.54-2.05-1.17-1.62-2.33-3.26-3.52-4.87-.65-.87-1.93-1.02-2.92-1.31l-2.93-.85c-1.86-.54-2.65,2.36-.8,2.89l4.92,1.42-.9-.69c1.19,1.64,2.37,3.28,3.56,4.91l.54-2.05c-1.36.68-2.84,1.27-4.13,2.07-.63.39-1.11,1.16-1.59,1.7l-1.55,1.78h2.12l-3.43-3.16c-.98-.9-2.24-1.3-3.45-1.83l.69.9-.46-1.86-.69,1.69c2.01-.94,4.02-1.88,6.03-2.82.73-.34.92-1.4.54-2.05-.44-.75-1.32-.88-2.05-.54h0Z"/>
  <path d="m864.48,243.28c.56-1.28,1.13-2.56,1.69-3.84l1.13-2.58c.09-.2.27-.45.29-.67.05-.39-.28.31-.1.08,1.72-2.34,3.66-4.54,5.48-6.81h-2.12c1.58,1.45,3.15,2.9,4.73,4.35l1.26,1.16c.17.16.52.62.75.69.13.04-.33-.85-.27-.44.04.24.19.5.28.73l.61,1.58.69-1.69c-4.02,2.65-8.19,5.04-12.34,7.5-1.55.91-.45,3.01,1.16,2.74,3.21-.53,6.42-1.05,9.63-1.58.67-.11,1.36-.2,2.03-.33.1-.02.33,0,.42-.07-.21.15-1.17-.12-.36.06,1.58.35,3.22.54,4.82.8l-1.1-1.45.12,2.06c.04.69-.12,1.81.14,2.45-.03-.08.45-1.04.01-.25-.21.37-.38.77-.57,1.15l-.98,1.99,1.69-.69c-3.97-.88-7.95-1.76-11.92-2.64-1.27-.28-2.35,1.03-1.69,2.2,1.3,2.34,2.61,4.68,3.91,7.02l-.15-1.16-.61,2.69c-.03.12-.12.35-.11.48.02.35.03-.07.08-.13-.17.22-.33.45-.49.67-1.06,1.44-2.12,2.88-3.18,4.33l.9-.69-5.45,1.02,1.9,1.45c-.21-4.34-.6-8.61-1.06-12.94-.14-1.3-2.11-2.27-2.8-.76-1.3,2.85-2.6,5.7-3.9,8.55-.04.08-.23.37-.21.47-.06-.4.85-.62.3-.38-.72.32-1.4.81-2.07,1.2-1.33.77-2.66,1.55-3.99,2.32h1.51c-1.45-.89-2.89-1.78-4.34-2.66l.74,1.3.24-6.92-.74,1.3c2.62-1.58,5.24-3.17,7.87-4.75,1.26-.76.75-2.81-.76-2.8-3.27.03-6.63-.18-9.88.09,0,0,.51.17.06-.04-.36-.17-.78-.27-1.16-.4l-3.25-1.11-1.23-.42c-.96-.33.17,0,.16.21.02-.3-1.05-1.27-1.23-1.48-1.26-1.53-2.53-3.06-3.79-4.58l-.66,2.51c3.42-.52,6.85-1.05,10.27-1.57l-1.16-.15c2.95,1.82,5.9,3.63,8.86,5.45,1.19.73,2.44-.47,2.2-1.69-.49-2.54-.98-5.08-1.46-7.62l-.39,1.46,5.54-5.37-1.46.39,3.16.63-1.05-1.05c.86,2.67,1.73,5.34,2.59,8.01.59,1.83,3.49,1.05,2.89-.8-.86-2.67-1.73-5.34-2.59-8.01-.15-.48-.53-.94-1.05-1.05-.94-.19-1.89-.39-2.83-.57s-1.48.03-2.12.64c-1.54,1.45-3.04,2.95-4.56,4.42-.66.64-1.15,1.06-1.03,2.1.08.68.26,1.37.39,2.04.36,1.86.71,3.71,1.07,5.57l2.2-1.69c-2.63-1.62-5.25-3.23-7.88-4.85-.32-.19-.63-.44-.97-.6-.61-.28-1.17-.15-1.79-.06l-5.23.8-4.4.67c-1.23.19-1.29,1.74-.66,2.51,1.12,1.35,2.24,2.71,3.36,4.06.52.63,1.01,1.34,1.59,1.92.42.42.98.56,1.53.75,1.83.62,3.69,1.46,5.57,1.9,1.41.33,3.12.04,4.55.03l5.84-.05-.76-2.8c-2.56,1.55-5.19,3.01-7.69,4.65-1.22.8-.95,2.35-1,3.65l-.16,4.67c-.02.53.3,1.02.74,1.3,1.45.89,2.89,1.78,4.34,2.66.46.28,1.06.27,1.51,0,1.4-.81,2.8-1.62,4.2-2.44.98-.57,2.26-1.04,2.79-2.09,1.42-2.85,2.65-5.81,3.97-8.7l-2.8-.76c.46,4.32.85,8.59,1.06,12.94.05,1.03.91,1.63,1.9,1.45,1.71-.32,3.44-.57,5.13-.96,1.47-.35,2.52-2.52,3.36-3.67.49-.67,1.1-1.34,1.51-2.06.37-.65.44-1.5.61-2.22.2-.9.58-1.85.19-2.73-.26-.6-.65-1.17-.97-1.74-.98-1.76-1.95-3.51-2.93-5.27l-1.69,2.2c3.97.88,7.95,1.76,11.92,2.64.61.14,1.39-.08,1.69-.69l1.09-2.21c.32-.64.81-1.37.86-2.1.1-1.5-.18-3.1-.27-4.6-.04-.6-.44-1.34-1.1-1.45-1.63-.27-3.26-.56-4.89-.82-1.11-.18-2.21.12-3.31.3-3.31.54-6.62,1.09-9.93,1.63l1.16,2.74c4.15-2.45,8.32-4.84,12.34-7.5.51-.34.93-1.06.69-1.69-.37-.98-.65-2.33-1.34-3.14-.52-.61-1.22-1.13-1.81-1.67-1.66-1.53-3.32-3.06-4.98-4.58-.55-.5-1.6-.65-2.12,0-1.83,2.28-3.75,4.51-5.51,6.85-.76,1.01-1.16,2.36-1.66,3.51-.6,1.36-1.19,2.71-1.79,4.07-.77,1.75,1.81,3.28,2.59,1.51h0Z"/>
  <path d="m864.17,254.54c-.19,3.5-.38,7-.56,10.5-.14,2.6-.47,5.26-.34,7.87l.67,12.79c.06,1.16-.18,3.08.59,4.04s1.68,1.71,2.5,2.55c2.94,2.99,5.87,5.97,8.81,8.96.42.43,1.3.63,1.82.23,3.38-2.57,6.77-5.13,10.15-7.7,1.52-1.15.03-3.76-1.51-2.59-3.38,2.57-6.77,5.13-10.15,7.7l1.82.23c-3.77-3.84-7.54-7.67-11.32-11.51l.44,1.06c-.26-4.98-.52-9.96-.78-14.94-.22-4.12.27-8.28.49-12.39.12-2.27.24-4.54.37-6.8.1-1.93-2.9-1.92-3,0h0Z"/>
  <path d="m866.95,285.12c2.21-2.53,4.42-5.07,6.63-7.6.25-.28.78-.69.91-1.05-.13.34-.97.47-.46.3.25-.08.5-.19.74-.29l5.43-2.13c1.45-.57,2.91-1.14,4.36-1.71l-1.9-1.45c0,.08.07.3.03.34-.12.14.06-.2.06-.21-.03.06-.04.12-.07.18-.15.28-.24.61-.36.9l-1.24,3.1c-.63,1.59-1.27,3.17-1.9,4.76l1.05-1.05c-1.38.3-2.76.61-4.15.91l-2.51.55c-.08.02-.43.04-.49.11.11-.13.61-.06.1-.03-2.94.18-5.88.46-8.82.69l.76,2.8c4.4-2.33,9.03-4.42,13.12-7.26,1.58-1.09.08-3.69-1.51-2.59-4.1,2.83-8.72,4.92-13.12,7.26-1.27.68-.74,2.91.76,2.8,1.91-.15,3.81-.3,5.72-.45,1.51-.12,3.03-.15,4.51-.48,2.08-.46,4.21-.82,6.27-1.38.91-.25,1.16-.96,1.47-1.73l1.2-3.01,1.57-3.94c.32-.81.63-1.39.55-2.28s-.91-1.83-1.9-1.45c-3.15,1.23-6.29,2.47-9.44,3.7-.97.38-1.74.66-2.44,1.45l-3.87,4.44c-1.06,1.22-2.13,2.44-3.19,3.66-1.26,1.45.85,3.58,2.12,2.12h0Z"/>
  <path d="m544.08,1.71c1.03,4.11,2.06,8.23,3.09,12.34l.15-1.16-1.03,2.12c-.11.22-.49.74-.48.98-.02-.23.89-.61.08-.25-1.49.66-2.95,1.48-4.39,2.24-2.95,1.55-5.85,3.18-8.78,4.77-.64.35-1.29.68-1.92,1.04-.13.07-.27.13-.39.21-.02.01.52-.21.15-.06-1.45.61-2.91,1.22-4.36,1.83l-5.63,2.36c-.85.36-1.68.64-2.37,1.26-2.73,2.41-5.41,4.89-8.11,7.33-.96.87-.21,2.6,1.06,2.56,3.92-.13,7.96-.59,11.87-.27,4.3.35,8.61.65,12.9,1.09l8.75.91c1.51.16,2.8.01,4.33-.16,4.5-.49,8.93-.99,13.44-1.16,2.57-.09,5.14-.26,7.71-.28,1.86-.01,3.73.16,5.59.24,4.45.2,8.88.34,13.33.4s9.03.1,13.54.13c1.64,0,3.36.2,4.97-.17l8.23-1.86c.97-.22,2.06-.33,3-.68.61-.22-.98-.18-.45-.01.35.11.75.14,1.11.2l8.57,1.58c.77.14,1.54.33,2.32.43.69.09,1.39-.06,2.08-.15l8.81-1.07,1.94-.24c1.42-.17,2.11-1.94.76-2.8-2.06-1.29-4.13-2.59-6.19-3.88-1.56-.97-3.12-2.25-4.87-2.86-2.81-.98-5.64-1.87-8.46-2.81-.77-.26-1.56-.6-2.36-.78s-1.74-.19-2.58-.28c-2.88-.29-5.76-.59-8.64-.88l1.45,1.1c-.71-3.58-1.43-7.16-2.14-10.73-.58-2.93-1.53-5.79-2.33-8.66-.46-1.64-.91-3.27-1.37-4.91-.52-1.86-3.41-1.07-2.89.8.98,3.52,1.97,7.05,2.95,10.57.78,2.8,1.28,5.67,1.85,8.52l1.04,5.21c.14.69.82,1.04,1.45,1.1,2.44.25,4.89.5,7.33.75,1.1.11,2.2.27,3.3.34.47.03-.5-.2,0,.04.43.2.94.31,1.4.46l8.47,2.81c.34.11.69.25,1.03.34.3.08-.29-.14-.23-.1.1.07.21.13.31.2.96.66,1.99,1.25,2.98,1.87,2.33,1.46,4.67,2.92,7,4.39l.76-2.8-6.58.8-4.26.52c-.4.05-.81.07-1.2.15-.09.02-.24,0-.33.04-.16.07.51.09.26.05-2.44-.47-4.89-.9-7.33-1.35l-3.78-.7c-.66-.12-1.26-.27-1.92-.14-2.52.49-5.03,1.14-7.53,1.71l-3.66.83c-.22.05-.44.09-.65.15.76-.19.07-.05-.23-.06-4.26-.03-8.53-.02-12.79-.09s-8.73-.07-13.09-.27-8.83-.48-13.27-.32-8.83.33-13.26.82c-2.41.26-4.91.76-7.34.8-1.96.03-4.03-.41-5.98-.61-4.48-.46-8.95-.87-13.43-1.23-1.72-.14-3.47-.41-5.19-.38-2.76.04-5.53.18-8.29.27l-2.18.07,1.06,2.56c1.43-1.3,2.87-2.59,4.3-3.89l2.9-2.63c.3-.27.62-.53.9-.82.55-.57.04.09-.32.09.53,0,1.39-.58,1.87-.78l3.66-1.53c1.97-.83,3.95-1.65,5.92-2.48,1.48-.63,2.87-1.5,4.28-2.27l6.61-3.59c1.49-.81,3.02-1.56,4.53-2.33.84-.43,1.36-.74,1.79-1.61.45-.92,1.17-1.95,1.41-2.96.19-.76-.25-1.78-.43-2.51l-1.06-4.22-1.61-6.41c-.47-1.87-3.36-1.08-2.89.8h0Z"/>
  <g>
    <polygon class="cls-1" points="536.74 39.78 538.32 48.98 547 57.61 558.83 60.53 572.9 62.67 587.12 63.73 601.28 64.2 614.65 59.11 622.46 47.54 625.63 33.1 612.62 35.72 600.02 37.35 587.29 36.71 574.65 37.94 561.93 37.47 549.36 39.72 536.74 39.78"/>
    <path d="m535.29,40.17c.36,2.13.73,4.25,1.09,6.38.15.89.21,1.89.47,2.75.19.61.63.96,1.06,1.39l5.56,5.53c1.02,1.01,2.08,2.53,3.51,2.93,2.34.65,4.72,1.16,7.08,1.75,1.5.37,3,.82,4.51,1.1,4.45.82,8.97,1.37,13.45,2.04,4.01.6,8.15.67,12.19.97,3.62.27,7.23.36,10.86.48,2.02.07,4.13.32,6.15.2.49-.03.89-.22,1.34-.39l3.18-1.21,7.64-2.9c.55-.21,1.13-.39,1.66-.63.74-.34,1.04-.9,1.48-1.55l4.36-6.46,2.04-3.02c.34-.5.78-1.01.98-1.59.56-1.63.77-3.49,1.14-5.18l1.71-7.81.32-1.46c.25-1.16-.7-2.08-1.85-1.85-3.15.63-6.3,1.27-9.45,1.9-1.17.24-2.39.39-3.55.71.83-.23-.29.04-.56.07l-2.49.32-6.13.8c-1,.13-2.03.35-3.04.39-1.29.05-2.63-.13-3.92-.2l-6.27-.31c-2.37-.12-4.53.07-6.9.3-2.79.27-5.67.78-8.48.79-3.57.01-7.17-.26-10.74-.4-2.47-.09-4.79.46-7.23.89l-5.93,1.06c-.49.09-.99.14-1.47.26-.31.08.47,0,.22-.04-.16-.03-.35,0-.52,0l-11.05.05h-.98c-1.93.01-1.93,3.01,0,3l9.86-.04c1.06,0,2.16.08,3.21-.07,1.33-.2,2.64-.47,3.96-.71l6.07-1.09c.69-.12,1.38-.24,2.06-.37.13-.02.27-.05.4-.07-.16.03-.53,0-.19.06,1.44.28,3.11.11,4.58.17l6.11.23c2.42.09,4.77-.22,7.19-.45,2.6-.25,5.33-.81,7.94-.68l10.98.55c2.51.12,5.05-.46,7.53-.78s5.12-.56,7.63-1.07l11.03-2.22.92-.18-1.85-1.85c-.89,4.08-1.79,8.15-2.68,12.23-.12.57-.53,1.5-.46,2.08.04.3.2-.27.07-.15-.17.16-.29.43-.42.62l-3.99,5.91c-1.12,1.65-2.23,3.31-3.35,4.96l.9-.69c-2.99,1.14-5.99,2.28-8.98,3.41-1.34.51-2.92.89-4.18,1.59-.42.24.52.07-.17.02-.6-.05-1.21-.04-1.81-.06-6.35-.21-12.65-.44-18.98-.92l-5.79-.43c-.44-.03-.91-.12-1.36-.1-.31,0,.5.08.24.04-.17-.03-.34-.05-.51-.08l-11.1-1.68c-2.3-.35-4.5-.88-6.76-1.44l-5.88-1.45c-.41-.1-1.08-.42-1.51-.37-.22.02.63.51.53.31-.07-.15-.3-.3-.42-.42l-7.73-7.69c-.12-.12-.26-.31-.4-.4-.33-.2.19.87.29.46.11-.47-.23-1.36-.32-1.84l-1.03-6.02-.21-1.22c-.33-1.9-3.22-1.09-2.89.8Z"/>
  </g>
  <path d="m531.76,64c-3.75,2.24-7.49,4.48-11.24,6.72-3.04,1.82-5.85,4-8.73,6.07-1.69,1.22-3.39,2.43-5.08,3.65-1.56,1.12-.06,3.72,1.51,2.59,3.55-2.55,7.1-5.09,10.65-7.64,2.88-2.06,6-3.77,9.04-5.59,1.79-1.07,3.58-2.14,5.36-3.21,1.66-.99.15-3.58-1.51-2.59h0Z"/>
  <path d="m569.63,76.61c-1.56,7.45-3.14,14.88-4.89,22.29l-1.36,5.8c-.44,1.88,2.45,2.68,2.89.8,1.74-7.41,3.46-14.81,5.03-22.26.41-1.94.82-3.89,1.22-5.83s-2.5-2.69-2.89-.8h0Z"/>
  <path d="m603.87,78.83c1.31,3.5,2.6,7.02,3.94,10.51l2.92,7.59c.57,1.49,1.28,2.71,2.12,4.07,1.36,2.2,2.72,4.4,4.08,6.6,1.01,1.64,3.61.13,2.59-1.51-1.16-1.87-2.31-3.74-3.47-5.61-.6-.97-1.18-1.95-1.8-2.9-.2-.3-.31-.54-.1-.07-.12-.27-.21-.55-.32-.83-1.48-3.84-2.97-7.68-4.41-11.54-.89-2.37-1.77-4.73-2.66-7.1-.67-1.79-3.57-1.02-2.89.8h0Z"/>
  <path d="m625.61,69c2.01,2.5,4.02,4.99,6.03,7.49,1.62,2.02,3.73,3.59,5.68,5.29,4.09,3.57,8.38,7.04,12.93,10.01,2.97,1.94,5.98,3.8,8.97,5.7,1.63,1.04,3.14-1.56,1.51-2.59-2.7-1.72-5.41-3.44-8.11-5.16-2.24-1.43-4.33-3.08-6.46-4.66-1.16-.85-2.31-1.71-3.47-2.56-.2-.14.41.38.14.1-.15-.15-.33-.29-.49-.43l-1.83-1.6-4.53-3.96c-.57-.5-1.16-.96-1.64-1.54-2.21-2.73-4.41-5.47-6.61-8.21-1.21-1.5-3.32.63-2.12,2.12h0Z"/>
  <path d="m642.88,57.08c5.78-.13,11.56-.28,17.33-.52,5.4-.22,10.76-.04,16.16-.01,3.53.02,7.07.03,10.6.04,1.93,0,1.93-2.99,0-3-5.87-.02-11.74-.06-17.6-.15-5.31-.09-10.59.27-15.9.39-3.53.08-7.06.16-10.59.25-1.93.04-1.93,3.04,0,3h0Z"/>
</svg>