<?xml version="1.0" encoding="UTF-8"?>
<svg id="Camada_1" data-name="Camada 1" xmlns="http://www.w3.org/2000/svg" viewBox="0 0 159 362">
  <defs>
    <style>
      .cls-1 {
        fill: #fff;
      }

      .cls-2 {
        fill: #f0f;
      }

      .cls-3 {
        fill: #bf1ac4;
      }

      .cls-4 {
        fill: none;
        stroke: #000;
        stroke-miterlimit: 10;
        stroke-width: 2px;
      }
    </style>
  </defs>
  <g>
    <g>
      <path class="cls-1" d="m142.77,357.66c1.92,2.57,5.17,3.16,7.17.69s1.32-7.04.4-10.41c.17-.79,2.36,2,2.97,1.46.8-2.56.68-6.79-.33-9.22s-4.07-3.85-5.14-6.24c-1.06-2.34-1.79-4.99-2.52-7.53-1.31-4.57-1.5-9.47-3.04-13.92s-3.76-8.75-5.53-13.11c-.13-.29-.09,1.03-.2.74-1.21-3.76-3.03-7.33-4.23-11.1s-2.09-7.63-3.27-11.4-1.91-7.68-3.08-11.45c-1.16-3.77-3.09-7.32-4.24-11.1s-2.58-7.48-3.71-11.26-1.32-7.85-2.44-11.64-3.06-7.34-4.16-11.13-1.9-7.68-2.98-11.48-.69-8.01-1.76-11.82-1.62-7.74-2.67-11.55-4.32-7.01-5.35-10.82-.48-8.05-1.5-11.87-2.52-7.5-3.53-11.32c-1-3.82-1.85-7.68-2.83-11.51s-2.85-7.43-3.82-11.26-2.58-7.5-3.53-11.34-1.28-7.83-2.22-11.67-2.78-7.46-3.71-11.3-.52-8-1.43-11.85-1-7.81-1.89-11.66c-.06-.45-.36,1.44-.56,1.04-2.51-4.83-5.51-9.73-9.96-8.88-2.98.57-6.29,3.1-7.13,6.83s-.81,8.05-.42,11.9c.43,4.2,1.92,8.29,2.5,12.45s2.22,8.17,2.93,12.32.2,8.53,1.03,12.65,2.72,8.03,3.63,12.14,1.55,8.28,2.53,12.37,1.19,8.38,2.2,12.46,2.03,8.18,3.06,12.26c.9,3.57,1.66,7.17,2.56,10.74s3.73,6.65,4.63,10.22c.9,3.57-.8,7.79.1,11.36s3.81,6.63,4.7,10.2.45,7.47,1.34,11.04c1.2,4.76,3.59,9.22,5.02,13.87s1.57,10.01,3.72,14.31c.32.76-.95-2.47-.82-1.66,1.32,3.67,4.17,7,5.48,10.67s1.97,7.59,3.28,11.26,2.79,7.29,4.11,10.96,2.12,7.53,3.44,11.2,3.5,7.04,4.82,10.71c1.26,3.52,2.1,7.21,3.42,10.71s4.13,6.41,5.58,9.84,2.47,7.07,4.17,10.36,2.42,7.36,4.48,10.43c.2.25,1.36-1.84,1.5-1.55,2.51,5.52,3.76,11.82,7.55,15.95"/>
      <path d="m141.71,358.72c2.5,3.12,7.15,3.78,9.63.24,2.28-3.24,1.39-7.88.45-11.42l-.15,1.16c-.19.4-1.56.16-1.43.62.01.04.15.1.18.14.15.23.57.47.8.64.5.38,1.02.76,1.67.84,1.96.25,2.17-1.99,2.35-3.41.44-3.59.03-7.64-2.52-10.38-1.21-1.3-2.77-2.33-3.55-3.97-1.05-2.17-1.64-4.61-2.3-6.92-1.3-4.58-1.53-9.4-3.03-13.93-.84-2.55-1.93-5.01-3.03-7.46-.56-1.25-1.13-2.49-1.67-3.75-.45-1.02-.71-2.4-1.65-3.08-.81-.59-1.95.04-2.2.9-.04.15-.15.96-.11.81l2.51-.66c.51.49-.18-.9-.18-.9-.15-.42-.31-.84-.48-1.26-.36-.92-.74-1.84-1.12-2.76-.75-1.83-1.5-3.66-2.11-5.55-1.21-3.76-2.12-7.62-3.27-11.4s-1.9-7.68-3.08-11.45-3.05-7.31-4.24-11.1-2.6-7.47-3.71-11.26-1.29-7.46-2.29-11.12-2.97-7.35-4.15-11.14-1.95-7.65-2.98-11.45c-1-3.65-.86-7.42-1.61-11.11-.79-3.9-1.7-7.86-2.68-11.72-.84-3.32-2.69-5.94-4.33-8.89-1.87-3.36-1.84-6.92-2.15-10.65-.33-3.92-1.65-7.53-2.88-11.24s-2.14-7.6-3.06-11.45-2.08-7.55-3.48-11.28-2.31-7.39-3.55-11.05c-1.44-4.27-2.16-8.57-2.94-12.99s-2.47-8.33-3.8-12.55-1.02-8.56-1.8-12.87c-.39-2.17-.84-4.3-1.12-6.49-.26-2.02-.33-4.37-1.02-6.3-.35-.97-1.72-1.6-2.51-.66-.23.27-.34.51-.47.83-.15.39-.42.67,0,.33h2.12c-.4-.36-.68-1.36-.97-1.87-.39-.68-.79-1.36-1.22-2.01-.86-1.29-1.82-2.57-3-3.58-2.09-1.79-4.68-2.47-7.33-1.58s-4.84,2.68-6.15,5.05c-1.56,2.84-1.71,6.49-1.73,9.66-.02,3.74.46,7.4,1.31,11.03s1.43,7.6,2.41,11.32,2.1,7.14,2.33,10.9.12,7.58,1.09,11.3,2.45,6.99,3.28,10.6c.88,3.82,1.46,7.71,2.33,11.53.84,3.69,1.23,7.44,1.93,11.16.74,3.91,1.86,7.76,2.82,11.62s1.85,7.7,2.77,11.55c.39,1.64.8,3.19,1.51,4.72s1.59,2.92,2.35,4.39,1.36,2.89,1.45,4.52c.1,1.77-.21,3.54-.35,5.3-.27,3.45.59,6.26,2.27,9.25.86,1.52,1.84,3.03,2.41,4.69.7,2.01.77,4.17.9,6.27.26,4.21,1.27,7.95,2.82,11.86s3.06,7.6,3.88,11.69c.73,3.69,1.31,7.34,2.95,10.76.73,1.52,3.29.45,2.74-1.16-.26-.75-.6-2.06-1.25-2.57-.94-.74-2.06-.45-2.51.66s.9,3.09,1.38,3.99c.87,1.64,1.89,3.2,2.79,4.83,1.86,3.38,2.58,7.16,3.6,10.85s2.57,7.38,3.95,11.02,2.5,7.58,3.65,11.42,2.79,7.07,4.45,10.55,2.63,7.38,3.82,11.13c.52,1.64,1.07,3.28,1.87,4.8.88,1.69,2,3.23,3.02,4.83,2.04,3.21,3.04,6.84,4.46,10.34.77,1.9,1.77,3.7,2.5,5.62s1.28,3.7,2.07,5.49c.52,1.17,1.28,3.52,2.93,3.3.56-.08.91-.42,1.27-.82.14-.16.92-1.1.68-.96h-1.51c-.58-.3-.06.46.03.67.15.37.3.74.45,1.12.29.75.57,1.5.85,2.26.52,1.42,1.03,2.84,1.6,4.23,1.11,2.71,2.42,5.26,4.38,7.46,1.29,1.44,3.4-.68,2.12-2.12-2.88-3.23-4.14-7.52-5.63-11.5-.37-.98-.75-1.95-1.15-2.91-.33-.78-.58-1.7-1.48-1.95-1.48-.41-1.98,1.43-2.55,1.75l1.16-.15-.06-.02.9.69c-1.72-2.69-2.46-5.81-3.69-8.73-1.29-3.07-2.63-6.08-3.81-9.21s-2.63-5.65-4.39-8.36c-1.89-2.92-2.92-6-3.91-9.33s-2.03-6.53-3.54-9.64-3-6.24-4-9.62-1.94-6.79-3.18-10.11-2.61-6.57-3.7-9.93c-1.19-3.67-1.8-7.54-3.28-11.12-.69-1.67-1.61-3.23-2.53-4.78-.43-.73-.87-1.45-1.27-2.19-.2-.37-.4-.73-.58-1.11-.12-.24-.5-1.59-.73-1.01l-2.51.66c-.39-.31.11.34.24.64.08.2.17.4.24.61l2.74-1.16c-1.37-2.84-1.87-5.96-2.46-9.02-.65-3.43-1.64-6.66-2.94-9.9s-2.83-6.56-3.47-10.04-.22-7.07-1.25-10.46c-.89-2.95-2.87-5.37-4.05-8.19-1.27-3.03-.46-6.12-.32-9.27s-.99-5.93-2.54-8.71c-.7-1.26-1.46-2.5-1.98-3.85-.68-1.77-1.01-3.71-1.44-5.55-.85-3.66-1.75-7.31-2.66-10.95s-1.97-7.31-2.6-11.03c-1.23-7.22-2.43-14.46-4.07-21.61-.77-3.36-2.13-6.53-3.07-9.84-1-3.54-.98-7.08-1.16-10.72s-1.05-7.12-2.03-10.65-1.43-7-2.26-10.5c-.94-3.95-1.73-7.79-1.79-11.87-.04-3.37-.1-7.65,2.28-10.32,1.8-2.02,4.84-3.5,7.33-1.82,1.3.88,2.28,2.22,3.13,3.52.47.73.91,1.48,1.33,2.24.36.65.65,1.56,1.21,2.06.65.59,1.46.53,2.12,0,.29-.23.43-.61.55-.94.17-.47.53-.96-.09-.22l-2.51-.66c.63,1.77.71,3.93.95,5.78.26,2,.55,3.98.97,5.95.79,3.73.53,7.59,1.31,11.32s2.67,7.47,3.69,11.31,1.32,7.79,2.22,11.64,2.49,7.53,3.53,11.36c.99,3.67,2.59,7.11,3.67,10.74,1.17,3.95,1.95,8.02,2.98,12s2.47,7.51,3.52,11.33.64,7.63,1.42,11.41c.68,3.29,2.66,5.93,4.27,8.81,1.92,3.43,2.33,7.5,3.18,11.29.39,1.77.96,3.51,1.25,5.31.32,1.93.38,3.9.6,5.84.45,3.93,1.71,7.79,2.68,11.62s2.25,7.29,3.71,10.89,2.24,7.52,2.95,11.49,2,7.49,3.26,11.18c.72,2.1,1.32,4.25,2.1,6.34s1.66,4,2.45,6.01c1.65,4.17,2.47,8.57,3.69,12.88,1.25,4.42,2.41,8.91,3.84,13.28.67,2.06,1.51,4.05,2.33,6.05.41,1,.82,2,1.19,3.01.29.77.44,1.89,1.05,2.48.79.76,2.23.46,2.51-.66.04-.16.15-.94.11-.81l-2.2.9.05.03-.69-.9c1.86,4.54,4.2,8.92,5.69,13.6s1.75,9.53,3.09,14.19c.65,2.25,1.3,4.51,2.24,6.65.78,1.78,2.12,2.99,3.49,4.31s2.12,2.73,2.38,4.69.19,3.92-.35,5.78l.69-.9c.85-.44,1.17.16.39-.42-.32-.24-.62-.51-.94-.75-.46-.34-.94-.65-1.53-.64-2.56.05-1.2,3.35-.97,4.74.32,1.9.59,4.41-.54,6.1-1.46,2.2-3.79,1.12-5.13-.55-1.21-1.51-3.32.63-2.12,2.12h0Z"/>
    </g>
    <g>
      <path class="cls-1" d="m92.69,358.95c1.92,2.57,6.75,1.76,8.75-.71s1.3-6.96.38-10.33c.17-.79,1.89,1.31,2.5.78.8-2.56,1.55-6.16.53-8.6s-3.9-3.93-4.97-6.32c-1.06-2.34-1.51-5.01-2.23-7.55-1.31-4.57-3.56-8.8-5.09-13.25-1.55-4.49-1.38-9.69-3.15-14.05-.13-.29.22,1.01.11.71-1.21-3.76-2.38-7.46-3.58-11.23s-4.41-6.89-5.59-10.66-1.95-7.67-3.11-11.45c-1.16-3.77-3.34-7.24-4.49-11.02s-1-7.95-2.14-11.74-2.58-7.47-3.7-11.27-2.88-7.39-3.98-11.19c-1.1-3.79-1.63-7.75-2.71-11.55s-.36-8.11-1.43-11.91-2.4-7.53-3.45-11.34-4.47-6.97-5.51-10.78.29-8.26-.73-12.08-4.12-7.08-5.12-10.9c-1-3.82.32-8.25-.67-12.07-.99-3.82-2.51-7.51-3.48-11.34s-2.11-7.61-3.07-11.45-2.41-7.54-3.35-11.38-2.34-7.56-3.26-11.41c-.92-3.84-2.48-7.54-3.38-11.38s-.43-7.99-1.32-11.84c-.06-.45-.04,1.44-.25,1.04-2.51-4.83-5.67-11.22-10.12-10.38-2.98.57-5.84,4.58-6.68,8.31s-1.19,8.03-.8,11.88c.43,4.2,1.28,8.38,1.86,12.54s1.25,8.37,1.97,12.51,3.39,7.94,4.21,12.06,2.17,8.13,3.08,12.23.7,8.47,1.68,12.56,2.71,8,3.72,12.09.88,8.46,1.9,12.54c.9,3.57.87,7.37,1.77,10.94s2.75,6.9,3.64,10.46,1.31,7.26,2.21,10.83,3.69,6.66,4.58,10.23,1.37,7.24,2.27,10.81c1.2,4.76,1.79,9.69,3.22,14.34,1.46,4.77,4.16,8.96,6.31,13.27.32.76-.72-1.94-.58-1.13,1.32,3.67,1.63,7.43,2.94,11.1s3.1,7.18,4.42,10.85,2.21,7.5,3.52,11.17,1.09,7.9,2.41,11.57,4.43,6.7,5.75,10.37c1.26,3.52,2.64,7,3.95,10.51s1.97,7.29,3.42,10.71,3.28,6.76,4.98,10.05,3.11,6.92,5.16,10c.2.25,1.03-1.59,1.17-1.3,2.51,5.52,4.62,11.06,8.41,15.19"/>
      <path d="m91.63,360.01c2.51,3.05,7.58,2.35,10.27-.09,3.4-3.08,2.41-8.5,1.37-12.41l-.15,1.16c-.19.41-1.45.14-1.29.62.02.07.27.16.33.22.18.17.46.31.68.43.6.31,1.27.46,1.92.21,1.53-.59,1.7-3.49,1.9-4.87.27-1.85.33-3.8-.35-5.57-.61-1.59-1.81-2.8-3-3.99-1.45-1.45-2.27-2.79-2.86-4.77-.67-2.21-1.1-4.49-1.84-6.68-1.43-4.29-3.66-8.31-4.91-12.65-.7-2.41-.98-4.92-1.39-7.39-.32-1.93-.57-4.84-1.87-6.38-.79-.94-2.72-.22-2.56,1.06.05.4.14.79.22,1.19l2.74-1.16c-.45-.8-.62-2.01-.9-2.89s-.57-1.78-.85-2.67c-.61-1.92-1.16-3.88-1.85-5.78-1.17-3.23-3.49-5.8-4.92-8.89-1.68-3.63-2.2-7.87-3.31-11.7s-2.98-7.04-4.32-10.64-1.4-7.56-2.18-11.37-2.45-7.67-3.66-11.48-2.72-7.48-3.99-11.27-1.87-8.02-2.9-12.01c-.49-1.87-.81-3.65-.91-5.59s-.14-3.95-.48-5.9c-.69-4-2.35-7.87-3.48-11.76-.98-3.4-2.86-6.02-4.59-9.06-1.92-3.39-1.5-6.76-1.49-10.51s-1.21-6.77-3.06-9.98c-.9-1.56-1.87-3.12-2.4-4.85s-.5-3.7-.44-5.58c.06-1.77.16-3.53-.06-5.29-.26-2.05-.96-4.03-1.6-5.99-1.3-3.95-2.39-7.92-3.5-11.92-2.46-8.9-5.08-17.73-7.63-26.6-.63-2.17-1.13-4.37-1.81-6.53s-1.44-4.29-2.02-6.48c-1.13-4.27-.62-8.72-1.61-13.01-.34-1.49-2.48-1.36-2.89,0-.05.17-.11.46-.09.66.05.42-.24.51.3-.16h2.12c-.32-.34-.55-1.16-.79-1.62-.34-.64-.68-1.28-1.04-1.91-.76-1.34-1.59-2.64-2.55-3.84-1.46-1.82-3.43-3.49-5.87-3.57-2.83-.1-5.15,1.98-6.69,4.14-1.89,2.65-2.61,5.7-3.04,8.88-1.03,7.63.73,15.02,1.8,22.54.55,3.89,1.11,7.8,1.85,11.66.66,3.48,2.48,6.54,3.61,9.87.55,1.63.83,3.33,1.24,5,.51,2.04,1.09,4.06,1.63,6.09,1,3.8,1.38,7.54,1.79,11.43s1.44,7.23,2.65,10.78,2.21,7.24,2.62,11.1,1.29,7.43,1.76,11.18.96,7.22,2.31,10.72,2.52,6.81,3.21,10.49,1.09,7.09,2.68,10.34c.83,1.7,1.87,3.29,2.64,5.03.83,1.87,1.15,3.96,1.54,5.96.82,4.21,1.82,8.38,2.64,12.58s1.65,8.23,3.32,12.12c1.5,3.49,3.43,6.8,5.18,10.16.78,1.5,3.26.47,2.74-1.16-.21-.66-.5-1.61-1.03-2.08-.9-.81-2.08-.4-2.51.66-.2.5.05,1,.18,1.48.25.88.53,1.75.75,2.64.48,1.94.83,3.9,1.36,5.83,1.03,3.77,2.83,7.27,4.28,10.88s2.42,7.42,3.61,11.14c.54,1.69,1.16,3.33,1.48,5.08.35,1.87.51,3.77.87,5.64.63,3.37,2.2,6.09,4.06,8.92,2.01,3.05,3.13,6.3,4.41,9.69,1.37,3.61,2.67,7.18,3.73,10.9s2.51,7.11,4.24,10.52c1.9,3.74,3.73,7.52,5.63,11.27.48.95.98,1.89,1.54,2.8.39.63.75,1.41,1.54,1.6.66.16,1.22-.11,1.67-.58.21-.22,1.06-1.29.53-.92h-1.51c-.45-.23-.09.31-.04.46.13.41.37.82.54,1.21.29.64.57,1.29.86,1.93.64,1.42,1.29,2.84,2,4.22,1.32,2.57,2.87,5,4.8,7.15,1.29,1.44,3.41-.69,2.12-2.12-2.05-2.28-3.57-4.94-4.91-7.69-.65-1.33-1.25-2.68-1.86-4.04-.45-1.02-.97-3.18-2-3.72-.45-.24-1.07-.31-1.51,0-.34.23-.55.47-.79.81-.14.2-.71.86-.26.54l1.16-.15-.07-.02.9.69c-1.86-2.85-3.17-5.99-4.68-9.03s-3.22-6.08-4.66-9.21-2.24-6.35-3.22-9.61-2.41-6.61-3.64-9.9c-1.14-3.04-2.27-5.79-4.06-8.5-1.68-2.56-3.06-4.95-3.63-8-.62-3.29-.93-6.47-2-9.66-1.13-3.35-1.96-6.79-3.16-10.12-1.29-3.59-3.02-7.01-4.32-10.59-.66-1.81-1.1-3.67-1.51-5.55-.2-.88-.38-1.77-.6-2.65-.11-.44-.22-.88-.35-1.32-.05-.17-.4-1.65-.58-1.2l-2.51.66c-.29-.26-.06.01.05.23.08.17.15.36.21.53l2.74-1.16c-1.47-2.82-3.05-5.6-4.42-8.48-1.52-3.2-2.44-6.56-3.17-10.03-.77-3.68-1.57-7.35-2.35-11.03-.7-3.31-1.02-6.85-2.21-10.03-1.12-2.98-3.22-5.54-4.08-8.62-.97-3.45-1.31-7.04-2.14-10.52s-2.39-6.44-3.42-9.74-1.13-7.06-1.78-10.58c-.31-1.68-.75-3.31-.97-5.01-.24-1.83-.38-3.67-.62-5.5-.48-3.63-1.63-7.02-2.8-10.47-1.15-3.4-1.99-6.73-2.32-10.31s-.81-7.25-1.77-10.86-1.62-6.97-2.63-10.36c-.95-3.21-2.73-6.11-3.57-9.36-.92-3.53-1.29-7.29-1.83-10.9s-1.15-7.4-1.71-11.1c-.59-3.91-.86-7.77-.39-11.72.42-3.51,1.27-7.14,3.96-9.64,2.35-2.18,4.57-1.12,6.39,1.08.99,1.2,1.79,2.57,2.55,3.93.65,1.17,1.16,2.79,2.09,3.76.52.54,1.62.62,2.12,0,.28-.35.4-.62.49-1.04.04-.18.23-1.3.07-.79h-2.89c.86,3.73.47,7.63,1.22,11.38.82,4.06,2.49,7.9,3.5,11.91,2.03,8.03,4.82,15.86,6.89,23.88,1.03,4,2.08,8.02,3.24,11.99s3.1,7.75,3.34,11.76c.22,3.66-.59,7.37.64,10.92,1.17,3.37,3.66,6.14,4.71,9.54,1.11,3.58.04,7.42.58,11.08.52,3.52,2.71,6.23,4.44,9.23.86,1.48,1.34,3,1.82,4.64.64,2.17,1.35,4.31,2.02,6.46.55,1.77,1.16,3.54,1.39,5.39.25,2.01.2,4.04.38,6.05.16,1.85.61,3.57,1.05,5.36.52,2.11.92,4.24,1.39,6.36.86,3.87,2.26,7.48,3.65,11.18s2.59,7.75,3.89,11.61c.65,1.93,1.28,3.85,1.64,5.86s.51,3.97.83,5.94c.71,4.41,2.89,8.15,4.51,12.24s2.33,8.6,3.64,12.85c1.17,3.8,3.9,6.67,5.42,10.28.85,2.01,1.38,4.19,2.04,6.27.34,1.07.68,2.13,1.02,3.2.32.99.53,2.17,1.03,3.07.87,1.56,3.04.45,2.74-1.16-.01-.07-.15-.7-.11-.39l-2.56,1.06c-.37-.44.23,1.08.29,1.29.14.49.26.99.37,1.49.24,1.1.42,2.2.6,3.31.36,2.3.67,4.62,1.37,6.85,1.41,4.51,3.73,8.68,5.1,13.21,1.22,4.03,1.65,8.16,4.7,11.29,1.25,1.29,2.7,2.47,3.02,4.34.37,2.17-.26,4.5-.89,6.57l.69-.9c.84.08,1.02.02.56-.19-.16-.1-.31-.2-.46-.3-.33-.2-.61-.42-.98-.54-.78-.26-1.64-.07-2.1.66-.57.9,0,2.04.2,2.97.24,1.13.41,2.26.43,3.41.04,2.11-.45,4.07-2.48,5.04-1.62.78-3.76.92-4.99-.57s-3.34.64-2.12,2.12h0Z"/>
    </g>
    <g>
      <path class="cls-1" d="m30.01,117.62c3.79-2.64,7.66-5.06,11.96-6.85s8.52-3.89,13.08-4.74c2.02-.38,4.28-.39,6.24.18s4.55,2.42,4.56,4.39c.02,2.1-2.75,3.7-4.54,4.92-3.24,2.19-7.08,3.1-10.72,4.6s-6.93,3.76-10.63,5.01c-2.83.95-5.51.52-8.25-.65s-4.02-3.53-1.34-4.82"/>
      <path d="m30.77,118.92c2.25-1.56,4.55-3.07,6.95-4.4s4.95-2.41,7.49-3.5c4.66-2.01,10.5-4.92,15.69-3.35,1.26.38,4.18,1.91,3.26,3.61-.47.86-1.42,1.49-2.2,2.03-.99.68-2,1.36-3.06,1.93-2.38,1.26-4.97,2.02-7.48,2.97s-4.74,2.13-7.05,3.33c-2.72,1.41-5.64,3-8.81,2.55-1.38-.19-2.95-.65-4.12-1.42-.29-.19-.97-.64-1.02-1.04-.03-.22.33-.44.72-.65,1.7-.91.19-3.5-1.51-2.59-2.55,1.36-2.87,4.18-.71,6.11,2.29,2.04,6.07,2.93,9.06,2.6,3.38-.37,6.49-2.24,9.45-3.78s6.12-2.64,9.28-3.85c2.86-1.1,5.52-2.53,7.93-4.43,2.08-1.63,3.58-4.04,2.07-6.61-3.4-5.77-11.65-4.33-16.81-2.51-7.32,2.58-14.27,6.01-20.64,10.43-1.57,1.09-.08,3.7,1.51,2.59h0Z"/>
    </g>
    <g>
      <path class="cls-1" d="m36.06,144.67c3.79-2.64,7.8-5.42,12.09-7.21s9.24-1.74,13.8-2.59c2.02-.38,4.07-.96,6.04-.39s3.54,2.22,3.56,4.19c.02,2.1-1.86,3.42-3.66,4.64-3.24,2.19-6.88,3.4-10.52,4.9s-6.74,4.34-10.44,5.58c-2.83.95-5.74-.02-8.49-1.18s-3.71-3.04-1.03-4.33"/>
      <path d="m36.81,145.96c4.25-2.96,8.73-6.33,13.78-7.77,2.57-.73,5.23-.99,7.87-1.31,1.15-.14,2.31-.29,3.45-.49,1.4-.25,2.8-.66,4.23-.65,1.85.01,4.81,1.54,3.67,3.84-.42.85-1.3,1.46-2.06,1.99-1.06.75-2.17,1.42-3.33,2.02-2.41,1.24-4.97,2.13-7.47,3.17-2.15.9-4.09,2.15-6.07,3.36-2.5,1.53-5.04,2.98-8.08,2.38-1.48-.29-3.07-.83-4.39-1.56-.27-.15-.96-.46-1.05-.8-.03-.12,0-.11-.03-.05.07-.22.66-.43.82-.52,1.71-.9.19-3.49-1.51-2.59-2.59,1.36-3.07,4.08-.66,5.93,1.11.86,2.49,1.36,3.81,1.83,1.69.6,3.53,1.04,5.34.9,3.07-.23,5.79-2.01,8.34-3.6,2.72-1.69,5.52-2.87,8.48-4.08,4.21-1.73,13.42-5.43,10.58-11.55-1.29-2.77-4.41-3.9-7.3-3.64-1.53.14-3.02.53-4.53.78-1.76.29-3.54.46-5.31.69-3.71.48-7.1,1.35-10.45,3.05s-6.52,3.9-9.63,6.07c-1.57,1.1-.07,3.7,1.51,2.59h0Z"/>
    </g>
    <g>
      <path class="cls-1" d="m44.09,174.04c3.79-2.64,7.99-4.8,12.28-6.59s8.64-3.9,13.2-4.75c2.02-.38,4.56-.47,6.52.1s4.01,3.03,4.03,5c.02,2.1-1.56,4.93-3.35,6.15-3.24,2.19-7.31,3.34-10.95,4.84s-7.49,2.42-11.2,3.67c-2.83.95-5.91,1.23-8.65.06s-4.34-5.8-1.66-7.09"/>
      <path d="m44.85,175.33c4.87-3.36,10.19-5.7,15.61-8.01,2.8-1.19,5.65-2.34,8.64-3,2.23-.49,5.55-1.01,7.55.41.84.59,1.64,1.54,1.9,2.56s-.16,2.11-.62,3c-1.21,2.34-3.5,3.45-5.83,4.46-5.52,2.39-11.25,4.12-16.97,5.97-2.69.87-6.39,1.94-8.99.18-1.03-.7-2.68-3.3-1.06-4.17,1.7-.92.18-3.51-1.51-2.59-2.35,1.27-2.5,4.08-1.51,6.3,1.19,2.67,3.65,3.93,6.47,4.26,3.68.42,7.1-1.02,10.56-2.06s6.91-2.35,10.35-3.64c3.09-1.16,6.72-2.29,9.16-4.61,1.91-1.81,3.49-4.92,2.92-7.6s-3.06-5.09-5.78-5.63c-3.36-.67-6.83-.04-10.05.97-3.87,1.21-7.6,2.93-11.31,4.54s-7.57,3.67-11.04,6.06c-1.58,1.09-.08,3.69,1.51,2.59h0Z"/>
    </g>
    <g>
      <path class="cls-1" d="m54.6,201.57c3.79-2.64,7.53-5.54,11.82-7.32s8.74-3.54,13.31-4.39c2.02-.38,4.39-.21,6.36.37s2.18,2.6,2.2,4.57c.02,2.1-1.21,2.54-3,3.75-3.24,2.19-5.97,5.04-9.62,6.55s-7.14,3.32-10.85,4.57c-2.83.95-6.17,1.43-8.91.26s-3.74-5.36-1.06-6.64"/>
      <path d="m55.36,202.87c2.26-1.58,4.48-3.23,6.82-4.69s5-2.66,7.66-3.72,5.43-2.03,8.24-2.72c1.32-.32,2.61-.59,3.97-.59,1.12,0,2.92,0,3.9.62.73.47.78,1.54.82,2.32.05,1.02.01,1.6-.82,2.22-2.01,1.5-4.07,2.94-6.07,4.46-2.23,1.7-4.57,2.81-7.12,3.94-2.68,1.19-5.33,2.46-8.11,3.41-2.47.84-5.92,1.69-8.36.3-1.26-.72-2.31-2.98-.68-3.86s.19-3.51-1.51-2.59c-2.18,1.18-2.78,3.75-1.92,5.97,1.02,2.6,3.42,3.79,6.09,4.08,3.48.38,6.86-.78,10.03-2.09,1.57-.65,3.13-1.35,4.68-2.05,1.65-.74,3.37-1.37,4.96-2.22,2.94-1.59,5.35-3.96,8.11-5.83.94-.64,2-1.19,2.74-2.07.89-1.06,1.05-2.34.99-3.68-.06-1.22-.23-2.49-.89-3.55-.9-1.43-2.46-1.88-4.04-2.14-3.45-.58-6.74.13-10.04,1.13-3.77,1.14-7.6,2.55-11.11,4.33s-6.64,4.17-9.85,6.41c-1.57,1.1-.07,3.7,1.51,2.59h0Z"/>
    </g>
    <g>
      <path class="cls-1" d="m63.07,230.5c3.79-2.64,6.51-7.39,10.81-9.18s9.4-1.23,13.97-2.09c2.02-.38,4.32-2.13,6.29-1.56s3.76,3.2,3.78,5.17c.02,2.1-1.95,4.06-3.74,5.27-3.24,2.19-6.74,4.15-10.38,5.66s-7.59,2.12-11.29,3.37c-2.83.95-6.34,2.87-9.08,1.71s-3.82-7.15-1.14-8.44"/>
      <path d="m63.83,231.79c4.3-3.08,7.07-8.29,12.44-9.69,3.02-.78,6.17-.72,9.25-1.05,1.39-.15,2.79-.3,4.1-.8,1.15-.43,2.57-1.36,3.84-1.2,1.06.13,1.89,1.17,2.38,2.03.65,1.14.74,2.21.02,3.34-.79,1.23-2,2.09-3.2,2.88-1.39.92-2.82,1.78-4.29,2.58-2.82,1.55-5.74,2.84-8.84,3.72s-6.13,1.54-9.09,2.68c-2.03.78-5.78,2.66-7.37.27-.74-1.11-1.57-4.03-.04-4.87,1.7-.92.19-3.51-1.51-2.59-2.22,1.21-2.54,3.98-2.11,6.23.49,2.57,2.17,4.87,4.87,5.28,3.5.52,6.87-1.55,10.12-2.51,3.77-1.11,7.57-1.91,11.19-3.5s7.04-3.43,10.09-5.76c2.62-2,4.6-4.96,3.23-8.29-1.21-2.94-3.96-5.12-7.23-4.27-1.59.42-3.01,1.29-4.65,1.57-1.86.32-3.75.38-5.63.52-3.92.29-7.83.85-11.03,3.29-2.93,2.24-5.05,5.38-8.05,7.53-1.56,1.11-.06,3.72,1.51,2.59h0Z"/>
    </g>
    <g>
      <path class="cls-1" d="m70.34,257.69c3.79-2.64,7.58-5.4,11.88-7.19s8.78-3.19,13.34-4.04c2.02-.38,4.36-.89,6.32-.31s4.37,2.78,4.38,4.75c.02,2.1-2.33,4.21-4.12,5.42-3.24,2.19-6.98,3.67-10.62,5.18s-7.11,3.48-10.81,4.73c-2.83.95-5.82-.18-8.56-1.34s-3.75-3.18-1.07-4.47"/>
      <path d="m71.1,258.99c4.5-3.14,8.93-6.13,14.11-8.06,2.62-.98,5.3-1.8,8.03-2.44,2.41-.57,5.38-1.5,7.86-.99,1.57.32,4.15,2.13,3.57,3.99-.66,2.13-3.32,3.65-5.12,4.68-2.3,1.32-4.75,2.36-7.2,3.38s-4.92,2.17-7.36,3.3c-2.77,1.29-5.51,2.72-8.62,1.95-1.47-.36-3.05-.9-4.36-1.66-.3-.17-.92-.52-1-.91.01.06.53-.37.82-.52,1.71-.9.19-3.49-1.51-2.59-2.47,1.3-3.08,3.96-.87,5.87,1.13.97,2.6,1.5,3.97,2.02,1.63.61,3.38,1.1,5.14,1.07,3.18-.05,6.36-1.9,9.17-3.22,3.1-1.46,6.28-2.71,9.4-4.12,4.06-1.84,13.1-6.23,10-12.09-3.36-6.36-11.51-3.98-16.97-2.48-3.67,1.01-7.35,2.27-10.75,3.97s-6.65,4.03-9.84,6.25c-1.57,1.1-.07,3.7,1.51,2.59h0Z"/>
    </g>
    <g>
      <path class="cls-1" d="m77.7,285.01c3.79-2.64,8.55-3.58,12.84-5.37s8.46-3.56,13.03-4.41c2.02-.38,3.88-.41,5.85.16s5.12,1.59,5.14,3.56c.02,2.1-3.3,3.39-5.09,4.61-3.24,2.19-7,3.1-10.64,4.6s-7.15,3.03-10.86,4.28c-2.83.95-5.37,2.07-8.12.9s-4.39-5.26-1.71-6.55"/>
      <path d="m78.46,286.3c2.36-1.6,5-2.57,7.68-3.48s5.2-1.92,7.78-2.97c2.83-1.15,5.71-2.22,8.69-2.9,2.73-.63,5.16-.6,7.82.32.76.26,1.9.62,2.4,1.28.46.61-.06,1.06-.58,1.49-.76.64-1.68,1.09-2.54,1.6-1.08.63-2.1,1.35-3.23,1.91-2.52,1.26-5.25,2.02-7.85,3.08-2.81,1.14-5.58,2.35-8.42,3.41-1.59.6-3.2,1.17-4.83,1.68-1.51.48-3.16.91-4.7.33-1.17-.44-3.63-2.97-1.78-3.97,1.7-.92.18-3.51-1.51-2.59-2.43,1.32-2.54,4.23-1.25,6.42,1.56,2.65,4.54,3.73,7.5,3.31,1.63-.23,3.17-.81,4.72-1.34,1.91-.66,3.8-1.37,5.68-2.13,3.34-1.35,6.67-2.7,10.05-3.96,2.95-1.1,5.55-2.6,8.25-4.2,2-1.2,4.45-3.1,3.5-5.76-.84-2.35-3.86-3.28-6.03-3.89-3.56-.99-7.21-.22-10.67.83-3.9,1.18-7.56,2.97-11.39,4.33s-7.54,2.39-10.82,4.62c-1.59,1.08-.09,3.68,1.51,2.59h0Z"/>
    </g>
  </g>
  <g>
    <polygon class="cls-3" points="60.5 103.5 73.76 95.1 73.76 59.18 66.96 34.95 62.26 14.27 55.3 8.83 50.22 8.83 47.49 9.7 43.81 13.51 42.38 19.98 44.08 31.65 46.18 43.97 51.03 69.62 55.91 89.93 60.5 103.5"/>
    <polygon class="cls-2" points="124.27 77.15 109.51 56.5 95.87 52.01 78.9 53.47 73.76 59.18 67.94 66.33 65.08 81.02 62.26 97.76 62.26 104.43 52.61 106.29 42.37 110.95 40.76 114.53 43 118.48 49.65 118.48 58.44 122.05 70.13 122.5 70.13 127.85 74.5 138.52 78.9 145.02 81.97 150.35 77.86 157.76 70.13 166.83 66.96 181.5 65.08 189.38 65.08 200.72 70.13 211.79 73.76 218.16 78.87 221.42 81.97 220.54 85.31 216.13 88.64 209.98 87.28 199.47 88.47 194.9 89.35 189.38 92.79 187.09 97.22 177.62 100.13 171.41 103.07 163.89 101.82 173.76 104.25 181.5 108.84 194.9 113.65 199.47 114.19 204.51 117.03 208.56 121.61 214.07 126.98 217.44 129.97 221.42 134.55 223.84 137.95 223.84 142.43 221.42 144.87 213.42 136.2 202.8 133.51 195.98 131.5 191.5 130.54 185.02 129.97 177.62 128.76 171.41 129.97 161.32 133.14 159.38 132.78 143.36 131.72 131.1 130.36 112.44 128.81 97.33 127.01 87.24 124.27 77.15"/>
    <g>
      <path d="m100.53,166.58c-.58,1.2-1.3,2.35-1.79,3.59-.41,1.05-.24,2.26-.68,3.28-.4.91-1.39,1.51-1.97,2.32-.78,1.1-1.04,2.49-1.55,3.71s-1.3,2.24-1.88,3.4c-.64,1.28-1.3,2.56-1.89,3.86-1.07,2.34-1.94,4.74-2.37,7.28-.2,1.23-.55,2.28-.92,3.46-.41,1.32-.32,2.61-.16,3.97.34,2.79.21,5.8-.21,8.58-.18,1.19-.42,2.54-.97,3.62s-1.51,1.85-2.08,2.9c-.51.94-.7,1.78-1.62,2.41-.81.54-1.78,1.2-2.78,1.27-1.05.07-2.22-.48-3.1-1-1.22-.72-1.62-1.46-2.04-2.76-.73-2.28-2.46-3.98-3.75-5.93-1.42-2.14-1.99-4.72-2.9-7.09-1.05-2.73-1.32-5.39-1.36-8.31-.02-1.32.39-2.56.41-3.87s-.44-2.56-.35-3.89c.19-2.8.59-5.59.82-8.38.1-1.26.7-2.16,1.16-3.3.5-1.22.5-2.55.89-3.81.35-1.12.9-2.27,1.46-3.3.64-1.18,1.49-2.18,2.01-3.43.55-1.33,1.17-2.53,1.9-3.77s1.81-2.18,2.7-3.35c.83-1.08,1.12-2.35,1.59-3.6.51-1.35,1.3-2.58,1.86-3.91s1.1-2.79,1.77-4.12,1.24-2.58,1.55-4.08c.29-1.41.74-2.83,1.15-4.21s1.46-2.36,2.18-3.55c1.01-1.65-1.59-3.16-2.59-1.51-.65,1.08-1.54,2-2.06,3.15-.55,1.21-.76,2.55-1.18,3.81-.46,1.38-.55,2.77-1.21,4.09s-1.23,2.68-1.81,4.04c-.52,1.23-1.08,2.42-1.69,3.61s-.92,2.55-1.5,3.78c-.51,1.09-1.56,1.81-2.28,2.75-.84,1.09-1.57,2.36-2.21,3.58s-.97,2.48-1.72,3.62-1.42,2.39-2.01,3.69-.92,2.43-1.15,3.77-.88,2.39-1.35,3.67c-.43,1.17-.4,2.42-.5,3.65-.12,1.56-.34,3.13-.51,4.69-.14,1.38-.38,2.76-.19,4.14.1.71.31,1.43.3,2.16s-.23,1.43-.33,2.14c-.82,5.81,1.38,11.56,3.61,16.8,1.01,2.37,2.96,4.11,4.15,6.38.53,1.01.59,2.16,1.26,3.11.73,1.03,1.85,1.85,2.97,2.41,2.22,1.12,4.39,1.47,6.68.4,1.07-.5,2.24-1.16,3.04-2.05s1.02-2.01,1.68-2.94,1.52-1.77,1.99-2.89c.57-1.34.88-2.8,1.09-4.23.41-2.83.61-5.88.28-8.72-.1-.85-.29-1.77-.18-2.62.09-.66.4-1.28.61-1.9.51-1.48.7-3.11,1.08-4.64.77-3.01,2.12-5.78,3.58-8.52.78-1.48,1.66-2.79,2.24-4.38.26-.72.45-1.54.89-2.17.36-.51.88-.9,1.29-1.37.97-1.11,1.2-2.28,1.41-3.69.23-1.56,1.16-2.88,1.84-4.28.83-1.73-1.75-3.25-2.59-1.51h0Z"/>
      <path d="m128.98,164.38c-.11,1.18.25,2.32.19,3.5-.05,1-.26,1.99-.33,2.99-.16,2.16-.46,4.32-.57,6.49-.1,1.98.69,4.01,1.09,5.94.43,2.12.71,4.26,1.2,6.37s.93,4.28,1.83,6.19c.37.78.95,1.37,1.49,2.02.59.72.65,1.32.75,2.22.25,2.21,1.66,3.53,2.7,5.4s2.08,3.78,3.43,5.55c1.16,1.51,3.76.02,2.59-1.51-1.3-1.7-2.33-3.47-3.33-5.35-.51-.97-1.21-1.8-1.8-2.72-.52-.82-.58-1.51-.7-2.45-.11-.87-.32-1.65-.83-2.38-.47-.68-1.17-1.23-1.56-1.96-.45-.85-.63-1.94-.91-2.85-.29-.97-.53-1.95-.76-2.93-.46-1.97-.68-3.97-1.11-5.95-.21-.99-.34-1.99-.62-2.97-.29-1.05-.51-1.94-.41-3.03.18-2.02.38-4.03.53-6.05.08-1,.28-1.99.33-2.99.06-1.18-.3-2.32-.19-3.5.18-1.92-2.82-1.91-3,0h0Z"/>
      <path d="m71.66,65.03c1.24-1.96,2.38-4.35,4.55-5.47.99-.51,1.95-.89,2.83-1.59,1.04-.83,1.91-1.51,3.18-1.97,1.13-.41,2.27-.81,3.43-1.12,1.35-.36,2.6-.47,3.98-.6,1.14-.11,2.19-.52,3.31-.71,1.25-.21,2.86-.56,4.11-.34,2.48.44,4.95,1.52,7.31,2.38,1.08.4,2.1.91,3.19,1.27,1.19.4,1.79,1,2.6,1.93s1.75,1.46,2.71,2.16,1.1,1.81,1.72,2.81c.64,1.05,1.55,1.96,2.25,2.98.75,1.09,1.4,2.34,2.28,3.33.79.88,1.5,1.2,1.56,2.46s.31,2.31,1.01,3.42c.62.98,1.13,1.78,1.35,2.94.25,1.3.42,2.48,1.13,3.63.63,1.01,1.01,1.79,1.31,2.95.35,1.35.66,2.7.92,4.06.23,1.23.24,2.25.16,3.49s.27,2.48.54,3.71c.29,1.31.66,2.55.99,3.84s-.19,2.64-.09,4,.72,2.55.82,3.87,0,2.62.16,3.93c.14,1.21.26,2.43.45,3.64.1.63.27,1.26.35,1.9.09.74-.06,1.27-.25,1.98-.29,1.09-.36,2.08-.09,3.18.16.63.46,1.24.58,1.88.14.76-.07,1.47-.19,2.22-.25,1.57.12,3.06.27,4.63s.12,3.14.37,4.69.48,2.99.61,4.54.42,2.91.58,4.38-.11,2.92-.05,4.36c.06,1.58.03,3.14.16,4.71.13,1.47.1,2.97.06,4.44-.05,1.6-.92,2.72-1.65,4.08-.92,1.7,1.67,3.21,2.59,1.51.63-1.16,1.42-2.26,1.79-3.55s.25-2.64.27-3.97c.05-2.93-.36-5.86-.27-8.8.05-1.4.16-2.64-.07-4.04s-.39-2.89-.51-4.36-.43-2.74-.61-4.13c-.2-1.52-.16-3.08-.35-4.6-.1-.8-.29-1.62-.31-2.42-.02-.68.14-1.32.25-1.98.23-1.46-.08-2.59-.49-3.97s.23-2.38.35-3.77-.34-2.65-.51-3.96-.4-2.75-.44-4.13.04-2.75-.27-4.11c-.16-.71-.49-1.41-.58-2.14-.08-.69.05-1.37.14-2.05.18-1.48-.15-2.65-.59-4.05-.41-1.31-.65-2.71-.91-4.06-.25-1.27.13-2.52-.02-3.8-.16-1.36-.48-2.72-.78-4.05s-.55-2.67-1.08-3.88c-.48-1.09-1.32-1.91-1.58-3.1-.29-1.34-.4-2.62-1.06-3.85-.62-1.14-1.39-1.89-1.45-3.24-.06-1.25-.28-2.31-1.12-3.28-.4-.47-.93-.83-1.32-1.31s-.69-1.08-1.04-1.6c-.79-1.17-1.62-2.29-2.49-3.4-.77-.98-1.03-2.17-1.75-3.16-.77-1.06-1.96-1.51-2.93-2.33-.89-.75-1.45-1.77-2.41-2.45s-2.22-.95-3.34-1.41c-2.48-1.03-4.97-1.95-7.55-2.71-1.59-.47-2.91-.84-4.58-.61s-3.09.45-4.64.82c-1.38.33-2.81.22-4.2.51-1.53.33-3,.84-4.47,1.35-1.37.47-2.6,1-3.73,1.91s-2.15,1.44-3.4,2.09c-2.64,1.37-4.11,4.14-5.63,6.55-1.03,1.64,1.56,3.14,2.59,1.51h0Z"/>
      <path d="m60.24,104.2c-.26-1.13-.55-2.26-.78-3.4-.21-1.02-.52-2.24-.51-3.28.01-1.17.04-2.06-.21-3.22s-.38-2.31-.87-3.35c-.4-.85-1.16-1.53-1.09-2.55.09-1.33.39-2.28-.11-3.63-.19-.51-.48-.92-.75-1.39-.32-.55-.41-1.13-.6-1.73-.34-1.06-.89-2.02-.97-3.16s-.11-2.22-.46-3.37-.84-2.18-.9-3.36-.16-2.29-.64-3.38c-.44-1-1.06-1.74-1-2.91.07-1.24.07-2.25-.32-3.47-.33-1.05-.52-2.17-.88-3.21-.34-.98-.73-1.84-.8-2.9-.09-1.25-.12-2.49-.49-3.69-.3-.96-.74-1.87-.53-2.9.28-1.35.16-2.37-.03-3.74-.17-1.19-.22-2.45-.77-3.54-.19-.38-.5-.72-.66-1.12-.26-.63-.28-1.39-.42-2.04-.22-1.04-.44-2.07-.48-3.14-.05-1.13-.29-2.19-.13-3.32s0-2.3-.35-3.41c-.45-1.41-.57-2.64-.69-4.12s-1-2.91-.93-4.35c.08-1.63.55-3.45,1.11-4.98.4-1.08.44-2.61,1.39-3.34.48-.37,1.09-.59,1.63-.86.65-.33,1.16-.81,1.77-1.19,1.09-.68,3.31-.41,4.51-.16.73.15,1.47.36,2.16.65.74.31,1.16.8,1.7,1.37.93.97,2.01,1.52,2.72,2.69.84,1.38,1.12,2.74,1.41,4.31.34,1.88.32,3.85.71,5.71.31,1.46,1.48,2.5,1.31,4.04-.09.82-.26,1.58-.15,2.42s.44,1.64.71,2.45c.57,1.67.69,3.41,1.12,5.11s.88,3.37,1.41,5.03,1.33,3.21,2,4.84,1.39,2.97,1.74,4.7c.36,1.82,1.34,3.25,2.12,4.91.82,1.74,3.41.22,2.59-1.51-.71-1.5-1.53-2.76-1.86-4.41-.36-1.79-1.16-3.23-1.85-4.9-.61-1.49-1.35-2.89-1.84-4.43s-.91-3.06-1.31-4.61-.51-3.17-.95-4.7c-.2-.7-.49-1.38-.71-2.07-.32-1.02-.13-1.81-.02-2.84.13-1.35-.29-2.42-.91-3.59-.8-1.53-.73-3.45-.94-5.14-.37-2.98-.93-6.37-3.25-8.52-.48-.45-1.06-.79-1.54-1.24-.44-.4-.81-.88-1.25-1.29-1.19-1.09-2.98-1.64-4.54-1.93s-3.3-.36-4.87-.12c-1.41.21-2.28,1.21-3.5,1.83s-2.46,1.19-3.18,2.4c-.35.59-.53,1.25-.69,1.91-.22.87-.56,1.68-.83,2.54-.45,1.47-.78,3.15-.9,4.69-.13,1.71.79,3.15.92,4.81.12,1.47.15,2.83.62,4.25.4,1.2.46,2.13.33,3.38-.11,1.07.16,2.16.21,3.24.06,1.34.37,2.64.63,3.95s.59,2.2,1.2,3.37c.51.98.48,2.29.64,3.37.1.69.15,1.17-.01,1.84-.12.52-.2,1.04-.18,1.57.06,1.42.75,2.65.97,4.03.2,1.24.11,2.49.4,3.72.25,1.09.72,2.1.96,3.2s.79,2.07.86,3.15c.08,1.33-.19,2.39.31,3.73.36.97,1,1.74,1.17,2.79.21,1.35.19,2.61.63,3.94s.72,2.46.79,3.86c.07,1.32.55,2.46.98,3.67.27.75.38,1.53.73,2.25.25.51.65.94.83,1.48.43,1.23-.25,2.54.05,3.84.32,1.4,1.28,2.41,1.58,3.84.23,1.07.6,2.19.5,3.28-.23,2.65.72,5.56,1.32,8.14.43,1.88,3.33,1.08,2.89-.8h0Z"/>
      <path d="m85.6,106.56c-1.59-.37-3.17-.86-4.8-1.05s-3.29-.47-4.95-.81c-1.54-.31-3.08-.62-4.62-.92s-2.99-1.02-4.64-.91c-1.54.1-2.99.25-4.54.2-1.73-.05-3.45.04-5.17.23-1.54.17-3.01.77-4.54.89s-2.89.04-4.34.68c-1.35.59-2.66,1.26-4.03,1.84s-3.03,1.2-4.17,2.13c-2.27,1.86-2.33,5.35-.82,7.66.72,1.1,1.44,2.3,2.48,3.12,1.14.9,2.52,1.08,3.88,1.45,1.53.42,2.98.96,4.54,1.28s3.17.68,4.76,1.07,3.27.23,4.91.33c.83.05,1.67-.12,2.49-.03s1.59.46,2.39.69c1.72.49,3.55.86,5.33,1.08.9.11,1.82.28,2.73.32.97.05,1.93-.14,2.9-.04,1.92.19,1.91-2.81,0-3-1.34-.13-2.66.07-4.01-.1-1.6-.2-3.1-.5-4.67-.84-1.3-.28-2.56-.79-3.87-1.01s-2.61-.03-3.91-.13-2.58.1-3.9-.26c-1.45-.4-2.89-.66-4.36-.96-1.3-.26-2.52-.63-3.78-1.04-1.14-.37-2.65-.4-3.61-1.15-.83-.65-1.57-1.89-2.06-2.81-.57-1.08-.36-2.75.7-3.47.98-.67,2.33-1.18,3.42-1.64,1.28-.54,2.51-1.17,3.78-1.73s2.48-.33,3.8-.49c1.49-.18,2.89-.74,4.38-.88,2.84-.27,5.7.08,8.51-.29,1.66-.22,2.82.33,4.39.67s3.21.63,4.82.96,3.2.68,4.84.83,3.28.64,4.91,1.02c1.88.44,2.68-2.45.8-2.89h0Z"/>
      <path d="m141.75,211.3c.48.37,1.12.74,1.48,1.25.4.57.24,1.14.26,1.81.01.72.17,1.43.14,2.15-.04.85-.23,1.68-.28,2.53-.07,1.26-.91,2.33-1.99,2.98-.53.32-1.21.52-1.81.65-.92.19-1.59-.09-2.49-.27-1.37-.28-2.79-.19-4.02-.97s-2.19-1.69-3.53-2.32c-1.26-.6-1.9-1.4-2.78-2.44s-1.98-2.15-3-3.14c-.92-.89-2.22-1.35-2.96-2.41-.8-1.14-1.27-2.39-2.36-3.32s-1.79-1.57-2.51-2.76c-.83-1.36-1.51-2.74-2.23-4.15-.64-1.25-.97-2.66-1.7-3.87-.69-1.13-1.5-2.09-2.09-3.29-1.35-2.71-2.11-5.58-2.91-8.49-.46-1.68-.63-3.41-1.49-4.95-.31-.55-.72-1.05-.71-1.72.02-.73.33-1.44.4-2.16.16-1.68-.55-3.29-.41-4.98.15-1.82.4-3.66.68-5.46s-2.59-2.7-2.89-.8c-.28,1.8-.46,3.61-.69,5.42-.11.86-.16,1.68-.06,2.54s.4,1.81.41,2.71c0,1.55-.74,2.8-.16,4.36.26.69.7,1.27,1.02,1.92.41.85.5,1.83.71,2.74.78,3.4,1.75,6.89,3.32,10,.67,1.32,1.53,2.41,2.29,3.67.45.74.65,1.57.97,2.37.37.91.86,1.77,1.28,2.67.65,1.41,1.49,2.79,2.37,4.07s2.38,2.02,3.23,3.33c.78,1.21,1.32,2.43,2.51,3.33.62.47,1.31.82,1.88,1.35.72.67,1.35,1.45,2.05,2.15.99.99,1.78,2.22,2.9,3.06.61.46,1.28.75,1.97,1.08.87.43,1.57,1,2.34,1.58,1.27.97,2.57,1.4,4.16,1.6,1.83.23,3.48.89,5.33.44,1.67-.41,3.1-1.13,4.26-2.43.57-.64,1.2-1.38,1.49-2.2s.2-1.75.3-2.63c.2-1.83.29-3.68.08-5.52s-1.78-2.99-3.2-4.07c-1.54-1.17-3.03,1.43-1.51,2.59h0Z"/>
      <path d="m71.09,61.3c-1.42.9-2.95,1.41-3.93,2.88s-1.7,3.28-2.05,4.92c-.4,1.88-1.17,3.65-1.55,5.52-.34,1.69-.06,3.53-.63,5.17-.47,1.37-.56,2.57-.53,4.02.02,1.33-.21,2.67-.05,3.99.33,2.6-.33,5.42-1.15,7.88-.44,1.33-.42,3.08-.28,4.46.17,1.7.95,3.14,1.36,4.76.48,1.87,3.37,1.08,2.89-.8-.41-1.59-1.31-3.03-1.29-4.71,0-.83-.07-1.76.1-2.57.12-.58.44-1.11.6-1.68.48-1.69.68-3.69.86-5.44.07-.72-.03-1.35-.11-2.06-.1-.87.02-1.71.05-2.58.07-1.46-.14-2.84.35-4.25.71-2.03.34-4.23.94-6.29.3-1.01.74-1.98.99-3,.27-1.08.39-2.15.82-3.19.39-.95.74-2.2,1.5-2.93.7-.68,1.78-.99,2.6-1.51,1.63-1.03.12-3.63-1.51-2.59h0Z"/>
      <path d="m73.76,126.16c1.93,0,1.93-3,0-3s-1.93,3,0,3h0Z"/>
      <path d="m73.76,126.12c.34,0,.69.01,1.03.05.18.02.37.04.55.06-.25-.03.21.03.23.03.74.11,1.47.23,2.21.3.66.07,1.32.09,1.99.12.32.02.64.03.95.06.16.01.32.03.47.05-.23-.03.33.06.38.07.77.15,1.66-.22,1.85-1.05.17-.74-.22-1.69-1.05-1.85-1.47-.28-2.95-.26-4.44-.39-.18-.02-.37-.04-.55-.06.25.03-.21-.03-.23-.03-.34-.05-.68-.1-1.03-.15-.79-.11-1.58-.21-2.38-.21s-1.54.69-1.5,1.5.66,1.5,1.5,1.5h0Z"/>
      <path d="m85.01,59.13c-.14.05-.27.1-.4.16s-.26.11-.4.17l.36-.15c-.07.03-.14.06-.22.08-.2.05-.37.14-.51.27-.16.11-.29.25-.39.42-.11.17-.17.36-.18.56-.04.2-.04.4.03.6l.15.36c.13.23.31.4.54.54l.36.15c.27.07.53.07.8,0,.14-.05.27-.1.4-.16s.26-.11.4-.17l-.36.15c.07-.03.14-.06.22-.08.2-.05.37-.14.51-.27.16-.11.29-.25.39-.42.11-.17.17-.36.18-.56.04-.2.04-.4-.03-.6l-.15-.36c-.13-.23-.31-.4-.54-.54l-.36-.15c-.27-.07-.53-.07-.8,0h0Z"/>
      <path d="m74.95,67.79c.99.94,2.14,1.7,3.13,2.64.28.27.67.44,1.06.44.37,0,.81-.16,1.06-.44s.46-.66.44-1.06-.15-.78-.44-1.06c-.99-.94-2.14-1.7-3.13-2.64-.28-.27-.67-.44-1.06-.44-.37,0-.81.16-1.06.44s-.46.66-.44,1.06.15.78.44,1.06h0Z"/>
      <path d="m78.87,57.76c1.93,0,1.93-3,0-3s-1.93,3,0,3h0Z"/>
    </g>
    <g>
      <path d="m67.89,122.52c.78,1.91.82,1.89,1.6,3.8s.78,1.91,1.57,3.81.57,1.99,1.35,3.9,1.22,1.73,2,3.64.72,1.93,1.5,3.84.8,1.9,1.58,3.81.78,1.91,1.56,3.82"/>
      <path class="cls-4" d="m67.89,122.52c.78,1.91.82,1.89,1.6,3.8s.78,1.91,1.57,3.81.57,1.99,1.35,3.9,1.22,1.73,2,3.64.72,1.93,1.5,3.84.8,1.9,1.58,3.81.78,1.91,1.56,3.82"/>
    </g>
  </g>
</svg>