<?xml version="1.0" encoding="UTF-8"?>
<svg id="Camada_1" data-name="Camada 1" xmlns="http://www.w3.org/2000/svg" viewBox="0 0 159 362">
  <defs>
    <style>
      .cls-1 {
        fill: #fff;
      }

      .cls-2 {
        fill: #f0f;
      }

      .cls-3 {
        fill: none;
        stroke: #000;
        stroke-miterlimit: 10;
        stroke-width: 2px;
      }
    </style>
  </defs>
  <g>
    <g>
      <path class="cls-1" d="m142.77,356.66c1.92,2.57,5.17,3.16,7.17.69s1.32-7.04.4-10.41c.17-.79,2.36,2,2.97,1.46.8-2.56.68-6.79-.33-9.22s-4.07-3.85-5.14-6.24c-1.06-2.34-1.79-4.99-2.52-7.53-1.31-4.57-1.5-9.47-3.04-13.92s-3.76-8.75-5.53-13.11c-.13-.29-.09,1.03-.2.74-1.21-3.76-3.03-7.33-4.23-11.1s-2.09-7.63-3.27-11.4-1.91-7.68-3.08-11.45c-1.16-3.77-3.09-7.32-4.24-11.1s-2.58-7.48-3.71-11.26-1.32-7.85-2.44-11.64-3.06-7.34-4.16-11.13c-1.1-3.79-1.9-7.68-2.98-11.48s-.69-8.01-1.76-11.82-1.62-7.74-2.67-11.55-4.32-7.01-5.35-10.82-.48-8.05-1.5-11.87-2.52-7.5-3.53-11.32c-1-3.82-1.85-7.68-2.83-11.51-.99-3.82-2.85-7.43-3.82-11.26-.97-3.83-2.58-7.5-3.53-11.34s-1.28-7.83-2.22-11.67-2.78-7.46-3.71-11.3-.52-8-1.43-11.85-1-7.81-1.89-11.66c-.06-.45-.36,1.44-.56,1.04-2.51-4.83-5.51-9.73-9.96-8.88-2.98.57-6.29,3.1-7.13,6.83s-.81,8.05-.42,11.9c.43,4.2,1.92,8.29,2.5,12.45s2.22,8.17,2.93,12.32c.72,4.15.2,8.53,1.03,12.65s2.72,8.03,3.63,12.14,1.55,8.28,2.53,12.37,1.19,8.38,2.2,12.46,2.03,8.18,3.06,12.26c.9,3.57,1.66,7.17,2.56,10.74.9,3.57,3.73,6.65,4.63,10.22.9,3.57-.8,7.79.1,11.36s3.81,6.63,4.7,10.2c.9,3.57.45,7.47,1.34,11.04,1.2,4.76,3.59,9.22,5.02,13.87,1.46,4.77,1.57,10.01,3.72,14.31.32.76-.95-2.47-.82-1.66,1.32,3.67,4.17,7,5.48,10.67s1.97,7.59,3.28,11.26c1.32,3.67,2.79,7.29,4.11,10.96s2.12,7.53,3.44,11.2c1.32,3.67,3.5,7.04,4.82,10.71,1.26,3.52,2.1,7.21,3.42,10.71s4.13,6.41,5.58,9.84,2.47,7.07,4.17,10.36c1.74,3.37,2.42,7.36,4.48,10.43.2.25,1.36-1.84,1.5-1.55,2.51,5.52,3.76,11.82,7.55,15.95"/>
      <path d="m141.71,357.72c2.5,3.12,7.15,3.78,9.63.24,2.28-3.24,1.39-7.88.45-11.42l-.15,1.16c-.19.4-1.56.16-1.43.62.01.04.15.1.18.14.15.23.57.47.8.64.5.38,1.02.76,1.67.84,1.96.25,2.17-1.99,2.35-3.41.44-3.59.03-7.64-2.52-10.38-1.21-1.3-2.77-2.33-3.55-3.97-1.05-2.17-1.64-4.61-2.3-6.92-1.3-4.58-1.53-9.4-3.03-13.93-.84-2.55-1.93-5.01-3.03-7.46-.56-1.25-1.13-2.49-1.67-3.75-.45-1.02-.71-2.4-1.65-3.08-.81-.59-1.95.04-2.2.9-.04.15-.15.96-.11.81l2.51-.66c.51.49-.18-.9-.18-.9-.15-.42-.31-.84-.48-1.26-.36-.92-.74-1.84-1.12-2.76-.75-1.83-1.5-3.66-2.11-5.55-1.21-3.76-2.12-7.62-3.27-11.4s-1.9-7.68-3.08-11.45-3.05-7.31-4.24-11.1c-1.19-3.77-2.6-7.47-3.71-11.26s-1.29-7.46-2.29-11.12-2.97-7.35-4.15-11.14c-1.17-3.77-1.95-7.65-2.98-11.45s-.86-7.42-1.61-11.11c-.79-3.9-1.7-7.86-2.68-11.72-.84-3.32-2.69-5.94-4.33-8.89-1.87-3.36-1.84-6.92-2.15-10.65-.33-3.92-1.65-7.53-2.88-11.24-1.24-3.76-2.14-7.6-3.06-11.45-.93-3.87-2.08-7.55-3.48-11.28s-2.31-7.39-3.55-11.05c-1.44-4.27-2.16-8.57-2.94-12.99s-2.47-8.33-3.8-12.55-1.02-8.56-1.8-12.87c-.39-2.17-.84-4.3-1.12-6.49-.26-2.02-.33-4.37-1.02-6.3-.35-.97-1.72-1.6-2.51-.66-.23.27-.34.51-.47.83-.15.39-.42.67,0,.33h2.12c-.4-.36-.68-1.36-.97-1.87-.39-.68-.79-1.36-1.22-2.01-.86-1.29-1.82-2.57-3-3.58-2.09-1.79-4.68-2.47-7.33-1.58s-4.84,2.68-6.15,5.05c-1.56,2.84-1.71,6.49-1.73,9.66-.02,3.74.46,7.4,1.31,11.03s1.43,7.6,2.41,11.32,2.1,7.14,2.33,10.9.12,7.58,1.09,11.3c.93,3.59,2.45,6.99,3.28,10.6.88,3.82,1.46,7.71,2.33,11.53s1.23,7.44,1.93,11.16c.74,3.91,1.86,7.76,2.82,11.62.96,3.84,1.85,7.7,2.77,11.55.39,1.64.8,3.19,1.51,4.72s1.59,2.92,2.35,4.39,1.36,2.89,1.45,4.52c.1,1.77-.21,3.54-.35,5.3-.27,3.45.59,6.26,2.27,9.25.86,1.52,1.84,3.03,2.41,4.69.7,2.01.77,4.17.9,6.27.26,4.21,1.27,7.95,2.82,11.86,1.53,3.85,3.06,7.6,3.88,11.69.73,3.69,1.31,7.34,2.95,10.76.73,1.52,3.29.45,2.74-1.16-.26-.75-.6-2.06-1.25-2.57-.94-.74-2.06-.45-2.51.66s.9,3.09,1.38,3.99c.87,1.64,1.89,3.2,2.79,4.83,1.86,3.38,2.58,7.16,3.6,10.85,1.05,3.76,2.57,7.38,3.95,11.02s2.5,7.58,3.65,11.42,2.79,7.07,4.45,10.55,2.63,7.38,3.82,11.13c.52,1.64,1.07,3.28,1.87,4.8.88,1.69,2,3.23,3.02,4.83,2.04,3.21,3.04,6.84,4.46,10.34.77,1.9,1.77,3.7,2.5,5.62s1.28,3.7,2.07,5.49c.52,1.17,1.28,3.52,2.93,3.3.56-.08.91-.42,1.27-.82.14-.16.92-1.1.68-.96h-1.51c-.58-.3-.06.46.03.67.15.37.3.74.45,1.12.29.75.57,1.5.85,2.26.52,1.42,1.03,2.84,1.6,4.23,1.11,2.71,2.42,5.26,4.38,7.46,1.29,1.44,3.4-.68,2.12-2.12-2.88-3.23-4.14-7.52-5.63-11.5-.37-.98-.75-1.95-1.15-2.91-.33-.78-.58-1.7-1.48-1.95-1.48-.41-1.98,1.43-2.55,1.75l1.16-.15-.06-.02.9.69c-1.72-2.69-2.46-5.81-3.69-8.73-1.29-3.07-2.63-6.08-3.81-9.21-1.14-3.04-2.63-5.65-4.39-8.36-1.89-2.92-2.92-6-3.91-9.33s-2.03-6.53-3.54-9.64-3-6.24-4-9.62-1.94-6.79-3.18-10.11-2.61-6.57-3.7-9.93c-1.19-3.67-1.8-7.54-3.28-11.12-.69-1.67-1.61-3.23-2.53-4.78-.43-.73-.87-1.45-1.27-2.19-.2-.37-.4-.73-.58-1.11-.12-.24-.5-1.59-.73-1.01l-2.51.66c-.39-.31.11.34.24.64.08.2.17.4.24.61l2.74-1.16c-1.37-2.84-1.87-5.96-2.46-9.02-.65-3.43-1.64-6.66-2.94-9.9-1.31-3.26-2.83-6.56-3.47-10.04s-.22-7.07-1.25-10.46c-.89-2.95-2.87-5.37-4.05-8.19-1.27-3.03-.46-6.12-.32-9.27s-.99-5.93-2.54-8.71c-.7-1.26-1.46-2.5-1.98-3.85-.68-1.77-1.01-3.71-1.44-5.55-.85-3.66-1.75-7.31-2.66-10.95s-1.97-7.31-2.6-11.03c-1.23-7.22-2.43-14.46-4.07-21.61-.77-3.36-2.13-6.53-3.07-9.84-1-3.54-.98-7.08-1.16-10.72s-1.05-7.12-2.03-10.65c-.96-3.47-1.43-7-2.26-10.5-.94-3.95-1.73-7.79-1.79-11.87-.04-3.37-.1-7.65,2.28-10.32,1.8-2.02,4.84-3.5,7.33-1.82,1.3.88,2.28,2.22,3.13,3.52.47.73.91,1.48,1.33,2.24.36.65.65,1.56,1.21,2.06.65.59,1.46.53,2.12,0,.29-.23.43-.61.55-.94.17-.47.53-.96-.09-.22l-2.51-.66c.63,1.77.71,3.93.95,5.78.26,2,.55,3.98.97,5.95.79,3.73.53,7.59,1.31,11.32.82,3.89,2.67,7.47,3.69,11.31s1.32,7.79,2.22,11.64,2.49,7.53,3.53,11.36,2.59,7.11,3.67,10.74c1.17,3.95,1.95,8.02,2.98,12s2.47,7.51,3.52,11.33.64,7.63,1.42,11.41c.68,3.29,2.66,5.93,4.27,8.81,1.92,3.43,2.33,7.5,3.18,11.29.39,1.77.96,3.51,1.25,5.31.32,1.93.38,3.9.6,5.84.45,3.93,1.71,7.79,2.68,11.62s2.25,7.29,3.71,10.89,2.24,7.52,2.95,11.49,2,7.49,3.26,11.18c.72,2.1,1.32,4.25,2.1,6.34s1.66,4,2.45,6.01c1.65,4.17,2.47,8.57,3.69,12.88,1.25,4.42,2.41,8.91,3.84,13.28.67,2.06,1.51,4.05,2.33,6.05.41,1,.82,2,1.19,3.01.29.77.44,1.89,1.05,2.48.79.76,2.23.46,2.51-.66.04-.16.15-.94.11-.81l-2.2.9.05.03-.69-.9c1.86,4.54,4.2,8.92,5.69,13.6,1.48,4.62,1.75,9.53,3.09,14.19.65,2.25,1.3,4.51,2.24,6.65.78,1.78,2.12,2.99,3.49,4.31s2.12,2.73,2.38,4.69.19,3.92-.35,5.78l.69-.9c.85-.44,1.17.16.39-.42-.32-.24-.62-.51-.94-.75-.46-.34-.94-.65-1.53-.64-2.56.05-1.2,3.35-.97,4.74.32,1.9.59,4.41-.54,6.1-1.46,2.2-3.79,1.12-5.13-.55-1.21-1.51-3.32.63-2.12,2.12h0Z"/>
    </g>
    <g>
      <path class="cls-1" d="m92.69,357.95c1.92,2.57,6.75,1.76,8.75-.71s1.3-6.96.38-10.33c.17-.79,1.89,1.31,2.5.78.8-2.56,1.55-6.16.53-8.6s-3.9-3.93-4.97-6.32c-1.06-2.34-1.51-5.01-2.23-7.55-1.31-4.57-3.56-8.8-5.09-13.25-1.55-4.49-1.38-9.69-3.15-14.05-.13-.29.22,1.01.11.71-1.21-3.76-2.38-7.46-3.58-11.23-1.2-3.76-4.41-6.89-5.59-10.66s-1.95-7.67-3.11-11.45c-1.16-3.77-3.34-7.24-4.49-11.02s-1-7.95-2.14-11.74-2.58-7.47-3.7-11.27-2.88-7.39-3.98-11.19c-1.1-3.79-1.63-7.75-2.71-11.55s-.36-8.11-1.43-11.91c-1.07-3.8-2.4-7.53-3.45-11.34s-4.47-6.97-5.51-10.78.29-8.26-.73-12.08-4.12-7.08-5.12-10.9.32-8.25-.67-12.07-2.51-7.51-3.48-11.34-2.11-7.61-3.07-11.45-2.41-7.54-3.35-11.38c-.94-3.84-2.34-7.56-3.26-11.41-.92-3.84-2.48-7.54-3.38-11.38s-.43-7.99-1.32-11.84c-.06-.45-.04,1.44-.25,1.04-2.51-4.83-5.67-11.22-10.12-10.38-2.98.57-5.84,4.58-6.68,8.31s-1.19,8.03-.8,11.88c.43,4.2,1.28,8.38,1.86,12.54s1.25,8.37,1.97,12.51,3.39,7.94,4.21,12.06,2.17,8.13,3.08,12.23c.91,4.11.7,8.47,1.68,12.56s2.71,8,3.72,12.09.88,8.46,1.9,12.54c.9,3.57.87,7.37,1.77,10.94.9,3.57,2.75,6.9,3.64,10.46.9,3.57,1.31,7.26,2.21,10.83.9,3.57,3.69,6.66,4.58,10.23.9,3.57,1.37,7.24,2.27,10.81,1.2,4.76,1.79,9.69,3.22,14.34s4.16,8.96,6.31,13.27c.32.76-.72-1.94-.58-1.13,1.32,3.67,1.63,7.43,2.94,11.1s3.1,7.18,4.42,10.85,2.21,7.5,3.52,11.17c1.32,3.67,1.09,7.9,2.41,11.57,1.32,3.67,4.43,6.7,5.75,10.37,1.26,3.52,2.64,7,3.95,10.51s1.97,7.29,3.42,10.71,3.28,6.76,4.98,10.05c1.74,3.37,3.11,6.92,5.16,10,.2.25,1.03-1.59,1.17-1.3,2.51,5.52,4.62,11.06,8.41,15.19"/>
      <path d="m91.63,359.01c2.51,3.05,7.58,2.35,10.27-.09,3.4-3.08,2.41-8.5,1.37-12.41l-.15,1.16c-.19.41-1.45.14-1.29.62.02.07.27.16.33.22.18.17.46.31.68.43.6.31,1.27.46,1.92.21,1.53-.59,1.7-3.49,1.9-4.87.27-1.85.33-3.8-.35-5.57-.61-1.59-1.81-2.8-3-3.99-1.45-1.45-2.27-2.79-2.86-4.77-.67-2.21-1.1-4.49-1.84-6.68-1.43-4.29-3.66-8.31-4.91-12.65-.7-2.41-.98-4.92-1.39-7.39-.32-1.93-.57-4.84-1.87-6.38-.79-.94-2.72-.22-2.56,1.06.05.4.14.79.22,1.19l2.74-1.16c-.45-.8-.62-2.01-.9-2.89s-.57-1.78-.85-2.67c-.61-1.92-1.16-3.88-1.85-5.78-1.17-3.23-3.49-5.8-4.92-8.89-1.68-3.63-2.2-7.87-3.31-11.7s-2.98-7.04-4.32-10.64-1.4-7.56-2.18-11.37c-.8-3.92-2.45-7.67-3.66-11.48s-2.72-7.48-3.99-11.27-1.87-8.02-2.9-12.01c-.49-1.87-.81-3.65-.91-5.59s-.14-3.95-.48-5.9c-.69-4-2.35-7.87-3.48-11.76-.98-3.4-2.86-6.02-4.59-9.06-1.92-3.39-1.5-6.76-1.49-10.51s-1.21-6.77-3.06-9.98c-.9-1.56-1.87-3.12-2.4-4.85s-.5-3.7-.44-5.58c.06-1.77.16-3.53-.06-5.29-.26-2.05-.96-4.03-1.6-5.99-1.3-3.95-2.39-7.92-3.5-11.92-2.46-8.9-5.08-17.73-7.63-26.6-.63-2.17-1.13-4.37-1.81-6.53s-1.44-4.29-2.02-6.48c-1.13-4.27-.62-8.72-1.61-13.01-.34-1.49-2.48-1.36-2.89,0-.05.17-.11.46-.09.66.05.42-.24.51.3-.16h2.12c-.32-.34-.55-1.16-.79-1.62-.34-.64-.68-1.28-1.04-1.91-.76-1.34-1.59-2.64-2.55-3.84-1.46-1.82-3.43-3.49-5.87-3.57-2.83-.1-5.15,1.98-6.69,4.14-1.89,2.65-2.61,5.7-3.04,8.88-1.03,7.63.73,15.02,1.8,22.54.55,3.89,1.11,7.8,1.85,11.66.66,3.48,2.48,6.54,3.61,9.87.55,1.63.83,3.33,1.24,5,.51,2.04,1.09,4.06,1.63,6.09,1,3.8,1.38,7.54,1.79,11.43s1.44,7.23,2.65,10.78,2.21,7.24,2.62,11.1,1.29,7.43,1.76,11.18c.47,3.7.96,7.22,2.31,10.72s2.52,6.81,3.21,10.49,1.09,7.09,2.68,10.34c.83,1.7,1.87,3.29,2.64,5.03.83,1.87,1.15,3.96,1.54,5.96.82,4.21,1.82,8.38,2.64,12.58s1.65,8.23,3.32,12.12c1.5,3.49,3.43,6.8,5.18,10.16.78,1.5,3.26.47,2.74-1.16-.21-.66-.5-1.61-1.03-2.08-.9-.81-2.08-.4-2.51.66-.2.5.05,1,.18,1.48.25.88.53,1.75.75,2.64.48,1.94.83,3.9,1.36,5.83,1.03,3.77,2.83,7.27,4.28,10.88s2.42,7.42,3.61,11.14c.54,1.69,1.16,3.33,1.48,5.08.35,1.87.51,3.77.87,5.64.63,3.37,2.2,6.09,4.06,8.92,2.01,3.05,3.13,6.3,4.41,9.69,1.37,3.61,2.67,7.18,3.73,10.9,1.04,3.68,2.51,7.11,4.24,10.52,1.9,3.74,3.73,7.52,5.63,11.27.48.95.98,1.89,1.54,2.8.39.63.75,1.41,1.54,1.6.66.16,1.22-.11,1.67-.58.21-.22,1.06-1.29.53-.92h-1.51c-.45-.23-.09.31-.04.46.13.41.37.82.54,1.21.29.64.57,1.29.86,1.93.64,1.42,1.29,2.84,2,4.22,1.32,2.57,2.87,5,4.8,7.15,1.29,1.44,3.41-.69,2.12-2.12-2.05-2.28-3.57-4.94-4.91-7.69-.65-1.33-1.25-2.68-1.86-4.04-.45-1.02-.97-3.18-2-3.72-.45-.24-1.07-.31-1.51,0-.34.23-.55.47-.79.81-.14.2-.71.86-.26.54l1.16-.15-.07-.02.9.69c-1.86-2.85-3.17-5.99-4.68-9.03s-3.22-6.08-4.66-9.21-2.24-6.35-3.22-9.61c-1.01-3.36-2.41-6.61-3.64-9.9-1.14-3.04-2.27-5.79-4.06-8.5-1.68-2.56-3.06-4.95-3.63-8-.62-3.29-.93-6.47-2-9.66-1.13-3.35-1.96-6.79-3.16-10.12-1.29-3.59-3.02-7.01-4.32-10.59-.66-1.81-1.1-3.67-1.51-5.55-.2-.88-.38-1.77-.6-2.65-.11-.44-.22-.88-.35-1.32-.05-.17-.4-1.65-.58-1.2l-2.51.66c-.29-.26-.06.01.05.23.08.17.15.36.21.53l2.74-1.16c-1.47-2.82-3.05-5.6-4.42-8.48-1.52-3.2-2.44-6.56-3.17-10.03-.77-3.68-1.57-7.35-2.35-11.03-.7-3.31-1.02-6.85-2.21-10.03-1.12-2.98-3.22-5.54-4.08-8.62-.97-3.45-1.31-7.04-2.14-10.52s-2.39-6.44-3.42-9.74-1.13-7.06-1.78-10.58c-.31-1.68-.75-3.31-.97-5.01-.24-1.83-.38-3.67-.62-5.5-.48-3.63-1.63-7.02-2.8-10.47-1.15-3.4-1.99-6.73-2.32-10.31s-.81-7.25-1.77-10.86-1.62-6.97-2.63-10.36c-.95-3.21-2.73-6.11-3.57-9.36-.92-3.53-1.29-7.29-1.83-10.9-.55-3.71-1.15-7.4-1.71-11.1-.59-3.91-.86-7.77-.39-11.72.42-3.51,1.27-7.14,3.96-9.64,2.35-2.18,4.57-1.12,6.39,1.08.99,1.2,1.79,2.57,2.55,3.93.65,1.17,1.16,2.79,2.09,3.76.52.54,1.62.62,2.12,0,.28-.35.4-.62.49-1.04.04-.18.23-1.3.07-.79h-2.89c.86,3.73.47,7.63,1.22,11.38.82,4.06,2.49,7.9,3.5,11.91,2.03,8.03,4.82,15.86,6.89,23.88,1.03,4,2.08,8.02,3.24,11.99,1.11,3.83,3.1,7.75,3.34,11.76.22,3.66-.59,7.37.64,10.92,1.17,3.37,3.66,6.14,4.71,9.54,1.11,3.58.04,7.42.58,11.08.52,3.52,2.71,6.23,4.44,9.23.86,1.48,1.34,3,1.82,4.64.64,2.17,1.35,4.31,2.02,6.46.55,1.77,1.16,3.54,1.39,5.39.25,2.01.2,4.04.38,6.05.16,1.85.61,3.57,1.05,5.36.52,2.11.92,4.24,1.39,6.36.86,3.87,2.26,7.48,3.65,11.18s2.59,7.75,3.89,11.61c.65,1.93,1.28,3.85,1.64,5.86s.51,3.97.83,5.94c.71,4.41,2.89,8.15,4.51,12.24,1.64,4.14,2.33,8.6,3.64,12.85,1.17,3.8,3.9,6.67,5.42,10.28.85,2.01,1.38,4.19,2.04,6.27.34,1.07.68,2.13,1.02,3.2.32.99.53,2.17,1.03,3.07.87,1.56,3.04.45,2.74-1.16-.01-.07-.15-.7-.11-.39l-2.56,1.06c-.37-.44.23,1.08.29,1.29.14.49.26.99.37,1.49.24,1.1.42,2.2.6,3.31.36,2.3.67,4.62,1.37,6.85,1.41,4.51,3.73,8.68,5.1,13.21,1.22,4.03,1.65,8.16,4.7,11.29,1.25,1.29,2.7,2.47,3.02,4.34.37,2.17-.26,4.5-.89,6.57l.69-.9c.84.08,1.02.02.56-.19-.16-.1-.31-.2-.46-.3-.33-.2-.61-.42-.98-.54-.78-.26-1.64-.07-2.1.66-.57.9,0,2.04.2,2.97.24,1.13.41,2.26.43,3.41.04,2.11-.45,4.07-2.48,5.04-1.62.78-3.76.92-4.99-.57s-3.34.64-2.12,2.12h0Z"/>
    </g>
    <g>
      <path class="cls-1" d="m30.01,116.62c3.79-2.64,7.66-5.06,11.96-6.85,4.27-1.78,8.52-3.89,13.08-4.74,2.02-.38,4.28-.39,6.24.18s4.55,2.42,4.56,4.39c.02,2.1-2.75,3.7-4.54,4.92-3.24,2.19-7.08,3.1-10.72,4.6s-6.93,3.76-10.63,5.01c-2.83.95-5.51.52-8.25-.65s-4.02-3.53-1.34-4.82"/>
      <path d="m30.77,117.92c2.25-1.56,4.55-3.07,6.95-4.4s4.95-2.41,7.49-3.5c4.66-2.01,10.5-4.92,15.69-3.35,1.26.38,4.18,1.91,3.26,3.61-.47.86-1.42,1.49-2.2,2.03-.99.68-2,1.36-3.06,1.93-2.38,1.26-4.97,2.02-7.48,2.97s-4.74,2.13-7.05,3.33c-2.72,1.41-5.64,3-8.81,2.55-1.38-.19-2.95-.65-4.12-1.42-.29-.19-.97-.64-1.02-1.04-.03-.22.33-.44.72-.65,1.7-.91.19-3.5-1.51-2.59-2.55,1.36-2.87,4.18-.71,6.11,2.29,2.04,6.07,2.93,9.06,2.6,3.38-.37,6.49-2.24,9.45-3.78s6.12-2.64,9.28-3.85c2.86-1.1,5.52-2.53,7.93-4.43,2.08-1.63,3.58-4.04,2.07-6.61-3.4-5.77-11.65-4.33-16.81-2.51-7.32,2.58-14.27,6.01-20.64,10.43-1.57,1.09-.08,3.7,1.51,2.59h0Z"/>
    </g>
    <g>
      <path class="cls-1" d="m36.06,143.67c3.79-2.64,7.8-5.42,12.09-7.21s9.24-1.74,13.8-2.59c2.02-.38,4.07-.96,6.04-.39s3.54,2.22,3.56,4.19c.02,2.1-1.86,3.42-3.66,4.64-3.24,2.19-6.88,3.4-10.52,4.9s-6.74,4.34-10.44,5.58c-2.83.95-5.74-.02-8.49-1.18s-3.71-3.04-1.03-4.33"/>
      <path d="m36.81,144.96c4.25-2.96,8.73-6.33,13.78-7.77,2.57-.73,5.23-.99,7.87-1.31,1.15-.14,2.31-.29,3.45-.49,1.4-.25,2.8-.66,4.23-.65,1.85.01,4.81,1.54,3.67,3.84-.42.85-1.3,1.46-2.06,1.99-1.06.75-2.17,1.42-3.33,2.02-2.41,1.24-4.97,2.13-7.47,3.17-2.15.9-4.09,2.15-6.07,3.36-2.5,1.53-5.04,2.98-8.08,2.38-1.48-.29-3.07-.83-4.39-1.56-.27-.15-.96-.46-1.05-.8-.03-.12,0-.11-.03-.05.07-.22.66-.43.82-.52,1.71-.9.19-3.49-1.51-2.59-2.59,1.36-3.07,4.08-.66,5.93,1.11.86,2.49,1.36,3.81,1.83,1.69.6,3.53,1.04,5.34.9,3.07-.23,5.79-2.01,8.34-3.6,2.72-1.69,5.52-2.87,8.48-4.08,4.21-1.73,13.42-5.43,10.58-11.55-1.29-2.77-4.41-3.9-7.3-3.64-1.53.14-3.02.53-4.53.78-1.76.29-3.54.46-5.31.69-3.71.48-7.1,1.35-10.45,3.05s-6.52,3.9-9.63,6.07c-1.57,1.1-.07,3.7,1.51,2.59h0Z"/>
    </g>
    <g>
      <path class="cls-1" d="m44.09,173.04c3.79-2.64,7.99-4.8,12.28-6.59s8.64-3.9,13.2-4.75c2.02-.38,4.56-.47,6.52.1s4.01,3.03,4.03,5c.02,2.1-1.56,4.93-3.35,6.15-3.24,2.19-7.31,3.34-10.95,4.84s-7.49,2.42-11.2,3.67c-2.83.95-5.91,1.23-8.65.06s-4.34-5.8-1.66-7.09"/>
      <path d="m44.85,174.33c4.87-3.36,10.19-5.7,15.61-8.01,2.8-1.19,5.65-2.34,8.64-3,2.23-.49,5.55-1.01,7.55.41.84.59,1.64,1.54,1.9,2.56s-.16,2.11-.62,3c-1.21,2.34-3.5,3.45-5.83,4.46-5.52,2.39-11.25,4.12-16.97,5.97-2.69.87-6.39,1.94-8.99.18-1.03-.7-2.68-3.3-1.06-4.17,1.7-.92.18-3.51-1.51-2.59-2.35,1.27-2.5,4.08-1.51,6.3,1.19,2.67,3.65,3.93,6.47,4.26,3.68.42,7.1-1.02,10.56-2.06s6.91-2.35,10.35-3.64c3.09-1.16,6.72-2.29,9.16-4.61,1.91-1.81,3.49-4.92,2.92-7.6s-3.06-5.09-5.78-5.63c-3.36-.67-6.83-.04-10.05.97-3.87,1.21-7.6,2.93-11.31,4.54s-7.57,3.67-11.04,6.06c-1.58,1.09-.08,3.69,1.51,2.59h0Z"/>
    </g>
    <g>
      <path class="cls-1" d="m54.6,200.57c3.79-2.64,7.53-5.54,11.82-7.32s8.74-3.54,13.31-4.39c2.02-.38,4.39-.21,6.36.37s2.18,2.6,2.2,4.57c.02,2.1-1.21,2.54-3,3.75-3.24,2.19-5.97,5.04-9.62,6.55s-7.14,3.32-10.85,4.57c-2.83.95-6.17,1.43-8.91.26s-3.74-5.36-1.06-6.64"/>
      <path d="m55.36,201.87c2.26-1.58,4.48-3.23,6.82-4.69s5-2.66,7.66-3.72,5.43-2.03,8.24-2.72c1.32-.32,2.61-.59,3.97-.59,1.12,0,2.92,0,3.9.62.73.47.78,1.54.82,2.32.05,1.02.01,1.6-.82,2.22-2.01,1.5-4.07,2.94-6.07,4.46-2.23,1.7-4.57,2.81-7.12,3.94-2.68,1.19-5.33,2.46-8.11,3.41-2.47.84-5.92,1.69-8.36.3-1.26-.72-2.31-2.98-.68-3.86s.19-3.51-1.51-2.59c-2.18,1.18-2.78,3.75-1.92,5.97,1.02,2.6,3.42,3.79,6.09,4.08,3.48.38,6.86-.78,10.03-2.09,1.57-.65,3.13-1.35,4.68-2.05,1.65-.74,3.37-1.37,4.96-2.22,2.94-1.59,5.35-3.96,8.11-5.83.94-.64,2-1.19,2.74-2.07.89-1.06,1.05-2.34.99-3.68-.06-1.22-.23-2.49-.89-3.55-.9-1.43-2.46-1.88-4.04-2.14-3.45-.58-6.74.13-10.04,1.13-3.77,1.14-7.6,2.55-11.11,4.33s-6.64,4.17-9.85,6.41c-1.57,1.1-.07,3.7,1.51,2.59h0Z"/>
    </g>
    <g>
      <path class="cls-1" d="m63.07,229.5c3.79-2.64,6.51-7.39,10.81-9.18,4.27-1.78,9.4-1.23,13.97-2.09,2.02-.38,4.32-2.13,6.29-1.56s3.76,3.2,3.78,5.17c.02,2.1-1.95,4.06-3.74,5.27-3.24,2.19-6.74,4.15-10.38,5.66s-7.59,2.12-11.29,3.37c-2.83.95-6.34,2.87-9.08,1.71s-3.82-7.15-1.14-8.44"/>
      <path d="m63.83,230.79c4.3-3.08,7.07-8.29,12.44-9.69,3.02-.78,6.17-.72,9.25-1.05,1.39-.15,2.79-.3,4.1-.8,1.15-.43,2.57-1.36,3.84-1.2,1.06.13,1.89,1.17,2.38,2.03.65,1.14.74,2.21.02,3.34-.79,1.23-2,2.09-3.2,2.88-1.39.92-2.82,1.78-4.29,2.58-2.82,1.55-5.74,2.84-8.84,3.72s-6.13,1.54-9.09,2.68c-2.03.78-5.78,2.66-7.37.27-.74-1.11-1.57-4.03-.04-4.87,1.7-.92.19-3.51-1.51-2.59-2.22,1.21-2.54,3.98-2.11,6.23.49,2.57,2.17,4.87,4.87,5.28,3.5.52,6.87-1.55,10.12-2.51,3.77-1.11,7.57-1.91,11.19-3.5s7.04-3.43,10.09-5.76c2.62-2,4.6-4.96,3.23-8.29-1.21-2.94-3.96-5.12-7.23-4.27-1.59.42-3.01,1.29-4.65,1.57-1.86.32-3.75.38-5.63.52-3.92.29-7.83.85-11.03,3.29-2.93,2.24-5.05,5.38-8.05,7.53-1.56,1.11-.06,3.72,1.51,2.59h0Z"/>
    </g>
    <g>
      <path class="cls-1" d="m70.34,256.69c3.79-2.64,7.58-5.4,11.88-7.19s8.78-3.19,13.34-4.04c2.02-.38,4.36-.89,6.32-.31s4.37,2.78,4.38,4.75c.02,2.1-2.33,4.21-4.12,5.42-3.24,2.19-6.98,3.67-10.62,5.18s-7.11,3.48-10.81,4.73c-2.83.95-5.82-.18-8.56-1.34s-3.75-3.18-1.07-4.47"/>
      <path d="m71.1,257.99c4.5-3.14,8.93-6.13,14.11-8.06,2.62-.98,5.3-1.8,8.03-2.44,2.41-.57,5.38-1.5,7.86-.99,1.57.32,4.15,2.13,3.57,3.99-.66,2.13-3.32,3.65-5.12,4.68-2.3,1.32-4.75,2.36-7.2,3.38s-4.92,2.17-7.36,3.3c-2.77,1.29-5.51,2.72-8.62,1.95-1.47-.36-3.05-.9-4.36-1.66-.3-.17-.92-.52-1-.91.01.06.53-.37.82-.52,1.71-.9.19-3.49-1.51-2.59-2.47,1.3-3.08,3.96-.87,5.87,1.13.97,2.6,1.5,3.97,2.02,1.63.61,3.38,1.1,5.14,1.07,3.18-.05,6.36-1.9,9.17-3.22,3.1-1.46,6.28-2.71,9.4-4.12,4.06-1.84,13.1-6.23,10-12.09-3.36-6.36-11.51-3.98-16.97-2.48-3.67,1.01-7.35,2.27-10.75,3.97s-6.65,4.03-9.84,6.25c-1.57,1.1-.07,3.7,1.51,2.59h0Z"/>
    </g>
    <g>
      <path class="cls-1" d="m77.7,284.01c3.79-2.64,8.55-3.58,12.84-5.37s8.46-3.56,13.03-4.41c2.02-.38,3.88-.41,5.85.16s5.12,1.59,5.14,3.56c.02,2.1-3.3,3.39-5.09,4.61-3.24,2.19-7,3.1-10.64,4.6s-7.15,3.03-10.86,4.28c-2.83.95-5.37,2.07-8.12.9s-4.39-5.26-1.71-6.55"/>
      <path d="m78.46,285.3c2.36-1.6,5-2.57,7.68-3.48s5.2-1.92,7.78-2.97c2.83-1.15,5.71-2.22,8.69-2.9,2.73-.63,5.16-.6,7.82.32.76.26,1.9.62,2.4,1.28.46.61-.06,1.06-.58,1.49-.76.64-1.68,1.09-2.54,1.6-1.08.63-2.1,1.35-3.23,1.91-2.52,1.26-5.25,2.02-7.85,3.08-2.81,1.14-5.58,2.35-8.42,3.41-1.59.6-3.2,1.17-4.83,1.68-1.51.48-3.16.91-4.7.33-1.17-.44-3.63-2.97-1.78-3.97,1.7-.92.18-3.51-1.51-2.59-2.43,1.32-2.54,4.23-1.25,6.42,1.56,2.65,4.54,3.73,7.5,3.31,1.63-.23,3.17-.81,4.72-1.34,1.91-.66,3.8-1.37,5.68-2.13,3.34-1.35,6.67-2.7,10.05-3.96,2.95-1.1,5.55-2.6,8.25-4.2,2-1.2,4.45-3.1,3.5-5.76-.84-2.35-3.86-3.28-6.03-3.89-3.56-.99-7.21-.22-10.67.83-3.9,1.18-7.56,2.97-11.39,4.33s-7.54,2.39-10.82,4.62c-1.59,1.08-.09,3.68,1.51,2.59h0Z"/>
    </g>
  </g>
  <g>
    <polygon class="cls-2" points="104.78 130.86 120.99 119.16 130.19 108.32 137.36 99.45 149.37 84.87 153.58 77.3 156.11 71.37 152.96 66.73 147.42 68.53 139.19 74.98 128.25 86.21 118.42 96.11 107.76 105.43 102.13 111.81 100.11 112.77 98.87 125.75 104.78 130.86"/>
    <g>
      <polygon class="cls-2" points="37.12 131.38 49.65 121.92 46.7 86.12 37.94 62.53 31.56 42.3 24.18 37.45 19.11 37.87 16.47 38.96 13.12 43.05 12.22 49.63 14.87 61.12 17.97 73.22 24.91 98.39 31.43 118.23 37.12 131.38"/>
      <polygon class="cls-2" points="98.52 99.9 82.11 80.52 68.15 77.16 51.36 80.01 46.7 86.12 41.49 93.72 39.84 108.6 38.4 125.52 38.95 132.16 48.71 154.86 53.94 165.14 58.85 171.25 62.35 176.32 58.87 184.04 51.9 193.7 49.94 208.59 48.71 216.6 49.64 227.9 55.58 238.51 59.72 244.57 65.08 247.39 68.1 246.27 71.07 241.6 73.89 235.2 71.67 224.84 72.47 220.18 72.91 214.61 76.14 212.05 79.78 202.25 82.17 195.82 84.49 188.08 84.05 198.02 87.1 205.54 92.78 218.51 97.95 222.68 98.9 227.65 102.06 231.46 107.08 236.57 112.71 239.49 116.01 243.21 120.77 245.25 124.16 244.97 128.42 242.19 130.2 234.02 120.69 224.15 117.46 217.57 115.09 213.27 113.6 206.89 112.42 199.56 110.71 193.48 111.09 183.32 114.08 181.12 112.42 165.18 110.36 153.05 107.47 134.57 104.69 119.64 102.07 109.73 98.52 99.9"/>
      <g>
        <path d="m82.08,191.22c-.47,1.23-1.16,2.45-1.48,3.74-.28,1.14.05,2.49-.55,3.52-.52.89-1.35,1.53-1.78,2.5-.55,1.23-.69,2.59-1.17,3.84s-1.18,2.45-1.68,3.72-1.03,2.51-1.48,3.79c-.87,2.42-1.42,4.93-1.63,7.5-.11,1.27-.53,2.43-.7,3.69-.18,1.36.16,2.69.42,4.01.53,2.64.55,5.68.31,8.36-.11,1.19-.25,2.53-.82,3.6s-1.35,1.92-1.79,3.05-.69,1.73-1.67,2.45c-.77.56-1.62,1.16-2.6,1.19-1.09.03-2.33-.44-3.25-.99-1.22-.72-1.47-1.55-2.02-2.78-.98-2.18-2.98-3.67-4.34-5.57-1.48-2.08-2.25-4.6-3.38-6.87s-1.54-4.88-1.8-7.46c-.12-1.24.09-2.39.09-3.62,0-1.39-.62-2.65-.68-4.02-.12-2.96.06-6,.13-8.96.02-1.15.5-2.02.86-3.08.45-1.32.3-2.73.62-4.07.6-2.51,2.12-4.56,2.92-6.96.45-1.37.95-2.63,1.59-3.93s1.53-2.21,2.32-3.37.97-2.43,1.32-3.71c.38-1.39,1.08-2.68,1.54-4.04s.85-2.84,1.38-4.21,1.07-2.67,1.26-4.19.49-2.91.79-4.34,1.22-2.47,1.85-3.72c.86-1.72-1.73-3.24-2.59-1.51-.56,1.13-1.35,2.12-1.81,3.3s-.56,2.61-.88,3.89c-.34,1.38-.31,2.79-.83,4.13s-1.03,2.76-1.5,4.17c-.43,1.28-.86,2.55-1.38,3.79s-.75,2.58-1.2,3.87c-.43,1.22-1.45,2.04-2.14,3.11-.74,1.15-1.34,2.5-1.88,3.76s-.78,2.55-1.45,3.75-1.2,2.49-1.68,3.81c-.44,1.21-.7,2.38-.81,3.66-.12,1.41-.63,2.47-1.03,3.8s-.21,2.69-.23,4.04c-.02,1.61-.1,3.22-.14,4.83s-.05,2.99.34,4.5.08,2.75.12,4.27c.06,2.58.47,5.49,1.34,7.93.43,1.2,1.09,2.32,1.58,3.5.54,1.3,1.18,2.54,1.81,3.79,1.21,2.41,3.21,4.14,4.77,6.31.7.98.85,2.22,1.61,3.16s1.95,1.69,3.09,2.17c2.19.93,4.41,1.22,6.57.07,1.03-.55,2.17-1.33,2.93-2.22s.94-2.03,1.48-3.05c.58-1.09,1.43-1.98,1.85-3.16.48-1.35.65-2.86.76-4.28.22-2.83.14-5.92-.39-8.72-.15-.8-.38-1.6-.42-2.42-.03-.77.23-1.44.41-2.17.38-1.53.44-3.15.7-4.71.52-3.06,1.64-5.87,2.82-8.74.64-1.56,1.47-2.96,1.92-4.6.2-.75.33-1.58.69-2.27.29-.54.77-.99,1.14-1.47.95-1.24,1.09-2.46,1.2-3.98.12-1.62.99-3.08,1.57-4.58.69-1.8-2.21-2.58-2.89-.8h0Z"/>
        <path d="m110.35,186.32c-.01,1.19.42,2.3.48,3.48s-.08,2.3-.08,3.43c0,2.16-.2,4.36-.03,6.52.08,1.03.42,1.94.78,2.9s.56,1.94.86,2.91c.63,2.07,1.07,4.18,1.72,6.25.62,1.94,1.26,4.19,2.34,5.92.46.73,1.14,1.24,1.71,1.87.6.67.63,1.41.81,2.25.45,2.11,2.14,3.39,3.25,5.15,1.16,1.84,2.41,3.56,3.88,5.18,1.3,1.44,3.41-.69,2.12-2.12-1.4-1.55-2.49-3.21-3.64-4.94-.55-.84-1.24-1.56-1.86-2.35s-.78-1.47-.98-2.44c-.17-.87-.45-1.61-.99-2.31-.51-.65-1.23-1.13-1.7-1.8-.55-.78-.82-1.87-1.17-2.76-.37-.95-.69-1.9-1-2.86-.62-1.92-1-3.9-1.59-5.84-.29-.97-.5-1.96-.86-2.91-.38-1-.7-1.89-.69-2.98.02-2.05.04-4.09.04-6.14,0-1.05.14-2.11.08-3.16-.06-1.1-.48-2.15-.47-3.26.02-1.93-2.98-1.93-3,0h0Z"/>
        <path d="m45.03,92.23c1.13-2.18,2.13-4.77,4.38-6.06,1.03-.59,1.94-1.16,2.79-1.99.91-.88,1.76-1.51,2.92-2.03s2.22-.99,3.37-1.39c1.31-.45,2.56-.63,3.91-.87,2.46-.45,4.98-1.98,7.55-1.52s4.86,1.09,7.24,1.78c1.09.32,2.16.69,3.26.98,1.27.34,1.84,1.1,2.79,1.94.86.76,1.88,1.14,2.81,1.79s1.23,1.96,1.98,2.85c.81.96,1.72,1.84,2.52,2.82s1.48,2.09,2.42,2.91c.4.35.93.65,1.25,1.08s.31,1.01.38,1.54c.17,1.23.63,2.11,1.39,3.08.85,1.1,1.24,2.03,1.59,3.36.32,1.2.78,2.15,1.53,3.13,1.5,1.93,2.02,4.65,2.66,6.98.32,1.17.23,2.22.33,3.42.11,1.35.67,2.61,1.02,3.91.3,1.11.8,2.1,1.15,3.18.42,1.32-.04,2.75.23,4.11.23,1.16.85,2.19,1.07,3.36.26,1.36.23,2.76.5,4.12.24,1.2.46,2.43.75,3.62.15.63.37,1.24.5,1.87.15.72.02,1.26-.11,1.98-.21,1.15-.18,2.16.25,3.26.21.54.49,1.06.65,1.63.2.71.09,1.39.02,2.11-.14,1.46.22,2.8.52,4.22.33,1.53.44,3.1.74,4.64.29,1.46.76,2.84,1,4.32s.54,2.97.91,4.46.19,2.84.37,4.28c.2,1.55.27,3.11.51,4.65s.41,3.16.52,4.77c.11,1.72-.57,2.88-1.24,4.4-.77,1.75,1.81,3.28,2.59,1.51.53-1.2,1.26-2.37,1.53-3.67.3-1.45.06-2.94-.04-4.4-.2-2.92-.92-5.81-.98-8.75s-.89-5.67-1.36-8.53c-.21-1.31-.66-2.54-.92-3.84-.3-1.54-.41-3.11-.74-4.64-.32-1.45-.45-2.59-.34-4.08.1-1.38-.26-2.44-.77-3.69-.23-.55-.41-1.04-.36-1.64.05-.67.3-1.31.34-1.98.08-1.34-.45-2.59-.75-3.87s-.62-2.71-.82-4.05c-.21-1.44-.16-2.92-.6-4.33s-.89-2.4-.83-3.89-.19-2.65-.76-4.01c-.49-1.16-.78-2.38-1.15-3.58-.44-1.39-.3-2.61-.48-4.03-.16-1.26-.6-2.52-.97-3.73-.42-1.37-.84-2.79-1.42-4.09-.45-1.01-1.3-1.71-1.79-2.68-.63-1.27-.63-2.76-1.35-4.02-.56-.98-1.6-1.77-1.89-2.88-.33-1.27-.22-2.42-1.14-3.49-.76-.89-1.72-1.48-2.44-2.43-.89-1.18-1.83-2.33-2.84-3.41-.43-.46-.89-.87-1.21-1.42-.28-.48-.48-1-.79-1.47-.75-1.15-1.91-1.68-3.06-2.34-.97-.56-1.62-1.46-2.5-2.14-1.06-.82-2.27-1.03-3.53-1.38-2.56-.72-5.05-1.63-7.67-2.11-1.58-.29-3-.75-4.62-.47-1.46.25-2.99.55-4.38,1.06s-2.88.58-4.34.96-2.92,1.01-4.33,1.64-2.63,1.13-3.74,2.09-1.91,1.73-3.14,2.45c-2.73,1.58-4.07,4.46-5.45,7.14-.89,1.71,1.7,3.23,2.59,1.51h0Z"/>
        <path d="m41.08,133.67c-.6-1.02-1.23-2.02-1.81-3.05-.52-.94-1.22-2.01-1.53-3.02-.15-.5-.19-1-.38-1.49-.24-.64-.62-1.21-.96-1.8-.58-1.01-1.08-2.14-1.97-2.93-.82-.72-1.39-.94-1.23-2.16.17-1.34-.08-2.62-.85-3.74-.25-.37-.56-.67-.76-1.07-.27-.54-.41-1.15-.66-1.7-.49-1.05-.93-1.94-1.02-3.11-.18-2.36-1.62-4.29-1.9-6.62-.15-1.26-.56-2.42-1.28-3.47s-.7-1.83-.76-3.04-.61-2.32-1.2-3.39c-.53-.97-.85-2.06-1.3-3.07s-.56-2.14-.74-3.26c-.2-1.25-.69-2.3-1.12-3.46s-.06-2.02-.14-3.22-.5-2.57-.8-3.78c-.15-.61-.33-1.24-.65-1.79-.22-.37-.55-.67-.75-1.06-.57-1.07-.85-2.64-1.14-3.83-.26-1.08-.39-2.19-.59-3.28-.22-1.21.05-2.37-.29-3.59-.31-1.15-.94-2.15-1.17-3.33-.21-1.11-.14-2.21-.53-3.3-.28-.79-.8-1.47-1.08-2.26s-.22-1.54-.26-2.33c-.08-1.64-.07-3.32-.2-4.96-.05-.67-.27-1.41-.08-2.07s.77-1.27,1.19-1.82c.71-.93,1.13-2.39,2.18-2.98,1.36-.76,2.96-.7,4.45-.75,1.73-.06,3.24.54,4.88,1,3.2.9,4.31,4.09,5.14,7,.48,1.66.64,3.15,1.62,4.6.89,1.33.1,2.88.47,4.39.42,1.69,1.26,3.21,1.62,4.94.38,1.84,1,3.66,1.65,5.42.58,1.56,1.13,3.15,1.96,4.59s1.68,2.91,2.36,4.4c.74,1.62.91,3.34,1.85,4.9s1.7,3.32,2.57,5,3.48.2,2.59-1.51c-.77-1.48-1.34-3.02-2.22-4.44-.44-.7-.87-1.38-1.13-2.17-.28-.84-.41-1.71-.74-2.54-.58-1.46-1.44-2.93-2.2-4.31s-1.43-2.79-2-4.31c-1.19-3.15-1.76-6.46-3-9.57-.34-.85-.51-1.51-.43-2.42.06-.74.17-1.44.02-2.17-.13-.64-.43-1.18-.79-1.71-.47-.69-.69-1.21-.87-2.03-.64-3-1.61-6.55-3.88-8.75-1.21-1.16-2.39-1.82-4-2.26s-3.13-1.01-4.82-1.06c-2.91-.08-6.64.17-8.41,2.86-.38.57-.65,1.21-1.03,1.78s-.84,1.05-1.21,1.62c-.94,1.43-.88,2.74-.75,4.37.07.88-.02,1.77.02,2.66s.16,1.69.19,2.54.03,1.69.24,2.5.65,1.51,1,2.25c.55,1.16.46,2.29.7,3.52.25,1.31.98,2.43,1.26,3.72.26,1.18.01,2.38.28,3.59.29,1.28.4,2.58.75,3.85.33,1.19.58,2.53,1.16,3.62.23.43.59.76.82,1.19.32.6.42,1.34.56,2,.26,1.18.51,2.15.37,3.35-.17,1.39.31,2.6.84,3.86.48,1.15.59,2.32.79,3.53s.7,2.23,1.18,3.35c.29.68.44,1.4.77,2.06.2.41.48.78.67,1.2.52,1.13.19,2.26.48,3.43.33,1.35,1.32,2.28,1.73,3.57s.4,2.55.9,3.8,1.09,2.34,1.19,3.67c.11,1.43.56,2.68,1.2,3.95.35.69.52,1.47.89,2.15.25.47.64.84.91,1.29.71,1.2,0,2.43.38,3.72.48,1.66,1.89,2.12,2.71,3.46.66,1.07,1.48,2.25,1.73,3.48.27,1.32,1.03,2.49,1.63,3.68s1.4,2.42,2.11,3.62c.98,1.66,3.58.15,2.59-1.51h0Z"/>
        <path d="m104.18,136.2c1.15-1.02,2.39-1.96,3.4-3.12s2.06-2.14,3.21-3.15c.98-.86,1.98-1.69,2.97-2.52s2.17-1.34,3.09-2.22,1.49-2.11,2.44-3.01c1.16-1.1,2.35-2.16,3.49-3.29.95-.94,1.78-1.92,2.65-2.94.91-1.07,2.17-1.55,3.19-2.49s1.59-2.13,2.51-3.08,1.94-2.02,2.99-2.93c2.07-1.78,3.42-4.09,5.06-6.25.76-1,1.8-1.59,2.65-2.49.96-1.02,1.38-2.36,2.2-3.47,1.72-2.33,3.57-4.61,5.39-6.87,1.68-2.08,2.13-4.8,3.35-7.12.61-1.16,1.54-2.14,2.19-3.29.74-1.3,1.46-2.52,2-3.92.93-2.42,1.53-4.83.34-7.28s-3.73-2.69-6.01-1.6c-.58.28-1.13.63-1.75.8-.56.16-1.14.19-1.7.33-1.41.35-2.54,1.32-3.68,2.18-1.22.92-2.39,1.88-3.54,2.89-1.01.9-1.49,2.06-2.37,3.03-.71.78-1.84.96-2.72,1.5-1.14.7-1.78,1.83-2.56,2.87s-1.85,1.6-2.82,2.38c-1.05.84-1.51,1.88-2.22,2.97-.82,1.26-2.19,2.33-3.27,3.37s-2.13,2.17-3.46,2.92-2.29,1.74-3.31,2.89c-.47.53-.99,1.02-1.44,1.57-.51.62-.88,1.35-1.41,1.95-.89,1.01-2.27,1.42-3.23,2.35-1.09,1.05-1.73,2.41-2.88,3.42s-2.34,2.03-3.41,3.19c-1.16,1.25-2.26,2.58-3.44,3.8-1.35,1.38.77,3.51,2.12,2.12,1.92-1.96,3.55-4.21,5.65-5.99.99-.84,1.96-1.6,2.74-2.65s1.38-1.88,2.52-2.56c2.11-1.26,3.3-3.28,4.91-5.07.86-.96,1.58-1.78,2.7-2.42,1.19-.67,2.11-1.53,3.1-2.47,1.79-1.7,3.86-3.36,5.07-5.54.62-1.11,1.37-1.68,2.39-2.41s1.79-1.57,2.5-2.6c.65-.94,1.16-1.48,2.21-1.96,1.16-.52,2.09-1.06,2.86-2.09s1.29-1.9,2.25-2.74c1.08-.94,2.18-1.83,3.32-2.68.52-.39,1.08-.86,1.68-1.13.53-.24,1.12-.28,1.69-.39,1.3-.25,2.33-1.13,3.58-1.45,1.06-.26,1.38.6,1.57,1.5.28,1.29-.28,2.6-.72,3.8s-1.09,2.3-1.75,3.44-1.41,2.05-2.08,3.11c-1.4,2.23-1.68,5.12-3.36,7.19s-3.18,4.19-4.86,6.22c-.81.99-1.34,2.05-2,3.13s-1.76,1.6-2.59,2.5c-.78.85-1.43,1.85-2.15,2.76-.86,1.09-1.46,2.38-2.48,3.33-1.83,1.7-3.78,3.31-5.26,5.33-.41.56-.78,1.17-1.33,1.61s-1.2.73-1.76,1.14c-1.17.86-1.93,2.11-2.92,3.15-2.08,2.16-4.51,3.98-6.24,6.43-.84,1.19-2.09,1.68-3.2,2.58s-2.16,1.8-3.21,2.73c-1.14,1.02-2.3,1.98-3.3,3.15-1.1,1.29-2.4,2.33-3.67,3.45-1.45,1.28.68,3.4,2.12,2.12h0Z"/>
        <path d="m126.81,232.11c.53.34,1.15.65,1.59,1.1.49.51.43.98.48,1.65.05.63.21,1.22.29,1.84.09.73-.04,1.43-.06,2.16-.02.6.18,1.29,0,1.88s-.78,1.26-1.21,1.71c-.94.98-2.45,1.51-3.78,1.34s-3.04-.07-4.34-.49-2.43-1.55-3.77-2.09-2.21-1.01-3.26-2.09c-.99-1.02-2.13-1.93-3.2-2.87-1.01-.89-2.44-1.35-3.36-2.3s-1.41-2.2-2.45-3.05-2.06-1.4-2.91-2.56c-.9-1.23-1.69-2.45-2.47-3.76s-1.3-2.72-2.12-3.93-1.81-2.19-2.58-3.44c-1.58-2.57-2.55-5.4-3.59-8.22-.52-1.43-.77-3.02-1.59-4.33-.35-.55-.94-1.11-1.09-1.76-.18-.74.18-1.61.21-2.36.06-1.73-.82-3.32-.82-5.05,0-1.92.11-3.86.25-5.78s-2.86-1.92-3,0-.25,3.86-.25,5.78.96,3.63.78,5.45c-.15,1.49-.29,2.69.52,4.05.36.6.85,1.12,1.14,1.76.39.89.56,1.91.89,2.83,1.14,3.22,2.31,6.4,4.08,9.32.75,1.24,1.78,2.22,2.57,3.42.48.72.73,1.56,1.12,2.32.46.88,1.02,1.73,1.52,2.58.83,1.41,1.87,2.91,2.98,4.12.98,1.06,2.35,1.55,3.21,2.74.96,1.32,1.72,2.42,3.18,3.23s2.61,1.92,3.87,3.01c1.15.99,2.05,2.25,3.43,2.94.68.34,1.43.52,2.11.84.75.35,1.4.89,2.11,1.32,1.51.91,3.02,1.01,4.73,1.11s3.17.52,4.89-.12,3.09-1.63,4.18-3.21c.51-.74.93-1.51,1.02-2.42.08-.76-.04-1.53,0-2.29.05-.95.08-1.83-.09-2.78-.15-.82-.13-1.66-.3-2.48-.37-1.83-1.95-2.78-3.42-3.71-1.63-1.04-3.14,1.55-1.51,2.59h0Z"/>
        <path d="m44.32,88.39c-.9.68-1.98,1.16-2.8,1.95-.98.94-1.42,2.23-1.84,3.49-.38,1.13-.69,2.19-.82,3.37-.16,1.42-.57,2.72-.86,4.11s-.23,2.66-.22,4.03c0,1.09-.17,1.96-.39,3.01s-.09,1.98,0,2.98.07,1.94.13,2.92c.05.83.3,1.6.4,2.41.13,1.06-.1,2.21-.15,3.28-.05.94-.08,1.87-.34,2.77s-.42,1.78-.35,2.77c.14,2.04.34,3.85,1.26,5.72s.9,3.88,1.68,5.78c.45,1.08,1.14,1.93,1.42,3.09s.34,2.22.68,3.33c.3,1,.54,2.01.88,3,.41,1.18,1.26,2.06,1.67,3.21.64,1.81,3.54,1.03,2.89-.8-.32-.91-.8-1.6-1.29-2.4-.52-.85-.71-1.92-.98-2.88-.24-.86-.57-1.7-.7-2.58-.15-1.06-.29-2.04-.71-3.04-.33-.8-.88-1.47-1.18-2.27-.36-.96-.38-1.94-.6-2.92-.41-1.82-1.6-3.35-1.9-5.2-.13-.83-.16-1.79-.16-2.62s.38-1.61.51-2.43c.28-1.8.5-3.99.37-5.8-.06-.82-.35-1.6-.4-2.41-.06-.93-.02-1.85-.12-2.78-.08-.85-.25-1.72-.07-2.57.19-.91.4-1.71.42-2.66.04-1.55-.12-3.06.24-4.58.34-1.43.66-2.8.84-4.26.16-1.32.61-2.78,1.17-3.99s1.8-1.66,2.83-2.43c1.52-1.15.03-3.76-1.51-2.59h0Z"/>
        <path d="m51.58,84.29c1.93,0,1.93-3,0-3s-1.93,3,0,3h0Z"/>
      </g>
      <g>
        <path d="m46.04,149.73c.93,1.84.97,1.82,1.9,3.66s.94,1.83,1.87,3.67.74,1.93,1.68,3.77,1.34,1.63,2.27,3.47.87,1.87,1.81,3.7.95,1.83,1.88,3.67.93,1.84,1.87,3.68"/>
        <path class="cls-3" d="m46.04,149.73c.93,1.84.97,1.82,1.9,3.66s.94,1.83,1.87,3.67.74,1.93,1.68,3.77,1.34,1.63,2.27,3.47.87,1.87,1.81,3.7.95,1.83,1.88,3.67.93,1.84,1.87,3.68"/>
      </g>
    </g>
    <path d="m135.43,233.94c.37.76.5,1.62.79,2.42s.64,1.62.86,2.47.49,1.7.49,2.6-.1,1.77.08,2.66c.1.53.62,1.4.49,1.92-.1.4-.74.65-1.06.83-.62.35-1.2.72-1.73,1.21-.36.34-.92,1.11-1.45,1.18-.8.1-1.5.62-1.5,1.5,0,.73.69,1.6,1.5,1.5,1.1-.14,1.92-.55,2.76-1.29.65-.57,1.18-1.09,1.94-1.52,1.85-1.04,2.92-2.47,2.36-4.66-.11-.45-.3-.9-.39-1.36-.07-.41-.02-.83-.01-1.24.04-1.18-.1-2.25-.4-3.39s-.66-2.15-1.05-3.23-.6-2.12-1.09-3.14c-.85-1.73-3.44-.21-2.59,1.51h0Z"/>
    <path d="m143.11,229.55c.6.57,1.17,1.18,1.69,1.82.34.43.68.8.75,1.35.09.73.03,1.46.17,2.19s.51,1.37.98,1.95c.37.46.84.85,1.18,1.33.38.54.37,1.26.41,1.9.05.8.14,1.68.04,2.48-.11.88-.46,1.74-.63,2.61-.38,1.89,2.51,2.69,2.89.8.2-.98.53-1.92.67-2.91.13-.93.09-1.88.04-2.82s-.1-1.93-.44-2.81c-.3-.78-.86-1.4-1.42-2-.39-.42-.74-.76-.82-1.36-.1-.78-.01-1.56-.19-2.33-.38-1.66-1.99-3.2-3.18-4.33-1.4-1.32-3.53.79-2.12,2.12h0Z"/>
    <path d="m7.1,23.49c-1.82.91-3.69,1.68-4.94,3.37-1.31,1.78-1.66,4.15-1.8,6.3-.05.78.73,1.53,1.5,1.5.86-.04,1.45-.66,1.5-1.5.01-.23.03-.46.05-.69.01-.12.02-.23.04-.35s.04-.31,0-.09c.07-.47.16-.93.27-1.39.06-.23.12-.45.2-.68.04-.11.08-.22.12-.33.02-.05.15-.34.03-.09.19-.41.4-.81.67-1.17-.08.11-.11.13,0,.02.08-.09.17-.18.25-.27.06-.06.12-.11.18-.17.03-.03.35-.28.08-.08.32-.24.66-.45,1.01-.64.76-.43,1.56-.77,2.34-1.16.7-.35.96-1.4.54-2.05-.46-.72-1.3-.91-2.05-.54h0Z"/>
    <path d="m13.95,27.55c-1.88.83-3.1,2.53-4.44,4-1.52,1.66-2.77,3.42-3.53,5.56-.26.74.3,1.67,1.05,1.85.84.19,1.57-.25,1.85-1.05.04-.11.08-.23.12-.34.03-.09.12-.3.04-.1.09-.22.19-.43.3-.64.21-.42.45-.82.71-1.21.13-.19.27-.38.4-.57.27-.37-.18.22.11-.14.06-.07.12-.15.18-.22.31-.38.65-.74.98-1.11.6-.67,1.16-1.36,1.79-2.01.15-.16.31-.31.48-.46.08-.07.16-.15.25-.22.03-.02.31-.24.16-.13s.14-.09.17-.11c.09-.06.18-.12.28-.18.21-.12.42-.23.64-.33.72-.32.94-1.42.54-2.05-.48-.75-1.28-.88-2.05-.54h0Z"/>
  </g>
  <path d="m54.61,99.02c1.93,0,1.93-3,0-3s-1.93,3,0,3h0Z"/>
  <path d="m76.2,94.28c1.93,0,1.93-3,0-3s-1.93,3,0,3h0Z"/>
  <path d="m63.17,96.31c.17-.71.37-1.41.61-2.1.12-.33.24-.65.37-.98s-.14.32,0,0c.04-.09.08-.17.11-.26.03-.07.07-.14.1-.21l.04-.06c-.14.23-.34.39-.61.48l-.4.05h.09c-.13-.02-.27-.04-.4-.06.07.01.29.1.08,0-.23-.12.05.03.08.04.13.06.26.12.4.19.28.13.55.27.83.41.55.28,1.09.58,1.62.89.68.4,1.67.18,2.05-.54s.19-1.63-.54-2.05c-.67-.39-1.36-.77-2.05-1.11-.35-.17-.69-.34-1.05-.5-.38-.17-.69-.28-1.11-.27-.49.01-.93.23-1.28.56s-.52.84-.7,1.28c-.17.4-.33.79-.47,1.2-.26.73-.48,1.48-.66,2.23s.24,1.66,1.05,1.85,1.65-.23,1.85-1.05h0Z"/>
  <path d="m47.58,93.27l4.93.89c.41.07.79.06,1.16-.15.31-.18.61-.54.69-.9.17-.73-.22-1.7-1.05-1.85l-4.93-.89c-.41-.07-.79-.06-1.16.15-.31.18-.61.54-.69.9-.17.73.22,1.7,1.05,1.85h0Z"/>
  <path d="m71.52,88.9c.76-.3,1.51-.64,2.22-1.05s1.37-.89,2.01-1.41c.28-.22.44-.72.44-1.06,0-.37-.16-.81-.44-1.06s-.66-.46-1.06-.44l-.4.05c-.25.07-.47.2-.66.39-.07.05-.13.1-.2.16l.3-.23c-.93.72-1.95,1.31-3.03,1.77l.36-.15c-.12.05-.23.1-.35.14-.38.15-.69.33-.9.69-.19.32-.27.8-.15,1.16s.34.71.69.9.79.3,1.16.15h0Z"/>
</svg>