<?xml version="1.0" encoding="UTF-8"?>
<svg id="Camada_1" data-name="Camada 1" xmlns="http://www.w3.org/2000/svg" viewBox="0 0 70 100">
  <defs>
    <style>
      .cls-1 {
        fill: #eae6bb;
      }

      .cls-2 {
        fill: #f7f7f7;
        stroke: #000;
        stroke-miterlimit: 10;
      }
    </style>
  </defs>
  <rect class="cls-2" x="2" y="3" width="65" height="94"/>
  <g>
    <path d="m3.85,3.11c2.11.09,4.23.13,6.33.28s4.19.54,6.3.66,4.2-.06,6.3.01,4.17.41,6.27.49,4.18-.3,6.26-.33,4.19.45,6.24.66,4.16.16,6.23.23,4.36-.67,6.43-1.05c.25-.05.51-.08.75-.14.32-.08-.52,0-.19.03.57.05,1.19-.04,1.76-.06,1.43-.05,2.86-.11,4.29-.15,2.18-.06,4.36-.09,6.54-.13,1.93-.04,1.93-3.04,0-3-4.19.08-8.47-.03-12.65.34-2.18.19-4.47.71-6.6,1.19-.42.09.19-.01.16-.02-.13-.03-.29,0-.42-.01-.62-.04-1.24-.04-1.86-.06-1.28-.04-2.56-.05-3.84-.12-2.09-.12-4.16-.54-6.25-.69s-4.19.22-6.24.3-4.17-.27-6.21-.43-4.15-.05-6.21-.05c-2.28,0-4.57-.45-6.84-.65S6.02.21,3.85.11c-1.93-.09-1.93,2.91,0,3h0Z"/>
    <path d="m.62,2.72c.04,5.03.12,10.07-.5,15.07-.19,1.5-.5,3.03-.56,4.54-.05,1.22.11,2.48.16,3.7.13,2.79-.04,5.46-.23,8.25-.17,2.51.08,5.09.3,7.59.09,1.08.28,2.15.42,3.22l.34,2.5c.03.25.02.6.11.84.16.4.17-.44.04-.04-.47,1.47-.65,3.09-.97,4.6-.22,1.06-.45,1.94-.33,3.01L-.02,61.05c.12,1.01-.1,1.98-.23,2.99-.18,1.37-.57,2.85-.57,4.23s.57,2.78.85,4.05l.5,2.27c.04.2.09.4.13.61-.07-.31.01-.45-.07-.07-.36,1.61-.32,3.42-.47,5.06-.23,2.5-.55,5.08-.53,7.59.01,2.37.77,4.72.83,7.1.02.84-.16,1.7.46,2.39.5.55,1.22.99,1.81,1.46,1.09.87,2.88.45,4.19.4,2.74-.11,5.42-.31,8.15-.58,5.26-.52,10.52-.26,15.78.06,4.83.29,9.57.79,14.4.19,2.57-.32,5.13-.75,7.72-.84,2.75-.09,5.44-.18,8.19-.05l4.02.18c1.93.09,1.93-2.91,0-3-2.19-.1-4.39-.25-6.58-.3-2.03-.04-4.08.12-6.11.18s-3.84.4-5.76.64-3.66.32-5.52.4c-7.91.33-15.79-1.13-23.74-.7-2.27.12-4.52.52-6.79.68s-4.54.18-6.81.27l1.06.44-1.93-1.55.44,1.06c0-1.52-.16-2.94-.35-4.45-.17-1.36-.51-2.79-.46-4.16.13-3.27.44-6.54.74-9.81.13-1.39.36-2.67.06-4.04-.41-1.86-.72-3.77-1.23-5.61-.12-.44-.07.24.02.07.13-.26.1-.73.14-1.01l.43-3.24c.18-1.31.28-2.31.13-3.61l-.37-3.3-.15-1.32c-.04-.31-.02-.81-.11-.15.23-1.73.73-3.47,1.09-5.18.12-.56.33-1.19.34-1.76,0-.67-.19-1.4-.28-2.07-.21-1.53-.47-3.06-.61-4.59-.28-3.14-.4-6.23-.19-9.37.09-1.36.28-2.74.23-4.11-.08-1.92-.23-3.84-.26-5.76-.05-2.66.72-5.33.85-8,.16-3.4.24-6.75.22-10.15v-1.85c-.03-1.93-3.03-1.93-3.01,0h0Z"/>
    <path d="m65.81,3.19c-.53,3.18-1.09,6.29-1.26,9.51-.08,1.49-.32,3.02-.08,4.5.32,1.93.6,3.88.98,5.8.09.47.04-.46-.02-.06-.05.34.02.75.03,1.09l.08,3.39c.01.43,0,.86.03,1.29.02.39.01.62.06.13-.07.77-.23,1.54-.34,2.3-.22,1.53-.68,3.19-.62,4.74.07,1.89.26,3.9.56,5.76.08.5.07.16.08.03-.02.32-.09.65-.13.97l-.44,3.24c-.1.7-.23,1.4-.29,2.11-.06.76.13,1.44.29,2.19l.68,3.21.27,1.28c.03.12.04.26.08.38.1.32-.03-.2-.03-.23-.2.72-.17,1.58-.25,2.32l-.34,3.19c-.29,2.71.33,5.5.41,8.22l.1,3.33.04,1.41c0,.14.02.93.05.5s-.06.19-.09.32l-.31,1.4-.74,3.3c-.61,2.72-.2,5.69.02,8.46.29,3.49.53,6.94.67,10.44l.07,1.88c.08,1.92,3.08,1.93,3,0-.12-3.13-.24-6.24-.5-9.35-.11-1.38-.25-2.76-.32-4.14l-.15-3.23c-.03-.74.08-1.67-.11-2.39.02.06-.12.52.02-.01.1-.42.19-.84.28-1.26l.72-3.23c.32-1.45.39-2.61.35-4.1-.1-3.44-.38-6.84-.57-10.28-.08-1.47.25-3,.4-4.46.08-.75.25-1.55.25-2.3,0-.57-.2-1.17-.32-1.73l-.7-3.31-.26-1.21c-.03-.12-.03-.3-.09-.41-.21-.44.06.45-.04.61.3-.48.23-1.66.3-2.22l.44-3.22c.2-1.48.04-2.81-.1-4.31-.1-.99-.15-1.99-.29-2.97-.05-.34-.07-.66-.1-.11.01-.28.08-.56.12-.84.27-1.83.58-3.67.81-5.51.21-1.68-.02-3.48-.06-5.17-.04-1.44-.21-2.75-.45-4.17l-.55-3.24c-.05-.31-.1-.63-.16-.94,0-.05,0,.53.05-.06.2-1.89.3-3.87.32-5.76,0-.59-.06.18-.02,0,.07-.34.11-.69.17-1.04l.56-3.38.31-1.88c.31-1.89-2.58-2.7-2.89-.8h0Z"/>
    <path d="m51.95,16.23c-2.33.14-4.69.19-7.01.45-2.57.28-5.11.63-7.69.69-5.36.13-10.7-.09-16.05.19-2.68.14-5.35.33-8.03.51-1.92.13-1.93,3.13,0,3,4.88-.33,9.82-.85,14.72-.72,2.69.07,5.35.11,8.05.04s5.31-.32,8-.61,5.35-.4,8.03-.56c1.92-.12,1.93-3.12,0-3h0Z"/>
    <polygon class="cls-1" points="43 18.5 52.26 18.5 55.5 33.5 44.5 33.5 43 18.5"/>
    <path d="m11.1,20.6c.3,5.39.46,10.72.48,16.13,0,1.07.95,1.59,1.9,1.45l4.57-.68c.36-.05.71-.1,1.07-.16.53-.08-.07,0-.02,0,.72-.04,1.44-.14,2.16-.21,3.05-.3,6.08-.52,9.14-.71,2.45-.15,4.93.26,7.37.09,2.89-.2,5.68-.67,8.58-.71,3.24-.04,6.45-.23,9.68-.44,1.03-.07,1.63-.9,1.45-1.9-.95-5.03-1.96-10.03-3.04-15.04-.41-1.89-3.3-1.09-2.89.8,1.08,5,2.09,10.01,3.04,15.04l1.45-1.9c-2.71.18-5.4.4-8.12.43-1.41.02-2.85-.04-4.25.05-1.71.12-3.42.39-5.11.58-2.44.28-4.92-.13-7.37-.05-2.91.1-5.82.36-8.71.64-3.28.32-6.52.78-9.78,1.27l1.9,1.45c-.02-5.4-.18-10.73-.48-16.13-.11-1.92-3.11-1.93-3,0h0Z"/>
    <path d="m41.14,20.46c.29,2.06.59,4.13.88,6.19.04.29.08.59.13.88-.12-.72-.02-.12.02.18l.44,3.63c.12.98.24,1.95.35,2.93.1.8.62,1.5,1.5,1.5.74,0,1.6-.69,1.5-1.5-.47-3.88-.95-7.75-1.5-11.62-.14-1-.28-1.99-.43-2.99-.11-.8-1.14-1.24-1.85-1.05-.86.24-1.16,1.04-1.05,1.85h0Z"/>
    <path d="m17.88,53.73c4.22-.1,8.44-.22,12.67-.29,2.1-.03,4.21.05,6.3-.06s4.16-.52,6.24-.72,4.37-.22,6.54-.32c1.92-.09,1.93-3.09,0-3-2.11.1-4.24.13-6.34.3s-4.18.6-6.28.73c-4.16.27-8.4.1-12.57.19-2.18.05-4.37.11-6.55.16-1.93.05-1.93,3.05,0,3h0Z"/>
    <path d="m15.93,52.11c-1.15,1.6-2.3,3.2-3.45,4.8-.94,1.3-1.63,2.77-2.4,4.18-.44.8-.88,1.61-1.32,2.41-.93,1.69,1.66,3.21,2.59,1.51s1.89-3.46,2.84-5.19c.77-1.41,1.79-2.67,2.73-3.97.53-.74,1.07-1.49,1.6-2.23.47-.66.11-1.67-.54-2.05-.75-.44-1.58-.12-2.05.54h0Z"/>
    <path d="m8.85,66.06c1.05.71,2.1,1.42,3.15,2.13.56.38,1.11.76,1.67,1.13.32.21.13.08-.08-.08.14.11.28.21.42.32,1.88,1.46,3.8,2.85,5.53,4.49,1.07,1.02,2.14,2.05,3.22,3.07,1.4,1.33,3.52-.78,2.12-2.12-1.57-1.5-3.06-3.16-4.78-4.49-1.99-1.54-3.95-3.13-6.03-4.54-1.23-.83-2.46-1.66-3.69-2.49-.67-.45-1.66-.13-2.05.54-.43.74-.13,1.6.54,2.05h0Z"/>
    <path d="m24.11,77.84c3.39-.03,6.78-.06,10.17-.11,3.07-.05,6.11-.39,9.17-.48,2.04-.06,4.09-.06,6.14-.08,1.93-.03,1.93-3.03,0-3-6.46.09-12.88.56-19.34.63-2.05.02-4.09.04-6.14.05-1.93.02-1.93,3.02,0,3h0Z"/>
    <path d="m52,76.37c.95-.83,1.89-1.65,2.84-2.48.75-.65,1.5-1.22,2.06-2.05l2.54-3.76c.54-.79.8-1.57,1.1-2.48.45-1.36.91-2.73,1.36-4.09.61-1.84-2.28-2.62-2.89-.8-.38,1.14-.76,2.27-1.14,3.41-.2.61-.42,1.22-.61,1.84-.15.48-.04-.08.06-.1-.07.02-.22.33-.27.39l-2.49,3.68c-.13.2-.27.39-.4.59-.24.38.16-.12.08-.1-.13.05-.29.25-.39.34l-.79.69c-1.06.93-2.13,1.85-3.19,2.78-.61.53-.55,1.58,0,2.12.61.61,1.51.53,2.12,0h0Z"/>
    <path d="m62.23,59.85c-1.56-1.62-3.12-3.24-4.68-4.86-1.25-1.3-2.76-2.33-4.18-3.44-.83-.65-1.66-1.3-2.48-1.95-.64-.5-1.5-.62-2.12,0-.52.52-.64,1.62,0,2.12,1.77,1.39,3.54,2.78,5.31,4.17,1.42,1.11,2.6,2.52,3.84,3.81.73.76,1.46,1.52,2.19,2.28,1.34,1.39,3.46-.73,2.12-2.12h0Z"/>
    <path d="m28.26,70.06c4.5,0,4.51-7,0-7s-4.51,7,0,7h0Z"/>
    <path d="m38.93,62.06c4.5,0,4.51-7,0-7s-4.51,7,0,7h0Z"/>
    <path d="m49,71.84c4.5,0,4.51-7,0-7s-4.51,7,0,7h0Z"/>
  </g>
</svg>