<?xml version="1.0" encoding="UTF-8"?>
<svg id="Camada_1" data-name="Camada 1" xmlns="http://www.w3.org/2000/svg" viewBox="0 0 298 141">
  <defs>
    <style>
      .cls-1 {
        fill: #f7f7f7;
      }

      .cls-2 {
        fill: aqua;
      }

      .cls-3 {
        fill: #fff;
      }

      .cls-4 {
        fill: #f0f;
      }
    </style>
  </defs>
  <g>
    <polygon class="cls-4" points="111.63 70.06 108.63 114.06 104.98 115.05 100.24 122.77 105.63 126.06 110.96 135.16 127.63 138.06 130.63 138.06 182.63 127.06 197.63 123.06 201.63 121.06 207.63 114.06 209.63 105.06 193.63 64.06 187.63 61.06 172.19 59.45 111.63 70.06"/>
    <polyline class="cls-1" points="163.45 71.51 163.4 71.55 163.36 71.64 163.92 73.1 152.98 76.99 142.47 81.93 131.6 85.99 146.27 78.21 155.34 73.51 163.15 70.89"/>
    <polygon class="cls-1" points="109.72 73.03 112.96 71.35 113.4 71.33 113.83 71.51 121.11 77.87 122.44 78.91 124.23 79.84 131.59 85.13 120.69 79 109.72 73.03"/>
    <path d="m107.73,74.19c3.79,2.08,7.7,4.03,11.4,6.26s7.23,4.87,10.91,7.19c.71.44,1.27.76,2.13.56.32-.08.64-.18.96-.29.94-.32,1.87-.69,2.81-1.04l8.33-3.09c4.12-1.53,8.2-3.17,12.3-4.77s8.48-3.51,12.71-5.28c.75-.31,1.27-.99,1.05-1.85-.19-.71-1.1-1.36-1.85-1.05-9.47,3.95-18.95,7.8-28.57,11.37-2.89,1.07-5.77,2.3-8.73,3.15l1.16.15c-3.33-2.02-6.54-4.27-9.79-6.41-2.69-1.77-5.53-3.24-8.35-4.79l-4.94-2.71c-1.69-.93-3.21,1.66-1.51,2.59h0Z"/>
    <path d="m105.69,73.98c.35,2.49.7,4.99,1.05,7.48l.57,4.03c.05.35-.03.84.02.17-.02.31.03.65.04.97.21,4.79.49,9.57.49,14.36,0,2.99,0,5.98,0,8.97,0,1.93,3,1.93,3,0,0-9.29.26-18.71-1.04-27.92-.42-2.95-.83-5.9-1.25-8.86-.27-1.9-3.16-1.09-2.89.8h0Z"/>
    <path d="m110.29,113.22c2.97,1.12,5.94,2.24,8.91,3.36,2.41.91,4.94,1.48,7.42,2.15l4.36,1.19c1.87.51,2.66-2.39.8-2.89-3.06-.83-6.12-1.67-9.18-2.5-2.49-.68-4.87-1.7-7.28-2.61-1.41-.53-2.82-1.06-4.23-1.6-1.81-.68-2.59,2.22-.8,2.89h0Z"/>
    <g>
      <polyline class="cls-2" points="172.06 109.14 158.43 112.16 144.72 114.63 131.08 117.49"/>
      <path d="m171.66,107.69c-4.92,1.09-9.82,2.33-14.78,3.23-5.45.98-10.9,1.92-16.32,3.05-3.29.69-6.59,1.38-9.88,2.07-1.89.4-1.09,3.29.8,2.89,4.92-1.03,9.84-2.18,14.79-3.07,5.45-.98,10.91-1.9,16.31-3.1,3.29-.73,6.58-1.46,9.87-2.19,1.88-.42,1.09-3.31-.8-2.89h0Z"/>
    </g>
    <path d="m168.47,72.61c.44,3.89,1.07,7.79,1.29,11.7.24,4.32.5,8.64.67,12.97.1,2.7.21,5.41.31,8.11.07,1.92,3.07,1.93,3,0-.32-8.22-.41-16.53-1.35-24.71-.31-2.69-.61-5.38-.92-8.06-.22-1.9-3.22-1.92-3,0h0Z"/>
    <polygon class="cls-2" points="169.13 72.88 171.63 108.06 131.13 115.6 132.17 86.75 169.13 72.88"/>
    <polygon class="cls-2" points="108.46 74.04 130.63 87.06 130.32 117.65 110.17 111.64 108.46 74.04"/>
    <path d="m130.14,88.07c.17,3.79.53,7.62.5,11.42-.03,3.99-.13,7.99-.42,11.97-.19,2.56-.37,5.12-.56,7.68-.14,1.93,2.86,1.92,3,0,.58-7.88,1.18-15.75.82-23.65-.11-2.47-.22-4.94-.33-7.41-.09-1.92-3.09-1.93-3,0h0Z"/>
    <path d="m177.01,81.49c2.57,0,2.58-4,0-4s-2.58,4,0,4h0Z"/>
    <g>
      <polyline class="cls-4" points="176.89 79.22 164.69 83.45 155.07 86.77 148.17 94.06 147.93 99.68 148.52 102.42 151.7 104.79 155.77 104.9 165.9 103.49 175.96 101.73 185.91 97.41"/>
      <path d="m176.36,77.29c-4.92,1.71-9.84,3.41-14.77,5.11l-5.28,1.82c-.99.34-2.08.58-2.84,1.32-2.25,2.19-4.42,4.56-6.52,6.89-1.02,1.14-.82,2.73-.88,4.18s-.23,2.78.06,4.16c.15.71.24,1.47.46,2.17.3.95,1.35,1.52,2.12,2.09.61.45,1.2.98,1.85,1.38s1.37.38,2.13.4c1.33.04,2.66.15,3.98-.04,1.57-.22,3.14-.44,4.71-.65,2.38-.33,4.75-.65,7.12-1.06l6.34-1.11c1-.18,1.83-.36,2.76-.76,3.11-1.35,6.22-2.7,9.34-4.06.99-.43,1.22-1.88.72-2.74-.6-1.02-1.74-1.15-2.74-.72-2.32,1.01-4.64,2.02-6.96,3.02-.97.42-1.95.82-2.91,1.26-.29.14.48-.06.35-.16-.04-.03-.3.06-.36.06-.55.07-1.1.19-1.64.29-5,.88-9.97,1.68-14.99,2.37l-2.3.32c-.21.03-.41.06-.62.09-.54.07.27,0,.29-.04-.07.2-3.62-.1-4.05-.11l1.01.27c-1.06-.79-2.12-1.58-3.18-2.37l.92,1.2c-.16-.75-.31-1.51-.48-2.26-.03-.13-.03-.34-.1-.45.09.13-.06.62.07.38.09-.17.03-.66.04-.85l.2-4.65-.59,1.41c2.3-2.43,4.59-4.86,6.89-7.29l-.88.51c5.86-2.02,11.72-4.05,17.58-6.08,1.42-.49,2.83-.98,4.25-1.47,2.42-.84,1.38-4.7-1.06-3.86h0Z"/>
    </g>
    <g>
      <polyline class="cls-4" points="104.59 99.08 104.93 88.87 106.34 87.68 114.37 89.45 117 91.41 117.51 96.72 117.12 98.58 115.48 99.7 107.04 101.65"/>
      <path d="m106.59,99.08c.12-3.4.23-6.81.35-10.21l-.59,1.41,1.4-1.19-1.95.51c2.09.46,4.18.92,6.27,1.38l1.37.3c.11.02.24.07.35.08.15,0-.63-.4-.29-.09.76.68,1.67,1.24,2.49,1.85l-.99-1.73.38,3.97.09.95c0,.09,0,.2.03.29.09.27.06-.37.08-.43-.22.56-.26,1.26-.38,1.85l.92-1.2-1.2.82c-.1.07-.21.13-.3.2-.3.23-.03-.16.33-.1-.05,0-.13.03-.17.04-.88.15-1.76.41-2.64.61-1.87.43-3.75.87-5.62,1.3-1.05.24-1.67,1.45-1.4,2.46.3,1.08,1.4,1.64,2.46,1.4,1.38-.32,2.77-.64,4.15-.96s2.88-.57,4.27-.99c.76-.23,1.46-.84,2.1-1.3,1.02-.72,1.11-1.84,1.32-2.98.12-.65.04-1.2-.02-1.85l-.29-2.99c-.03-.31-.06-.63-.09-.94-.09-.84-.34-1.38-1.03-1.9-.65-.49-1.31-.98-1.97-1.46-.45-.34-.83-.61-1.39-.73l-2.21-.49-5.2-1.15c-.11-.02-.22-.05-.34-.07-1.06-.2-1.71.31-2.44.93-.8.68-1.44,1.17-1.5,2.34-.18,3.35-.23,6.71-.34,10.06-.04,1.08.95,2,2,2,1.11,0,1.96-.92,2-2h0Z"/>
    </g>
    <g>
      <polyline class="cls-4" points="109.66 70.51 113.73 59.37 120.68 49.36 131.4 43.41 143.11 39.64 155.47 39.36 167.62 41.4 177.26 45.91 186.06 53.72 193.35 63.33"/>
      <path d="m111.59,71.04c1.2-3.27,2.39-6.55,3.59-9.82.02-.06.46-1.32.48-1.31.24.07-.44.71-.04.24.17-.2.31-.44.46-.66l3.56-5.13c.92-1.33,1.85-2.66,2.77-3.99l-.72.72c2.62-1.46,5.25-2.91,7.87-4.37l1.97-1.09c.12-.07.73-.53.87-.48-.01,0-.77.27-.25.13.2-.05.4-.13.61-.19l2.28-.73,5.5-1.77c.24-.08,2.96-1.16,3.1-1,.12.13-.87.02-.3.06.2.01.42,0,.62-.01l2.36-.05,5.73-.13c.23,0,3.36.08,3.4-.08-.01.05-.77-.13-.35-.05.19.04.38.06.57.1l2.28.38,5.7.96c.25.04,3.3.76,3.42.57-.02.04-.7-.33-.28-.12.19.1.39.18.59.28l2.29,1.07,5.08,2.38c.36.17.99.63,1.4.65s-.71,0-.28-.24c.02-.01.34.3.37.33l3.73,3.31,4.21,3.73c.06.06.34.38.43.38.2,0-.42-.57-.2-.28.34.46.7.92,1.05,1.38,2.06,2.72,4.12,5.43,6.18,8.15.65.86,1.72,1.31,2.74.72.85-.49,1.37-1.87.72-2.74-2.34-3.08-4.67-6.17-7.02-9.25-.79-1.04-1.78-1.83-2.76-2.69l-5.49-4.87c-.95-.84-1.74-1.41-2.88-1.95l-6.62-3.1c-1.16-.54-2.12-.98-3.37-1.19l-7.26-1.22c-1.41-.24-2.88-.63-4.31-.69-1.89-.07-3.82.09-5.7.13-2.08.05-4.17.04-6.24.14-1.32.06-2.59.64-3.84,1.04l-7.14,2.3c-1.09.35-2.05.71-3.05,1.27l-6.27,3.48c-1.31.73-3.26,1.4-4.17,2.65-2.31,3.16-4.62,6.4-6.73,9.69-.69,1.08-1.02,2.46-1.46,3.66l-2.5,6.85-.51,1.41c-.89,2.42,2.98,3.47,3.86,1.06h0Z"/>
    </g>
    <g>
      <polyline class="cls-4" points="192.86 62.28 198.43 72.84 203.49 83.65 206.98 95.07 209.31 106.76"/>
      <path d="m191.13,63.28c2.95,5.59,5.85,11.15,8.53,16.87.68,1.46,1.29,3,2.07,4.41.17.31-.14-.59-.13-.3,0,.19.14.46.2.64l.75,2.46c.88,2.88,2.03,5.79,2.62,8.75.74,3.73,1.49,7.45,2.23,11.18.5,2.52,4.36,1.45,3.86-1.06-.68-3.43-1.37-6.86-2.05-10.29-.56-2.82-1.55-5.54-2.38-8.29-.45-1.49-.85-3.01-1.37-4.47-.41-1.15-1.02-2.24-1.53-3.34-1.31-2.8-2.53-5.68-3.97-8.42-1.78-3.39-3.57-6.77-5.36-10.15-1.2-2.28-4.66-.26-3.45,2.02h0Z"/>
    </g>
    <g>
      <polyline class="cls-4" points="198.87 123.04 208.49 117.22 209.64 105.62"/>
      <path d="m199.88,124.76c2.91-1.76,5.83-3.53,8.74-5.29.5-.3,1.07-.58,1.43-1.04.45-.58.45-1.38.52-2.09l.59-5.95c.16-1.59.32-3.18.48-4.77.11-1.08-1-2-2-2-1.17,0-1.89.92-2,2-.39,3.87-.77,7.73-1.16,11.6l.99-1.73c-3.2,1.94-6.41,3.88-9.61,5.82-2.2,1.33-.19,4.79,2.02,3.45h0Z"/>
    </g>
    <g>
      <polyline class="cls-4" points="197.37 122.65 186.19 125.48 175.18 128.87 164.16 132.31 152.84 134.56 141.59 137.07 130.41 139.91"/>
      <path d="m196.83,120.72c-4.01,1.02-8.08,1.88-12.03,3.1-4.39,1.35-8.77,2.7-13.15,4.06-2.61.82-5.22,1.74-7.86,2.45-1.98.53-4.05.82-6.06,1.22-4.69.93-9.36,1.96-14.03,3s-9.21,2.26-13.81,3.43c-2.49.63-1.44,4.49,1.06,3.86,8.47-2.15,16.93-4.26,25.51-5.96,2.68-.53,5.41-.97,8.07-1.6,1.99-.48,3.95-1.21,5.91-1.83,4.57-1.42,9.14-2.84,13.71-4.24s9.16-2.46,13.75-3.63c2.49-.63,1.44-4.49-1.06-3.86h0Z"/>
    </g>
    <g>
      <polyline class="cls-4" points="107.98 112.37 95.79 114.71 89.78 118.34 88.55 124.85 94.9 127.43 104.51 127.08"/>
      <path d="m107.44,110.44c-3.79.73-7.59,1.45-11.38,2.18-1.41.27-2.5,1.09-3.71,1.83l-2.95,1.78c-.75.45-1.38.89-1.59,1.81-.48,2.07-.79,4.19-1.19,6.27-.22,1.16.32,2.02,1.4,2.46,2.07.84,4.15,1.91,6.29,2.56.77.23,1.72.05,2.51.02l4.59-.17c1.04-.04,2.07-.08,3.11-.12,2.57-.1,2.58-4.1,0-4-3,.11-6,.22-9,.33-.15,0-.39-.03-.53.02-.22.08.68.26.29,0-.59-.37-1.4-.57-2.04-.83-1.38-.56-2.77-1.12-4.15-1.69l1.4,2.46c.41-2.17.82-4.34,1.23-6.51l-.92,1.2c1.08-.65,2.17-1.31,3.25-1.96l2.14-1.29c.17-.1.38-.2.53-.32.25-.2-.57.11-.31.13.35.03.82-.16,1.16-.22l2.17-.42,5.44-1.04c1.11-.21,2.22-.43,3.33-.64s1.67-1.48,1.4-2.46c-.31-1.11-1.4-1.6-2.46-1.4h0Z"/>
    </g>
    <g>
      <polyline class="cls-4" points="121.28 120.96 111.29 123.95 102.9 130.11 98.72 136.69 99.31 138.99 103.58 140.98 115.86 140.62 128 138.79"/>
      <path d="m120.75,119.04c-2.1.63-4.19,1.25-6.29,1.88-1.57.47-3.41.74-4.75,1.72l-6.39,4.7c-.71.52-1.63,1.04-2.14,1.76s-.92,1.44-1.37,2.16l-2.28,3.58c-.63.99-.9,1.76-.58,2.98s.46,2.43,1.7,3.06c1.17.6,2.39,1.13,3.59,1.68,1.69.78,3.83.36,5.65.3,2.53-.07,5.06-.1,7.58-.22,1.93-.09,3.87-.53,5.78-.81,2.43-.37,4.86-.73,7.29-1.1,1.07-.16,1.66-1.51,1.4-2.46-.31-1.14-1.39-1.56-2.46-1.4-3.5.53-7.01,1.06-10.51,1.59-.52.08-1.07.12-1.59.24,0,0,.77-.03.29-.06-.27-.01-.54.02-.81.02l-6.25.18c-1.68.05-3.35.1-5.03.15l1.01.27c-1.42-.66-2.84-1.33-4.26-1.99l.92,1.2-.6-2.3-.2,1.54c1.4-2.19,2.79-4.39,4.19-6.58l-.72.72c1.36-1,2.73-2,4.09-3.01l2.95-2.16c.32-.24.66-.47.98-.72.07-.05.23-.13.27-.2.17-.29-.02.43-.14.03.05.17-.4.09-.12.07.11,0,.22-.07.33-.1.39-.11.78-.23,1.16-.35l3.39-1.01c1.67-.5,3.33-.99,5-1.49,2.46-.73,1.41-4.6-1.06-3.86h0Z"/>
    </g>
    <path d="m143.95,73.21c.64,0,.64-1,0-1s-.64,1,0,1h0Z"/>
    <path d="m126.54,72.91c.64,0,.64-1,0-1s-.64,1,0,1h0Z"/>
    <path d="m132.57,75.18c.6-.55,1.21-1.1,1.81-1.65l-.35.15.76.06-.35-.15,2.26,2.07c.47.43,1.18-.27.71-.71l-2.07-1.9c-.14-.13-.27-.27-.47-.31-.24-.04-.5-.05-.75-.06-.43-.02-.82.48-1.12.75-.38.34-.76.69-1.14,1.03-.48.43.23,1.14.71.71h0Z"/>
    <path d="m125.58,70.91h1.19c.13,0,.26-.06.35-.15s.15-.23.15-.35c-.01-.27-.22-.5-.5-.5h-1.19c-.13,0-.26.06-.35.15s-.15.23-.15.35c.01.27.22.5.5.5h0Z"/>
    <path d="m143.15,70.17c.49.08.98.12,1.47.08.13-.01.26-.05.35-.15.09-.09.15-.23.15-.35s-.05-.26-.15-.35c-.09-.09-.22-.16-.35-.15-.38.03-.76.02-1.13-.03l.13.02c-.07,0-.14-.02-.2-.03-.14-.02-.26-.02-.39.05-.1.06-.2.18-.23.3-.03.13-.02.27.05.39.07.1.17.21.3.23h0Z"/>
  </g>
  <g>
    <g>
      <polyline class="cls-3" points="268.64 8.18 256.61 7.34 244.3 9.66 232.64 4.85 220.45 6.34 208.63 2.77 196.61 1.82 184.53 2.06 172.48 1.84 160.4 3.15 148.38 2.61 136.35 1.4 124.31 1.53 112.3 3.63 100.28 3.72 88.21 2.89 76.3 5.9 64.17 4.12 54.22 7.08 44.29 8.35 34.38 9.75 28.49 12.46 35.81 16.84 46.61 16.63 57.22 18.38 67.89 19.52 78.63 19.97 90.35 22.21 102.23 22.75 114.1 23.36 125.77 26.12 137.83 24.64 149.59 26.44 161.41 27.57 173.13 30.17 185.1 29.33 196.94 29.58 208.73 30.54 220.58 33.09 232.49 32.28 244.21 29.95 255.5 26.16 268.32 22.51 263.5 11.1"/>
      <path d="m268.64,6.68l-6.01-.42c-1.96-.14-4.04-.49-6.01-.42s-3.95.72-5.83,1.08l-4.18.79c-.82.15-1.76.21-2.55.48-.51.17.85.29.53-.02-.2-.19-.67-.28-.92-.38l-3.42-1.41c-2.27-.93-4.52-1.99-6.84-2.82-1.34-.48-3.07.08-4.44.25l-7.78.95c-.2.02-.52,0-.7.09.24-.11.52.12-.05-.07-.98-.33-1.98-.6-2.96-.9l-7.56-2.29c-1.34-.41-2.71-.43-4.1-.54l-8.04-.63c-3.94-.31-7.97.04-11.91.12s-7.98-.09-11.97-.16-8.03.69-11.99,1.12-7.95-.13-11.86-.3-7.91-.7-11.85-1.1-7.98-.12-11.95-.08-8.02,1.07-11.98,1.77c-.76.13-1.53.27-2.29.4.05,0,.56,0,.07-.04-.4-.03-.81,0-1.21,0l-8.13.06c-3.99.03-7.97-.36-11.96-.64-1.43-.1-2.58-.21-3.97.14l-7.92,1.99c-.87.22-1.89.34-2.72.69-.56.24.6.08.5.04-.27-.09-.62-.09-.91-.13l-7.93-1.16c-1.45-.21-3.13-.73-4.57-.31l-7.43,2.21-1.42.42c-.27.08-.88.26-.16.11-.78.16-1.6.21-2.39.31-2.43.31-4.87.62-7.3.94-1.82.24-3.64.51-5.46.77s-3.96.21-5.61.95c-1.91.86-3.81,1.75-5.72,2.63-1.06.49-.89,2.06,0,2.59,1.89,1.13,3.78,2.26,5.67,3.39.73.44,1.54,1.11,2.41,1.19.66.07,1.37-.03,2.03-.04l7.95-.16c.25,0,.54.03.79-.02-.49.09-.34-.05.07.02,1.1.19,2.2.36,3.29.54,4.17.69,8.29,1.3,12.49,1.75s8.32.7,12.53.88c1.09.05,2.18.12,3.26.14.4,0,.46.06.03-.03.26.06.52.1.78.15l7.77,1.49c1.4.27,2.8.62,4.23.69l7.78.35c3.96.18,7.92.38,11.87.59,1.02.05,2.03.13,3.05.16.36,0,.48.14-.01-.03.24.09.52.12.77.18l7.74,1.83c1.37.32,2.8.89,4.21.71l7.76-.95c1.05-.13,2.12-.21,3.16-.39.31-.05.69-.08.06-.11.22,0,.45.07.67.1l7.7,1.18c3.98.61,7.97.97,11.98,1.36,1.06.1,2.11.21,3.17.3.36.03.63.14.06,0,.22.06.45.1.67.15l7.78,1.72c1.39.31,2.85.83,4.28.73l7.79-.54c3.98-.28,7.89-.16,11.88-.07s7.96.43,11.95.76c1.01.08,2.02.18,3.03.25.38.02.36.09-.04-.02.26.07.54.12.81.18l7.78,1.68c1.38.3,2.82.8,4.24.7l7.75-.53c1.48-.1,2.99-.11,4.44-.4l7.51-1.49c1.39-.28,2.85-.45,4.19-.9l7.23-2.42c3.7-1.24,7.42-2.3,11.17-3.37,1.74-.5,3.48-.99,5.21-1.49.7-.2,1.37-1.09,1.05-1.85-1.6-3.8-3.21-7.61-4.81-11.41-.32-.75-.99-1.27-1.85-1.05-.71.19-1.36,1.1-1.05,1.85,1.6,3.8,3.21,7.61,4.81,11.41l1.05-1.85c-4.15,1.18-8.31,2.34-12.46,3.55-3.79,1.11-7.49,2.55-11.26,3.76-1.39.45-2.89.63-4.33.91-2.44.49-4.89.94-7.33,1.46-.34.07-.65.07-.06.04-.23.01-.45.03-.68.05l-3.43.23c-2.46.17-4.97.21-7.43.51-.41.05-.38-.01.01.07-.23-.05-.47-.1-.7-.15l-3.4-.73c-2.44-.53-4.88-1.09-7.33-1.58-1.51-.3-3.08-.32-4.61-.45-2.52-.2-5.04-.43-7.56-.61-3.92-.29-7.92-.23-11.85-.27-1.47-.02-2.96.17-4.43.27-2.49.17-5,.26-7.48.52-.35.04-.65-.02-.07.08-.22-.04-.45-.1-.67-.15l-3.38-.75c-2.42-.54-4.83-1.11-7.26-1.61-1.49-.3-3.03-.36-4.54-.5l-7.57-.73c-.2-.02-.95-.12-.12,0-.2-.03-.41-.06-.61-.09l-3.34-.51c-2.47-.38-4.94-.76-7.41-1.13-1.49-.22-3.04.16-4.53.34l-7.71.95c-.17.02-.43,0-.59.07-.05.02.54.13.29.04-.13-.05-.29-.07-.42-.1l-3.08-.73-7.54-1.79c-1.42-.34-2.92-.29-4.37-.36l-7.71-.4c-3.96-.2-7.92-.36-11.88-.54-.24-.01-.48-.04-.72-.03.61-.03.29.04-.03-.02-1.02-.21-2.05-.39-3.08-.59l-7.62-1.46c-1.5-.29-3.04-.26-4.56-.32-2.36-.1-4.72-.14-7.08-.3-1.74-.12-3.47-.36-5.21-.55l-4.05-.43c-.4-.04-.79-.09-1.19-.13-.59-.06,0,.01-.04,0-2.23-.48-4.53-.75-6.79-1.12-1.53-.25-3.14-.69-4.7-.66l-7.8.15-1.61.03c-.17,0-.65-.08-.79.02.24-.15,1.1.43.26-.07l-1.37-.82c-1.83-1.09-3.66-2.19-5.49-3.28v2.59c1.93-.89,3.85-1.8,5.79-2.66.28-.13-.36.08-.21.1.1.01.21-.04.31-.04.44-.03.89-.13,1.33-.19l4.12-.58,3.52-.5c.18-.03,1.07-.14.19-.03.24-.03.47-.06.71-.09l7.71-.99c1.5-.19,2.82-.52,4.28-.95,2.37-.7,4.96-1.2,7.24-2.15.65-.27-.02.06-.4-.09.23.09.55.08.8.12l3.51.51c2.47.36,4.95.73,7.42,1.09,1.54.22,3.15-.45,4.64-.83l7.64-1.93c.24-.06.48-.11.72-.18-.23.07-.47,0,.02.06,1,.13,2.03.14,3.03.21l7.87.54c3.94.27,7.95,0,11.89-.03,1.36-.01,2.65-.29,3.99-.53l7.99-1.4c.35-.06.71-.12,1.06-.19.55-.11-.06,0-.01,0,.74.15,1.69-.02,2.44-.03l8.12-.09c3.95-.04,7.94.64,11.86,1.04s7.9.44,11.85.62,8.02-.6,11.98-1.02,7.92-.09,11.86-.02,7.92-.08,11.88-.16,7.89.4,11.83.71c.78.06,1.57.14,2.35.19-.03,0-.53-.15-.09.03.36.14.76.23,1.13.34l7.79,2.35c1.34.41,2.51.92,3.91.75l7.87-.96c1.01-.12,2.06-.19,3.06-.37.48-.09.36.11.01-.1.2.11.44.18.65.27l7.2,2.96c1.37.56,3.22,1.79,4.75,1.53,2.25-.38,4.49-.85,6.73-1.27l3.86-.73c.38-.07.76-.14,1.14-.22.55-.11.31.07.06-.03.6.22,1.56.11,2.19.15l4.17.29,5.64.4c1.93.14,1.92-2.87,0-3h0Z"/>
    </g>
    <g>
      <polyline class="cls-3" points="44 18.43 42.21 30.77 42.5 43.35 40.45 55.66 40.14 68.15 38.91 80.54 37.66 92.94 35.24 105.25 34.41 115.59 36.21 125.9 38.78 135.76 40.11 138.06 43.63 136.58 46.73 126.84 50.2 115.59 51.37 103.8 54.68 92.5 57.47 81.07 58.88 69.38 62.36 58.07 64.16 46.45 64.33 34.57 67.99 23.24"/>
      <path d="m42.55,18.03c-.59,4.09-1.24,8.18-1.78,12.28-.22,1.67,0,3.47.05,5.15.06,2.48.03,4.98.17,7.45.01.2-.03.86.06.05-.02.2-.07.4-.1.59l-.54,3.27-1.29,7.73c-.23,1.37-.21,2.74-.25,4.13l-.21,8.17c-.1,3.91-.68,7.82-1.06,11.71s-.79,7.87-1.19,11.8c-.08.82-.21,1.65-.25,2.47-.02.35.13-.6,0-.11-.09.35-.14.71-.21,1.06l-1.54,7.83c-.78,3.96-1.03,7.89-1.35,11.92-.05.67-.18,1.38-.16,2.05.02.74.25,1.52.38,2.24l1.35,7.76c.25,1.46.69,2.89,1.07,4.33.53,2.05.92,4.22,1.62,6.22.33.94.99,1.81,1.48,2.67.3.51,1.1.94,1.69.69,1.03-.43,2.06-.87,3.09-1.3.92-.39,1.36-.86,1.65-1.78l2.32-7.29c1.22-3.83,2.39-7.68,3.57-11.52s1.14-7.89,1.53-11.78c.07-.67.1-1.35.2-2.02-.12.82.01.14.08-.06.15-.45.27-.91.4-1.36l2.27-7.77c1.11-3.79,1.95-7.66,2.89-11.5s1.17-7.93,1.65-11.87l.16-1.36c.04-.37.26-.71.01-.12.27-.62.41-1.34.61-1.99l2.39-7.76c1.15-3.75,1.45-7.79,2.05-11.67s.37-7.97.43-11.93l.02-1.29c0-.46.19-.69-.04-.17.28-.6.42-1.31.63-1.94l2.49-7.69.54-1.68c.6-1.84-2.3-2.63-2.89-.8s-1.14,3.54-1.72,5.31c-.63,1.96-1.47,3.95-1.93,5.96-.35,1.54-.11,3.36-.14,4.92-.03,2.35-.14,4.7-.1,7.05,0,.4,0,.39.04-.01-.03.24-.07.48-.11.72l-.5,3.25-1.1,7.11c-.2,1.31-.72,2.58-1.1,3.84l-2.23,7.25c-.38,1.23-.45,2.53-.6,3.8l-.94,7.76c-.04.34-.09.69-.12,1.03-.06.56.12-.34,0-.06-.3.69-.38,1.57-.56,2.3l-1.84,7.54c-.9,3.69-2.07,7.32-3.14,10.97s-1.11,7.51-1.49,11.26c-.09.85-.21,1.71-.26,2.57-.02.42.16-.38,0-.13s-.19.63-.27.89l-2.24,7.27c-1.13,3.65-2.29,7.29-3.45,10.94l-.57,1.8,1.05-1.05-3.52,1.48,1.69.69-.79-1.37c-.14-.24-.26-.51-.42-.73-.3-.41.06.27.01.08-.23-.85-.45-1.71-.67-2.56-.61-2.32-1.27-4.64-1.82-6.97-.39-1.66-.61-3.37-.9-5.04l-.69-3.96c-.07-.4-.14-.81-.21-1.21-.1-.55.02-.09,0-.02.26-.74.15-1.84.21-2.61l.34-4.3c.08-1.02.19-2.03.24-3.05.03-.54,0-.03-.02.03.06-.25.1-.51.15-.77.79-4,1.88-8.06,2.33-12.11s.83-8.13,1.24-12.19.96-8.23,1.22-12.35c.11-1.79.09-3.6.14-5.39.06-2.27.34-4.66.17-6.92-.04-.49-.09.41-.03.1s.1-.59.15-.88l.6-3.59c.41-2.43.82-4.86,1.22-7.3.23-1.4.08-2.84.05-4.25l-.18-7.97c0-.31.03-.67-.02-.98-.08-.49-.08.29-.04.07.12-.82.24-1.64.36-2.46l1.17-8.08.25-1.7c.27-1.89-2.62-2.7-2.89-.8h0Z"/>
    </g>
    <g>
      <polyline class="cls-3" points="225.09 32.55 225.22 44.47 227.18 56.25 227.78 68.16 229.38 79.97 231.44 91.71 233.31 103.52 237.1 114.87 240.75 126.22 244.95 134.42 252.8 135.33 256.3 127.84 256.39 115.55 257.57 103.32 258.64 91.04 257.29 78.77 257.52 66.47 256.31 54.24 256.56 41.89 255.44 29.63"/>
      <path d="m223.59,32.55c.04,3.91-.09,7.85.12,11.75.08,1.47.45,2.96.69,4.41l1.2,7.2c.04.23.07.45.11.68-.02-.13-.04-.53-.03-.02.02.89.09,1.78.14,2.66l.39,7.6c.19,3.72.89,7.43,1.39,11.12.96,7.13,2.4,14.19,3.52,21.3.25,1.55.37,3.19.75,4.71.46,1.87,1.24,3.71,1.85,5.53,1.13,3.39,2.25,6.78,3.34,10.18.71,2.19,1.38,4.39,2.12,6.57.48,1.43,1.3,2.75,1.99,4.09l1.75,3.42c.32.63.63,1.6,1.28,1.99s1.86.33,2.58.41l3.88.45,2.14.25c.47.05,1.1-.32,1.3-.74l2.42-5.17c.59-1.27,1.28-2.39,1.29-3.81.03-3.84-.11-7.72.09-11.56s.74-7.68,1.11-11.5c.33-3.46.61-6.93.91-10.4.09-1.07.28-2.14.16-3.21l-.7-6.4c-.19-1.74-.49-3.51-.57-5.25-.06-1.39.05-2.82.07-4.21.06-3.31.3-6.63-.03-9.93l-.73-7.39c-.11-1.12-.29-2.25-.29-3.37,0-3.96.33-7.92.24-11.88-.08-3.66-.66-7.36-.99-11l-.13-1.39c-.17-1.91-3.18-1.93-3,0,.35,3.84.7,7.69,1.05,11.53.31,3.35-.06,6.84-.13,10.21s.29,6.37.61,9.61c.18,1.8.46,3.63.54,5.44.06,1.33-.04,2.68-.07,4.01-.06,3.31-.34,6.66.02,9.95l.77,7.04c.13,1.23.39,2.52.38,3.76-.01,1.91-.33,3.86-.5,5.76-.18,2.03-.35,4.05-.53,6.08-.32,3.58-.69,7.15-1.03,10.72-.32,3.3-.21,6.62-.24,9.93l-.02,3.1c0,.27-.05.58,0,.85.09.58.2-.49.17-.45-.5.54-.79,1.68-1.1,2.34l-1.57,3.35-.8,1.71,1.3-.74c-2.61-.3-5.23-.6-7.84-.9l1.3.74c-.81-1.59-1.62-3.17-2.44-4.76l-1.41-2.75c-.11-.21-.21-.43-.33-.64.05.1.16.49.04.05-1-3.7-2.35-7.34-3.54-10.98-1.12-3.42-2.28-6.84-3.42-10.25-1.03-3.1-1.24-6.51-1.75-9.73-.98-6.19-2.22-12.33-3.06-18.53l-.93-6.89c-.05-.33-.09-.67-.14-1-.05-.37.02-.53,0-.01.02-.52-.05-1.06-.08-1.58l-.36-7.01c-.07-1.28-.05-2.6-.25-3.87-.59-3.8-1.19-7.61-1.9-11.39-.08-.45.02.05.01.12.02-.21,0-.44,0-.64l-.03-2.85-.07-7.04v-1.34c-.03-1.93-3.03-1.93-3.01,0h0Z"/>
    </g>
  </g>
</svg>