<?xml version="1.0" encoding="UTF-8"?>
<svg id="Camada_1" data-name="Camada 1" xmlns="http://www.w3.org/2000/svg" viewBox="0 0 120 180.5">
  <defs>
    <style>
      .cls-1 {
        fill: #f0f;
      }
    </style>
  </defs>
  <path class="cls-1" d="m25.44,38.19c1.34,4.47,2.82,8.89,4.45,13.26.28.76,1.01,1.28,1.85,1.05.73-.2,1.33-1.08,1.05-1.85-1.63-4.37-3.11-8.79-4.45-13.26-.55-1.84-3.45-1.06-2.89.8h0Z"/>
  <g>
    <path class="cls-1" d="m116.37,82.74c-.45-1.6-1.32-3.3-1.88-5.15-.52-1.74-.78-3.61-1.31-5.33-.58-1.88-.9-3.75-1.39-5.31-.97-3.08-1.36-2.45-2.14-5.07-.43-1.61-.15-3.43-.61-5.04s-1.63-3-2.11-4.6-.75-3.26-1.26-4.85-1.33-3.07-1.86-4.65-1.05-3.16-1.61-4.73-.38-3.38-.96-4.94c-.31-1.76-1.42-3.32-1.99-5.04s-.84-3.55-1.66-5.15-1.85-3.13-2.91-4.57-2.1-3.03-3.4-4.25c-1.32-1.25-2.95-2.15-4.42-3.18s-3.11-1.83-4.71-2.65-3.3-1.38-5.01-2-3.22-1.83-4.98-2.26-3.64-.23-5.44-.47-3.58-.42-5.39-.48-3.59.31-5.39.42-3.63-.09-5.41.18c-1.27.2-1.25.34-2.52.53-1.84.24-3.49.66-5.06,1.19-1.72.58-3.33,1.19-4.76,2.09s-2.56,2.3-3.79,3.54-2.98,2.01-3.99,3.49c-.95,1.4-1.46,3.16-2.27,4.77-.77,1.5-1.55,3.07-2.23,4.74-.73,1.77-.77,3.78-1.14,5.67-.67,1.6-1.31,3.25-1.95,4.85s-1.98,2.95-2.6,4.56-.66,3.45-1.24,5.08-1.21,3.24-1.77,4.88-.99,3.31-1.52,4.96-1.84,3.05-2.34,4.71-.5,3.46-.97,5.13-1.24,3.23-1.68,4.92c-.77,2.63-.3,2.26-1.27,5.34-.48,1.56-1.51,3.21-2.08,5.09-.52,1.72-.77,3.6-1.29,5.34-.55,1.86-1.48,3.54-1.93,5.15-.46,1.64-.38,3.49-.72,5.22s-1.12,3.44-1.19,5.15.04,3.68.45,5.33,1.6,3.15,2.73,4.56c.9,1.13,2.13,1.92,3.49,2.43,1.46.54,3.11,1.13,4.6.69s2.77-1.64,3.88-2.68,2.26-2.22,3.04-3.56.67-3.11,1.28-4.52c.69-1.59,1.36-3.16,1.99-4.76s1.78-3.02,2.36-4.65,1.26-3.23,1.78-4.87.36-3.34.82-5.01c.33,2.66.93,2.65.83,5.34-.26,1.73-1.16,3.42-1.41,5.16s-.36,3.49-.61,5.23-.15,3.52-.38,5.25-.33,3.49-.56,5.23-1.01,3.4-1.22,5.14-.54,3.44-.75,5.18c.48-2.12.55-2.1.94-4.23-.09.58.09,1.2.01,1.78-.23,1.62-.22,3.26-.39,4.88s-1.03,3.19-1.14,4.82.26,3.29.21,4.92-.62,3.27-.61,4.9.23,3.28.3,4.91.74,3.23.88,4.86.09,3.27.28,4.89.61,3.21.86,4.82.37,3.25.68,4.85.43,3.25.8,4.84c.52,2.23.58,2.21,1.1,4.44.43,1.84,1.37,3.53,2.69,4.76s3.03,2.44,4.9,2.69c.37.05.76,0,1.13.04,2.26.25,4.59-.12,6.7-.96,1.22-.48,2.06-1.36,2.95-2.33s2.1-1.73,2.62-2.92.79-2.52,1.08-3.8.79-2.53.99-3.81c.28-1.79.16-3.65.44-5.44s.79-3.55,1.08-5.34.45-3.6.74-5.39.08-3.66.37-5.45,1.16-3.49,1.45-5.28.78-3.55,1.07-5.34c.39-2.55-.6-2.15-.11-5.24.23-1.48.51-3.22.82-5.09.26-1.61.64-3.32.94-5.07s.93-3.33,1.24-5.02.63-3.74.95-5.37c.27,1.55.92,3.39,1.18,4.98s-.01,3.28.23,4.83c.26,1.65.62,3.23.85,4.73.27,1.76,1.01,3.29,1.21,4.67.42,2.89.14,2.4.48,4.77.23,1.58.42,3.16.65,4.74s.08,3.21.31,4.79.72,3.12.95,4.69.78,3.11,1.01,4.69-.17,3.25.06,4.82.54,3.14.77,4.72.82,3.1,1.05,4.68c.19,1.32.05,2.71.32,4.01s.68,2.62,1.19,3.85c.49,1.2,1.62,2.02,2.44,3s1.59,2.02,2.77,2.52c2.02.86,4.27,1.11,6.43.86.35-.04.61-.79.96-.84,1.82-.26,3.77-.53,5.04-1.84s1.55-3.21,1.95-5.05c.5-2.29.6-2.26,1.09-4.55.35-1.64.81-3.25,1.11-4.9s.58-3.3.83-4.96.79-3.28.97-4.95.45-3.34.57-5.01-.41-3.38-.34-5.06.27-3.34.29-5.02.3-3.36.26-5.03-.32-3.34-.43-5.02-.06-3.36-.22-5.03-.58-3.31-.8-4.97c-.08-.6-.25-1.17-.34-1.77.38,2.19.82,2.11,1.27,4.29-.17-1.59-1.19-3.04-1.38-4.63s-.02-3.21-.21-4.79.2-3.24,0-4.82-1.01-3.11-1.21-4.69c-.08-2.81-.21-2.82-.21-5.63s.42-2.82.42-5.63-.46-2.82-.46-5.64-.03-2.85.3-5.65c.47,1.66,1.06,3.33,1.59,4.98s1.04,3.29,1.62,4.92,1,3.32,1.64,4.92,1.38,3.18,2.06,4.76c.61,1.41,1.05,2.97,1.82,4.3s2.15,2.26,3.28,3.32c1.11,1.04,2.47,1.67,3.92,2.1s2.9.61,4.36.06c1.35-.51,2.65-1.23,3.55-2.37,1.12-1.41,2.24-2.93,2.66-4.62s-.04-3.52-.12-5.31.12-3.53-.23-5.26-1.22-3.35-1.68-4.98Z"/>
    <path d="m117.81,82.34c-.7-2.35-1.78-4.53-2.33-6.93-.58-2.56-1.25-5.1-1.9-7.65-.44-1.72-1.12-3.23-1.92-4.79-.99-1.94-.62-4.07-1.07-6.13-.26-1.16-.84-2.22-1.4-3.25-.61-1.14-.97-2.26-1.27-3.51s-.57-2.52-1.02-3.73-1.04-2.37-1.49-3.58c-.86-2.32-1.87-4.78-2.18-7.24s-1.03-4.5-2.04-6.71-1.24-4.56-2.3-6.7c-1.11-2.24-2.67-4.27-4.15-6.28-2.91-3.94-7.12-6.52-11.44-8.72-2.24-1.14-4.71-1.76-6.93-2.91-1.06-.55-2.08-1.15-3.21-1.53s-2.46-.48-3.7-.54c-2.72-.12-5.4-.59-8.12-.65-2.56-.05-5.09.46-7.65.45-2.26,0-4.31.45-6.51.8-2.44.39-4.81,1.1-7.09,2.05s-3.98,2.19-5.62,3.93c-.76.81-1.51,1.57-2.41,2.24s-1.77,1.27-2.46,2.12c-1.45,1.76-2.11,4.11-3.12,6.14-1.11,2.21-2.26,4.45-2.67,6.91-.21,1.26-.26,2.56-.75,3.76s-.98,2.51-1.5,3.76c-.92,2.19-2.58,3.87-3.14,6.24-.29,1.21-.42,2.44-.8,3.62-.41,1.26-.92,2.5-1.37,3.75-.86,2.4-1.28,5.16-2.51,7.4-.56,1.01-1.2,1.96-1.62,3.04-.45,1.14-.59,2.35-.76,3.55-.37,2.47-1.42,4.67-2.1,7.06-.39,1.37-.55,2.79-.92,4.16-.63,2.33-1.91,4.38-2.55,6.7-.7,2.49-1.09,4.97-2.08,7.38-.45,1.08-.92,2.15-1.16,3.3-.25,1.21-.28,2.45-.44,3.68-.31,2.52-1.4,4.79-1.41,7.36,0,2.4.25,4.92,1.45,7.04,1.1,1.92,2.62,3.88,4.56,5.01s4.55,2.06,6.76,1.6,4.01-2.22,5.56-3.75c1.72-1.69,3.04-3.47,3.51-5.87s1.56-4.78,2.57-7.06c.51-1.14,1.23-2.17,1.78-3.29s.95-2.37,1.4-3.56.99-2.49,1.22-3.79.25-2.6.56-3.88h-2.89c.15,1.08.5,2.08.69,3.14.26,1.41-.13,2.65-.57,3.97-1,3.05-1.29,6.44-1.5,9.63s-.22,6.6-.95,9.73c-.35,1.5-.86,2.93-1.07,4.46-.24,1.73-.53,3.45-.75,5.18s2.57,2.03,2.95.4c.32-1.41.68-2.81.94-4.23l-2.95-.4c-.14,2.74.01,5.62-.79,8.27-.32,1.06-.65,2.1-.73,3.21-.09,1.35.15,2.69.2,4.03s-.22,2.55-.41,3.84c-.23,1.49-.17,2.92-.06,4.41.09,1.24.12,2.51.32,3.74.22,1.36.66,2.67.76,4.06s.07,2.78.22,4.16.44,2.77.71,4.15c.5,2.61.82,5.29,1.2,7.93.31,2.16.81,4.24,1.33,6.35.56,2.24,1.24,4.28,2.82,6.03s3.78,3.28,6.11,3.63,5.01.21,7.34-.47c1.12-.33,2.18-.75,3.11-1.46s1.6-1.56,2.43-2.33c.75-.7,1.54-1.38,2.06-2.27.63-1.09.92-2.4,1.2-3.61.58-2.56,1.32-4.92,1.45-7.56s.82-5.23,1.25-7.89.9-5.53.97-8.29c.03-1.33.08-2.6.44-3.89s.89-2.59,1.14-3.95c.47-2.48,1.53-5.27,1.12-7.81-.1-.63-.26-1.19-.25-1.84.03-1.25.33-2.52.53-3.76.49-3.05.92-6.18,1.73-9.16s1.21-5.69,1.77-8.57h-2.89c.24,1.27.63,2.5.92,3.75.31,1.32.31,2.58.32,3.93.02,2.54.61,5.25,1.18,7.72.46,2.01,1.14,3.82,1.26,5.9s.47,4.16.75,6.23c.38,2.8.33,5.55.95,8.32.3,1.35.5,2.71.82,4.05s.69,2.55.68,3.89c0,1.25-.15,2.47.02,3.72.2,1.49.49,2.96.73,4.45.19,1.17.48,2.3.76,3.45.35,1.42.37,2.77.48,4.21.18,2.33.88,5.16,2.36,7.01.73.91,1.59,1.72,2.35,2.61s1.53,1.66,2.57,2.15c2.1.98,5.29,1.65,7.58,1.01.45-.12.69-.45,1.05-.69.65-.43.04-.09.28-.21s.65-.1.92-.15c1.13-.2,2.29-.51,3.28-1.12,2.01-1.24,2.78-3.42,3.26-5.62.41-1.86.89-3.69,1.31-5.54.6-2.68,1.21-5.34,1.66-8.05s1.08-5.35,1.41-8.06c.18-1.5.47-3.04.49-4.56s-.39-3.06-.36-4.6c.06-3.05.45-6.09.54-9.14s-.43-5.95-.52-8.91c-.1-3.11-.78-6.14-1.31-9.2l-2.89.8c.28,1.48.95,2.82,1.27,4.29.42,1.92,3.18,1.07,2.89-.8-.15-1.02-.55-1.93-.91-2.89-.37-1.01-.49-1.95-.51-3.02-.04-2.23-.09-4.41-.05-6.63.02-1.02-.11-2.01-.38-2.99s-.73-1.96-.87-2.97c-.19-1.43-.18-2.96-.21-4.41-.07-3.15.68-6.23.24-9.38-.41-2.94-.34-5.86,0-8.8l-2.95.4c1.35,4.68,2.91,9.35,4.52,13.94.82,2.33,1.98,4.52,2.86,6.82.77,2.01,1.5,3.9,3.1,5.41,2.97,2.8,7.11,5.69,11.44,4.31,3.79-1.21,7.21-5.11,7.64-9.13.15-1.34-.07-2.67-.18-4-.1-1.25-.03-2.49-.06-3.74-.07-2.75-1.17-5-1.94-7.58-.56-1.84-3.45-1.06-2.89.8s1.51,3.56,1.76,5.46.03,3.98.23,5.97.2,3.62-.88,5.38c-.98,1.6-2.11,2.98-3.88,3.74-3.56,1.53-7.38-1.34-9.66-3.87-1.21-1.34-1.63-3.26-2.32-4.89-.84-1.96-1.79-3.88-2.47-5.91-1.5-4.47-3.06-8.96-4.37-13.5-.5-1.73-2.76-1.21-2.95.4-.36,3.05-.41,6.06.03,9.11s-.36,6.27-.26,9.41c.04,1.46.05,2.99.24,4.44.15,1.1.56,2.13.87,3.19s.36,2.14.3,3.29c-.11,2.14,0,4.33.11,6.47s1.18,3.9,1.5,5.98l2.89-.8c-.32-1.47-.99-2.8-1.27-4.29-.36-1.9-3.22-1.09-2.89.8.44,2.56,1.05,5.11,1.17,7.71s.3,5.02.49,7.54-.11,5.05-.24,7.55c-.07,1.22-.22,2.43-.24,3.65-.03,1.4.3,2.75.35,4.14.09,2.44-.37,5.18-.89,7.55s-.9,4.95-1.35,7.43-1,4.71-1.59,7.04c-.45,1.8-.76,3.65-1.31,5.42-.71,2.29-2.41,2.83-4.6,3.18-.46.07-.9.1-1.29.36-.11.07-1.05.83-.44.58-1.03.42-2.91-.03-3.94-.29-1.11-.28-1.98-.67-2.76-1.51s-1.45-1.65-2.21-2.45c-1.61-1.7-2.09-4.48-2.18-6.74-.09-2.53-.91-4.86-1.3-7.34-.2-1.26-.45-2.51-.63-3.77s0-2.53,0-3.81c-.03-2.37-.84-4.8-1.3-7.11-.25-1.28-.64-2.53-.79-3.83-.17-1.43-.08-2.88-.25-4.31-.28-2.28-.72-4.55-.85-6.84-.12-2.11-.57-4.03-1.15-6.05-.74-2.57-1.29-5.52-1.29-8.19,0-2.82-.83-5.29-1.36-8.03-.28-1.43-2.62-1.43-2.89,0-.45,2.32-.71,4.69-1.32,6.98-.67,2.52-1.19,5.04-1.65,7.61-.42,2.32-.87,4.67-1.11,7.01-.14,1.35.37,2.6.28,3.92-.08,1.14-.41,2.28-.66,3.4-.26,1.18-.41,2.39-.74,3.56s-.81,2.31-1.06,3.51c-.27,1.33-.29,2.68-.33,4.03-.08,2.55-.48,5.2-.93,7.71s-1.11,4.82-1.24,7.33c-.06,1.22-.06,2.45-.33,3.65s-.68,2.39-.96,3.6c-.25,1.09-.42,2.35-.99,3.33-.5.86-1.42,1.46-2.1,2.17-.65.67-1.25,1.42-2.08,1.89-1.14.65-2.61.96-3.91,1.1-2.28.23-4.54.08-6.45-1.27s-3.07-3.11-3.61-5.35c-.45-1.84-.99-3.66-1.3-5.53-.42-2.54-.76-5.1-1.12-7.65s-.98-5.01-1.08-7.6c-.05-1.4-.09-2.79-.38-4.17s-.58-2.69-.67-4.11c-.11-1.52-.33-3.07-.22-4.6.11-1.42.53-2.8.58-4.23.05-1.35-.21-2.68-.23-4.03s.4-2.46.76-3.7c.79-2.77.63-5.82.78-8.67.09-1.67-2.63-2.07-2.95-.4-.27,1.42-.62,2.82-.94,4.23l2.95.4c.22-1.74.46-3.49.76-5.22.26-1.53.87-2.97,1.12-4.49.55-3.35.64-6.77.92-10.15.14-1.66.36-3.33.56-4.99s.77-3.08,1.22-4.65c.76-2.67-.17-4.82-.54-7.43-.21-1.51-2.56-1.35-2.89,0-.29,1.19-.35,2.39-.52,3.59s-.65,2.45-1.09,3.64-.81,2.37-1.37,3.48c-.52,1.04-1.18,2-1.67,3.06s-.86,2.13-1.31,3.18c-.48,1.13-1.06,2.25-1.35,3.45-.23.95-.28,1.98-.69,2.88-.51,1.09-1.43,2-2.28,2.84-1.53,1.51-3.22,3.36-5.56,2.86s-4.02-1.55-5.42-3.37-2.11-3.73-2.22-6.14c-.05-1.13-.05-2.25.21-3.35.29-1.23.74-2.41.97-3.66.42-2.3.4-4.5,1.29-6.7s1.59-4.42,2.11-6.8,1.57-4.32,2.39-6.53c.51-1.36.75-2.74,1.02-4.15.39-2.02,1.21-3.88,1.86-5.82.72-2.17.54-4.64,1.54-6.71.47-.98,1.13-1.86,1.59-2.85.5-1.07.8-2.23,1.13-3.36.72-2.42,1.6-4.76,2.45-7.13.78-2.17.77-4.59,1.99-6.59.53-.87,1.16-1.67,1.61-2.59.57-1.14.98-2.37,1.45-3.55.44-1.11.9-2.12,1.08-3.31.19-1.25.31-2.52.67-3.73.64-2.16,1.9-4.11,2.81-6.16s1.53-3.87,3.37-5.25c1.7-1.27,3.03-2.78,4.59-4.21,3.26-2.99,8.11-3.4,12.21-4.36,2.21-.52,4.54-.16,6.79-.37,2.53-.24,4.89-.39,7.44-.15,1.27.12,2.53.33,3.8.4s2.48,0,3.68.3c1.12.28,2.09.88,3.1,1.41s2.08.92,3.16,1.31c2.28.83,4.47,1.86,6.56,3.08,1.92,1.12,4.02,2.39,5.64,3.91s2.94,3.56,4.2,5.42c1.37,2,2.28,3.95,2.91,6.29.58,2.17,1.79,4.09,2.38,6.24s.69,4.31,1.42,6.42c.79,2.3,1.58,4.55,2.52,6.79s1.17,4.7,2.05,6.96c.38.99.94,1.87,1.4,2.82.57,1.15.69,2.25.76,3.52.1,1.85.46,3.55,1.35,5.18.81,1.49,1.29,3.03,1.68,4.68.58,2.41,1.21,4.81,1.79,7.23.54,2.24,1.57,4.28,2.23,6.48.55,1.84,3.45,1.06,2.89-.8Z"/>
  </g>
  <path d="m44.98,30.6c1.93,0,1.93-3,0-3s-1.93,3,0,3h0Z"/>
  <path d="m78.69,31.04c1.93,0,1.93-3,0-3s-1.93,3,0,3h0Z"/>
  <path d="m46.09,35.86c2.64-.1,5.26.15,7.89.3s5.25-.01,7.89-.2c5.17-.36,10.12.53,15.24,1.12,1.91.22,1.9-2.78,0-3-5.12-.59-10.06-1.48-15.24-1.12-2.55.18-5.08.34-7.64.21-2.71-.14-5.42-.42-8.14-.31-1.92.08-1.93,3.08,0,3h0Z"/>
  <path d="m48.91,65.45c1.81.78,3.76,1.01,5.69,1.31s3.97.69,5.97.89c3.63.35,7.28-.51,10.37-2.45,1.09-.68.08-2.42-1.01-1.73-2.82,1.78-6.05,2.5-9.36,2.18-1.82-.17-3.63-.53-5.44-.81s-3.59-.41-5.21-1.11c-.5-.21-1.07-.15-1.37.36-.25.42-.14,1.15.36,1.37h0Z"/>
  <path d="m29.76,83.37c1.38-8.45,3.52-16.76,6.36-24.83.43-1.22-1.5-1.74-1.93-.53-2.85,8.07-4.98,16.39-6.36,24.83-.09.53.14,1.08.7,1.23.48.13,1.14-.16,1.23-.7h0Z"/>
  <path d="m93.3,76.1c-1.19-3.35-2.08-6.8-2.64-10.32-.52-3.27-.36-6.85-1.95-9.85-.6-1.14-2.33-.13-1.73,1.01.73,1.37.98,2.93,1.14,4.46.18,1.72.36,3.44.64,5.14.56,3.43,1.44,6.81,2.6,10.09.43,1.2,2.36.69,1.93-.53h0Z"/>
</svg>