<?xml version="1.0" encoding="UTF-8"?>
<svg id="Camada_1" data-name="Camada 1" xmlns="http://www.w3.org/2000/svg" viewBox="0 0 139 180.5">
  <defs>
    <style>
      .cls-1 {
        fill: #00edff;
      }

      .cls-2 {
        fill: #f0f;
      }
    </style>
  </defs>
  <g>
    <path class="cls-2" d="m34.44,37.19c1.34,4.47,2.82,8.89,4.45,13.26.28.76,1.01,1.28,1.85,1.05.73-.2,1.33-1.08,1.05-1.85-1.63-4.37-3.11-8.79-4.45-13.26-.55-1.84-3.45-1.06-2.89.8h0Z"/>
    <g>
      <path class="cls-2" d="m134.37,76.74c-.47-1.68-1.7-3.13-2.91-4.73-1.11-1.47-2.19-3.04-3.56-4.33-1.46-1.37-2.81-2.8-4.17-3.83-2.6-1.98-3.15-.72-5-2.85-.43-1.61-.23-3.57-.68-5.17s-1.63-3-2.11-4.6-.75-3.26-1.26-4.85-1.33-3.07-1.86-4.65-1.05-3.16-1.61-4.73-.38-3.38-.96-4.94c-.31-1.76-1.42-3.32-1.99-5.04s-.84-3.55-1.66-5.15-1.85-3.13-2.91-4.57-2.1-3.03-3.4-4.25c-1.32-1.25-2.95-2.15-4.42-3.18s-3.11-1.83-4.71-2.65-3.3-1.38-5.01-2-3.22-1.83-4.98-2.26-3.64-.23-5.44-.47-3.58-.42-5.39-.48-3.59.31-5.39.42-3.63-.09-5.41.18c-1.27.2-1.25.34-2.52.53-1.84.24-3.49.66-5.06,1.19-1.72.58-3.33,1.19-4.76,2.09s-2.56,2.3-3.79,3.54-2.98,2.01-3.99,3.49c-.95,1.4-1.46,3.16-2.27,4.77-.77,1.5-1.55,3.07-2.23,4.74-.73,1.77-.77,3.78-1.14,5.67-.67,1.6-1.31,3.25-1.95,4.85s-1.98,2.95-2.6,4.56-.66,3.45-1.24,5.08-1.21,3.24-1.77,4.88-.99,3.31-1.52,4.96-1.84,3.05-2.34,4.71-.5,3.46-.97,5.13-1.16,3.11-1.61,4.79c-1.64,1.55-1.61.79-3.95,1.92-1.22.59-2.84.94-4.14,1.89-1.18.87-2.14,2.15-3.08,3.35s-2.05,2.39-2.47,3.88c-.46,1.64-.38,3.49-.72,5.22s-1.12,3.44-1.19,5.15.04,3.68.45,5.33,1.6,3.15,2.73,4.56c.9,1.13,2.13,1.92,3.49,2.43,1.46.54,3.11,1.13,4.6.69s2.77-1.64,3.88-2.68,2.26-2.22,3.04-3.56.67-3.11,1.28-4.52c.9-2.08,2.77-3.32,4.59-4s4.09-.45,5.85-1.14,2.97-1.88,3.61-4.15c.54,2.63,0,2.61-.09,5.29-.26,1.73.31,3.55.05,5.28s-1.13,3.38-1.38,5.11-.34,3.49-.58,5.23-.13,3.52-.35,5.26-.31,3.49-.52,5.23-.75,3.45-.96,5.19c.48-2.12.02-2.21.42-4.34-.09.58.13,1.21.05,1.8-.24,1.72-.37,3.35-.65,4.87-.31,1.7-.43,3.34-.74,4.86-.35,1.68-1.41,3.12-1.72,4.65-.34,1.64-.21,3.32-.46,4.9s-1.01,3.16-1.11,4.81.05,3.23.13,4.93c.07,1.54.79,3.09,1.05,4.81.23,1.51.32,3.13.72,4.84.52,2.23.71,2.18,1.23,4.41.43,1.84,1.19,3.44,2.52,4.67s2.92,2.27,4.8,2.52c.37.05.75.03,1.12.07,2.26.25,4.67.45,6.78-.38,1.22-.48,2.57-1.07,3.46-2.04s1.57-2.25,2.09-3.44.39-2.63.68-3.91.29-2.59.5-3.87c.29-1.84,1.14-3.34,1.32-4.78.23-1.83.29-3.41.52-4.88.26-1.64.87-3.04,1.42-4.65.47-1.38.7-2.96,1.56-4.63.66-1.27,1.67-2.57,2.66-4.15,1.15-2.29.65-1.94,1.7-4.85.5-1.4.61-3.2,1.21-4.99.51-1.54,1.61-3,2.12-4.69s1.17-3.23,1.6-4.88.33-3.94.65-5.56c.27,1.55,1.05,3.52,1.32,5.11s.44,3.21.68,4.76c.26,1.65.16,3.31.39,4.8.27,1.76.78,3.33.98,4.7.42,2.89.37,2.37.71,4.74.23,1.58-.07,3.23.16,4.81s.58,3.14.81,4.71.97,3.08,1.2,4.66.26,3.18.5,4.76.42,3.16.65,4.74.08,3.21.31,4.79.72,3.12.95,4.69c.19,1.32.7,2.58.97,3.88s.02,2.78.52,4.01c.49,1.2,1.26,2.38,2.08,3.35s2.09,1.57,3.27,2.07c2.02.86,4.24,1.03,6.39.78.35-.04.7-.13,1.06-.18,1.82-.26,3.14-1.6,4.42-2.91s2.32-2.62,2.72-4.47c.5-2.29.91-2.2,1.41-4.48.35-1.64-.02-3.42.28-5.07s1.29-3.19,1.53-4.85-.21-3.41-.03-5.07.44-3.32.57-4.99.36-3.33.43-5.01.13-3.35.14-5.02.33-3.36.29-5.04-.01-3.37-.12-5.04-.87-3.3-1.03-4.97-.19-3.35-.4-5.01c-.08-.6-.24-1.17-.32-1.77.38,2.19.5,2.17.94,4.35-.17-1.59-.2-3.19-.38-4.77s-.6-3.14-.79-4.73-.15-3.2-.34-4.78-.93-3.14-1.13-4.72c-.08-2.81-.12-2.83-.12-5.64s.35-2.82.35-5.63.59-2.82.59-5.64-.97-2.86-.61-5.66c.5,1.77,2.06,2.91,3.55,4.14,1.35,1.11,2.7,2.4,4.33,3.36s3.51,1.51,4.92,2.58c1.55,1.17,2.69,2.77,3.41,4.41.61,1.41,1.14,2.88,1.92,4.2s1.66,2.62,2.79,3.68c1.11,1.04,2.45,2.06,3.9,2.49s3.19.4,4.64-.15c1.35-.51,2.77-1.37,3.67-2.5,1.12-1.41,1.36-3.29,1.78-4.97s.36-3.35.28-5.14-.2-3.43-.55-5.15-.66-3.46-1.12-5.1Z"/>
      <path d="m135.81,76.34c-.75-2.34-2.39-4.18-3.83-6.12-1.55-2.08-3.27-3.86-5.15-5.64-1.5-1.43-3.07-2.79-5.08-3.42-.53-.16-1.08-.26-1.47-.69-.53-.59-.37-2.01-.45-2.87-.11-1.16-.31-2.24-.77-3.31-.51-1.17-1.27-2.24-1.68-3.45-.82-2.45-1.2-4.93-2.24-7.33s-1.93-4.84-2.62-7.31c-.3-1.09-.31-2.23-.52-3.33-.23-1.21-.61-2.4-1.11-3.53-.46-1.04-.99-2.02-1.33-3.11-.37-1.2-.61-2.43-1.04-3.61-.86-2.35-2.34-4.4-3.8-6.41s-2.74-3.81-4.65-5.27-4.16-2.93-6.37-4.09-4.57-2.1-6.96-3.01-4.18-2.29-6.71-2.58c-1.29-.15-2.59-.11-3.88-.23-1.37-.13-2.74-.34-4.12-.44-2.72-.2-5.31.31-8.02.36-2.3.04-4.41.1-6.67.6-2.41.53-4.74.91-7.08,1.77s-4.29,1.86-6.01,3.55c-.75.74-1.42,1.57-2.21,2.28-.85.77-1.85,1.35-2.7,2.11-1.75,1.56-2.37,3.78-3.35,5.83-1.05,2.19-2.37,4.36-2.97,6.73-.31,1.23-.42,2.5-.62,3.75-.22,1.37-.94,2.69-1.45,3.97-.44,1.11-.89,2.12-1.54,3.12s-1.32,2.02-1.74,3.18-.54,2.42-.82,3.62-.8,2.47-1.25,3.69c-.93,2.54-1.49,5.3-2.54,7.78-.42,1-1.1,1.88-1.59,2.85-.57,1.15-.85,2.33-1.04,3.6-.18,1.17-.32,2.32-.67,3.45-.18.58-.39,1.15-.6,1.73-.23.63-.37,1.62-.75,2.16-.26.38-.65.48-1.06.6-.91.27-1.74.64-2.61,1-2.16.9-4.04,1.59-5.65,3.39-1.43,1.6-3.13,3.46-4.03,5.42-1.04,2.25-.73,4.81-1.35,7.17-.32,1.21-.74,2.39-.93,3.63-.2,1.32-.17,2.67-.05,4,.23,2.48.92,4.55,2.42,6.55,1.41,1.88,2.88,3.32,5.1,4.2,2.34.93,4.69,1.41,7,.15,1.96-1.07,3.78-2.91,5.19-4.63.69-.84,1.31-1.73,1.68-2.76.4-1.12.4-2.35.82-3.47,1.75-4.7,7.56-3,11-5.14,1.67-1.04,2.63-2.65,3.18-4.5h-2.89c.45,2.35-.34,4.71-.16,7.09.12,1.65.14,3.02-.36,4.61s-.88,2.95-1.07,4.54c-.38,3.25-.46,6.53-.84,9.77-.19,1.69-.26,3.39-.51,5.07s-.71,3.39-.94,5.12,2.6,2.04,2.95.4c.3-1.45.18-2.9.42-4.34l-2.95-.4c-.06,1.08,0,2.09-.13,3.18-.15,1.27-.33,2.52-.53,3.78-.17,1.11-.29,2.22-.47,3.33-.22,1.3-.7,2.41-1.22,3.62-.97,2.23-.77,4.43-1.12,6.77-.18,1.19-.64,2.31-.9,3.48s-.32,2.46-.28,3.7c.07,2.42.4,4.57.99,6.91s.59,4.65,1.19,6.92c.46,1.74.89,3.6,1.55,5.27.8,2.03,2.11,3.6,3.88,4.87s3.71,1.64,5.89,1.85c2.34.22,4.71.32,6.94-.56s3.86-1.95,5.13-3.94c.53-.84,1.01-1.76,1.35-2.7.39-1.08.36-2.22.54-3.34.35-2.29.52-4.59,1.27-6.8s.79-4.21,1.04-6.4,1.23-4.28,1.83-6.45c.3-1.09.58-2.19,1.09-3.2s1.18-1.91,1.8-2.83c1-1.49,1.63-2.96,2.11-4.68.32-1.13.76-2.22,1-3.37.27-1.28.44-2.6.93-3.82.44-1.11,1.1-2.12,1.57-3.21.52-1.22.89-2.52,1.32-3.77s.83-2.6.99-3.99c.15-1.26.14-2.55.36-3.81h-2.89c.24,1.21.63,2.37.96,3.56.35,1.3.53,2.62.71,3.95.35,2.61.36,5.29.85,7.87.4,2.13.89,4.23,1.22,6.38.31,1.99.28,3.9.38,5.9.06,1.22.32,2.43.54,3.62.26,1.43.45,2.87.87,4.27.8,2.63.92,5.27,1.3,7.98.19,1.35.39,2.71.55,4.07.18,1.52.1,3.06.29,4.59.33,2.56.95,5.19,1.64,7.68.35,1.26.37,2.45.51,3.75s.63,2.4,1.29,3.49c1.31,2.17,2.95,3.5,5.27,4.47s4.89,1.22,7.37.85,4.14-1.46,5.86-3.2c1.62-1.64,2.87-3.36,3.43-5.63.46-1.9,1.38-3.59,1.54-5.57.11-1.39-.13-2.81.19-4.18.28-1.25.93-2.38,1.27-3.61.32-1.16.32-2.33.25-3.52-.09-1.5-.05-2.87.14-4.36.37-2.94.71-5.91.83-8.87.06-1.52.09-3.04.12-4.57s.27-3.05.29-4.58c.03-2.98-.02-5.9-.78-8.79-.36-1.39-.46-2.75-.55-4.18-.1-1.58-.34-3.11-.6-4.67l-2.89.8c.26,1.46.64,2.9.94,4.35.34,1.63,3.12,1.3,2.95-.4-.22-2.2-.27-4.41-.65-6.59s-.59-4.45-.77-6.74c-.08-1.05-.24-2.06-.52-3.07s-.67-2.01-.72-3.07c-.06-1.43-.1-2.86-.1-4.29s.11-2.95.26-4.43.04-3.01.33-4.51c.31-1.6.46-3.2.22-4.82-.21-1.44-.65-2.56-.49-4.06l-2.95.4c.7,2.12,2.28,3.43,3.94,4.8s3.34,2.96,5.34,3.98,4.17,1.78,5.68,3.67,2,4.17,3.1,6.2c2.15,3.99,6.08,7.99,10.98,7.58,2.24-.19,4.45-1.2,6.07-2.77s2.09-3.6,2.57-5.67c1.25-5.43.19-11.44-1.26-16.73-.51-1.86-3.4-1.07-2.89.8,1.14,4.2,1.96,8.74,1.62,13.11-.13,1.67-.54,3.81-1.34,5.29-.92,1.71-3.09,2.86-4.99,2.99-4.22.3-7.25-3.95-8.78-7.36-.85-1.89-1.52-3.76-2.83-5.4-1.19-1.49-2.68-2.54-4.4-3.35-2.09-.98-3.88-2.03-5.65-3.53-1.46-1.24-3.64-2.5-4.26-4.4-.55-1.68-2.77-1.25-2.95.4-.17,1.54.19,2.76.49,4.23s.05,2.89-.21,4.32c-.29,1.6-.19,3.21-.34,4.83-.14,1.49-.26,2.94-.26,4.43s.03,2.86.1,4.29c.1,2.11,1.07,4.04,1.24,6.14.18,2.23.29,4.39.7,6.59s.49,4.48.72,6.74l2.95-.4c-.3-1.46-.68-2.89-.94-4.35-.34-1.9-3.21-1.09-2.89.8.41,2.46.39,4.96.82,7.4.19,1.12.6,2.19.8,3.3.22,1.25.16,2.58.18,3.85.03,2.53-.23,5.03-.26,7.55s-.15,5.02-.4,7.53-.72,5.01-.78,7.49c-.03,1.24.21,2.47.13,3.7s-.64,2.36-1.06,3.51c-.89,2.42-.27,4.88-.9,7.3-.19.72-.48,1.39-.74,2.08-.36.95-.47,1.98-.87,2.9-.76,1.75-2.55,3.62-4.16,4.62-1.8,1.12-4.6,1.02-6.58.54-2.4-.58-4.17-1.76-5.42-3.9-.58-1-.79-1.87-.85-3.01-.07-1.3-.31-2.49-.66-3.75-.33-1.18-.53-2.37-.78-3.57-.27-1.27-.63-2.53-.73-3.84-.21-2.7-.41-5.34-.78-8.03-.34-2.46-.33-5.01-1.04-7.41s-1.34-5.11-1.6-7.71c-.13-1.31.05-2.63-.06-3.94-.08-.89-.24-1.77-.37-2.65-.31-2.02-.67-4-1.11-6-.6-2.7-.6-5.56-.97-8.3-.18-1.35-.33-2.71-.67-4.02s-.8-2.61-1.07-3.96c-.28-1.42-2.64-1.45-2.89,0-.36,2.07-.24,4.2-.84,6.23s-1.3,4.31-2.32,6.26-1.55,3.93-2.01,6.12c-.32,1.5-.85,2.98-1.29,4.45-.52,1.71-1.71,3.1-2.66,4.6-1.11,1.75-1.62,3.63-2.21,5.59-.64,2.13-1.47,4.09-1.74,6.32-.24,1.97-.28,3.9-.92,5.8-.72,2.12-.81,4.2-1.22,6.38-.18.99-.22,2-.4,2.99s-.68,1.9-1.2,2.75c-1.13,1.85-3.14,2.92-5.26,3.26-.99.16-2.03.11-3.03.05-1.05-.07-2.2-.08-3.22-.33-1.89-.47-3.69-1.93-4.62-3.62-.83-1.5-1.08-3.3-1.59-4.93-.64-2.06-.86-4.14-1.16-6.27s-1.01-4.06-1.13-6.21c-.07-1.33-.21-2.72,0-4.04.19-1.19.67-2.31.92-3.48.27-1.3.28-2.62.37-3.94s.43-2.34.96-3.51c1.04-2.33,1.23-4.69,1.64-7.17.2-1.22.36-2.44.51-3.66s.11-2.4.18-3.63c.09-1.66-2.66-2.08-2.95-.4-.25,1.45-.12,2.91-.42,4.34l2.95.4c.23-1.75.73-3.44.96-5.19.21-1.66.3-3.33.5-4.99.39-3.41.41-6.85.9-10.25.23-1.57.92-3,1.26-4.54s.16-3.01.08-4.57c-.07-1.31.09-2.61.27-3.9.17-1.22.05-2.34-.18-3.54-.29-1.52-2.49-1.33-2.89,0-.52,1.71-1.51,2.87-3.29,3.33-2.07.53-4.14.41-6.12,1.32-1.78.81-3.41,2.15-4.32,3.92-1,1.96-.78,4.19-2.18,5.97-1.22,1.55-3.07,3.57-4.93,4.34s-4.76-.52-6.18-1.75c-3.75-3.26-4.16-8.21-2.85-12.71.31-1.06.54-2.12.67-3.21.15-1.23.14-2.53.5-3.73.58-1.89,2.38-3.73,3.68-5.18,1.49-1.66,3.35-2.18,5.33-3.05,1.3-.57,2.62-.76,3.74-1.7.89-.74,1.02-1.62,1.39-2.67.42-1.21.93-2.41,1.23-3.66.55-2.29.55-4.45,1.77-6.53s1.82-4.21,2.53-6.49,1.82-4.65,2.46-7.05c.28-1.06.4-2.15.67-3.21.3-1.18.9-2.12,1.57-3.13,1.31-1.99,2.04-4.25,2.93-6.44s.7-4.59,1.61-6.78,2.01-4.1,2.9-6.21c.41-.97.81-2.02,1.47-2.85s1.53-1.35,2.34-1.96c1.68-1.27,2.87-3.1,4.61-4.28,1.89-1.27,4.2-2.02,6.38-2.6,1.07-.28,2.16-.47,3.25-.65.94-.15,1.84-.45,2.79-.56,2.39-.25,4.8-.08,7.21-.35,2.54-.28,5.04-.1,7.58.21,2.38.29,4.97-.02,7.18,1.03.96.46,1.86,1.01,2.83,1.43,1.14.49,2.34.86,3.49,1.31,2.23.87,4.44,2.04,6.43,3.37,1.87,1.26,3.82,2.4,5.3,4.13s2.87,3.73,4.07,5.69,1.72,4.12,2.45,6.37,1.88,4.01,2.33,6.24c.21,1.03.23,2.1.46,3.13.26,1.15.74,2.27,1.11,3.38.77,2.3,1.84,4.5,2.59,6.81s.98,4.62,2.07,6.75c.52,1.01,1.14,1.95,1.39,3.07.24,1.06.2,2.16.32,3.23s.31,1.96,1.15,2.75c.56.53,1.18.92,1.9,1.19.54.2,1.1.3,1.62.55.96.46,1.78,1.21,2.55,1.93,1.74,1.61,3.47,3.24,4.9,5.14,1.34,1.77,3.1,3.6,3.79,5.74.58,1.83,3.48,1.05,2.89-.8Z"/>
    </g>
    <path d="m53.98,29.6c1.93,0,1.93-3,0-3s-1.93,3,0,3h0Z"/>
    <path d="m87.69,30.04c1.93,0,1.93-3,0-3s-1.93,3,0,3h0Z"/>
    <path d="m55.47,34.81c2.42-.88,4.92-1.2,7.48-1.35s5.13-.34,7.69-.41c5.28-.14,10.03,1.59,15.05,2.97,1.86.51,2.66-2.38.8-2.89-5.28-1.45-10.29-3.23-15.84-3.08-2.64.07-5.28.27-7.91.43s-5.46.51-8.05,1.45c-1.8.65-1.02,3.55.8,2.89h0Z"/>
    <path d="m85.75,33.82c-2.42.88-4.92,1.2-7.48,1.35s-5.13.34-7.69.41c-5.28.14-10.03-1.59-15.05-2.97-1.86-.51-2.66,2.38-.8,2.89,5.28,1.45,10.29,3.23,15.84,3.08,2.64-.07,5.28-.27,7.91-.43s5.46-.51,8.05-1.45c1.8-.65,1.02-3.55-.8-2.89h0Z"/>
    <path d="m51.26,23.83c6.41.31,12.19,3.69,18.58,4.17,2.92.22,5.68-.4,8.42-1.32,2.91-.97,5.79-2.12,8.9-2.12.97,0,.97-1.5,0-1.5-6.03,0-11.22,3.89-17.33,3.44s-12.15-3.86-18.58-4.17c-.96-.05-.96,1.45,0,1.5h0Z"/>
    <path d="m57.91,43.45c1.81.78,3.76,1.01,5.69,1.31s3.97.69,5.97.89c3.63.35,7.28-.51,10.37-2.45,1.09-.68.08-2.42-1.01-1.73-2.82,1.78-6.05,2.5-9.36,2.18-1.82-.17-3.63-.53-5.44-.81s-3.59-.41-5.21-1.11c-.5-.21-1.07-.15-1.37.36-.25.42-.14,1.15.36,1.37h0Z"/>
    <path d="m38.76,82.37c1.38-8.45,3.52-16.76,6.36-24.83.43-1.22-1.5-1.74-1.93-.53-2.85,8.07-4.98,16.39-6.36,24.83-.09.53.14,1.08.7,1.23.48.13,1.14-.16,1.23-.7h0Z"/>
    <path d="m102.3,75.1c-1.19-3.35-2.08-6.8-2.64-10.32-.52-3.27-.36-6.85-1.95-9.85-.6-1.14-2.33-.13-1.73,1.01.73,1.37.98,2.93,1.14,4.46.18,1.72.36,3.44.64,5.14.56,3.43,1.44,6.81,2.6,10.09.43,1.2,2.36.69,1.93-.53h0Z"/>
  </g>
  <g>
    <path class="cls-1" d="m88.67,30.5c-.17,1.22-.18,2.46,0,3.68.13.95.42,1.97,1.2,2.53.79.57,1.85.53,2.82.44.24-.02.5-.06.68-.21.31-.26.27-.74.18-1.13-.59-2.44-2.48-4.41-4.65-5.67"/>
    <path d="m88.19,30.36c-.21,1.56-.25,3.23.16,4.77.36,1.35,1.26,2.34,2.68,2.53.67.09,1.44.08,2.1-.07s1.02-.74.97-1.41c-.09-1.26-.81-2.55-1.56-3.53-.92-1.2-2.1-2.18-3.4-2.95-.56-.33-1.06.54-.5.86,1.81,1.07,3.48,2.64,4.21,4.66.1.27.46,1.07.21,1.33-.12.13-.43.11-.59.12-.3.03-.61.04-.91.03-.53-.02-1.07-.12-1.48-.47-.38-.32-.59-.8-.72-1.26-.39-1.37-.38-2.93-.19-4.34.04-.27-.07-.53-.35-.62-.23-.07-.58.08-.62.35h0Z"/>
  </g>
  <g>
    <path class="cls-1" d="m51.3,29.4c-1.62,1.35-2.74,3.29-3.09,5.37-.08.46-.09.99.24,1.31.2.19.49.27.76.26.78-.02,1.44-.65,1.74-1.38s.3-1.53.3-2.31c0-1.04,0-2.07,0-3.11"/>
    <path d="m50.94,29.05c-1.74,1.46-3.02,3.65-3.26,5.93-.06.54.04,1.12.45,1.5s1.06.45,1.59.3c1.14-.33,1.77-1.45,1.94-2.56.11-.74.09-1.49.09-2.23,0-.81,0-1.62,0-2.43,0-.64-1-.64-1,0,0,1.14,0,2.28,0,3.41-.01.91-.07,1.98-.84,2.6-.26.21-.69.39-1.01.22-.35-.18-.24-.74-.18-1.05.17-.91.48-1.78.93-2.59.51-.92,1.19-1.73,2-2.41.49-.41-.22-1.12-.71-.71h0Z"/>
  </g>
</svg>