<?xml version="1.0" encoding="UTF-8"?>
<svg id="Camada_1" data-name="Camada 1" xmlns="http://www.w3.org/2000/svg" viewBox="0 0 601 571">
  <defs>
    <style>
      .cls-1 {
        fill: #fff;
      }

      .cls-2 {
        fill: #8fc197;
      }

      .cls-3 {
        fill: #cecece;
      }
    </style>
  </defs>
  <polygon class="cls-1" points="114.63 262.47 519.67 251.48 537 465 578 512 277.93 523.94 77.41 528.76 129.77 462.35 114.63 262.47"/>
  <g>
    <polygon class="cls-2" points="158.35 123.09 463.18 124.81 471.04 137.54 477.64 181.44 481.63 227.97 481.63 253.46 158.35 256.54 158.35 123.09"/>
    <g>
      <path d="m148.03,126.94c4.3-.12,8.59-.26,12.87-.76,2.33-.27,4.66-.52,7-.73s4.63-.07,7.02.07c2.12.12,4.2-.61,6.31-.66,1.91-.04,3.95.33,5.86.55,4.67.54,9.1,1.06,13.74,0l2.41-.55c.25-.06.61-.08.84-.19.41-.2-.8-.16-.5.09.31.27,1.58.21,1.99.26l2.42.32c2.37.31,4.97-.5,7.32-.88h-1.6l2.93.9c1.06.32,2.29.91,3.42.91s2.37-.66,3.41-1.03l2.92-1.03h-1.6c1.84.47,3.67,1.05,5.53,1.41,1.98.39,4.25.18,6.26.13,3.71-.08,7.38-.61,11.08-.8,1.84-.09,3.7.09,5.54,0,2.02-.1,4.08-.55,6.09-.82.93-.13-.89-.08-.22.06.43.09.98,0,1.42,0,1.23,0,2.46-.01,3.69.01,1.82.03,3.73.39,5.54.24.48-.04-1.16-.3-.04.05.63.2,1.28.35,1.92.52,1.02.28,2.05.63,3.09.84,1.32.27,2.77-.28,4.05-.58l3.09-.73h-1.6c2.03.35,4.27,1.06,6.34,1.06s4.35-.98,6.34-1.46h-1.6c1.83.47,3.66,1.04,5.52,1.41,1.96.39,4.3-.27,6.26-.5,1.84-.21,3.7-.55,5.55-.64.68-.03,1.37.03,2.05.06,1.03.04,2.49.37,3.49.12.09-.02-1.14-.21-.34-.04.49.1.98.18,1.47.26,1.17.21,2.33.43,3.51.63,2.03.33,4.12-.23,6.17-.31,1.84-.08,3.7.45,5.54.59s3.71-.24,5.55-.32c3.6-.15,7.3.43,10.88.71,3.82.3,7.72-.43,11.48-1.02.13-.02.89-.04.97-.15-.17.26-1.24.05-.2.12,1.3.09,2.61.07,3.91.1,1.86.05,3.69.33,5.54.55,3.61.42,7.33-.16,10.9-.63,1.99-.26,3.98-.02,5.99.08.19,0,.4.04.58.03.62-.04-.68-.25-.48-.08.24.21,1.12.22,1.43.29,1.26.25,2.52.53,3.79.76,2.08.37,4.41.78,6.51.77s4.4-1.08,6.39-1.62h-1.6c4.07.75,8.35,1.73,12.51,1.24,2.14-.25,4.26-.56,6.4-.67l2.11-.11c.49-.03,1.34.09,1.79-.1.33-.14-.64-.15-.54-.09.13.09.39.1.55.15.7.21,1.41.38,2.12.57,2.44.66,4.61.91,7.14,1.05,2.37.13,4.57-.29,6.91-.65.44-.07.91-.1,1.34-.21,0,0-1.04,0-.52.11.26.06.57.02.84.03,1.39.05,2.79.11,4.18.15,1.94.05,3.9.09,5.84.06,1.3-.02,2.61-.12,3.91-.18.1,0,1.61-.09,1.61-.08.02.18-1.21-.28-.37,0,.37.12.77.21,1.14.31l2.38.64c.13.04.54.22.66.18-.22.07-.86-.58-.35-.07.93.92,2.25,1.62,3.31,2.39l-1.08-1.08c.87,1.76,1.75,3.53,2.62,5.29.2.41.4.83.61,1.23.4.76-.1-.18-.09-.24-.11.81.59,2.27.8,3.07.88,3.37,1.87,6.71,2.58,10.12.04.22.71,2.79.59,2.85-.19.1.02-1.26-.17-.22-.12.65-.15,1.32-.23,1.97-.12,1.01-.34,2.07-.36,3.09-.02.86.37,1.57.69,2.35.43,1.06.8,2.18,1.31,3.2.55,1.11-.18-.12.14-.16-.03,0-.07,1.18-.07,1.25-.1,1.83-.53,3.9.04,5.68.54,1.68,1.37,3.32,1.75,5.03.22.98.29,2.02.43,3.02.08.56.16,1.12.24,1.68.17,1.21.07-.53-.02,0-.16.95.03,2.11.04,3.06.01,1.05,0,2.07.14,3.11.24,1.82.41,3.66.74,5.46.14.75.34,1.49.51,2.23l.43,1.89c.06.27.09,1.04.29,1.25-.33-.37,0-1.07-.14-.19-.08.53-.1,1.08-.16,1.62-.1,1.08-.25,2.16-.31,3.24-.18,3.52.14,7.18.26,10.71.14,3.97.37,8.37,1.7,12.15.15.41-.04-1.21-.05-.02,0,.57.03,1.13.04,1.7.03,1.08,0,2.18.09,3.26.17,2.1.82,4.22,1.24,6.29v-1.6l-.83,3.12c-.3,1.12-.88,2.5-.71,3.68.28,1.97,1.46,4.01,2.19,5.87v-1.6c-.56,1.82-1.26,3.64-1.69,5.5s.06,3.93.18,5.76l3-3c-2.21.28-4.3.68-6.52.46-2.64-.26-5.15-.38-7.8-.38-2.37,0-4.71.26-7.07.43-1.12.08-2.24.15-3.36.22-.63.04-1.35-.01-1.97.13-.69.15.46-.07.47.12,0-.03-.56-.11-.62-.12-2.63-.56-5.12-1.09-7.8-1.02-1.39.04-2.86-.06-4.23.2-1.29.24-2.57.62-3.84.93-.48.12-1.15.15-1.58.38-.26.14,1.09.01.48-.09-.27-.04-.57,0-.84-.01-1.46-.02-2.92-.06-4.38-.06-2.06,0-4.15.22-6.21.06-2.96-.24-5.9-.5-8.86-.66-2.74-.15-5.3.68-7.96,1.3h1.6c-1.93-.53-3.95-1.36-5.94-1.58-2.11-.23-4.63.52-6.73.81h1.6c-2.27-.32-4.73-.96-7.03-.84-2.73.14-5.39.31-8.09.7l-2.22.32c-.24.03-.48.07-.72.1-.45.07,1.07,0,.43-.08-1.43-.19-3.06.09-4.51.13-.97.03-1.94.09-2.91.14l-2.37.13c-.24.01-.61-.03-.84.05-.49.16.66.23.43.07-.47-.3-1.3-.39-1.83-.55l-2.57-.77c-1.06-.32-2.02-.4-3.12-.4-1.38,0-2.79-.08-4.17.01s-2.64.6-3.91.95c-.68.19-1.43.31-2.09.57-.79.31.44-.35.42-.01,0,0-.65-.03-.66-.03-1.51-.15-3.04-.11-4.55-.21-2.08-.13-4.14-.48-6.22-.56-2.91-.12-5.83-.13-8.74-.12s-5.49.78-8.28,1.46h1.6c-1.77-.53-3.54-1.18-5.34-1.61s-3.71-.22-5.48-.25c-1.87-.03-3.48.59-5.25,1.14l-1.38.43c-1.29.4.03.07.02.12,0,.02-2.34-.08-2.58-.09-3.18-.11-6.36-.61-9.53-.6-1.68,0-3.37-.04-5.05.04-1.06.05-2.11.11-3.17.17-.46.02-.95,0-1.41.08-.9.13.68.23.21.08-1.12-.35-2.36-.49-3.51-.74s-2.27-.6-3.42-.38c-1.86.34-3.69.87-5.53,1.31h1.6c-2.27-.47-4.97-1.51-7.28-1.13-1.33.21-2.66.48-3.99.71-.09.02-1.34.16-1.37.24.03-.12,1.17-.06.47-.09-.34-.01-.7.03-1.04.04-2.38.09-4.75.17-7.13.25-.7.02-1.42,0-2.12.07-1.13.1.93.24-.12.05-1.41-.25-2.82-.48-4.23-.71-2.72-.46-5.35.56-7.99,1.22h1.6c-1.6-.46-3.19-.93-4.79-1.39-1.69-.49-3.13-.03-4.79.37-.85.2-1.71.38-2.55.61-1.04.28.25-.06.24.02,0,.03-.71.03-.78.03l-3.1.12c-.38.02-.78,0-1.16.05-.86.1.09.03.23.1-.6-.31-1.55-.37-2.2-.52-.96-.23-1.92-.48-2.89-.68-1.5-.31-3.05-.28-4.58-.34s-2.72-.03-4.16.29l-2.89.65c-.34.08-.7.13-1.04.23-.83.24.71.1.23-.04-.69-.19-1.67-.05-2.38-.08-.92-.03-1.85-.05-2.77-.09-1.45-.06-2.91-.15-4.36-.23s-2.91.14-4.41.36c-.9.13-1.79.25-2.69.38-1.15.16.19.01.2-.02,0,.02-.89.02-.91.02-1.53.03-3.1.16-4.63.1-1.71-.07-3.42-.38-5.13-.48-2.58-.14-5.27.34-7.86.5-1.56.1-3.09.26-4.65.15l-3.42-.24s-1.02-.03-1.03-.07c0,.01,1.37.23.13-.02-1.85-.38-3.81-.94-5.71-1.05-1.66-.1-3.37.05-5.04.07l3,3c-.1-1.68-.28-3.37-.29-5.06-.01-1.79.2-3.58.16-5.37s-.42-3.62-.39-5.42.61-3.61.6-5.42c0-.89-.3-1.87-.46-2.74-.21-1.12-.3-2.35-.63-3.43.07.24-.06,1.03.12.33.12-.48.08-1.05.12-1.54.09-1.13.26-2.29.26-3.43,0-1.78-.55-3.55-.61-5.33s.31-3.56.47-5.28c.18-1.88.51-3.83.51-5.72,0-2.08-.63-4.3-.96-6.35v1.6c.5-1.9,1.28-3.88,1.49-5.83.23-2.09-.8-4.61-1.25-6.65v1.6c.39-2.61.97-5.21.86-7.85-.12-2.8-.14-5.56-.09-8.37,0-.22.06-.54.01-.76-.12-.54-.18,1.09-.07.42.12-.78.23-1.56.34-2.34.19-1.29.43-2.59.54-3.9.24-2.74.34-5.38.17-8.11-.08-1.38-.09-2.76-.47-4.1-.45-1.57-.9-3.14-1.35-4.72v1.6c.45-2.07,1.32-4.4,1.25-6.53s-.64-4.28-.35-6.47c.59-4.51.62-9.01.88-13.55.13-2.3-.06-4.6-.16-6.91-.17-3.85-6.17-3.87-6,0,.11,2.41.28,4.8.14,7.21-.16,2.78-.25,5.55-.31,8.34-.04,2.16-.75,4.3-.71,6.45.03,1.52.23,3.17.47,4.67.1.63-.14.36.11.17.11-.09.11-.56-.04.07-.21.85-.37,1.72-.56,2.57-.3,1.41-.78,2.83-.44,4.26.37,1.55.83,3.14,1.33,4.65.38,1.15.05-.77.07.1s.1,1.68.15,2.51c.06,1.04.17,2.08.12,3.13-.08,1.54-.36,3.12-.31,4.66.02.65.15-.9.08-.48-.05.27-.08.54-.12.82l-.38,2.61c-.39,2.7-.5,5.36-.47,8.09.02,1.49.12,2.98.18,4.47,0,.23-.07.73.04.94.12.24.19-1.16.07-.4-.14.86-.26,1.73-.39,2.59-.24,1.6-.59,3.12-.26,4.72s.71,3.26,1.07,4.89v-1.6c-.51,1.94-1.54,4.21-1.54,6.23,0,1.09.34,2.29.51,3.36l.31,1.97c.04.23.07.47.11.7.1.55-.05-.54-.08-.52-.37.25-.27,3-.31,3.46-.07.74-.13,1.47-.2,2.21-.18,1.87-.61,3.84-.44,5.71.18,1.98.65,3.94.5,5.92-.17,2.25-.39,4.29.02,6.52.23,1.25.44,2.51.69,3.76.18.9.14-.84-.07-.13-.16.54-.13,1.22-.2,1.78-.24,2.14-.33,3.95-.18,6.09.17,2.36.13,4.62.06,6.99-.06,2.05.13,4.09.25,6.14.09,1.6,1.3,3.03,3,3,1.54-.02,3.11.05,4.65-.07,1.01-.08-1.13-.27.25.01.92.19,1.84.36,2.76.53,2.77.54,5.64.89,8.47.9s5.44-.34,8.13-.54c1.17-.09,2.34-.26,3.51-.17,1.63.13,3.26.38,4.9.45,2.73.12,5.49-.1,8.19-.48l2.68-.38c.32-.05.64-.09.96-.14.1-.01-1.11,0-.32.11,1.61.22,3.31.19,4.94.27,2.62.12,5.23.38,7.8-.2l2.75-.62c.36-.08.73-.15,1.09-.24.85-.22-.17.14-.29.01.18.21,1.78.08,2.05.09.95.04,1.9.11,2.85.13,1.08.02-.21,0-.2-.08,0,.02.66.16.72.17l3.11.73c1.55.37,2.84.49,4.43.43s3.31-.02,4.92-.38,3.33-.8,5-1.19h-1.6c1.03.3,2.06.6,3.09.9s2.18.82,3.25.82c2.06,0,4.34-.98,6.33-1.47h-1.6c1.85.31,3.69.66,5.54.94,2.05.31,4.26,0,6.33-.07s4.26.01,6.33-.31c1.85-.29,3.69-.66,5.53-.99h-1.6c2.01.42,4.27,1.27,6.34,1.27s4.34-.94,6.33-1.41h-1.6c2.05.43,4.25,1.2,6.35,1.27,1.88.06,3.8-.25,5.68-.29,4.08-.09,8.04.38,12.11.53,2.28.08,4.33.3,6.52-.38,1.25-.39,2.67-.66,3.86-1.2.66-.3-1.06-.05-.14.03.62.06,1.27.02,1.89.03l2.07.04c.31,0,1.64-.12.8-.03-.54.06-.37-.09-.04.05.2.08.43.13.64.19l2.1.63c1.31.4,2.66,1,4.05.74.98-.19,1.95-.48,2.92-.71l1.86-.45c.19-.05.42-.06.6-.15.37-.17-.74,0-.55.07.98.36,2.75,0,3.8-.01,2.04,0,4.07.06,6.11.11,4.01.1,8,.91,12.03.81.97-.02,1.94-.39,2.88-.64s2.63-.39,3.46-.94c-.4.27-.97.06-.01.08.75.02,1.5,0,2.24,0,.64,0,1.28.01,1.91,0,.16,0,.37.04.53,0,.36-.1-.8-.26-.49-.06.92.59,2.52.75,3.56,1.07.94.28,1.86.64,2.85.64,1.96,0,3.93-.25,5.89-.31,2.22-.07,4.42-.06,6.62-.37l3.92-.56c1.13-.16.33.15.01,0,.31.15,1.24-.06,1.57-.08,1.05-.05,2.76.21,3.74-.19.15-.06-1.13-.18-.1-.04.64.09,1.28.18,1.91.27,1.03.14,2.06.29,3.09.43,1.31.18,2.72-.15,4.03-.33l3.1-.42h-1.6c2.6.72,5.31,1.95,8,1.33,1.41-.33,3.27-.44,4.57-1.06.23-.11-1.07-.05-.48.1.26.07.57.03.84.05l2.84.16c2.4.13,4.79.51,7.19.59s4.98-.12,7.47-.08c1.44.02,2.98.21,4.41-.06s2.84-.69,4.26-1.03c.32-.08.66-.13.97-.23.63-.2-.29.14-.46.04.36.23,1.63-.04,2.05-.05l2.62-.07c.19,0,.53.06.7-.02.22-.1-1.13-.23-.42-.05,2.79.67,5.48,1.18,8.33,1s5.54-.43,8.32-.61c2.53-.16,5.12-.14,7.65.11,1.35.13,2.77.42,4.13.36,1.54-.07,3.12-.4,4.66-.6s3.12-1.22,3-3c-.09-1.44.09-3.24-.3-4.63-.16-.56-.28.74-.06.36.15-.27.21-.69.3-.99l.86-2.82c.47-1.54.69-2.68.08-4.22s-1.15-2.96-1.73-4.43v1.6c.65-2.45,1.87-5.2,1.37-7.73-.3-1.53-.57-3.09-.95-4.61-.23-.93,0,1.13.02-.03.02-.82-.04-1.64-.06-2.46-.07-2.83-.61-5.36-1.23-8.13-.04-.16-.05-.51-.14-.65-.1-.15.08,1.06.07.49,0-.79-.12-1.59-.17-2.37-.08-1.05-.17-2.09-.22-3.14-.24-5.24-.34-10.38.16-15.6.23-2.39-.85-4.8-1.27-7.13-.25-1.37-.37-2.77-.56-4.15-.04-.32-.09-.63-.13-.95-.11-.83.01.39.06.39-.04,0-.02-1.68-.02-1.78-.04-2.94-.31-5.67-.73-8.58-.14-.98-.31-1.75-.64-2.68l-.84-2.37c-.09-.25-.36-1.58-.61-1.7.33.16-.02,1.1.1.46.05-.27.03-.58.05-.86l.15-2.64c.07-1.19.16-2.14-.25-3.27-.49-1.36-.99-3.11-1.77-4.33-.45-.7.21.43-.03.44.01,0,.05-.49.06-.53.15-.81.19-1.65.29-2.47.15-1.26.39-2.45.16-3.71-.28-1.56-.63-3.1-.96-4.65-.44-2.07-1.1-4.1-1.65-6.14-.67-2.5-1.18-4.92-2.33-7.24l-2.18-4.4c-.6-1.21-1.31-1.97-2.42-2.77s-2.25-1.9-3.57-2.35-2.83-.81-4.23-1.14c-2.24-.53-4.69.01-6.98.04-2.53.03-5.07-.04-7.6-.13-1.37-.05-2.76-.2-4.12,0s-2.83.44-4.25.66c-.3.05-.6.09-.9.14-.8.13.42-.06.42-.05s-1.67-.09-1.77-.09l-2.55-.14c-.3-.02-.6-.05-.9-.05-.75,0,.57.17.4.07-.42-.28-1.24-.34-1.73-.47l-2.58-.7c-1.13-.31-2.08-.4-3.25-.34-2.67.15-5.28.36-7.93.68-.95.11-1.82.22-2.77.19l-2.5-.09c-.59-.02-1.44-.21-2.01-.07-.24.06,1.06.2.49.07-.26-.06-.52-.1-.78-.14l-2.56-.47c-1.33-.24-2.59-.58-3.93-.27-1.56.37-3.14.8-4.68,1.27-1.13.35.6.2-.04,0-.7-.21-1.58-.18-2.3-.26-.79-.09-1.57-.18-2.36-.27-1.33-.14.95.21-.31-.06-1.48-.32-2.97-.61-4.46-.89-2.21-.42-4.72-.59-6.96-.49-2.43.1-4.82.7-7.26.78-2.8.09-5.3-.06-8.09-.38-2.31-.27-4.83-.47-7.14-.23-1.38.15-2.75.43-4.12.64-.54.09-1.22.09-1.74.27-.33.12,1.12-.03.48-.08-.31-.03-.67.03-.98.04-2.78.12-5.32.1-8.09-.14-2.41-.22-4.86-.45-7.27-.45-2.18,0-4.36.53-6.54.27-1.48-.18-3.01-.5-4.51-.54-1.16-.03-2.38.19-3.53.29-.5.04-1.51-.07-1.95.17-.34.18.84.18.49.09-.27-.07-.56-.1-.84-.15-1.47-.26-2.93-.55-4.4-.79-2.24-.36-4.81-.49-7.07-.26-2.64.27-5.27.61-7.91.91-.72.08-1.52.09-2.23.25-.8.19.99.33-.12.01-1.53-.44-3.1-.84-4.65-1.19-2.36-.52-5.2.7-7.49,1.26h1.6c-2.03-.35-4.27-1.06-6.34-1.06s-4.34.94-6.34,1.41h1.6c-1.83-.5-3.66-1.12-5.52-1.5-2-.41-4.23-.3-6.26-.36-1.83-.05-3.71-.12-5.54-.02-2.02.1-4.08.55-6.09.82-.9.12.82.03.22-.06-.5-.07-1.07,0-1.57,0-1.17,0-2.35-.04-3.53,0-1.87.06-3.74.34-5.6.49s-3.7.26-5.54.31c-.7.02-1.41,0-2.11,0-1.04,0-2.42-.26-3.43-.01-.4.1.7.18.54.08-.14-.09-.39-.1-.55-.14-.65-.18-1.32-.34-1.97-.5-1.09-.28-2.21-.69-3.34-.8-1.26-.13-2.49.51-3.65.92l-3.07,1.08h1.6c-2.33-.71-4.98-2.03-7.43-1.65-1.5.23-3.01.49-4.51.73-.2.03-.4.05-.6.1-.35.08.8.08.5-.1-.42-.26-1.51-.2-1.99-.26-1.36-.18-2.85-.59-4.21-.34-1.24.23-2.47.56-3.7.84-.53.12-1.23.16-1.73.39-.27.13,1.09.02.48-.08-.3-.05-.67,0-.98.01-1.42.02-2.86.12-4.28.06-2.07-.1-4.13-.56-6.19-.75-1.52-.15-3.06-.36-4.59-.43-.99-.04-1.99.17-2.98.3-2.69.34-5.07.25-7.79.1-2.08-.12-4.25.25-6.33.47-5.52.58-10.96,1.03-16.51,1.19-3.85.11-3.87,6.11,0,6h0Z"/>
      <g>
        <polyline class="cls-3" points="187.1 182.11 192.68 181.2 198.33 181.99 203.95 182.26 209.53 181.21 215.12 180.2 220.73 180.25 226.35 180.21 231.97 180.93 237.57 180.45 243.19 179.82 248.79 181.61 254.41 180.92 260.03 179.95 265.64 180.35 271.23 181.52 276.85 181.05 282.47 180.92 288.08 180.97 293.7 181 299.28 181.86 304.89 181.87 310.46 182.87 316.11 182.4 322.31 182.72 327.14 186.9 325.92 192.49 323.33 197.93 317.17 198.27 311.42 200.48 305.73 199.37 300.08 199.31 294.48 200.83 288.79 199.6 283.14 199.52 277.52 200.57 271.86 200.21 266.23 201.29 260.58 200.47 254.93 200.03 249.29 200.56 243.62 201.28 237.98 200.78 232.31 201.32 226.7 200.22 221.11 199.17 215.46 199.06 209.85 198.43 204.1 199.17 198.47 198.58 192.19 197.03 187.24 193.12 185.01 187.99 186.99 182.86"/>
        <path d="m187.9,185c1.86-.3,3.72-.6,5.58-.91h-1.6c2.18.31,4.37.73,6.57.9s4.66.46,6.87.04c2.1-.39,4.2-.79,6.31-1.18,1.32-.24,2.65-.45,3.97-.72.86-.18-1.09,0-.16.05.7.04,1.41.01,2.11.02,2.24.02,4.48.02,6.72,0s4.36.28,6.58.56,4.28-.12,6.39-.31c.8-.07,1.6-.17,2.4-.26l2.26-.25c.27-.03.54-.05.81-.09s.8.02.06-.1c-.9-.15.43.21.66.28l2.21.7c.98.31,2.14.87,3.19.85,2.23-.06,4.59-.5,6.79-.86,1.39-.23,2.78-.48,4.16-.72.24-.04.47-.08.71-.12.72-.13-.36.17-.47.05.16.16,1.15.08,1.37.1,1.33.09,2.68.24,4.01.28.67.02-1.24-.23-.07.02l2.17.46c1.18.25,2.5.7,3.71.72,1.13.02,2.3-.19,3.43-.29,2.22-.19,4.42-.24,6.64-.29s4.3,0,6.46.02c.8,0,1.6,0,2.4.01h2.37c.56.01,1.9.28.39-.09,1.14.27,2.35.36,3.51.54,1.03.16,2.09.4,3.13.43,1.39.04,2.78,0,4.17.01.26,0,.93.13,1.16,0-.24.14-1.16-.19-.46-.05.28.06.56.1.84.15,1.4.25,2.79.52,4.19.75,1.07.18,2.02.06,3.09-.03,2.29-.19,4.37-.25,6.66-.14l3.1.16-2.12-.88c1.61,1.4,3.22,2.79,4.84,4.19l-.77-2.92-.61,2.8-.43,1.96c-.15.66-.51,1.16.11.14-1.02,1.67-1.73,3.63-2.57,5.4l2.59-1.49c-2.16.12-4.41.07-6.55.4-1.08.16-2.14.72-3.16,1.12l-2.99,1.15h1.6c-1.64-.32-3.29-.64-4.93-.96-1.47-.29-2.89-.27-4.38-.29s-2.92-.12-4.37.28c-1.62.44-3.24.88-4.86,1.32h1.6c-1.89-.41-3.77-.88-5.67-1.23-1.03-.19-2.1-.13-3.14-.14s-2.18-.09-3.26-.05c-2.06.09-4.26.68-6.27,1.12-.64.14,1.2.02.2-.09-.6-.07-1.21-.08-1.81-.11-1.11-.07-2.24-.21-3.36-.21s-2.19.35-3.22.55c-1.1.21-2.2.42-3.3.63h1.6c-2.47-.36-4.94-.82-7.43-1.01-1.5-.12-3.04-.35-4.54-.35-1.1,0-2.22.19-3.31.29-2.52.24-5.02.56-7.53.88-2.1.27-4.24-.45-6.35-.42-1.5.03-3.04.29-4.53.44-.27.03-.56.02-.82.08-.56.13.49.1.54.12-.61-.19-1.29-.25-1.92-.38-2.57-.5-5.14-.99-7.71-1.48s-5.19-.35-7.84-.5c-2.07-.12-4.26-.81-6.33-.55-1.65.21-3.37.59-5.03.64-1.36.04-2.79-.26-4.14-.4-.38-.04-.76-.08-1.14-.12-.87-.09.06-.12.32.06-.42-.29-1.35-.33-1.83-.45-1.48-.37-2.95-.73-4.43-1.1l1.32.77c-.73-.57-1.46-1.15-2.18-1.72l-1.68-1.33c-.27-.21-.69-.71-1.02-.81-.16-.05.39.67.37.47-.01-.14-.15-.35-.21-.48l-.77-1.78c-.41-.93-.81-1.86-1.22-2.8l.3,2.31c.66-1.71,1.32-3.42,1.98-5.13.58-1.51-.64-3.29-2.1-3.69-1.69-.47-3.11.58-3.69,2.1-.51,1.33-1.03,2.67-1.54,4-.2.51-.41.98-.49,1.53-.14,1.02.35,1.9.74,2.8.6,1.37,1.1,2.85,1.81,4.17.6,1.11,2.02,1.88,2.98,2.64,1.1.87,2.45,2.3,3.81,2.73s2.81.69,4.19,1.04c2.65.66,5.32.9,8.03,1.16,2.13.2,4.29-.74,6.43-.66,2.59.09,5.13.59,7.72.65l2.44.05c.24,0,.52.05.76.02.5-.08-1.13-.21-.47-.07,1.51.33,3.04.57,4.56.86.94.18,1.87.36,2.81.54,1.4.27,2.99.82,4.43.82,2.3,0,4.55-.65,6.85-.44,1.45.13,2.96.41,4.41.39,1.23-.01,2.51-.31,3.72-.46,2.43-.31,4.88-.62,7.33-.75,1.12-.06,2.27.12,3.38.21.72.06,1.45.12,2.18.17.38.02.98.19-.39-.07.19.04.38.06.57.08,1.56.23,3.13.46,4.69.68,1.48.21,2.75-.09,4.19-.37l2.49-.48c.24-.05.48-.08.72-.14.64-.15-.93-.09-.47.08.53.19,1.41.09,1.96.12l2.78.17c1.15.07,2.22-.17,3.34-.38l2.55-.48c.29-.05.59-.11.88-.16.9-.18-.19.15-.34.03.22.17,1.33.02,1.6.02l2.86.04c.28,0,.57.02.85.01.62-.02.1.14-.43-.1.5.22,1.2.26,1.74.38,1.42.31,2.87.74,4.32.9,1.55.17,3.35-.64,4.83-1.04.58-.16,1.31-.24,1.86-.5.42-.21-1.03-.04-.56.08.25.06.6,0,.85,0l2.59.03c.62,0,1.43.16,2.03.02.24-.05-1.16-.21-.54-.07.24.06.49.09.73.14l2.75.54c1.33.26,2.68.68,4,.23,1.57-.53,3.11-1.2,4.66-1.79.16-.06.45-.12.58-.22.35-.29-1.04.04-.58.06.69.03,1.41-.08,2.1-.12l3.94-.22c1-.06,2.13-.52,2.59-1.49.86-1.81,1.76-3.6,2.59-5.43.87-1.93,1.08-4.25,1.53-6.31.22-1,.05-2.21-.77-2.92-.96-.83-1.92-1.66-2.88-2.49-1.21-1.05-2.42-2.43-4.09-2.57-2.13-.18-4.39-.4-6.52-.29-1.54.08-3.07.26-4.61.38-.17.01-.49-.02-.65.05-.18.09,1.15.2.53.07-.69-.14-1.39-.25-2.08-.37-1.34-.24-2.72-.61-4.08-.69s-2.67,0-4-.01c-.41,0-1.17-.14-1.57,0,.28-.1,1.13.17.44.06-.31-.05-.63-.1-.94-.15-1.42-.22-2.84-.45-4.26-.66-2.22-.33-4.55-.13-6.8-.15-5-.04-9.94,0-14.92.42-.32.03-1.29-.06-1.57.13.2-.13,1.12.22.51.06-.31-.08-.64-.13-.95-.2-1.42-.3-2.84-.63-4.27-.9-1.22-.23-2.48-.24-3.72-.33s-2.48-.27-3.72-.07c-1.43.23-2.86.49-4.29.74-.42.07-2.14.22-.43.1-.53.04-1.06.13-1.59.19l-2.4.29c-.24.03-1.46,0-1.59.19.18-.26,1.16.27.49.02-.25-.09-.51-.16-.76-.24l-2.44-.78c-1.09-.35-2.15-.81-3.3-.73-1.53.1-3.07.34-4.6.52-2.04.23-4.19.59-6.24.55-2.2-.05-4.37-.72-6.58-.71-2.48.01-4.97.03-7.45,0-1.24-.01-2.49-.1-3.72.1-1.46.24-2.91.53-4.36.79-2.18.4-4.44.66-6.57,1.23-.48.13,1.04.03.56-.09-.2-.05-.45-.02-.66-.03l-2.52-.12c-.68-.03-1.36-.09-2.04-.1s.53.1.47.09c-.23-.03-.46-.07-.7-.1-1.49-.21-2.97-.42-4.46-.62-1.35-.19-2.53.02-3.86.23l-3.76.61c-1.6.26-2.49,2.25-2.1,3.69.47,1.7,2.09,2.36,3.69,2.1h0Z"/>
      </g>
      <path d="m425.24,151.43l-4.66-.33c-.2-.01-.44-.07-.64-.04.86-.12.95.17.32-.02-.88-.26-1.77-.49-2.66-.74-.7-.19-1.4-.43-2.11-.59-.86-.19-1.62-.02-2.44.14l-4.57.89h1.6l-3.31-.57c-1.2-.21-2.54-.6-3.74-.35s-2.42.61-3.63.91c-.45.11-.99.17-1.42.35-.47.21.68-.06.58-.06-.16,0-.33.04-.49.05-2.25.24-4.57.34-6.8.77-1.27.25-2.54.54-3.81.82-.96.21-2.17.29-3.04.81-1.83,1.08-3.48,2.55-5.22,3.77s-3.5,2.16-4.99,3.56c-.94.88-1.95,1.73-2.84,2.67-.72.76-1.14,1.76-1.63,2.68-1.02,1.9-2.03,3.82-3.03,5.73-4.12,7.85-2.8,16.98-1.78,25.42.29,2.43,1.72,4.6,2.81,6.77.9,1.81,1.6,3.71,2.47,5.53.41.85,1.07,1.42,1.74,2.06.94.91,1.87,1.83,2.82,2.72,1.62,1.51,3.83,2.36,5.71,3.48,1.7,1.02,3.14,2.43,4.81,3.49.73.46,1.56.81,2.34,1.2,1.18.6,2.44,1.42,3.77,1.54,1.15.11,2.32.14,3.47.2.48.03.99.11,1.48.09.44-.02-1.02-.3-.58-.06.2.11.45.15.67.22,1.24.42,2.47.89,3.72,1.26,1.16.34,2.39.01,3.56-.17l2.13-.34c.27-.04.54-.08.82-.13.18-.03.84-.16.03-.01-.73.13-.26.05-.03.07.27.03.54.03.81.04l2.27.11c.46.02.98.12,1.45.07.22-.02-1.09-.19-.59-.08.2.04.41.07.61.1l4.1.69c1.14.19,2.18.43,3.34.25,1.22-.19,2.44-.39,3.66-.59,1.97-.32,3.9-.71,5.85-1.14,1-.22,2.04-.37,3.02-.67,1.12-.34,2.19-1.08,3.22-1.62,1.88-.99,3.71-2.02,5.54-3.09s3.43-2.25,5.11-3.45c.9-.64,1.68-1.24,2.13-2.27l1.65-3.77c.8-1.81,2-3.43,2.98-5.15.42-.74.78-1.52,1.17-2.28.53-1.04,1.32-2.18,1.63-3.32.26-.99.3-2.11.45-3.13s.36-2.07.42-3.1c.11-1.96.22-3.99.07-5.95-.16-2.1-.33-4.15-.26-6.25.04-1.23.16-2.48.13-3.71-.03-1.53-1.15-2.52-2.1-3.59-.81-.91-1.57-1.94-2.45-2.77-.31-.29.57.87.34.43-.09-.18-.22-.34-.33-.51l-1.16-1.82c-1.16-1.81-2.3-3.64-3.44-5.46-.63-1-1.19-1.8-2.16-2.52-1.08-.81-2.16-1.62-3.24-2.43-1.62-1.21-3.45-2.13-5.21-3.14s-3.33-2-5.05-2.88c-.96-.49-2.08-.57-3.13-.76s-2.05-.39-3.08-.56c-1.37-.22-2.75.27-4.08.59-.99.24-1.98.47-2.96.71-3.75.89-2.16,6.68,1.6,5.79,1.82-.43,3.63-.87,5.45-1.3h-1.6c1.56.28,3.12.56,4.68.85.17.03.53.17.71.13-.2.05-1.02-.52-.27-.07.8.48,1.62.92,2.43,1.38,2.27,1.29,4.68,2.47,6.82,3.94,1.44.99,2.82,2.11,4.22,3.16l-1.08-1.08c1.48,2.36,2.96,4.73,4.47,7.08,1.6,2.51,3.52,4.62,5.49,6.85l-.88-2.12c-.08,2.36-.27,4.72-.09,7.07.2,2.72.24,5.31.17,8.04,0,.26-.03.53-.02.79.03.71.16-.97.08-.45-.1.64-.18,1.29-.28,1.93l-.35,2.46c-.02.17-.14.49-.09.66.1.38.51-1,.16-.35-1.24,2.27-2.33,4.58-3.67,6.8-1.43,2.38-2.49,4.84-3.61,7.4l1.08-1.08c-3,2.14-5.96,4.14-9.2,5.92-.95.52-1.92,1.01-2.88,1.51-.5.26-1,.51-1.49.79-.84.47.77-.12.13-.06-2.03.18-4.06.95-6.06,1.33-2.12.4-4.26.69-6.39,1.03h1.6c-2.87-.49-5.74-1.12-8.65-1.27-1.58-.08-3.14-.26-4.7-.02s-3.14.5-4.7.74h1.6c-1.68-.57-3.43-1.41-5.18-1.67s-3.65-.24-5.46-.35l1.51.41c-1.76-.89-3.65-1.65-5.25-2.82-1.89-1.39-3.71-2.76-5.76-3.91l-1.99-1.13c-.26-.15-.52-.31-.79-.45-.18-.1-.69-.48-.09,0,.67.54-.31-.36-.5-.53l-1.76-1.69c-.45-.44-.89-.9-1.37-1.31-.78-.68.34.87,0-.04-.5-1.37-1.19-2.7-1.78-4.03-.93-2.11-2.01-4.15-3.04-6.21l.41,1.51c-.5-4.11-1.26-8.38-1.12-12.53.05-1.43.15-2.86.15-4.28,0-1.11-.28.92-.01.03.19-.62.32-1.27.48-1.91l.55-2.2c.06-.26.14-.52.19-.78.17-.76.21-.07-.19.26.23-.2.39-.74.53-1.01l1.16-2.2c1.01-1.93,2.32-3.86,3.13-5.87.23-.57-.19.31-.31.35.15-.05.35-.33.46-.43l1.66-1.56c.4-.37.85-.72,1.21-1.13.3-.34-.87.59-.41.32.28-.16.55-.37.82-.55,1.91-1.29,3.78-2.59,5.65-3.94l1.81-1.31c.17-.12.37-.23.51-.37.42-.41-.37.19-.47.15.24.1,1.03-.22,1.28-.27l2.43-.52c.72-.15,1.44-.29,2.15-.46,1.02-.25-1.03.08,0-.02,1.57-.15,3.15-.34,4.72-.5,2.49-.27,4.87-.95,7.3-1.55h-1.6l2.82.49c1.07.19,2.28.55,3.37.55s2.21-.38,3.23-.58l2.92-.57h-1.6c1.75.49,3.51,1.09,5.28,1.47,1.96.42,4.12.34,6.11.48,1.62.11,3-1.46,3-3,0-1.72-1.38-2.89-3-3h0Z"/>
      <path d="m395.1,159.77c-.92,1.55-1.9,3.08-2.75,4.66s-1.23,3.55-1.76,5.29c-.09.31-.24.64-.29.96-.07.39.34-.66.24-.56-.09.08-.13.24-.2.34-.61.93-1.14,1.93-1.71,2.89-.91,1.54-1.55,3.07-2.19,4.74-.57,1.47-1.11,2.84-1.45,4.37s-.66,3.17-1.11,4.73l-.98,3.41c-.11.37-.25.75-.33,1.13-.14.69.51-1.02.1-.21-.93,1.8-1.9,3.63-2.65,5.51-.68,1.71-1.56,3.48-2.03,5.25s-.63,3.77-.94,5.63c-.27,1.6.42,3.23,2.1,3.69,1.44.4,3.42-.49,3.69-2.1.3-1.78.5-3.61.9-5.37.36-1.6,1.17-3.16,1.76-4.69.1-.26.24-.54.31-.81-.24.88-.31.72.01.07l1.57-3.19c.79-1.61,1.27-3.2,1.77-4.92.86-2.98,1.24-6.16,2.35-9.04l1.26-3.25c.12-.31.27-.63.37-.95-.12.39-.43.91-.02.22.98-1.66,2.29-3.36,2.93-5.19.33-.92.57-1.88.86-2.82l.52-1.7c.06-.21.46-1.35.12-.53s.2-.23.32-.45l.97-1.64c.48-.81.96-1.63,1.44-2.44,1.97-3.33-3.22-6.35-5.18-3.03h0Z"/>
      <path d="m404.7,165.87c-1.05,3.49-2.17,6.82-3.51,10.21-.07.18-.46,1.16-.13.36s-.13.24-.22.42l-1.54,3.24c-.7,1.47-1.32,2.96-1.95,4.46-.3.7-.59,1.4-.89,2.1-.38.9-.5,1.81-.68,2.77-.29,1.59-.52,3.18-.97,4.72l-1,3.45c-.09.33-.25.68-.3,1.02.04-.26.47-.97.04-.19-.86,1.56-1.71,3.13-2.54,4.71-.99,1.91-2.17,3.87-2.91,5.9-.65,1.81-1.15,3.69-1.73,5.52-1.16,3.69,4.63,5.27,5.79,1.6.55-1.76,1.23-3.53,1.67-5.32.17-.68-.5.98-.12.28.22-.42.43-.85.64-1.28l1.58-3.14c.74-1.47,1.54-2.9,2.32-4.35.87-1.61,1.35-3.19,1.86-4.95.44-1.51.82-2.95,1.11-4.49l.61-3.37c.08-.46.32-1.08-.19.12.13-.31.26-.62.4-.93,1.47-3.47,3.23-6.84,4.65-10.32s2.67-7.19,3.79-10.92-4.68-5.29-5.79-1.6h0Z"/>
      <path d="m410.41,165.2c-.64,1.52-1.28,3.05-1.92,4.57-.52,1.25-.8,2.58-1.14,3.88-.76,2.82-1.24,5.87-1.25,8.8,0,1.83.15,3.68.22,5.51l.41-1.51c-1.11,2.37-2.51,4.71-3.03,7.28-.32,1.6-.84,3.28-.94,4.92-.08,1.37.01,2.77.02,4.14,0,1.07-.04,2.07-.15,3.14l-.26,2.61c-.03.35-.07.7-.1,1.05-.06.7,0-.23.06-.42-.49,1.46-.63,3.14-.93,4.65-.2,1.01-.44,2.01-.67,3.01-.21.92-.44,1.83-.63,2.75-.14.72-.18.23.17-.22-.14.18-.23.44-.34.64-.79,1.49-1.58,2.98-2.36,4.46s-.36,3.26,1.08,4.1c1.36.79,3.34.36,4.1-1.08.51-.97,1.02-1.94,1.54-2.9s1.18-1.94,1.49-2.97c.56-1.82.9-3.77,1.29-5.64.87-4.15,1.72-8.41,1.7-12.67l-.02-4.06c0-.14.03-.33,0-.47-.09-.4-.21.96-.08.56.15-.5.21-1.05.31-1.55.23-1.13.78-2.53.74-3.67-.01-.47-.43.88-.24.52.08-.15.15-.31.22-.46l.87-1.84c.44-.94.91-1.88,1.33-2.83.59-1.32.36-2.72.3-4.13-.09-2.16-.03-4.1.19-6.25.07-.7.15-1.39.21-2.09.08-.93-.28,1.14.04.03.42-1.45.78-2.91,1.17-4.37.54-2.02,1.56-3.94,2.37-5.87.63-1.5-.67-3.3-2.1-3.69-1.73-.48-3.06.59-3.69,2.1h0Z"/>
      <path d="m420.66,172.76c-.68,2.99-1.35,5.97-1.95,8.97-.3,1.49-.54,2.94-.67,4.46l-.27,3.16c-.03.34-.08.68-.09,1.02,0,.29.3-1.12,0-.38-.66,1.64-1.04,3.4-1.61,5.07-.51,1.48-1.11,2.94-1.67,4.4s-.6,2.94-.71,4.5c-.07.94-.16,1.87-.21,2.81-.04.79.2-.56.04-.37-.19.22-.26.69-.36.96-.64,1.71-1.64,3.53-1.74,5.37s-.11,3.72-.16,5.58c-.11,3.86,5.89,3.86,6,0,.05-1.67.1-3.34.15-5.01,0-.24.06-.53.02-.77.06.39-.28,1.04.05.32.41-.87.69-1.83,1.03-2.73.27-.72.61-1.45.82-2.18.19-.68.18-1.5.23-2.2l.24-3.17c.03-.34.07-.69.08-1.04.02-.63-.35.91-.02.39.47-.73.69-1.8,1-2.61s.63-1.61.92-2.42c.51-1.42.93-2.89,1.39-4.33s.58-2.83.71-4.34l.25-2.97c.06-.65.27-.62-.06.24.09-.24.11-.55.16-.8.69-3.46,1.44-6.9,2.22-10.35.36-1.58-.48-3.25-2.1-3.69-1.51-.42-3.33.51-3.69,2.1h0Z"/>
      <path d="m431.98,174.7c-1.11,4.18-2.32,8.38-2.66,12.7-.1,1.3-.29,2.63-.31,3.93,0,.43.31-1,.06-.59-.11.18-.16.44-.24.63l-.8,2.14c-.79,2.12-1.39,4.25-2,6.44-.65,2.33-.55,4.86-.68,7.27l.41-1.51c-.85,1.74-1.83,3.47-2.54,5.27-.36.91-.39,1.98-.53,2.95s-.27,1.89-.41,2.84c-.23,1.6.4,3.22,2.1,3.69,1.41.39,3.46-.48,3.69-2.1s.46-3.2.69-4.8c.01-.1.14-.53.09-.61,0,0-.44.95-.24.59.08-.15.15-.3.22-.46l1.24-2.55c.29-.6.59-1.19.87-1.79.42-.91.43-1.81.48-2.78l.17-3.01c.02-.33.05-.66.06-.99.02-.77-.26.92-.05.36.6-1.54.85-3.24,1.34-4.81.41-1.35.97-2.66,1.46-3.98.53-1.42.65-2.71.77-4.22l.22-2.78c.07-.83.16-.29-.06.23.08-.2.09-.47.14-.68.66-3.31,1.43-6.54,2.3-9.8,1-3.74-4.79-5.33-5.79-1.6h0Z"/>
      <path d="m377.18,197.17c4.56.48,9.14.63,13.69,1.22,2.38.31,4.76.54,7.15.75,1.14.1-.96-.18,0-.01.73.13,1.46.24,2.19.35.99.16,1.98.31,2.97.49,1.39.25,2.78.53,4.17.79.67.13,1.27.35.23-.1.52.23,1.05.45,1.57.67,1.14.49,2.27.98,3.41,1.46,1.54.65,3.23.3,4.86.2.61-.04,1.29,0,1.89-.12s-.52-.1-.52-.1c.16.12.51.17.71.23,1.38.45,2.77.98,4.17,1.37,2.05.56,4.37.84,6.49,1.03,2.77.25,5.44.38,8.21.28.69-.02,1.44.03,2.13-.07s-.89-.29-.46-.08c.24.11.57.15.83.22,1.41.38,2.83.75,4.24,1.13,3.74.99,5.33-4.79,1.6-5.79-2.02-.54-4.22-1.46-6.32-1.47s-4.31.23-6.48.07c-1.27-.1-2.56-.29-3.83-.29-.51,0,1.05.18.55.08-.16-.03-.33-.05-.49-.08l-2.26-.36c-2.25-.36-4.23-.99-6.41-1.7-2.39-.78-4.91-.29-7.39-.13l1.51.41c-2.33-1-4.65-2.25-7.14-2.73-2.7-.51-5.39-.98-8.1-1.42-2.4-.39-4.83-.51-7.24-.78s-4.93-.66-7.44-.79c-2.84-.14-5.65-.42-8.48-.72-1.61-.17-3,1.5-3,3,0,1.76,1.38,2.83,3,3h0Z"/>
      <path d="m384.4,184.38c3.91.97,7.72,1.83,11.76,2.05.24.01-1.07-.21-.62-.08.15.05.32.06.48.09l1.9.37c.98.19,1.99.32,2.95.58,1.81.48,3.52,1.33,5.33,1.8,1.05.27,2.27.09,3.35.07l3.23-.07-1.51-.41c1.34.6,2.67,1.21,4.01,1.81.41.18.82.37,1.23.55,1.02.45,1.73.4,2.76.34l2.72-.15c.3-.02,1.53.11,1.78-.1-.15.12-1.24-.17-.33-.04.3.04.61.09.91.13l3.02.43c.56.08,1.83.47.49-.12.6.26,1.2.52,1.8.77,1.53.66,3.28,1.69,4.94,1.88,1.47.17,2.94.29,4.41.44.32.03.63.07.95.09.68.05-.9-.22-.5-.06.67.26,1.46.36,2.15.53,2.93.72,5.68,1.67,8.52,2.69,1.53.55,3.28-.62,3.69-2.1.46-1.66-.56-3.14-2.1-3.69-2.72-.97-5.36-1.91-8.17-2.6-2.98-.73-5.93-1-8.99-1.3l1.51.41c-1.52-.65-3.04-1.31-4.56-1.96-1.4-.6-2.67-.78-4.19-1-1.43-.2-2.89-.54-4.33-.46l-4.99.28,1.51.41-3.29-1.48c-1.14-.51-2.37-1.24-3.63-1.29-1.4-.05-2.82.07-4.22.1-.38,0-.92-.08-1.29.03.05-.01,1.06.29.54.04-.28-.13-.62-.21-.91-.31-2.26-.77-4.39-1.46-6.73-1.92-2.52-.49-4.99-.82-7.54-1.1-.58-.06-1.22-.21-1.81-.2.26,0,1.12.22.47.03-.33-.1-.68-.17-1.02-.25-1.37-.34-2.73-.68-4.1-1.02-3.75-.93-5.35,4.85-1.6,5.79h0Z"/>
      <path d="m389.98,174.18c3.55.99,7.14,1.78,10.69,2.77,1.96.55,4.05,1.5,6.11,1.5,1.33,0,2.65-.04,3.98-.05.25,0,1.48.07.6-.07s.53.13.75.17c3.82.75,7.72,1.19,11.5,2.14,1.95.49,3.84.89,5.82,1.22.84.14,1.73.2,2.55.42,1.04.29,2.07.78,3.08,1.17.8.3,1.58.68,2.43.81,1.4.21,2.81.39,4.22.59,1.95.27,3.88,1.04,5.77,1.59,3.71,1.09,5.3-4.7,1.6-5.79-1.73-.51-3.48-1.17-5.24-1.52s-3.78-.26-5.52-.84-3.51-1.6-5.37-1.91-3.89-.57-5.8-1.05-3.72-.97-5.64-1.26-3.9-.6-5.84-.98c-1.03-.2-2.05-.43-3.08-.61-1.12-.19-2.28-.09-3.41-.07l-1.95.03c-.21,0-.42,0-.62,0-.61.04.11-.13.48.1-.82-.51-2.2-.64-3.13-.9-4.09-1.18-8.26-2.11-12.36-3.26-3.73-1.04-5.32,4.75-1.6,5.79h0Z"/>
      <path d="m156.12,124.11c4.11-.19,8.5-.18,12.5-1.22,2.11-.55,4.2-1.11,6.33-1.57,1.2-.26,2.46-.43,3.63-.79,1.02-.31,2-.9,2.95-1.36l1.95-.95c.22-.11.44-.21.66-.32.75-.38-.27.22-.34.12.15.19,3.08-.68,3.4-.75.56-.12,1.14-.22,1.7-.37s-.38.03-.52.05c.19-.03.38-.05.57-.08,1.36-.18,2.72-.36,4.07-.55,2.03-.27,4.09-.35,6.13-.56s4.22-1.08,6.29-1.64c8.02-2.19,16.04-4.33,24.23-5.8.66-.12,1.32-.23,1.97-.35.15-.03.36-.03.5-.09.11-.05-1.1.04-.47.09,1.31.11,2.69-.01,4.01-.02,2.31-.01,4.51-.59,6.77-1.05,1.99-.4,4.04-.69,5.99-1.24.91-.25,1.79-.74,2.65-1.13,1.06-.48,2.35-.86,3.32-1.5-.96.63-.46.23.22.08l2.23-.51c.81-.19,1.61-.37,2.42-.56,1.98-.47,3.95-1.07,5.97-1.35,1.39-.2,2.78-.39,4.17-.59,1.14-.16-.66.02-.11.03.61,0,1.22-.08,1.83-.11,1.18-.07,2.36-.11,3.54-.22,1.39-.13,2.57-1,3.75-1.67.92-.52,1.84-1.04,2.76-1.56l-1.51.41c2.22.07,5.05.68,7.14-.2,1.3-.55,3.03-.96,4.19-1.76.44-.31.34.1-.44-.02.16.03.38-.03.55-.04.83-.04,1.66-.11,2.49-.16,1.18-.08,2.44-.05,3.58-.37,1.44-.4,2.85-.93,4.27-1.39,1.99-.65,4.05-1.07,6.06-1.66,2.29-.67,4.5-1.51,6.84-1.99,2.55-.52,5-1.13,7.51-1.85.14-.04,1.44-.29,1.48-.43-.04.12-1.19.07-.47.09.35,0,.71-.03,1.05-.05,1.38-.07,2.78-.08,4.16-.2s2.85-.98,4.14-1.57c.7-.32,1.39-.63,2.09-.95,1.05-.48-.88.19.23-.02,1.5-.29,3.25-.57,4.68-1.12.58-.22-1.05.07-.42.05.33-.01.66-.06.98-.09l2.8-.24c1.52-.13,2.75-.34,4.07-1.14s2.63-1.6,3.94-2.4l-1.51.41c1.85-.13,3.72-.22,5.56-.41,2.06-.21,3.96-1.52,5.9-2.18.69-.23,1.42-.37,2.13-.55.82-.21,2.48-.31,3.17-.81-.18.13-1.13.11-.11.03.57-.05,1.14-.1,1.72-.15,1.06-.09,2.13-.17,3.19-.28,2.01-.22,3.95-1.31,5.86-1.97,1.73-.6,3.5-1.1,5.26-1.63s3.46-1.09,5.22-1.52,3.62-.49,5.41-.8c3.46-.6,7.26-1.76,10.39-3.38.81-.42-.62-.05-.22-.07.46-.03.93-.08,1.39-.13,1.22-.11,2.44-.21,3.65-.33,2.15-.22,4.21-1.59,6.14-2.53.19-.09.38-.17.56-.28.46-.26-.49.25-.52.21.06.07.98-.27,1.1-.3,1.2-.33,2.41-.66,3.61-.98,1.74-.46,3.56-.66,5.34-.96.44-.07,1.37-.2-.05-.02.37-.05.74-.1,1.11-.15,1.25-.17,2.5-.33,3.75-.5,1.99-.26,3.85-.97,5.77-1.57s3.76-1.5,5.62-2.28c.33-.14.67-.28,1-.42.3-.12-.98.31-.51.23.18-.03.36-.12.53-.18l3.58-1.19c.09-.03.95-.24.97-.32-.01.07-1.11.07-.6.09.23.01.47-.02.7-.04l3.64-.19c1.02-.05,1.89-.11,2.84-.58s1.96-1.02,2.94-1.53l2.33-1.22-4.51-2.59c.22,2.17.03,5.14,1.28,6.98.73,1.08,1.53,2.13,2.31,3.17,1.14,1.52,2.5,1.51,4.21,1.77s3.6.86,5.04-.47c.93-.86,1.76-1.89,2.6-2.84,1.69-1.89,1.59-4.92,1.91-7.36.14-1.07-.69-2.04-1.49-2.59-1.45-1.01-3.43-3.04-5.29-3.04-.99,0-2.08.33-3.05.49-1.33.23-2.59.26-3.51,1.41-.59.75-.98,1.69-1.44,2.52s-1.1,1.74-1.36,2.66c-.51,1.85,1.06,4.35,1.7,6.03.58,1.51,2.02,2.55,3.69,2.1,1.45-.4,2.68-2.17,2.1-3.69s-1.14-2.96-1.7-4.44l-.3,2.31c.75-1.39,1.51-2.78,2.26-4.16l-1.79,1.38,4.2-.72-2.31-.3c1.26.88,2.52,1.75,3.78,2.63l-1.49-2.59c-.21,1.6-.42,3.2-.64,4.8l.88-2.12c-1.01,1.1-2.01,2.19-3.02,3.29l2.92-.77-4.5-.69,1.79,1.38c-.89-1.22-1.79-2.45-2.68-3.67l.41,1.51c-.17-1.66-.34-3.32-.51-4.98-.24-2.28-2.36-3.71-4.51-2.59-1.83.95-3.66,1.91-5.49,2.86l1.51-.41-4.97.25c-1.5.08-2.8.59-4.22,1.06s-2.71.92-4.04,1.48l-2.8,1.19c-.38.16-.77.32-1.15.49-.77.32.73-.17.28-.13-.74.06-1.64.52-2.35.74-.8.25-1.86.39-2.59.82-.5.29,1.01-.1.43-.03-.32.04-.65.09-.98.13l-3.18.42c-2.76.37-5.61.69-8.3,1.42-1.76.48-3.65.81-5.31,1.59s-3.24,1.58-4.86,2.37l1.51-.41c-2.14.19-4.62.07-6.67.73s-4.05,1.77-6.21,2.33c-2.31.61-4.48,1.11-6.84,1.44s-4.39.89-6.63,1.54c-2.09.61-4.19,1.23-6.26,1.9-.86.28-1.7.62-2.55.93l-2.01.75c-.19.07-.52.13-.69.26-.39.29.81-.03.48-.03-4.51-.04-9.26,1.02-13.41,2.71l-2.42.99c-.19.08-.58.15-.73.3-.23.22.97-.04.48-.04-1.55,0-3.13.23-4.68.34-2.66.19-4.9,2.09-7.13,3.45l1.51-.41c-3.08.27-6.02.51-9.03,1.23-1.41.34-2.72.64-4.03,1.23-1.48.67-2.97,1.35-4.45,2.02l1.51-.41c-1.86.09-3.73.1-5.58.26-2.03.17-4.01,1.09-5.98,1.59-1.78.45-3.61.67-5.39,1.12s-3.47,1.12-5.21,1.64-3.55.92-5.31,1.43c-.65.19-1.3.41-1.95.62-1.01.33-2.4.52-3.3,1.07-.37.22,1.17-.06.2-.02-.53.02-1.07.07-1.6.11-1.14.07-2.28.12-3.41.22-.95.09-1.65.42-2.53.79-1.03.43-2.37.77-3.31,1.39-.46.3,1.06.06.08-.02-.63-.05-1.28-.04-1.91-.06-1.09-.03-2.2-.15-3.29-.11-1.3.06-2.52.97-3.62,1.59-.97.54-1.93,1.09-2.9,1.63l1.51-.41c-4.03.25-8.12.46-12.08,1.29-1.9.4-3.78.92-5.68,1.36-2.1.49-4.23.83-6.2,1.72l-3.62,1.64c-.19.09-.39.17-.58.26-.59.28.46-.22.47-.2-.05-.07-1.13.23-1.25.26-2.03.42-4.05.84-6.08,1.25-1.02.21-2.44.24-3.38.69-.03.02,1.05-.02.56-.1-.19-.03-.41,0-.59,0h-2.04c-2.25.02-4.26.25-6.47.64-7.96,1.43-15.72,3.58-23.53,5.64-.68.18-1.36.38-2.04.57-1.07.31-2.56.46-3.53,1.01-.32.18.76-.03.58-.06-.15-.03-.36.03-.51.04-.67.05-1.34.11-2.01.17-.98.08-1.96.14-2.94.25-2.1.23-4.25.47-6.32.86s-4.3.68-6.17,1.55c-1.12.52-2.22,1.08-3.33,1.61-.46.22-.94.44-1.39.68-.51.27,1.08-.26,0-.09-1.94.32-3.88.8-5.78,1.29-1.32.34-2.66.64-3.96,1.03-1.03.3.52,0,.13.04-.55.06-1.1.14-1.65.21-2.05.26-4.04.47-6.1.57l-3.09.14c-3.85.17-3.87,6.17,0,6h0Z"/>
    </g>
  </g>
  <g>
    <path d="m539.21,473.47c2.64,3.23,5.34,7.22,9,9.34,2.03,1.17,4,2.34,5.94,3.65.61.41,1.21.87,1.84,1.25.84.51-.36-.38-.02-.02,1.01,1.04,2.06,2.06,3.13,3.05.61.57,1.23,1.07,1.89,1.58.91.69,2.38,2.36,3.47,2.63-.24-.06-1.19-1.65-.46-.26.28.53.65,1.02.97,1.52.65,1.02,1.25,2.36,2.13,3.22.82.79,2.07,1.25,3.06,1.78.63.34,1.32.83,2,1.07.99.35-.61-.57.24.08,1.77,1.36,3.53,2.69,5.12,4.25,1.92,1.88,3.66,3.79,5.41,5.83,1.61,1.89,3.94,2.89,6.07,4.13l1.51-5.59c-4.4-.06-8.64.48-13.02.61-4.82.15-9.48.68-14.2,1.64-.25.05-1.58.24-.75.17.89-.07-.6-.03-.76-.03-1.4.02-2.8,0-4.2.07-1.96.11-3.93.55-5.89.56-2.25,0-4.5-.72-6.72-.22-1.3.29-2.59.68-3.89,1.01-.7.18-1.63.09-.4.19-.51-.04-1.03-.07-1.55-.1-2.69-.17-4.69-.18-7.3.48-.68.17-1.36.33-2.03.51-.57.15-1.49.12-.21.13-1.31-.01-2.62-.03-3.93-.05-2.22-.03-4.38-.46-6.59-.57s-4.56.56-6.73.97c-.75.14-1.5.3-2.24.45l-2.33.48c-.68.14-1.51.03-.41.13-2.1-.17-4.22-.18-6.32-.3-2.31-.13-4.53-.51-6.75.18-1.13.35-3.06.55-4,1.24-.73.53,2,.41.8,0-.74-.25-1.59-.32-2.35-.47-1.13-.23-2.45-.69-3.62-.67-1.25.02-2.6.62-3.78.96-.62.18-1.29.31-1.89.54-1.05.39.22.07-.03.05-1.4-.07-2.81-.16-4.21-.24-4.27-.24-8.86-.27-13.1.29-1.01.13-2.01.32-3.01.48-.69.11-1.38.21-2.06.33-1.08.2,1.06-.11-.27.04-2.22.25-4.31.66-6.53.4-2.34-.27-4.21-.44-6.53-.17s-4.33.21-6.78-.06-4.56.36-6.99.92c-.47.11-1.84.15-.41.16-.37,0-.74,0-1.11,0-1.39,0-2.8.06-4.2,0-2.14-.11-4.49-1-6.61-.6-1,.19-2.02.68-2.99,1.01-.65.22-1.45.37-2.05.69-.76.41.75.24-.12,0-2.01-.55-4.55-.41-6.65-.39-2.37.02-4.71,0-7.08-.09-2.54-.11-4.36.29-6.82,1-.32.09-1.59.23-1.82.52.06-.07,1.98.43.76-.09-1.34-.57-3.1-.79-4.53-1.09-2.26-.47-4.88.33-7.14.72-.68.12-1.36.25-2.04.38l-2.37.46c-.45.09-2.49.3-.78.29s.04-.14-.37-.22l-2.37-.46c-1.01-.2-2.05-.47-3.08-.49-2.04-.03-4.07.49-6.12.38-2.37-.13-4.5-.42-6.85-.11s-4.23.41-6.53.28c-4.57-.26-9.14.68-13.66,1.39-.81.13-.77-.07-.11,0-.48-.06-.98-.06-1.46-.09-1.3-.08-2.62-.23-3.93-.23-.94,0-1.9.12-2.83.18-.66.04-1.35.03-2,.13-1.38.21.2.17-.32.11-2.3-.3-4.59-.91-6.92-.88s-4.73.2-7.07.59c-1.3.22-2.6.44-3.91.67.86-.15.64-.08-.04,0-.91.1-1.82.21-2.73.31-.5.06-1.12.02-1.59.18-.92.32.86.29-.12.07-1.43-.31-2.9-.55-4.34-.81-2.21-.39-4.57-.46-6.81-.39s-4.46,1.05-6.62,1.59c1.32-.33.19-.07-.34-.07-.74,0-1.48.03-2.22.04-.67.01-1.35.02-2.02.04-.31,0-.59-.08.5.1-.24-.04-.49-.1-.73-.16-2.39-.6-4.72-1.27-7.19-1.05-2.31.2-4.23.32-6.51.04-.98-.12-2.05-.4-3.03-.37-1.36.05-2.8.81-4.05,1.25-.53.18-1.37.31-1.83.64-.81.57,1.57.4.68.07-1.32-.49-2.95-.59-4.34-.84-2.28-.42-4.39.25-6.68.35-2,.09-4-.57-6-.67s-4.07.1-6.05.26c-1.32.11-2.63.26-3.94.4-.35.03-1.98.09-.42.21-.51-.04-1.03-.2-1.54-.29-1.3-.25-2.61-.6-3.92-.75-1.38-.16-2.39.2-3.7.58-1.15.33-2.29.72-3.45.99,1.34-.32.15-.12-.42-.16l-2.35-.13c-2.29-.13-4.64-.22-6.93-.05-1.17.09.12.11-.11.07-.62-.12-1.23-.29-1.84-.43-1.15-.27-2.34-.66-3.51-.83s-2.44.13-3.65.32l-2.35.37c-.54.09-1.68.22-.42.08-2.08.23-4.2.62-6.29.56s-4.36-.27-6.55-.3c-1.25-.02-2.49-.05-3.74-.06,1.47.01,0-.04-.42-.13l-2.58-.53c-1.16-.24-2.28-.57-3.47-.35-1.32.24-2.65.81-3.93,1.2-.49.15-.97.3-1.46.44.68-.2.66,0-.12-.17-1.41-.29-2.9-.37-4.32-.55-1.09-.14.95.28-.12-.05-.59-.18-1.23-.27-1.83-.41-1.26-.28-2.75-.84-4.06-.83-1.1,0-2.3.5-3.34.77-.69.18-1.38.35-2.06.54-.25.07-.5.15-.76.2-.63.13,1-.01.37-.07-2.14-.19-4.28-.39-6.43-.48-2.42-.11-4.84-.22-7.26-.33-.7-.03-1.39-.09-2.09-.09-1.14,0,.03.06-.11.04-1.4-.2-2.79-.49-4.18-.73-2.58-.45-4.9.26-7.37,1.13-1.81.64.18-.23.57.27-.14-.18-1.36-.26-1.53-.3-1.29-.25-2.6-.6-3.91-.75-1.15-.14-2.12.08-3.25.29-.81.15-3.37.17-3.93.75,1.06-1.1,2.04.38,1.08-.13-.18-.1-.52-.16-.7-.21l-2.34-.71c-1.29-.39-2.33-.8-3.69-.6-1.16.17-2.33.53-3.47.79-.51.12-1.42.15-1.85.42.04-.02,2.11.31.61-.14-2.24-.67-4.6-1.27-6.94-1.22-4.56.11-8.99-.58-13.55-.63-4.15-.05-8.3.12-12.45.24l2.59,4.51c.73-1.13,1.57-2.24,2.22-3.42.8-1.45-.12.18-.41.21.57-.06,1.56-1.09,2.05-1.44,1.13-.79,2.56-1.56,3.35-2.71s1.53-2.79,2.08-4.13c.62-1.51-.37.13-.49.17.72-.25,1.48-.96,2.13-1.37,1.05-.68,2.17-1.29,3.09-2.13,1.93-1.75,3.64-3.73,5.25-5.76,1.72-2.18,3.49-4.44,4.69-6.97.41-.87-.63.38.15-.16.58-.41,1.08-1.01,1.6-1.5.86-.81,1.72-1.59,2.52-2.46.96-1.05,1.92-2.12,2.86-3.2.45-.52-.8.6-.26.16.21-.17.46-.32.68-.47.87-.59,1.73-1.19,2.59-1.78,2.3-1.58,3.39-3.92,4.5-6.47.18-.41.37-.27-.27.27.3-.26.62-.5.93-.75l2.26-1.81c.9-.72,1.76-1.47,2.63-2.22,2.2-1.91,3.99-3.95,5.88-6.18,2.49-2.92-1.73-7.19-4.24-4.24-1.59,1.87-3.09,3.74-4.94,5.36-2.05,1.78-4.29,3.39-6.29,5.21-.81.74-1.22,1.47-1.72,2.45l-1.18,2.32c-.13.26-.34.54-.42.82-.3,1.1,1.06-.57.67-.53-1.01.09-2.75,1.87-3.62,2.49-1.09.77-1.87,1.58-2.76,2.58-1.8,2.02-3.79,3.76-5.67,5.7-.71.73-1.19,1.55-1.72,2.43-.49.82-1.03,1.63-1.48,2.47-.68,1.27.31-.22-.28.51-1.7,2.13-3.35,4.15-5.25,6.09-.45.46-.9.93-1.36,1.39-.49.49.83-.57.25-.18-.23.16-.47.31-.7.45-1.24.77-2.6,1.51-3.75,2.42-1.4,1.11-1.99,2.9-2.78,4.47-.17.33-.47.75-.56,1.11-.3,1.15.92-.51.65-.48-.58.07-1.58,1.11-2.05,1.44-1.25.88-2.51,1.64-3.45,2.85s-1.72,2.65-2.56,3.95c-1.23,1.9.38,4.58,2.59,4.51,4.32-.12,8.63-.28,12.95-.23,4.58.05,9.05,1.02,13.64.61.75-.07.84.08.12-.09.48.11.97.23,1.45.35,1.28.31,2.59.75,3.9.94s2.44-.17,3.71-.46l1.93-.44c.36-.08.79-.13,1.14-.26,1.06-.41-.59.91-1.08-.09.22.45,2.92.88,3.44,1.04,1.3.39,2.32.77,3.69.61,1.24-.15,2.48-.47,3.7-.71.38-.07,1.29-.06,1.61-.31-.3.22-2.21-.26-.41.15,2.44.55,4.9,1.25,7.34.55,1.25-.36,2.8-.55,3.96-1.14s-1.93-.41-.68-.05c.74.21,1.56.27,2.32.4,4.7.82,9.43.8,14.19,1.07,2,.11,4.08.56,6.08.48,1.12-.05,2.26-.49,3.34-.77.68-.18,1.39-.32,2.06-.54,1.75-.55-.22-.03-.41-.21.64.57,2.9.64,3.76.83,1,.22,1.98.41,3,.54,2.37.31,4.59.87,6.9.17,1.19-.36,2.9-.56,3.95-1.2.87-.53-1.59-.41-.68-.05.63.25,1.41.29,2.08.42,2.62.53,4.95.74,7.63.79,2.19.03,4.36.25,6.55.3,2.06.05,4.16-.3,6.21-.55,1-.12,1.99-.29,2.99-.44l2.14-.33c.3-.05.62-.07.92-.14,1.07-.28-.59.68-1.08-.06.31.46,2.95.69,3.46.81,1.02.24,2.04.54,3.09.59,2.3.1,4.61-.12,6.92.01,2.52.14,4.41.22,6.83-.47l2.35-.68c.56-.16,1.82-.23.36-.32-1.69-.11,0,.14.36.21l2.58.49c2.46.47,4.52.27,7.02.01,2.16-.22,4.41-.41,6.57-.33,1.93.07,3.85.73,5.78.72,1.13,0,2.33-.28,3.45-.41.61-.07,1.23-.12,1.84-.22.26-.04.77-.03-.53-.12.24.02.49.09.73.14,2.51.52,5.07,1.39,7.55.53,1.25-.44,2.78-.73,3.93-1.37.8-.45-.53-.21,0-.01.63.23,1.53.18,2.2.27,2.41.29,4.35.25,6.77.04.54-.05,1.07-.08,1.61-.14-.06,0-.98-.25.2.05,1.43.37,2.89.69,4.34.98,2.13.42,4.6.3,6.76.11,1.08-.1,2.1-.45,3.15-.73l2.1-.57c.27-.07.55-.14.82-.22.81-.26-.85-.01-.25.02,1.25.07,2.51.07,3.76.1.51.01,1.02.03,1.54.04-1.22-.01-.17,0,.42.11,2.41.45,4.6,1,7.04.72s4.71-.57,7.06-.97c.68-.12,1.37-.23,2.05-.35s1.26-.09.23-.06c1.4-.05,2.81-.13,4.21-.19.32-.01,2.17-.06.55-.16.51.03,1.04.16,1.54.24,1.31.2,2.62.45,3.93.61,2.13.27,4.27-.24,6.41-.25s4.34.48,6.51.2c1.28-.16,2.55-.4,3.83-.59.48-.08.97-.15,1.45-.23-1.26.2-.05.01.49-.06,2.31-.28,4.38-.54,6.69-.41s4.39.04,6.78-.26c2.22-.28,4.22-.09,6.46.08,2.11.17,4.42.01,6.51-.35.46-.08-1.06-.26-.12-.04.69.16,1.4.27,2.09.4,1.22.24,2.59.7,3.85.7,2.12,0,4.38-.83,6.46-1.2,1.27-.23,2.55-.42,3.82-.63.39-.06,1.13-.02,1.45-.24-.63.43-2.14-.19-.29.26,2.47.6,4.69,1.46,7.19.74,1.34-.38,2.71-.71,4.03-1.16.71-.24-.93-.16,0,.03.8.16,1.76.07,2.58.11,2.28.1,4.54.09,6.82.07s4.36.39,6.54.4,4.42-1.35,6.57-1.92c-1.16.31-.42.1.23.21s1.38.17,2.07.26c.92.12,1.84.28,2.77.32,2.27.11,4.7.2,6.93-.27,1.32-.28,2.66-.57,3.97-.92,1.17-.31.23-.04.19-.05.61.09,1.24.13,1.85.2,2.45.27,4.34.29,6.79,0s4.35-.03,6.72.25c4.23.49,8.78-1.02,12.98-1.51-1.14.13-.29.07.34.05.74-.02,1.48-.06,2.22-.09.91-.04,1.81-.09,2.72-.1,2.24-.03,4.48-.04,6.71.08,2.5.14,4.41.22,6.82-.46.57-.16,3.13-.48,3.41-.97-.49.89-2.18-.3-1.08.08.21.07.5.1.71.14l2.62.53c1.17.23,2.31.58,3.5.35,1.29-.24,2.6-.81,3.86-1.2.48-.15.95-.31,1.43-.44-.71.2-.65.02.12.11,1.43.17,2.91.18,4.35.26,1.99.11,4.07.39,6.05.28,2.12-.12,4.28-.85,6.36-1.25,1.21-.23,2.44-.43,3.65-.64.52-.09,1.06-.24,1.59-.28-.58.05-.58.02.39.18,2.21.35,4.46.51,6.7.53,2.46.03,4.44-.09,6.82-.69.74-.18,1.49-.34,2.22-.56.18-.05.37-.1.56-.14.64-.15-1.02-.01-.37.07,1.39.18,2.82.18,4.22.27,2.25.15,4.55-.6,6.68-1.26,1.13-.35.27-.07.18-.08.54.05,1.08.09,1.62.13,1.23.1,2.51.31,3.75.31,2.01,0,4.02-.49,6.03-.57,2.31-.1,4.59.05,6.87-.39,1.35-.26,2.75-.47,4.09-.83.95-.26-.67.05-.11,0,.84-.09,1.69-.16,2.53-.25,2.26-.22,4.48-.32,6.75-.39s4.4-.45,6.61-.62c1.97-.15,3.97,0,5.94.02,2.99.04,4.07-4.11,1.51-5.59-.92-.53-1.83-1.06-2.75-1.59-.56-.32-1.14-.63-1.69-.98-.33-.21-.05-.16.37.31-.17-.19-.37-.4-.52-.61-1.33-1.84-2.98-3.5-4.6-5.09-3.33-3.28-6.84-5.9-10.96-8.1-.23-.12-.55-.37-.8-.43-.94-.23,1.11-.82.71.85.04-.18-.49-.78-.61-.96-.76-1.19-1.45-2.5-2.3-3.62-1.43-1.88-3.71-2.97-5.48-4.51,1.11.97.03-.08-.2-.31-.51-.52-1.04-1.01-1.56-1.52-.78-.76-1.51-1.51-2.39-2.15-1.69-1.22-3.45-2.42-5.26-3.47-1.26-.73-2.58-1.4-3.8-2.19,1.16.75,0-.13-.33-.48l-1.87-1.95c-1.63-1.69-3.05-3.55-4.53-5.37-2.44-2.99-6.66,1.27-4.24,4.24h0Z"/>
    <path d="m105.59,265.65c1.82.21,3.75.66,5.58.65,1.93,0,3.97-.61,5.88-.92,1.65-.26,3.3-.48,4.95-.71.35-.05.7-.11,1.05-.15.16-.02-1.1-.05-.18.11,1.15.2,2.41.13,3.58.19,3.4.18,6.82-.07,10.15-.77,1.01-.21,2.07-.37,3.07-.65.71-.19-.64-.16-.21.06.38.19,1.32.11,1.73.14,1.62.13,3.25.26,4.87.43s3.34.51,5,.42,3.45-.33,5.17-.47c3.68-.29,7.33-.3,11.01-.45s7.42-.61,11.13-1.13c.77-.11.51.05-.07.01.38.02.81-.07,1.18-.1,1.18-.1,2.36-.23,3.55-.29,1.77-.08,3.56.26,5.33.41s3.55-.16,5.31-.32,3.42.02,5.12.09,3.4.22,5.09.36c1.85.15,3.38-.16,5.2-.54.88-.18,1.79-.46,2.68-.55-1.45.15-.38.12.03.18.65.1,1.31.14,1.96.21,2,.22,3.49.2,5.46-.21,1-.21,2.11-.31,3.08-.64,1.1-.38-1.14-.12-.99-.07.42.14.95.14,1.39.2,1.79.26,3.57.57,5.37.73,1.9.18,3.93.55,5.82.26,1.07-.16,2.13-.35,3.2-.53.53-.09,1.06-.17,1.59-.26,1.08-.19-.63-.13-.04.03,1.53.42,3.77.06,5.37,0,2.02-.07,4.08-.15,6.09-.41,1.65-.21,3.86-.13,5.41-.73-1.18.46-2.1-.16-.84.12.53.12,1.08.19,1.62.29,1,.18,2,.38,3.01.53,3.76.6,8.02-.43,11.73-1.05,2.3-.38-1.86-.42.05-.04,1.19.23,2.4.37,3.59.56,1.8.28,3.54.31,5.36.33,3.45.04,6.86.2,10.3-.17s7.07-.05,10.53-.75c1.11-.22,2.25-.38,3.34-.67s.01.46-.99-.11c.29.16.82.13,1.15.18,1.86.29,3.73.67,5.6.8s4.07.49,5.88.06c.88-.21,1.76-.59,2.62-.88.62-.21,1.25-.4,1.87-.63.85-.31.91.03.09-.18.83.21,1.85.15,2.7.22l1.8.15c.39.03,1.72.2.18-.02,1.89.27,3.77.61,5.65.88,2.05.3,4.23-.63,6.2-1.15.3-.08.91-.13,1.17-.31.5-.34-2.13-.27-1.12,0,1.08.29,2.31.31,3.42.46,1.97.27,3.61.3,5.57-.06,1.07-.19,2.17-.32,3.22-.58,1.45-.36-.31.48-.87-.12.14.15.92.17,1.12.21,1.97.37,4.31,1.17,6.32.87,1.74-.26,4.05-.64,5.65-1.35-.5.22-.96.01-.15.1.44.05.9.03,1.34.04,1.16.04,2.33.08,3.49.11,1.76.06,3.51.12,5.27.17,3.45.1,6.82.14,10.25.45s7.03-1.17,10.44-1.64l1.57-.22c.38-.05,1.77-.15.13-.12-1.5.02-.38.05.06.16.62.15,1.26.25,1.88.37,1.8.36,3.37.66,5.21.56s3.63-.14,5.42-.5c1.14-.23,2.27-.47,3.4-.71.36-.07.72-.14,1.08-.23-.93.22-.66.06.08.16,1.89.27,3.95.57,5.85.28,1.07-.17,2.13-.35,3.19-.52.5-.08,1.01-.16,1.51-.25.85-.15-.92-.15-.07.07.98.26,2.2.16,3.21.24.5.04,1.01.1,1.52.11.93.02-.95-.28-.1-.01,1.75.55,4.09,1.11,5.94,1.14s3.66-.37,5.41-.59c.8-.1,1.56-.27,2.35-.44,1.01-.21,2.69-.24,3.57-.76.65-.39-1.07.01-1.11-.04.11.16,1.05.18,1.21.21,1.18.21,2.36.43,3.54.62,1.84.31,3.67.13,5.53.08s3.44-.47,5.2-.88c.58-.13,1.17-.25,1.74-.41.41-.12,1.11-.1-.19-.03,1.04-.06,2.07-.13,3.1-.2,3.45-.22,6.82.37,10.26.08s6.7-.64,10.05-.54c3.59.11,7.44.92,10.97.37l3.39-.53c.35-.06.71-.11,1.06-.17-1.08.16-.45.07.18.02,1.71-.16,3.42-.39,5.13-.4,1.18,0,2.36.03,3.54.04.35,0,.78.09,1.12.01.06-.01-1.08-.18-.06-.02,1.89.28,3.9.8,5.81.82,1.78.02,3.56-.57,5.33-.56,1.62.01,3.31.4,4.92.59l-3-3c.07,2.12-.17,4.53.59,6.53.29.77.66,1.51.99,2.26.25.56.79,2.74,1.33,3.02-1.47-.76-.17-2.03-.42-1.13-.04.16-.02.38-.05.54-.1.63-.11,1.3-.17,1.94-.08.92-.27,1.89-.24,2.82.05,2.01.68,4.14,1.03,6.12.62,3.57,1.09,7.23,1.88,10.77.2.9-.09-1.04-.01-.13.04.54.12,1.07.18,1.6.11.92-.03,2.57.39,3.42.08.16.19-1.12.06-.18-.07.51-.14,1.02-.22,1.53-.17,1.17-.34,2.34-.5,3.51-.29,2.1.61,4.62,1.26,6.61.21.64.19.57.05-.14.07.36.1.73.14,1.09.17,1.29.37,2.57.51,3.86.2,1.8.22,3.61.35,5.42.15,1.98.8,3.88,1.29,5.79.08.32.15.65.25.97-.34-1.09-.08-.55-.16.12-.15,1.27-.18,2.58-.26,3.86-.13,1.95.57,3.88,1.02,5.76.09.37.12.85.28,1.2-.09-.19.04-1.01-.11-.06-.19,1.24-.16,2.56-.24,3.81-.13,1.97.42,3.81.84,5.74.1.45.15.96.3,1.4.23.66.18-.78-.05-.13-.36,1.01-.13,2.6-.18,3.68-.09,1.79-.11,3.59-.14,5.38s.15,3.54.33,5.34c.21,2.09.66,3.67,1.43,5.63.21.55.4,1.12.65,1.65.3.64.18,1.21.22.08-.04,1.05,0,2.11-.01,3.16,0,1.79-.06,3.57-.12,5.37-.14,3.74.75,7.31,1.33,11,.17,1.07.33,2.14.51,3.21.01.06-.08-1.12-.05-.07.02.59.07,1.19.11,1.78.05.84-.14,2.31.19,3.08-.1-.24.17-1.02.02-.12-.11.67-.22,1.34-.33,2.02-.37,2.26-.73,3.96.06,6.15.37,1.03.61,2.56,1.23,3.45s-.03-.84.14-.99c-.23.21-.23,1.56-.26,1.82-.3,2.05-.79,4.04-.34,6.08l.78,3.61c.07.32.12.66.21.98-.41-1.35-.05-.14-.01.44.13,1.73.42,3.49.22,5.21-.21,1.83-.65,3.74-.43,5.57.21,1.73.62,3.5.56,5.23-.07,1.85-.44,3.71-.32,5.56s.49,3.53.47,5.29c-.02,1.85-.44,3.71-.36,5.56s.51,3.56.6,5.35-.01,3.7.03,5.54c.05,2.04,0,4.17.31,6.18.14.93.35,1.85.53,2.77l.3,1.57c.05.29.1.58.16.86.14.59-.25.03-.05-.42-.34.74-.23,2.03-.33,2.84l-.33,2.88,3-3c-1.83.18-3.71.52-5.55.55-1.72.03-3.51-.27-5.22-.44s-3.29-.41-4.94-.62c-1.75-.23-3.46.27-5.19.58-.52.09-1.05.18-1.57.28-.77.15-.35-.06.18,0-1.09-.11-2.26.05-3.36.07-.49,0-.99-.01-1.48.03-.74.07-.58-.13.07.1-.97-.34-2.07-.47-3.07-.69-1.97-.44-3.49-.61-5.49-.23-1.08.21-2.16.39-3.24.63-.54.12-1.18,0,.04.03-.42,0-.84.02-1.26.04-1.72.05-3.44.17-5.15.07-1.9-.11-3.81-.37-5.7-.11-1.08.15-2.15.29-3.23.44-.45.06-.91.12-1.36.18-1.11.15.22.05.05-.03-.73-.36-2.42-.05-3.23-.07-.71-.02-1.44-.07-2.15-.04-1.83.06-3.65.43-5.48.45s-3.65-.23-5.46-.31-3.62-.15-5.42-.13c-.6,0-1.2.05-1.8.08-.87.04-2.88-.26-3.64.18-.3.17,1.05.26.29.04-.46-.13-.95-.2-1.41-.31-1.14-.25-2.28-.52-3.43-.74-1.86-.36-3.82.02-5.69.16-3.41.25-6.85.16-10.26.35-1.67.09-3.19-.06-4.86-.24-1.82-.19-3.27-.12-5.08.17-1.05.17-2.2.23-3.23.51s1.7.26,1.11.03c-.46-.18-1.11-.17-1.59-.25-1.92-.3-3.88-.8-5.81-.51-1.04.16-2.08.32-3.11.48-.49.08-1.01.11-1.48.23-1.1.28,1.26.28.9,0-.63-.47-2.16-.54-2.92-.74-.98-.25-2.12-.7-3.14-.7-.79,0-1.6.35-2.35.57-1.17.35-2.51.58-3.62,1.08-.69.31.57.09.31-.02-.33-.14-.87-.1-1.22-.13-1.19-.13-2.37-.3-3.56-.39-3.34-.25-6.92.32-10.29.4s-6.8-.12-10.21,0c-1.7.06-3.38.08-5.08.08-.63,0-1.28-.04-1.91,0-.39.02-1.27-.11.13.1-.98-.14-1.95-.38-2.92-.56-3.38-.65-6.9-1.18-10.35-.96-1.78.11-3.53.27-5.31.22-1.87-.06-3.73-.24-5.58.09-1.07.19-2.13.4-3.19.6-.46.09-.95.14-1.41.27-.8.22.98.1.09-.05-1.69-.28-3.59-.08-5.31-.12s-3.6-.24-5.38-.14c-1.64.09-3.88.18-5.43.72.53-.19,1.03.15.04.01-.54-.08-1.08-.15-1.62-.23-1-.14-2.01-.29-3.01-.43-1.91-.26-4.05-.28-5.96-.12-.96.08.24.1.14.08-.33-.09-.69-.13-1.03-.19-1.2-.22-2.4-.46-3.6-.67-1.94-.34-3.75.11-5.68.43-.52.09-1.05.17-1.57.26-.73.13-.41,0,.18,0-1.12.02-2.24.13-3.36.2-1.69.1-3.17,0-4.86-.17-3.34-.36-6.61.09-9.95-.08s-6.85-.37-10.27-.17-6.71.03-10.24-.29c-3.78-.35-7.46-.63-11.24-.13-1.78.24-4.01.5-5.67,1.17-.81.33,2.02.41,1.02-.05-.37-.17-.82-.24-1.22-.35-1.2-.35-2.4-.76-3.62-1.05-3.24-.79-7.31.09-10.6.49-1.69.21-3.25.09-4.95-.02-1.83-.11-3.43.06-5.25.34-1,.15-2.01.37-3.01.46-.36.04,1.05.1.27-.11-.53-.14-1.19-.09-1.74-.13-1.07-.08-2.16-.24-3.23-.24-.48,0,1.07.27.29.03-.51-.16-1.08-.21-1.6-.32-1.75-.35-3.51-.85-5.31-.77s-3.57.24-5.35.19c-3.56-.1-7.6-.81-11.12-.3-1.81.27-3.61.58-5.42.86-1.68.26-3.78.21-5.36.8-.61.23,2.12.31,1.11-.05-.44-.16-.95-.22-1.41-.32-1.14-.26-2.28-.55-3.42-.77-1.78-.35-3.66.07-5.45.25-1.67.17-3.33.21-5.01.28-.38.02-1.07-.08-1.42.06-.57.23.99.17.19.07-1.08-.14-2.15-.3-3.23-.44-1.82-.25-3.43-.34-5.27-.24-.95.05-1.99-.01-2.93.15.82-.15.86.13.18.02s-1.31-.21-1.97-.32c-3.41-.56-6.83-.85-10.29-.43s-6.88.82-10.36.62-6.97-.48-10.51-.51l2.89,2.2-.49-2.6c-.11-.57-.21-1.14-.32-1.71-.13-.65-.03-1.27-.07-.2.07-1.76-.28-3.64-.42-5.4-.29-3.59-1.04-7.3-1.13-10.89-.03-1.06.08-2.13.13-3.19.02-.53.07-1.06.06-1.59-.02-1.05-.32.62,0-.02.45-.91.57-2.16.82-3.14.23-.88.57-1.8.6-2.73s-.12-1.95-.18-2.9c-.04-.62-.04-1.27-.12-1.89-.13-.95-.11-.07-.12,0,.3-2.01.77-4,1.01-6.03.43-3.58.92-7.23,1.18-10.83.08-1.08.07-2.17.1-3.26.02-.49.05-.97.05-1.46-.02-1.27-.18.42-.04-.09.49-1.76.6-3.64,1.04-5.42.48-1.94,1.31-3.88,1.45-5.88.08-1.06.05-2.13.08-3.2.01-.56.09-1.16.04-1.72-.07-.9-.2.99-.04.08.66-3.82.89-7.51,1.14-11.37.23-3.61.52-7.23.83-10.83.09-1.02.21-2.05.31-3.07.05-.49.1-.99.15-1.48.09-.98.31-.69,0-.16.47-.82.58-2.14.83-3.06.28-1.03.63-2.06.74-3.13.18-1.79.3-3.72.26-5.52s-.47-3.63-.48-5.45.49-3.59.52-5.38-.91-4.03-1.55-5.77c-.21-.58-.16-1.33-.17-.1,0-.27-.02-.55-.02-.82,0-1.27-.07-2.54-.11-3.8-.06-1.79-.28-3.57-.46-5.35s-.3-3.45-.44-5.17c-.02-.26.06-.98-.1-1.22-.05-.07-.19,1.15-.04.05.17-1.29.36-2.57.53-3.86.31-2.23-.13-3.78-.79-5.91-.12-.39-1-3.28-.61-1.53-.23-1.01-.28-2.09-.41-3.12-.25-1.9-.56-3.58-1.15-5.4-.27-.83-.42-2.21-.95-2.91-.06-.09.12,1.16-.01.08-.07-.59-.15-1.18-.22-1.77-.22-1.8-.38-3.39-.3-5.19.1-2.31.37-4.1-.75-6.18l-1.72-3.17c-.16-.3-.34-.6-.49-.9.58,1.16.21.21.13-.35-.29-1.95-.38-3.94-1.22-5.73-.49-1.04-1.01-2.07-1.51-3.11-.19-.4-.36-.83-.58-1.2-.26-.43.31,1.1.03-.06-.4-1.71-.99-3.39-1.49-5.08s-.93-3.46-1.52-5.14-1.47-3.33-1.97-5.05-.7-3.68-1.04-5.48c-.72-3.79-6.5-2.18-5.79,1.6.34,1.81.52,3.74,1.04,5.5s1.4,3.37,1.99,5.09c1.17,3.41,1.89,6.98,3.05,10.39.62,1.83,1.61,3.58,2.47,5.31.5,1.01,0,.57.09.11-.05.24.1.58.12.82.11,1.25.33,2.56.56,3.79.36,1.95,1.55,3.64,2.49,5.38.16.29.34.9.61,1.12-.13-.11-.13-2.05-.36-.78s-.12,2.65-.17,3.9c-.16,3.58.63,7.22,1.73,10.6.17.52.32,1.06.51,1.57.26.68.32.73.12-.07.25,1,.28,2.1.41,3.12.25,1.89.56,3.6,1.13,5.42.2.64.42,2.57.93,3-.32-.27.19-2.21-.05-.91-.12.67-.19,1.36-.28,2.04-.28,2-.54,3.78-.37,5.79.28,3.42.76,6.85.86,10.28.06,1.89-.09,3.88.42,5.71.32,1.13.72,2.25,1.08,3.37.14.43.22.99.45,1.39-.05-.08.06-.98-.12-.06-.33,1.71-.54,3.7-.47,5.45s.44,3.62.44,5.44c0,1.08-.1,2.18-.15,3.26-.02.5-.07,1-.07,1.5,0,1.04.3-.75,0,0-.73,1.8-1.28,4.06-1.51,5.99-.44,3.64-.66,7.3-.94,10.95-.14,1.8-.32,3.6-.44,5.4-.05.84-.07,1.68-.11,2.52l-.07,1.64c-.02.37-.17,2.14.04.53-.27,2.03-.78,4.06-.94,6.1-.07.83-.04,1.68-.06,2.51l-.05,2.01c-.02.61-.31,1.39.07.18-1.14,3.61-2.2,7.59-2.52,11.37s-.4,7.21-.8,10.85c-.1.95-.2,1.91-.3,2.86-.06.57-.12,1.14-.18,1.71-.1,1.05-.09.48,0,.14-.5,1.85-.94,4.1-1,6.03-.03.95.12,1.95.18,2.9.04.62.03,1.28.12,1.89.14.93.05.12.11-.02-.69,1.81-1.29,4.08-1.47,6.02-.35,3.76.09,7.15.47,10.88s.39,7.76.99,11.55c.27,1.74.66,3.46.98,5.19.24,1.29,1.65,2.19,2.89,2.2,3.62.04,7.16.4,10.77.54s6.92-.3,10.41-.68c1.75-.19,3.52-.11,5.28-.12.3,0,.6.02.9,0-1.06.1-.69-.1-.04,0,1.2.21,2.4.39,3.6.59,1.84.3,3.52.22,5.39.12.46-.02,3.08-.17,1.41-.21,1.01.02,2.07.28,3.06.42,3.42.47,6.76.38,10.2.04,1.11-.11,2.29-.13,3.39-.34.69-.13.46-.05-.18-.16.38.06.77.17,1.15.26,1.94.44,4.07,1.24,6.06.95,3.57-.51,7.18-1.32,10.77-1.66-1.59.15.88.17,1.41.19,1.1.05,2.19.11,3.29.15,1.81.07,3.63.19,5.44.18,1.67,0,3.68.12,5.31-.24.79-.17-.62-.17-.27-.09.4.09.81.16,1.21.24,1.19.23,2.37.48,3.56.7,3.68.68,7.18.59,10.84.03.54-.08,1.08-.17,1.63-.25.85-.13.62.19-.04,0,.85.25,2.04.12,2.93.18,1.73.1,3.16.08,4.88-.13s3.35-.4,5.07-.46c1.04-.04,2.22.07,3.24-.12.81-.16-.65-.34-.18-.05.39.24,1.07.31,1.5.44,1.94.56,3.78,1.39,5.81,1,1.04-.2,2.08-.44,3.12-.66.49-.1,1-.18,1.49-.32,1.05-.29-.85-.03.03,0,1.77.04,3.54-.32,5.31-.26s3.59.31,5.37.48c7.09.66,14.23.29,21.36.5,1.73.05,3.47-.13,5.19-.22s3.39.21,5.08.39c3.39.37,6.88-.15,10.22-.7.84-.14,2.02-.13,2.81-.47-.04.02-2.23-.26-.87.08.58.14,1.18.22,1.77.33,1.77.33,3.46.7,5.26.69,1.14,0,2.28.03,3.42,0,.33-.01,1.58,0,.03-.1.38.02.77.11,1.15.16,1.76.25,3.68.75,5.45.67s3.47-.6,5.22-.69,3.66.1,5.46.15,3.66.22,5.46.12c1.95-.1,4-.65,5.9-1.06.92-.2-.36-.06-.17.03.24.12.87.03,1.13.03,1.23.04,2.47.1,3.71.11,1.74.01,3.48-.2,5.22-.29s3.58.18,5.35.33c.3.03.6.05.9.08-1.36-.1-.57-.08-.18,0,1.24.27,2.5.48,3.75.72,3.41.66,7,.35,10.47.23s6.76.09,10.15,0,6.8-.67,10.1-.31c1.83.2,3.76.68,5.57.23,1.05-.26,2.08-.62,3.11-.93.48-.14,1.02-.24,1.48-.44,1.19-.51-1.52-.37-.9-.07,1.51.73,3.97,1.22,5.66,1.38.89.08,1.86-.16,2.75-.29,1.09-.17,2.6-.13,3.62-.56.73-.31-1.12-.04-1.11-.03.13.16,1.04.16,1.22.19,1.19.18,2.38.37,3.57.55,1.94.29,3.81-.17,5.73-.48.46-.07.91-.14,1.37-.22,1.04-.17-.05.08-.13.03.55.41,2.4.25,3.07.32,1.69.18,3.18.2,4.88.1,3.39-.19,6.79-.11,10.17-.36,1.08-.08,2.4.02,3.45-.25.77-.2-.52-.19-.27-.1.43.16.95.21,1.4.3,1.82.39,3.67.98,5.54.93,3.52-.09,6.97-.24,10.5-.09,1.79.08,3.61.32,5.41.28s3.58-.4,5.38-.44,3.65.22,5.46.12c1.99-.11,3.99-.57,5.97-.81.8-.1-.64-.15-.29.07.26.17,1.24.07,1.52.09,1.15.07,2.3.16,3.45.2,1.74.06,3.51-.03,5.25-.12s3.6-.55,5.38-.89c.41-.08.91-.11,1.31-.25.86-.32-2.08-.34-1.02.03s2.31.52,3.43.77c3.47.78,7.1.6,10.59-.03,1.06-.19,2.13-.37,3.19-.57s-.04.09-.13.02c.21.17,1.21.16,1.46.19,1.61.21,3.21.44,4.82.59s3.22.43,4.81.41c1.84-.03,3.72-.37,5.55-.55s2.8-1.24,3-3c.22-1.88.68-3.87.66-5.76-.02-1.98-.65-4.33-1.15-6.23.16.6.06.85.07.12,0-.59-.04-1.19-.07-1.78-.04-1.05-.1-2.1-.12-3.14-.04-1.82.08-3.67-.03-5.49s-.56-3.64-.62-5.47.38-3.71.39-5.56-.44-3.57-.5-5.35.37-3.71.36-5.56-.47-3.52-.62-5.28c-.15-1.85.35-3.73.5-5.58.29-3.74-.59-7.58-1.38-11.21-.03-.15-.13-1.07-.25-1.15.29.18-.22,2.44.1.83.24-1.26.37-2.56.56-3.83.35-2.38-.31-3.93-1.1-6.16-.18-.49-.31-1.12-.56-1.58-.54-.96-.33,1.86-.08,1.02.36-1.19.42-2.56.62-3.79.31-1.93.29-3.6.16-5.56-.23-3.7-.9-7.34-1.55-10.98-.18-1.03-.45-2.07-.56-3.11.08.81.07.77.13.03.06-.68.05-1.38.08-2.06.07-1.79.11-3.57.12-5.37,0-2.17-.05-3.67-.84-5.68-.32-.82-.65-2.64-1.28-3.25-.42-.41.03,1.02-.02.22-.04-.67-.13-1.34-.2-2.01-.35-3.58-.31-7.12-.13-10.71.1-1.95.23-3.69-.18-5.6-.27-1.24-.5-2.48-.81-3.71-.19-.78.08-.32-.01.19.09-.49.07-1.04.1-1.54.13-2.01.38-3.87-.09-5.84-.28-1.19-.55-2.39-.85-3.58-.07-.3-.11-1.23-.14-.45-.03.89.12-.6.13-.81.14-1.99.46-3.95,0-5.9-.28-1.19-.62-2.37-.93-3.55-.1-.38-.18-.76-.3-1.13.28.89.08.63.05-.11-.18-3.75-.4-7.62-1.19-11.3-.26-1.2-.63-2.38-.94-3.57-.1-.38-.14-.84-.32-1.2-.44-.92-.3,2.25,0,.68.36-1.89.84-4.09.81-6.03-.06-3.85-1.01-7.87-1.67-11.65-.32-1.82-.64-3.63-.96-5.45-.15-.84-.29-1.69-.44-2.53l-.3-1.76c-.07-.38-.03-1.48-.15-.78-.13.81.09-.25.12-.48.08-.64.11-1.29.17-1.94.08-.92.28-1.9.24-2.82-.05-1.07-.72-2.22-1.15-3.2-.49-1.11-.88-2.46-1.53-3.48-.21-.33.24,2.18.33.86.03-.52-.04-1.07-.06-1.59l-.1-2.93c-.06-1.77-1.34-2.8-3-3s-3.31-.58-4.94-.59c-.82,0-1.67.17-2.48.26l-1.83.19c-.24.03-1.5.33-.71.16.65-.13-.09-.01-.46-.07-.49-.07-.98-.15-1.47-.22-1.03-.15-2.07-.32-3.11-.46-1.93-.27-3.98-.21-5.93-.17-3.6.07-7.2.69-10.75,1.24-.38.06-.79.17-1.18.18.87-.04.71-.02.07-.15-1.14-.22-2.39-.22-3.55-.33-1.75-.16-3.51-.19-5.26-.24-3.42-.1-6.87.3-10.28.58s-6.68-.32-10.05-.1c-1.8.12-3.5.24-5.26.65-1.11.26-2.23.48-3.33.78-.72.19-.4.03.19.03-.41,0-.83.03-1.24.04-1.17.04-2.37,0-3.54.11-.71.06-.55.05.14.12-.44-.05-.89-.16-1.32-.23-1.88-.33-4.05-1.02-5.95-.67-.96.18-1.92.41-2.88.61-.53.11-1.07.21-1.6.34-1.01.25-.37.08-.08.06-.99.06-1.99.22-2.98.32-.54.06-1.14.06-1.67.18-.85.19-.37.04.02.14-3.63-.93-7.66-1.61-11.42-1.57-1.9.02-3.91.56-5.78.88-1.08.18-.03-.09.07-.02-.2-.13-.94-.09-1.18-.11-1.22-.12-2.45-.3-3.68-.35-1.78-.07-3.63.55-5.37.91-.39.08-.81.14-1.2.25-.41.12,1.12-.04.28-.05-1.26-.02-2.54.14-3.79.22-.35.02-.78-.03-1.12.06-.18.05,1.08.25.18.03-1.15-.28-2.33-.46-3.48-.69-1.99-.4-3.64-.24-5.64.04-1.64.23-3.22.47-4.84.84-1.03.24-2.2.36-3.18.73-.7.27.62.1.3-.05-.4-.18-1.07-.1-1.51-.14-3.46-.31-6.88-.32-10.35-.43-1.73-.05-3.45-.11-5.18-.16-1.89-.06-3.95-.38-5.83-.05-.82.15-1.63.39-2.44.58s-2.43.27-3.16.75c-.06.04,1.82.34,1.12-.03-.39-.2-1.15-.22-1.58-.3-1.13-.21-2.26-.44-3.39-.64-1.92-.34-3.77.19-5.66.53-.52.09-1.07.16-1.59.29-1.36.34.06-.46.87.12-.56-.39-2.22-.3-2.88-.39-1.89-.26-3.63-.63-5.5-.14l-3.3.86c-.38.1-.91.15-1.26.33-.6.3,2.28.28.81-.03-3.61-.75-7.83-1.47-11.52-1.38-1.79.04-4.09,1.04-5.7,1.74-.79.34-.29-.1.13.08-.28-.12-.9-.04-1.19-.05-1.18-.05-2.38-.15-3.56-.14-.73,0-.67-.04.07.07-.36-.05-.73-.11-1.09-.17-1.2-.19-2.39-.38-3.59-.56-1.97-.3-3.7.17-5.64.56-.52.1-1.04.2-1.55.31-.74.17-.38-.03.19,0-1.1-.06-2.23.02-3.33.02-1.71.01-3.33.15-5.04.33-3.36.36-6.71.19-10.08.15-1-.01-2.22-.22-3.21-.04-.47.09,1.1.2.29.05-.53-.1-1.07-.17-1.6-.25-2.02-.31-3.91-.76-5.93-.43-1.13.18-2.26.38-3.38.56-.39.07-.79.12-1.18.2.97-.19.61-.07-.09-.04-1.13.05-2.26.13-3.39.2-.22.01-.97-.06-1.18.07-.3.18,1.04.19.54.09-.23-.05-.47-.08-.71-.13-2.02-.37-4.22-1.02-6.28-.82-.9.09-1.79.24-2.68.36l-1.79.24c-.45.06-1.64.03-.18.02-1.81,0-3.61.26-5.42.31s-3.63-.13-5.43-.02c-1.99.12-4.07.57-6.02.96-.58.12.97.14.16-.09-.39-.11-.91-.07-1.32-.11-1.15-.09-2.37-.31-3.53-.29-.77.02,1.08.18.2.04-.4-.06-.81-.12-1.21-.18-1.2-.18-2.41-.36-3.61-.53-1.96-.28-3.92.37-5.84.77-.4.08-.81.14-1.2.25-.75.22.69.22.2-.07-.77-.46-2.64-.29-3.53-.38-1.87-.2-3.37.11-5.21.49-.89.18-1.78.43-2.68.55.71-.1.82-.04.13-.15-.62-.1-1.27-.1-1.9-.15-1.76-.14-3.51-.26-5.27-.33-3.45-.14-6.89.51-10.32.18-3.64-.36-7.04-.23-10.68.27-1.18.16-2.36.33-3.54.49-.37.05-.75.11-1.12.15.01,0,1.01-.08,0-.04-1.73.07-3.45.26-5.18.32-3.63.12-7.22.16-10.85.45-1.81.14-3.65.48-5.46.49s-3.49-.35-5.2-.53-3.33-.29-5-.43c-1.81-.15-3.45.31-5.21.68-.55.12-1.1.22-1.64.35s-1.19.01.03.05c-.91-.03-1.85.1-2.76.14-1.7.09-3.29.12-4.99.03-3.56-.19-6.86.24-10.39.81-1.07.17-2.15.35-3.22.53-.47.08-.95.15-1.42.23-.73.13.53.05.3-.07-.75-.38-2.27-.27-3.1-.36l-2.41-.28c-1.62-.19-2.98,1.51-3,3-.02,1.78,1.4,2.81,3,3h0Z"/>
    <path d="m129.85,347.07c1.99.37,4.07,1,6.1,1.1,1.81.09,3.71,0,5.52-.12,1.9-.12,3.83-.48,5.73-.37l4,.22c.7.04.85.25-.09-.06.41.14.89.18,1.31.26,2.3.46,4.43.96,6.66,1.7l-1.79-1.38c.45.73.85,1.52,1.36,2.2.41.55-.13-.91-.11-.21.01.43.13.88.2,1.3.22,1.46.29,3.02.77,4.42l1.05,3.06c.15.43.28.87.44,1.29.31.81,0-.1.04-.27-.18.79-.04,1.79-.05,2.6-.02.93-.1,1.88-.06,2.81.07,1.8.8,3.66,1.24,5.39.07.27.09.63.22.88-.13-.26-.08-1.11-.09-.29,0,1.05.03,2.11.04,3.16.04,3.05.02,6.21.62,9.2l.72,3.6c.06.3.08.65.19.94-.39-1.03-.04-.96-.12-.57-.04.21-.03.45-.05.66-.14,1.89-.45,3.8-.26,5.69l1.49-2.59-1.41,1.09,1.51-.41c-2.11-.03-4.31-.27-6.4-.03-2.38.28-4.7.65-7.1.55s-4.9-.25-7.36-.46c-1.16-.1-2.47-.41-3.62-.1-1.36.37-2.7.96-4.03,1.43-.29.1-1.43.31-1.62.58.15-.21,1.23-.11.35-.08-.36.01-.72.04-1.09.07l-4.35.27c-1.62.1-3,1.31-3,3,0,1.55,1.37,3.1,3,3,1.95-.12,3.91-.18,5.86-.36,1.05-.1,2.01-.53,3-.89,1.07-.38,2.41-.64,3.39-1.2.46-.27-.48.16-.6.04.05.05.3.02.36.03.57.09,1.16.1,1.73.15,1.2.11,2.4.23,3.61.32,1.92.14,3.87.24,5.8.26s3.84-.43,5.73-.62,3.85,0,5.75.03c1.36.02,2.22-.49,3.25-1.29s1.74-1.55,1.73-2.92c0-.37-.08-.72-.07-1.09.05-2.08.63-4.24.27-6.3-.21-1.18-.47-2.36-.71-3.54-.1-.51-.19-1.03-.31-1.53-.18-.75.06,1.14.03.14-.05-1.89-.25-3.78-.28-5.67-.03-2.07.21-4.32-.31-6.34l-.96-3.76c-.08-.32-.12-.78-.27-1.07-.03-.05,0,1.04.1.57.04-.19,0-.42.01-.62.04-2.07.42-4.38-.26-6.37-.62-1.81-1.41-3.61-1.7-5.51l-.59-3.84c-.15-1.01-.63-1.76-1.16-2.63-.25-.4-.48-.82-.75-1.21-.61-.9-1.43-1.27-2.41-1.59-.81-.27-1.62-.58-2.45-.77-3.92-.88-8.05-1.63-12.08-1.31-1.99.16-3.97.34-5.96.38l-1.95.04c-.46,0-1.1-.1-1.55.03-.4.12.85.16.58.09-.17-.04-.35-.07-.52-.1l-1.91-.36c-.92-.17-1.84-.35-2.76-.52-1.59-.3-3.24.44-3.69,2.1-.4,1.46.49,3.39,2.1,3.69h0Z"/>
    <path d="m529.77,329.24c-3.64.24-7.32.58-10.97.52-.92-.01-1.84-.1-2.75-.16l-1.8-.1c-.24-.01-1.44-.16-.55,0s-.15-.02-.37-.05l-1.99-.27c-.92-.12-1.83-.25-2.75-.37-1.45-.2-2.61.33-3.97.78-1.02.34-2.04.67-3.07,1.01h1.6c-1.12-.32-2.24-.64-3.36-.96-1.83-.53-3.39-1.21-5.11.16-1.24.99-2.18,1.71-2.72,3.27-.46,1.31-.49,2.24-.34,3.6.14,1.25.26,2.5.41,3.75s.65,2.32,1.06,3.47l.74,2.06c.05.14.08.35.17.46.24.32.02-1.1-.08-.47-.21,1.31-.13,2.72-.19,4.04-.12,2.49.6,4.97,1.06,7.42v-1.6c-.24,1.68-.48,3.35-.73,5.03-.12.84-.18,1.62,0,2.46.21.98.47,1.96.7,2.94l.33,1.36c.05.22.23,1.17.11.31s-.04.01-.03.23l.05,1.6c.05,1.83-.07,3.56.74,5.24s1.65,3.38,2.48,5.08c.44.89,1.61,1.53,2.59,1.49,4.35-.22,8.65-.73,13-.84.5-.01,1.04.02,1.54-.04.58-.07-.71-.13-.54-.1.17.03.35.05.53.08l4.27.63c.93.14,1.78.26,2.72.15l4.2-.5c2.18-.26,4.4-.24,6.59-.34,1.62-.07,3-1.33,3-3,0-1.57-1.37-3.07-3-3-1.98.08-3.99.09-5.97.26-1.26.11-2.52.3-3.77.45-.53.06-1.26.03-1.77.21-.46.16.42.1.58.13-.19-.03-.38-.06-.56-.08-2.25-.33-4.62-.92-6.9-.86-2.11.06-4.23.05-6.33.26-2.53.25-5.04.48-7.59.6l2.59,1.49c-.91-1.86-1.81-3.72-2.72-5.57l.41,1.51c-.06-1.93.05-3.94-.21-5.86s-.88-3.84-1.33-5.74v1.6c.14-.97.28-1.94.42-2.91.16-1.11.49-2.34.49-3.46s-.41-2.38-.61-3.48l-.36-1.89c-.04-.19-.06-.39-.11-.58-.14-.58.05.58.07.53.12-.28.04-.79.05-1.09l.1-2.09c.05-1,.25-2.14-.02-3.12s-.73-2.04-1.09-3.04l-.6-1.67c-.38-1.06-.06.53-.09.12-.12-1.35-.29-2.7-.44-4.05-.03-.28-.04-.58-.09-.85-.15-.81.22.47-.13.42.06,0,.53-1.5.58-1.64l-.77,1.32,1.79-1.45-2.92.77,2.89.83c1.07.31,2.32.87,3.45.87s2.27-.59,3.28-.92,1.97-.65,2.95-.97h-1.6c3.07.42,6.1.84,9.19,1.02,2.75.16,5.49.13,8.24-.01,1.79-.09,3.57-.24,5.35-.36,1.62-.11,3-1.3,3-3,0-1.54-1.37-3.11-3-3h0Z"/>
    <path d="m470.69,416.55c.32,2.74.65,5.49.98,8.23.36,2.97.92,5.83,1.55,8.75l2.1-3.69c-1.54.42-3.08.84-4.62,1.25-.25.07-.63.1-.86.23.12-.07,1.09.02.45-.12-.86-.19-1.83-.17-2.71-.25-2.89-.27-5.66-.18-8.57-.08s-4.21,4.09-1.51,5.59,5.15,2.9,7.69,4.42c.32.19.63.39.96.57.67.37-.09-.03-.22-.22.38.57,1.12,1.07,1.62,1.54,1.21,1.14,2.35,2.54,3.95,3.1s3.37,1.11,5.05,1.66l-1.32-.77c1.77,1.49,3.64,3.61,5.83,4.42,1.3.48,2.62.93,3.93,1.4.25.09.5.18.75.26.62.2-.42-.2-.39-.16.27.42,1.06.76,1.47,1.05,1.13.8,2.69.36,3.64-.47,2.44-2.14,4.41-4.72,6.83-6.86,1.29-1.14,3.18-2.31,3.96-3.9.81-1.67,1.51-3.4,2.25-5.1.83-1.91,1.1-4.13,1.57-6.16s-.9-3.68-2.89-3.8l-7.32-.42,1.51.41-1.72-.76,1.08,1.08-1.89-2.45.3,2.31c.34-2.27.69-4.55,1.02-6.82.18-1.23-.11-2.47-.28-3.7-.21-1.42-.36-2.86-.62-4.27-.17-.92-.59-1.82-.98-2.66-.72-1.56-3.38-2.47-5.12-2.47-1.2,0-2.53.43-3.7.64-1.24.23-2.5.41-3.73.69-.53.12,1.03-.05.56-.08-.21-.01-.43.02-.63.03l-2.34.1-3.81.16c-1.62.07-3,1.33-3,3,0,1.57,1.37,3.07,3,3,2.41-.1,4.89-.03,7.29-.34s4.78-.86,7.16-1.3h-1.6l2.38.62-2.1-2.1c.53,1.32.84,2.33,1.04,3.72l.71,4.88v-1.6c-.29,1.91-.57,3.82-.86,5.73-.18,1.2-.51,2.45.19,3.56.51.82,1.2,1.56,1.79,2.33,1.41,1.83,3.74,2.26,5.93,2.38l5.74.33-2.89-3.8c-.39,1.69-1.1,3.52-1.22,5.24-.05.66.43-.89.17-.32-.19.41-.36.82-.54,1.23l-1.4,3.18c-.08.18-.36.6-.35.8-.01-.27.76-.83.02-.18l-2.48,2.19c-1.14,1-2.14,2-3.16,3.12-1.33,1.46-2.62,2.82-4.1,4.12l3.64-.47c-1.13-.81-2.15-1.36-3.45-1.83s-2.7-.96-4.04-1.44l1.32.77c-.73-.62-1.46-1.23-2.19-1.85-.9-.76-1.89-1.82-2.97-2.31-1.8-.81-3.79-1.28-5.66-1.9l1.32.77-3.26-3.09c-.98-.93-2.02-1.58-3.18-2.28-2.37-1.42-4.77-2.77-7.19-4.12l-1.51,5.59,4.95-.18c1.29-.05,2.58.16,3.86.28,1.5.14,2.83.35,4.3-.05,1.6-.43,3.2-.87,4.79-1.3s2.44-2.11,2.1-3.69c-.32-1.48-.64-2.95-.96-4.43-.04-.19-.05-.43-.13-.6.36.74.13.98.05.32-.11-.9-.22-1.79-.33-2.69-.32-2.66-.63-5.32-.95-7.98-.19-1.61-1.24-3-3-3-1.47,0-3.19,1.38-3,3h0Z"/>
    <path d="m221.3,403.55c.6-1.04,2.9-3.75,2.8-4.87.28,3.17-2.24,1.2-.89,1.06.33-.03,1.12-.68,1.45-.88.95-.58,2.02-1.1,2.9-1.77,1.66-1.27,2.8-3.03,4.28-4.5.75-.75-1.06.48.84-.63,1.09-.63,2.14-1.35,3.23-1.99,1.46-.86,2.97-1.65,4.46-2.46,1.63-.88-.8.19.95-.43,1.23-.43,2.49-.79,3.72-1.25,1.75-.66,3.03-1.59,4.56-2.69.48-.35,2.74-1.53,1.13-1.01,1.28-.41,2.77-.33,4.09-.6,1.83-.38,3.08-.97,4.7-1.93.88-.52,2.04-.96,2.79-1.65-.53.48-2.61.03-1.34.52.59.23,1.61.03,2.24.04,2.15.04,3.64,0,5.68-.74,1.02-.36,2.06-.84,3.04-1.29.25-.12,1.31-.38,1.35-.57.04-.21-2.48-.02-1.14.38s4.62-.16,6.13-.53c.75-.19,1.49-.59,2.21-.88.47-.18,4.12-1.51,2.09-1.08,1.75-.37,3.67-.1,5.44-.33,2.13-.27,4.11-1.11,6.21-1.5-.7.13-.27,0,1.15.01,1.07,0,2.21.04,3.28-.05,1.94-.16,3.85-.66,5.72-1.22,2.15-.64-.12-.16.94-.18,1.16-.02,2.32.13,3.47.14,2.07.03,3.87-.38,5.9-.85.37-.09,1.35-.17,1.61-.37,1.88-1.43-3.77,4.07-1.5-.14.07-.13,2.87.39,3.1.42,2.03.28,3.79.47,5.83.13,1.15-.19,2.29-.43,3.44-.6,1.87-.27-.91-.07.97,0,1.75.06,3.5.06,5.25.09,1.15.02,2.31.1,3.45.08,2.26-.04-.13-.15.96.02,2.1.33,4.13.98,6.25,1.18,1.78.17,3.62.17,5.41.19.78.01,1.57-.01,2.35-.02.7,0,3.32.04,2.69-.07-.83-.15,1.71.69,2.12.83.85.3,1.74.7,2.62.91,1.77.44,3.72.65,5.53.84s3.95.24,5.78-.19c-.22.05,1.29-.06,1.33-.11-2.45,3.26-2.32-1.64-1.54-.3.48.81,2.64,1.69,3.48,2.17,1.78,1.01,3.4,1.43,5.4,1.9.54.13,1.07.25,1.61.38,1.72.4-1.37-.61.28,0,1.2.44,2.36,1.05,3.54,1.56,3.65,1.59,7.65,3.28,11.57,4.12.04,0,1.05.42,1.26.39-1.88.3-1.96-1.9-.84.11.57,1.02,1.61,2.24,2.43,3.08,1.07,1.09,4.15,3.57,5.63,3.61,1.22.03-.51,2.47-.87-1.08.05.47.72,1.07.95,1.47.6,1.04,1.31,2.04,1.96,3.04,1.07,1.65,2.16,3.28,3.24,4.92,3.17,4.82,10.97.31,7.77-4.54-2.04-3.09-3.9-6.62-6.2-9.52-1.36-1.71-3.13-2.56-5.02-3.61-.5-.28-1.1-.52-1.54-.88.2.16,1.12.96.27.02-.9-1-1.61-2.17-2.5-3.18-2.55-2.86-6.99-3.32-10.53-4.6-.98-.35-1.96-.69-2.93-1.06,1.65.63-.72-.32-1.27-.57-1.84-.81-3.59-1.61-5.54-2.12-1.12-.3-2.28-.48-3.4-.8-.83-.23.81.53-.73-.4-1.96-1.18-3.91-2.93-6.28-3.11-.8-.06-1.67.14-2.47.21-.54.05-3.55.36-2.85.35.78,0-1.75-.24-2.22-.31-.95-.14-1.97-.21-2.91-.45-1.81-.46-3.5-1.49-5.33-1.86-2.06-.42-4.3-.1-6.39-.12-1.78-.02-3.58-.04-5.35-.17-1.1-.08,1.27.36-.95-.16-1.29-.31-2.62-.62-3.93-.82-3.6-.56-7.52-.43-11.17-.4-1.71.02-3.3.25-4.99.54-.54.09-4.59.79-2.07.54,2.17-.22-1.25-.3-2.1-.42-2.04-.28-3.78-.49-5.82-.07-1.14.24-2.27.56-3.41.79-.49.1-1.76.13-.07.08-.57.02-1.15-.02-1.72-.07-1.92-.15-3.75-.2-5.63.19-1.12.23-2.28.53-3.38.87-.39.12-.84.25-1.24.32.99-.17.8-.12-.08-.09-1.98.05-3.99-.08-5.94.28-1,.18-2.01.54-2.99.8-.53.14-1.06.3-1.59.42-1.72.41,1.55-.12-.2.07-2,.21-4.16-.01-6.12.46-.75.18-1.49.59-2.21.88-.46.18-4.12,1.54-2.09,1.08-4.31.98-8.3.44-12.29,2.97-1.31.83,1.11-.44,1.41-.34-.52-.18-1.26.01-1.82-.03-1.09-.09-2.38-.14-3.48-.06-2.38.18-4.11,1.36-6.12,2.59-.42.26-.86.59-1.31.77-.82.33,1.26-.41-.06-.11-1.42.32-2.92.28-4.33.63-2.36.59-3.99,2.23-6,3.56-.29.2-1.12.75.28.04-.51.26-1.12.38-1.66.56-1.14.37-2.31.71-3.42,1.15-2.12.84-4.15,2.03-6.13,3.17-1.66.95-3.45,1.91-4.98,3.06-1.85,1.39-3.04,3.38-4.71,4.95,1.29-1.21-1.49.83-2.12,1.22-.97.59-2.17,1.16-2.99,1.97-1.57,1.57-2.51,4.05-3.6,5.95-2.89,5.03,4.88,9.57,7.77,4.54h0Z"/>
    <path d="m389.07,402.68c2.49,1.25,5.03,2.95,7.8,3.36,1.54.23,3.23.21,4.78.26.54.02,2.1.42.31-.04.62.16,1.26.38,1.86.6,2.42.89,4.97,1.62,7.48,2.23.62.15,1.28.31,1.88.51-1.76-.6-.14-.03.27.17,1.39.67,2.77,1.5,4.21,2.06,3.33,1.3,7.56.69,9.74-2.23,2.48-3.33,1.24-5.88.76-9.57-.25-1.93.05,1.56.03-.37,0-.88.05-1.78.09-2.66.04-1.07.1-2.13.17-3.2.19-2.85.22-5.63.18-8.49-.08-5.79-9.08-5.8-9,0,.1,7.3-.75,14.13.73,21.33l.45-3.47-1.39,2.24,3.89-2.23c-.37.03-2.85.05-2.95.27.3-.71,2.92,1.39.75.07-1.3-.79-2.87-1.5-4.29-2.1-2.5-1.05-5.22-1.53-7.81-2.34-3.19-.99-5.79-1.71-9.11-1.89-.62-.03-1.85-.35-2.46-.13-.77.27,2.54,1.41.45-.01-1.28-.87-2.88-1.45-4.27-2.15-5.16-2.6-9.72,5.16-4.54,7.77h0Z"/>
    <path d="m433.22,410.53c-2.27,1.24-5.26,2.28-6.81,4.44-1.27,1.77-3.09,4.88-3.39,7.07-.33,2.43,2.01,6.18,3.34,8.16,1.48,2.2,4.44,3.52,6.76,4.71,2.59,1.33,5.86.4,8.62-.16,3.07-.63,4.35-2.64,6.14-5.03,1.53-2.05,2.75-4.16,3-6.78.27-2.85-2.37-5.88-3.91-8.12s-4.6-3.84-7.17-5.01-5.83-.67-8.72-.62c-5.78.11-5.8,9.11,0,9,1.67-.03,3.44.1,5.1-.1.09-.01,1,.03,1.02-.02-.13.39-2.61-1.24-1.82-.42.6.62,1.94,1.07,2.69,1.49.46.25,1.71,1.28,2.19,1.21-.47.06-1.85-2.44-.66-.35.9,1.58,1.98,3.08,2.97,4.61l-.45-3.47c-.2.69-.44,1.38-.59,2.08-.22,1.03-.29.49.14-.12-.19.27-.38.55-.6.8-1.1,1.23-2.01,2.68-3,4.01l2.69-2.07c-2.07.35-4.15.69-6.22,1.04l3.47.45-2.38-1.36c-.58-.33-3.99-2.61-2.17-.92,1.66,1.54-.29-1.19-.68-1.93l-1.46-2.75v4.54c.32-.61,3.03-5.07,2.8-5.3.45.47-2.9,1.75-.76,1.08.61-.19,1.23-.67,1.78-.97l2.6-1.41c5.09-2.77.55-10.54-4.54-7.77h0Z"/>
    <path d="m422.12,435.31c-.83-2.95-1.58-5.73-2.93-8.48-.45-.92-.99-1.82-1.38-2.77-.56-1.36.38,1.23-.03-.23s-.74-3.03-1.1-4.54c-.56-2.3-3.27-3.86-5.54-3.14-3.51,1.1-8.13,2.19-10.99,4.62-1.76,1.49-2.22,3.88-3.39,5.8-.5.83.81-.95.2-.21-.38.46-.88.85-1.31,1.27l-2.27,2.19h6.36c-1.19-1.43-2.42-2.83-3.56-4.29-1.32-1.68.15.35-.37-.56-.46-.81-.89-1.63-1.33-2.45s-.95-1.61-1.33-2.45c-.41-.9.32,1.4-.09-.65-.36-1.81-.79-3.61-1.18-5.41-1.24-5.66-9.92-3.26-8.68,2.39.85,3.91,1.61,7.14,3.51,10.65s4.19,6.14,6.67,9.12c1.57,1.89,4.74,1.57,6.36,0,2.24-2.17,6.45-5.49,6.71-8.99.11-1.41-.42,1.06-1.14.91.24.05.88-.46,1.11-.54,1.04-.35,2.02-1.02,3.02-1.47.78-.35.18-.07-.26.09.54-.2,1.11-.35,1.66-.52.9-.27,1.79-.56,2.69-.84l-5.54-3.14c.69,2.84,1.31,5.39,2.59,8.01.45.92.98,1.82,1.38,2.77.59,1.36-.42-1.27.07.29s.93,3.3,1.4,4.95c1.57,5.56,10.26,3.2,8.68-2.39h0Z"/>
    <path d="m364.9,413.6c-1.52.74-3.32,1.35-4.71,2.3-1.72,1.18-3,3.53-4.05,5.3-.91,1.54-1.43,3.2-2.02,4.89-.16.46-.3.93-.49,1.37-.29.69.8-1.48.02-.2-.45.74-.86,1.5-1.29,2.25-1.12,1.94-.62,5.14,1.61,6.16,2.4,1.09,4.61,2.25,6.92,3.51,2.7,1.48,5.34,1.5,8.39,1.13,2.61-.32,5.23-2.24,7.28-3.84,2.93-2.29,2.37-5.69,2.18-9.06-.69-11.88-14.23-15.04-23.8-15.77-5.78-.44-5.75,8.56,0,9l3.64.28c.68.05,1.41.04,2.08.16-.88-.16-1.14-.32-.22.13,1.31.64,2.88.91,4.27,1.4,1.01.35-1.35-.77-.08.02.64.4,1.31.75,1.96,1.12.55.31,1.15.78,1.75,1,1.89.68-.68-1.36-.61-.78.12,1.08,1.53,3.12,2.16,3.97,1.35,1.81-1.73-1.19-.17-1.35-.02,0,.06,2.05.06,2.16l.11,3.78,2.23-3.89c-1.31.87-3.37,1.73-4.4,2.91s2.9-.08.62-.19c-.88-.04-2.55-.15-3.4.15-1.2.42,1.57.07,1.63.57-.01-.13-1-.56-1.14-.65-.85-.57-1.81-1.07-2.72-1.55-1.37-.72-2.8-1.32-4.21-1.96l1.61,6.16c.76-1.32,1.54-2.59,2.11-4.01.34-.86.62-1.75.93-2.62.24-.66,1.35-2.67.36-1.09.44-.7.91-1.38,1.37-2.07.26-.4,2.1-3.32.67-1.35-1.09,1.5.58.09,1.52-.37l2.36-1.15c5.2-2.54.65-10.31-4.54-7.77h0Z"/>
    <path d="m340.07,430.56c-1.91-3.74-3.32-8.3-5.99-11.52-.31-.38-2.21-3.09-2.58-3.03-.02,0,.4,2.22.69.97.11-.44-.54-2.07-.65-2.48-.74-2.82-1.69-4.2-3.95-6.04-1.17-.95-2.82-1.78-4.38-1.16-2.66,1.06-4.71,1.96-6.76,3.97-.51.5-3.72,3.34-2.12,2.2-1.27.91-2.7,1.6-4.01,2.45-4.69,3.04-7.76,6.71-10.91,11.24l8.22,1.07c-1.12-2.91-2.25-5.81-3.47-8.68-.35-.83-.75-1.65-1.07-2.5-.46-1.22.41,1.26-.23-.87-.45-1.52-.94-3.03-1.41-4.54-1.72-5.51-10.41-3.16-8.68,2.39.87,2.81,1.71,5.58,2.86,8.28.37.88.75,1.76,1.12,2.63l.52,1.23c-.36-.87-.4-.94-.12-.22.6,1.55,1.19,3.1,1.78,4.65,1.42,3.7,5.92,4.39,8.22,1.07.75-1.08,1.5-2.15,2.24-3.23.33-.49.64-1.04,1.03-1.48-1.29,1.44.29,0,.44-.13,1.11-.87,2.12-1.87,3.24-2.75,1.28-1.01-1.24.81.14-.05.57-.35,1.14-.7,1.71-1.04,2.05-1.25,3.81-2.42,5.52-4.1.71-.69,2.37-1.77,2.76-2.69-1.27,3.02-2.24,0-.26.4.35.07,1.29-.51,1.61-.64l-4.38-1.16c.3.25.74.77,1.1.9,1.64.59.32.64,0-.9.28,1.28.64,2.57,1,3.83.74,2.57,2.15,4.13,3.87,6.15.34.4.8.82,1.08,1.27-.52-.85-.45-.53-.17.2.48,1.22,1.01,2.44,1.56,3.63.82,1.76,1.75,3.48,2.63,5.21,2.64,5.16,10.41.61,7.77-4.54h0Z"/>
    <path d="m274.56,411.14c-5.59,4.3-11.43,8.05-16.8,12.62-1.18,1.01-1.58,2.94-1.16,4.38.93,3.18,1.41,6.25,3.77,8.66,1.19,1.22,2.67,3.02,4.21,3.83,1.97,1.04,4.14.34,6.2-.02.85-.15,1.7-.3,2.55-.44-2.12.35.9-.12,1.24-.16,1.83-.23,3.82-.28,5.5-1.07,3.14-1.48,5.6-3.93,7.78-6.53,1.4-1.67,1.63-3.5.7-5.45-.42-.88-.91-1.75-1.27-2.66-.43-1.08.35,1.02.1.14-.16-.56-.28-1.13-.42-1.69-.52-2.09-.83-3.77-2.39-5.34-3.1-3.09-6.36-4.3-10.45-5.54-5.55-1.69-7.93,7-2.39,8.68.46.14,4.74,1.51,4.76,1.45-.05.13-2.88-1.98-.13.27.14.11,2.17,1.85,2.22,1.81-.23.21-1.36-3.24-.5.23.23.91.39,1.87.68,2.76.51,1.53,1.33,2.99,2.02,4.44l.7-5.45c-.59.7-1.16,1.43-1.77,2.11-.99,1.1.96-.4-.89.82-.61.4-2.49,1.21-2.8,1.86-.37.77,2.92-.21.3-.05-3.56.21-7.16,1.01-10.67,1.62l4.38,1.16-1.79-1.7c-.43-.41-3.47-2.86-1.8-1.32,1.03.95.38.99.27.09-.08-.65-.39-1.34-.58-1.98l-.85-2.91-1.16,4.38c1.36-1.15,2.7-2.32,4.07-3.46,1.62-1.35-.4.21.49-.38s1.8-1.15,2.7-1.73c2.7-1.73,5.19-3.68,7.73-5.64,4.52-3.48.05-11.31-4.54-7.77h0Z"/>
    <path d="m247.75,432.51c-.03-5.35-.68-10.33-3.5-15.04-1.29-2.15.53-.43-.08.64.24-.43-.06-1.84-.07-2.28-.05-1.38.08-2.95-.47-4.23-1.33-3.1-4.63-4.31-7.71-3.87s-4.87.86-6.66,3.69c-.82,1.3-1.5,2.7-2.37,3.97,1.06-1.54-1.93,2.1-2.33,2.55-3.28,3.68-6.27,7.25-9.06,11.32l8.22,1.07c-1.17-3.15-2.16-6.08-4.03-8.87-.55-.82-1.15-1.62-1.66-2.47-.65-1.09.32,1.32-.16-.43s-.85-3.37-1.28-5.06c-1.42-5.61-10.1-3.23-8.68,2.39.78,3.07,1.29,5.91,2.98,8.59.56.88,1.14,1.79,1.77,2.63,1.03,1.39.41.37.48.51.8,1.59,1.28,3.44,1.91,5.11,1.38,3.71,5.95,4.38,8.22,1.07l1.92-2.79c.56-.81,1.71-2.3.93-1.38,1.25-1.48,2.62-2.88,3.91-4.33,3.02-3.37,5.36-6.6,7.68-10.48l-2.69,2.07,4.1-.61-4.38-1.16,1.59,1.38-1.32-3.18c.05,1.63-.08,3.38.16,4.99.34,2.23,1.58,4,2.45,6.05.35.73.33.68-.06-.17l.38,1.28c.25,1.01.69,1.98.88,3-.37-1.97-.09,1.1-.09,1.52l.02,2.51c.04,5.79,9.04,5.8,9,0h0Z"/>
  </g>
</svg>