<?xml version="1.0" encoding="UTF-8"?>
<svg id="Camada_1" data-name="Camada 1" xmlns="http://www.w3.org/2000/svg" viewBox="0 0 601 571">
  <defs>
    <style>
      .cls-1 {
        fill: #fff;
      }

      .cls-2 {
        fill: #8fc197;
      }

      .cls-3 {
        fill: #cecece;
      }
    </style>
  </defs>
  <polygon class="cls-1" points="116.63 262.47 521.67 251.48 539 465 580 512 279.93 523.94 79.41 528.76 131.77 462.35 116.63 262.47"/>
  <g>
    <path d="m105.59,265.65c1.82.21,3.75.66,5.58.65,1.93,0,3.97-.61,5.88-.92,1.65-.26,3.3-.48,4.95-.71.35-.05.7-.11,1.05-.15.16-.02-1.1-.05-.18.11,1.15.2,2.41.13,3.58.19,3.4.18,6.82-.07,10.15-.77,1.01-.21,2.07-.37,3.07-.65.71-.19-.64-.16-.21.06.38.19,1.32.11,1.73.14,1.62.13,3.25.26,4.87.43s3.34.51,5,.42,3.45-.33,5.17-.47c3.68-.29,7.33-.3,11.01-.45s7.42-.61,11.13-1.13c.77-.11.51.05-.07.01.38.02.81-.07,1.18-.1,1.18-.1,2.36-.23,3.55-.29,1.77-.08,3.56.26,5.33.41s3.55-.16,5.31-.32,3.42.02,5.12.09,3.4.22,5.09.36c1.85.15,3.38-.16,5.2-.54.88-.18,1.79-.46,2.68-.55-1.45.15-.38.12.03.18.65.1,1.31.14,1.96.21,2,.22,3.49.2,5.46-.21,1-.21,2.11-.31,3.08-.64,1.1-.38-1.14-.12-.99-.07.42.14.95.14,1.39.2,1.79.26,3.57.57,5.37.73,1.9.18,3.93.55,5.82.26,1.07-.16,2.13-.35,3.2-.53.53-.09,1.06-.17,1.59-.26,1.08-.19-.63-.13-.04.03,1.53.42,3.77.06,5.37,0,2.02-.07,4.08-.15,6.09-.41,1.65-.21,3.86-.13,5.41-.73-1.18.46-2.1-.16-.84.12.53.12,1.08.19,1.62.29,1,.18,2,.38,3.01.53,3.76.6,8.02-.43,11.73-1.05,2.3-.38-1.86-.42.05-.04,1.19.23,2.4.37,3.59.56,1.8.28,3.54.31,5.36.33,3.45.04,6.86.2,10.3-.17s7.07-.05,10.53-.75c1.11-.22,2.25-.38,3.34-.67s.01.46-.99-.11c.29.16.82.13,1.15.18,1.86.29,3.73.67,5.6.8s4.07.49,5.88.06c.88-.21,1.76-.59,2.62-.88.62-.21,1.25-.4,1.87-.63.85-.31.91.03.09-.18.83.21,1.85.15,2.7.22l1.8.15c.39.03,1.72.2.18-.02,1.89.27,3.77.61,5.65.88,2.05.3,4.23-.63,6.2-1.15.3-.08.91-.13,1.17-.31.5-.34-2.13-.27-1.12,0,1.08.29,2.31.31,3.42.46,1.97.27,3.61.3,5.57-.06,1.07-.19,2.17-.32,3.22-.58,1.45-.36-.31.48-.87-.12.14.15.92.17,1.12.21,1.97.37,4.31,1.17,6.32.87,1.74-.26,4.05-.64,5.65-1.35-.5.22-.96.01-.15.1.44.05.9.03,1.34.04,1.16.04,2.33.08,3.49.11,1.76.06,3.51.12,5.27.17,3.45.1,6.82.14,10.25.45s7.03-1.17,10.44-1.64l1.57-.22c.38-.05,1.77-.15.13-.12-1.5.02-.38.05.06.16.62.15,1.26.25,1.88.37,1.8.36,3.37.66,5.21.56s3.63-.14,5.42-.5c1.14-.23,2.27-.47,3.4-.71.36-.07.72-.14,1.08-.23-.93.22-.66.06.08.16,1.89.27,3.95.57,5.85.28,1.07-.17,2.13-.35,3.19-.52.5-.08,1.01-.16,1.51-.25.85-.15-.92-.15-.07.07.98.26,2.2.16,3.21.24.5.04,1.01.1,1.52.11.93.02-.95-.28-.1-.01,1.75.55,4.09,1.11,5.94,1.14s3.66-.37,5.41-.59c.8-.1,1.56-.27,2.35-.44,1.01-.21,2.69-.24,3.57-.76.65-.39-1.07.01-1.11-.04.11.16,1.05.18,1.21.21,1.18.21,2.36.43,3.54.62,1.84.31,3.67.13,5.53.08s3.44-.47,5.2-.88c.58-.13,1.17-.25,1.74-.41.41-.12,1.11-.1-.19-.03,1.04-.06,2.07-.13,3.1-.2,3.45-.22,6.82.37,10.26.08s6.7-.64,10.05-.54c3.59.11,7.44.92,10.97.37l3.39-.53c.35-.06.71-.11,1.06-.17-1.08.16-.45.07.18.02,1.71-.16,3.42-.39,5.13-.4,1.18,0,2.36.03,3.54.04.35,0,.78.09,1.12.01.06-.01-1.08-.18-.06-.02,1.89.28,3.9.8,5.81.82,1.78.02,3.56-.57,5.33-.56,1.62.01,3.31.4,4.92.59l-3-3c.07,2.12-.17,4.53.59,6.53.29.77.66,1.51.99,2.26.25.56.79,2.74,1.33,3.02-1.47-.76-.17-2.03-.42-1.13-.04.16-.02.38-.05.54-.1.63-.11,1.3-.17,1.94-.08.92-.27,1.89-.24,2.82.05,2.01.68,4.14,1.03,6.12.62,3.57,1.09,7.23,1.88,10.77.2.9-.09-1.04-.01-.13.04.54.12,1.07.18,1.6.11.92-.03,2.57.39,3.42.08.16.19-1.12.06-.18-.07.51-.14,1.02-.22,1.53-.17,1.17-.34,2.34-.5,3.51-.29,2.1.61,4.62,1.26,6.61.21.64.19.57.05-.14.07.36.1.73.14,1.09.17,1.29.37,2.57.51,3.86.2,1.8.22,3.61.35,5.42.15,1.98.8,3.88,1.29,5.79.08.32.15.65.25.97-.34-1.09-.08-.55-.16.12-.15,1.27-.18,2.58-.26,3.86-.13,1.95.57,3.88,1.02,5.76.09.37.12.85.28,1.2-.09-.19.04-1.01-.11-.06-.19,1.24-.16,2.56-.24,3.81-.13,1.97.42,3.81.84,5.74.1.45.15.96.3,1.4.23.66.18-.78-.05-.13-.36,1.01-.13,2.6-.18,3.68-.09,1.79-.11,3.59-.14,5.38s.15,3.54.33,5.34c.21,2.09.66,3.67,1.43,5.63.21.55.4,1.12.65,1.65.3.64.18,1.21.22.08-.04,1.05,0,2.11-.01,3.16,0,1.79-.06,3.57-.12,5.37-.14,3.74.75,7.31,1.33,11,.17,1.07.33,2.14.51,3.21.01.06-.08-1.12-.05-.07.02.59.07,1.19.11,1.78.05.84-.14,2.31.19,3.08-.1-.24.17-1.02.02-.12-.11.67-.22,1.34-.33,2.02-.37,2.26-.73,3.96.06,6.15.37,1.03.61,2.56,1.23,3.45s-.03-.84.14-.99c-.23.21-.23,1.56-.26,1.82-.3,2.05-.79,4.04-.34,6.08l.78,3.61c.07.32.12.66.21.98-.41-1.35-.05-.14-.01.44.13,1.73.42,3.49.22,5.21-.21,1.83-.65,3.74-.43,5.57.21,1.73.62,3.5.56,5.23-.07,1.85-.44,3.71-.32,5.56s.49,3.53.47,5.29c-.02,1.85-.44,3.71-.36,5.56s.51,3.56.6,5.35-.01,3.7.03,5.54c.05,2.04,0,4.17.31,6.18.14.93.35,1.85.53,2.77l.3,1.57c.05.29.1.58.16.86.14.59-.25.03-.05-.42-.34.74-.23,2.03-.33,2.84l-.33,2.88,3-3c-1.83.18-3.71.52-5.55.55-1.72.03-3.51-.27-5.22-.44s-3.29-.41-4.94-.62c-1.75-.23-3.46.27-5.19.58-.52.09-1.05.18-1.57.28-.77.15-.35-.06.18,0-1.09-.11-2.26.05-3.36.07-.49,0-.99-.01-1.48.03-.74.07-.58-.13.07.1-.97-.34-2.07-.47-3.07-.69-1.97-.44-3.49-.61-5.49-.23-1.08.21-2.16.39-3.24.63-.54.12-1.18,0,.04.03-.42,0-.84.02-1.26.04-1.72.05-3.44.17-5.15.07-1.9-.11-3.81-.37-5.7-.11-1.08.15-2.15.29-3.23.44-.45.06-.91.12-1.36.18-1.11.15.22.05.05-.03-.73-.36-2.42-.05-3.23-.07-.71-.02-1.44-.07-2.15-.04-1.83.06-3.65.43-5.48.45s-3.65-.23-5.46-.31-3.62-.15-5.42-.13c-.6,0-1.2.05-1.8.08-.87.04-2.88-.26-3.64.18-.3.17,1.05.26.29.04-.46-.13-.95-.2-1.41-.31-1.14-.25-2.28-.52-3.43-.74-1.86-.36-3.82.02-5.69.16-3.41.25-6.85.16-10.26.35-1.67.09-3.19-.06-4.86-.24-1.82-.19-3.27-.12-5.08.17-1.05.17-2.2.23-3.23.51s1.7.26,1.11.03c-.46-.18-1.11-.17-1.59-.25-1.92-.3-3.88-.8-5.81-.51-1.04.16-2.08.32-3.11.48-.49.08-1.01.11-1.48.23-1.1.28,1.26.28.9,0-.63-.47-2.16-.54-2.92-.74-.98-.25-2.12-.7-3.14-.7-.79,0-1.6.35-2.35.57-1.17.35-2.51.58-3.62,1.08-.69.31.57.09.31-.02-.33-.14-.87-.1-1.22-.13-1.19-.13-2.37-.3-3.56-.39-3.34-.25-6.92.32-10.29.4s-6.8-.12-10.21,0c-1.7.06-3.38.08-5.08.08-.63,0-1.28-.04-1.91,0-.39.02-1.27-.11.13.1-.98-.14-1.95-.38-2.92-.56-3.38-.65-6.9-1.18-10.35-.96-1.78.11-3.53.27-5.31.22-1.87-.06-3.73-.24-5.58.09-1.07.19-2.13.4-3.19.6-.46.09-.95.14-1.41.27-.8.22.98.1.09-.05-1.69-.28-3.59-.08-5.31-.12s-3.6-.24-5.38-.14c-1.64.09-3.88.18-5.43.72.53-.19,1.03.15.04.01-.54-.08-1.08-.15-1.62-.23-1-.14-2.01-.29-3.01-.43-1.91-.26-4.05-.28-5.96-.12-.96.08.24.1.14.08-.33-.09-.69-.13-1.03-.19-1.2-.22-2.4-.46-3.6-.67-1.94-.34-3.75.11-5.68.43-.52.09-1.05.17-1.57.26-.73.13-.41,0,.18,0-1.12.02-2.24.13-3.36.2-1.69.1-3.17,0-4.86-.17-3.34-.36-6.61.09-9.95-.08s-6.85-.37-10.27-.17-6.71.03-10.24-.29c-3.78-.35-7.46-.63-11.24-.13-1.78.24-4.01.5-5.67,1.17-.81.33,2.02.41,1.02-.05-.37-.17-.82-.24-1.22-.35-1.2-.35-2.4-.76-3.62-1.05-3.24-.79-7.31.09-10.6.49-1.69.21-3.25.09-4.95-.02-1.83-.11-3.43.06-5.25.34-1,.15-2.01.37-3.01.46-.36.04,1.05.1.27-.11-.53-.14-1.19-.09-1.74-.13-1.07-.08-2.16-.24-3.23-.24-.48,0,1.07.27.29.03-.51-.16-1.08-.21-1.6-.32-1.75-.35-3.51-.85-5.31-.77s-3.57.24-5.35.19c-3.56-.1-7.6-.81-11.12-.3-1.81.27-3.61.58-5.42.86-1.68.26-3.78.21-5.36.8-.61.23,2.12.31,1.11-.05-.44-.16-.95-.22-1.41-.32-1.14-.26-2.28-.55-3.42-.77-1.78-.35-3.66.07-5.45.25-1.67.17-3.33.21-5.01.28-.38.02-1.07-.08-1.42.06-.57.23.99.17.19.07-1.08-.14-2.15-.3-3.23-.44-1.82-.25-3.43-.34-5.27-.24-.95.05-1.99-.01-2.93.15.82-.15.86.13.18.02s-1.31-.21-1.97-.32c-3.41-.56-6.83-.85-10.29-.43s-6.88.82-10.36.62-6.97-.48-10.51-.51l2.89,2.2-.49-2.6c-.11-.57-.21-1.14-.32-1.71-.13-.65-.03-1.27-.07-.2.07-1.76-.28-3.64-.42-5.4-.29-3.59-1.04-7.3-1.13-10.89-.03-1.06.08-2.13.13-3.19.02-.53.07-1.06.06-1.59-.02-1.05-.32.62,0-.02.45-.91.57-2.16.82-3.14.23-.88.57-1.8.6-2.73s-.12-1.95-.18-2.9c-.04-.62-.04-1.27-.12-1.89-.13-.95-.11-.07-.12,0,.3-2.01.77-4,1.01-6.03.43-3.58.92-7.23,1.18-10.83.08-1.08.07-2.17.1-3.26.02-.49.05-.97.05-1.46-.02-1.27-.18.42-.04-.09.49-1.76.6-3.64,1.04-5.42.48-1.94,1.31-3.88,1.45-5.88.08-1.06.05-2.13.08-3.2.01-.56.09-1.16.04-1.72-.07-.9-.2.99-.04.08.66-3.82.89-7.51,1.14-11.37.23-3.61.52-7.23.83-10.83.09-1.02.21-2.05.31-3.07.05-.49.1-.99.15-1.48.09-.98.31-.69,0-.16.47-.82.58-2.14.83-3.06.28-1.03.63-2.06.74-3.13.18-1.79.3-3.72.26-5.52s-.47-3.63-.48-5.45.49-3.59.52-5.38-.91-4.03-1.55-5.77c-.21-.58-.16-1.33-.17-.1,0-.27-.02-.55-.02-.82,0-1.27-.07-2.54-.11-3.8-.06-1.79-.28-3.57-.46-5.35s-.3-3.45-.44-5.17c-.02-.26.06-.98-.1-1.22-.05-.07-.19,1.15-.04.05.17-1.29.36-2.57.53-3.86.31-2.23-.13-3.78-.79-5.91-.12-.39-1-3.28-.61-1.53-.23-1.01-.28-2.09-.41-3.12-.25-1.9-.56-3.58-1.15-5.4-.27-.83-.42-2.21-.95-2.91-.06-.09.12,1.16-.01.08-.07-.59-.15-1.18-.22-1.77-.22-1.8-.38-3.39-.3-5.19.1-2.31.37-4.1-.75-6.18l-1.72-3.17c-.16-.3-.34-.6-.49-.9.58,1.16.21.21.13-.35-.29-1.95-.38-3.94-1.22-5.73-.49-1.04-1.01-2.07-1.51-3.11-.19-.4-.36-.83-.58-1.2-.26-.43.31,1.1.03-.06-.4-1.71-.99-3.39-1.49-5.08s-.93-3.46-1.52-5.14-1.47-3.33-1.97-5.05-.7-3.68-1.04-5.48c-.72-3.79-6.5-2.18-5.79,1.6.34,1.81.52,3.74,1.04,5.5s1.4,3.37,1.99,5.09c1.17,3.41,1.89,6.98,3.05,10.39.62,1.83,1.61,3.58,2.47,5.31.5,1.01,0,.57.09.11-.05.24.1.58.12.82.11,1.25.33,2.56.56,3.79.36,1.95,1.55,3.64,2.49,5.38.16.29.34.9.61,1.12-.13-.11-.13-2.05-.36-.78s-.12,2.65-.17,3.9c-.16,3.58.63,7.22,1.73,10.6.17.52.32,1.06.51,1.57.26.68.32.73.12-.07.25,1,.28,2.1.41,3.12.25,1.89.56,3.6,1.13,5.42.2.64.42,2.57.93,3-.32-.27.19-2.21-.05-.91-.12.67-.19,1.36-.28,2.04-.28,2-.54,3.78-.37,5.79.28,3.42.76,6.85.86,10.28.06,1.89-.09,3.88.42,5.71.32,1.13.72,2.25,1.08,3.37.14.43.22.99.45,1.39-.05-.08.06-.98-.12-.06-.33,1.71-.54,3.7-.47,5.45s.44,3.62.44,5.44c0,1.08-.1,2.18-.15,3.26-.02.5-.07,1-.07,1.5,0,1.04.3-.75,0,0-.73,1.8-1.28,4.06-1.51,5.99-.44,3.64-.66,7.3-.94,10.95-.14,1.8-.32,3.6-.44,5.4-.05.84-.07,1.68-.11,2.52l-.07,1.64c-.02.37-.17,2.14.04.53-.27,2.03-.78,4.06-.94,6.1-.07.83-.04,1.68-.06,2.51l-.05,2.01c-.02.61-.31,1.39.07.18-1.14,3.61-2.2,7.59-2.52,11.37s-.4,7.21-.8,10.85c-.1.95-.2,1.91-.3,2.86-.06.57-.12,1.14-.18,1.71-.1,1.05-.09.48,0,.14-.5,1.85-.94,4.1-1,6.03-.03.95.12,1.95.18,2.9.04.62.03,1.28.12,1.89.14.93.05.12.11-.02-.69,1.81-1.29,4.08-1.47,6.02-.35,3.76.09,7.15.47,10.88s.39,7.76.99,11.55c.27,1.74.66,3.46.98,5.19.24,1.29,1.65,2.19,2.89,2.2,3.62.04,7.16.4,10.77.54s6.92-.3,10.41-.68c1.75-.19,3.52-.11,5.28-.12.3,0,.6.02.9,0-1.06.1-.69-.1-.04,0,1.2.21,2.4.39,3.6.59,1.84.3,3.52.22,5.39.12.46-.02,3.08-.17,1.41-.21,1.01.02,2.07.28,3.06.42,3.42.47,6.76.38,10.2.04,1.11-.11,2.29-.13,3.39-.34.69-.13.46-.05-.18-.16.38.06.77.17,1.15.26,1.94.44,4.07,1.24,6.06.95,3.57-.51,7.18-1.32,10.77-1.66-1.59.15.88.17,1.41.19,1.1.05,2.19.11,3.29.15,1.81.07,3.63.19,5.44.18,1.67,0,3.68.12,5.31-.24.79-.17-.62-.17-.27-.09.4.09.81.16,1.21.24,1.19.23,2.37.48,3.56.7,3.68.68,7.18.59,10.84.03.54-.08,1.08-.17,1.63-.25.85-.13.62.19-.04,0,.85.25,2.04.12,2.93.18,1.73.1,3.16.08,4.88-.13s3.35-.4,5.07-.46c1.04-.04,2.22.07,3.24-.12.81-.16-.65-.34-.18-.05.39.24,1.07.31,1.5.44,1.94.56,3.78,1.39,5.81,1,1.04-.2,2.08-.44,3.12-.66.49-.1,1-.18,1.49-.32,1.05-.29-.85-.03.03,0,1.77.04,3.54-.32,5.31-.26s3.59.31,5.37.48c7.09.66,14.23.29,21.36.5,1.73.05,3.47-.13,5.19-.22s3.39.21,5.08.39c3.39.37,6.88-.15,10.22-.7.84-.14,2.02-.13,2.81-.47-.04.02-2.23-.26-.87.08.58.14,1.18.22,1.77.33,1.77.33,3.46.7,5.26.69,1.14,0,2.28.03,3.42,0,.33-.01,1.58,0,.03-.1.38.02.77.11,1.15.16,1.76.25,3.68.75,5.45.67s3.47-.6,5.22-.69,3.66.1,5.46.15,3.66.22,5.46.12c1.95-.1,4-.65,5.9-1.06.92-.2-.36-.06-.17.03.24.12.87.03,1.13.03,1.23.04,2.47.1,3.71.11,1.74.01,3.48-.2,5.22-.29s3.58.18,5.35.33c.3.03.6.05.9.08-1.36-.1-.57-.08-.18,0,1.24.27,2.5.48,3.75.72,3.41.66,7,.35,10.47.23s6.76.09,10.15,0,6.8-.67,10.1-.31c1.83.2,3.76.68,5.57.23,1.05-.26,2.08-.62,3.11-.93.48-.14,1.02-.24,1.48-.44,1.19-.51-1.52-.37-.9-.07,1.51.73,3.97,1.22,5.66,1.38.89.08,1.86-.16,2.75-.29,1.09-.17,2.6-.13,3.62-.56.73-.31-1.12-.04-1.11-.03.13.16,1.04.16,1.22.19,1.19.18,2.38.37,3.57.55,1.94.29,3.81-.17,5.73-.48.46-.07.91-.14,1.37-.22,1.04-.17-.05.08-.13.03.55.41,2.4.25,3.07.32,1.69.18,3.18.2,4.88.1,3.39-.19,6.79-.11,10.17-.36,1.08-.08,2.4.02,3.45-.25.77-.2-.52-.19-.27-.1.43.16.95.21,1.4.3,1.82.39,3.67.98,5.54.93,3.52-.09,6.97-.24,10.5-.09,1.79.08,3.61.32,5.41.28s3.58-.4,5.38-.44,3.65.22,5.46.12c1.99-.11,3.99-.57,5.97-.81.8-.1-.64-.15-.29.07.26.17,1.24.07,1.52.09,1.15.07,2.3.16,3.45.2,1.74.06,3.51-.03,5.25-.12s3.6-.55,5.38-.89c.41-.08.91-.11,1.31-.25.86-.32-2.08-.34-1.02.03s2.31.52,3.43.77c3.47.78,7.1.6,10.59-.03,1.06-.19,2.13-.37,3.19-.57s-.04.09-.13.02c.21.17,1.21.16,1.46.19,1.61.21,3.21.44,4.82.59s3.22.43,4.81.41c1.84-.03,3.72-.37,5.55-.55s2.8-1.24,3-3c.22-1.88.68-3.87.66-5.76-.02-1.98-.65-4.33-1.15-6.23.16.6.06.85.07.12,0-.59-.04-1.19-.07-1.78-.04-1.05-.1-2.1-.12-3.14-.04-1.82.08-3.67-.03-5.49s-.56-3.64-.62-5.47.38-3.71.39-5.56-.44-3.57-.5-5.35.37-3.71.36-5.56-.47-3.52-.62-5.28c-.15-1.85.35-3.73.5-5.58.29-3.74-.59-7.58-1.38-11.21-.03-.15-.13-1.07-.25-1.15.29.18-.22,2.44.1.83.24-1.26.37-2.56.56-3.83.35-2.38-.31-3.93-1.1-6.16-.18-.49-.31-1.12-.56-1.58-.54-.96-.33,1.86-.08,1.02.36-1.19.42-2.56.62-3.79.31-1.93.29-3.6.16-5.56-.23-3.7-.9-7.34-1.55-10.98-.18-1.03-.45-2.07-.56-3.11.08.81.07.77.13.03.06-.68.05-1.38.08-2.06.07-1.79.11-3.57.12-5.37,0-2.17-.05-3.67-.84-5.68-.32-.82-.65-2.64-1.28-3.25-.42-.41.03,1.02-.02.22-.04-.67-.13-1.34-.2-2.01-.35-3.58-.31-7.12-.13-10.71.1-1.95.23-3.69-.18-5.6-.27-1.24-.5-2.48-.81-3.71-.19-.78.08-.32-.01.19.09-.49.07-1.04.1-1.54.13-2.01.38-3.87-.09-5.84-.28-1.19-.55-2.39-.85-3.58-.07-.3-.11-1.23-.14-.45-.03.89.12-.6.13-.81.14-1.99.46-3.95,0-5.9-.28-1.19-.62-2.37-.93-3.55-.1-.38-.18-.76-.3-1.13.28.89.08.63.05-.11-.18-3.75-.4-7.62-1.19-11.3-.26-1.2-.63-2.38-.94-3.57-.1-.38-.14-.84-.32-1.2-.44-.92-.3,2.25,0,.68.36-1.89.84-4.09.81-6.03-.06-3.85-1.01-7.87-1.67-11.65-.32-1.82-.64-3.63-.96-5.45-.15-.84-.29-1.69-.44-2.53l-.3-1.76c-.07-.38-.03-1.48-.15-.78-.13.81.09-.25.12-.48.08-.64.11-1.29.17-1.94.08-.92.28-1.9.24-2.82-.05-1.07-.72-2.22-1.15-3.2-.49-1.11-.88-2.46-1.53-3.48-.21-.33.24,2.18.33.86.03-.52-.04-1.07-.06-1.59l-.1-2.93c-.06-1.77-1.34-2.8-3-3s-3.31-.58-4.94-.59c-.82,0-1.67.17-2.48.26l-1.83.19c-.24.03-1.5.33-.71.16.65-.13-.09-.01-.46-.07-.49-.07-.98-.15-1.47-.22-1.03-.15-2.07-.32-3.11-.46-1.93-.27-3.98-.21-5.93-.17-3.6.07-7.2.69-10.75,1.24-.38.06-.79.17-1.18.18.87-.04.71-.02.07-.15-1.14-.22-2.39-.22-3.55-.33-1.75-.16-3.51-.19-5.26-.24-3.42-.1-6.87.3-10.28.58s-6.68-.32-10.05-.1c-1.8.12-3.5.24-5.26.65-1.11.26-2.23.48-3.33.78-.72.19-.4.03.19.03-.41,0-.83.03-1.24.04-1.17.04-2.37,0-3.54.11-.71.06-.55.05.14.12-.44-.05-.89-.16-1.32-.23-1.88-.33-4.05-1.02-5.95-.67-.96.18-1.92.41-2.88.61-.53.11-1.07.21-1.6.34-1.01.25-.37.08-.08.06-.99.06-1.99.22-2.98.32-.54.06-1.14.06-1.67.18-.85.19-.37.04.02.14-3.63-.93-7.66-1.61-11.42-1.57-1.9.02-3.91.56-5.78.88-1.08.18-.03-.09.07-.02-.2-.13-.94-.09-1.18-.11-1.22-.12-2.45-.3-3.68-.35-1.78-.07-3.63.55-5.37.91-.39.08-.81.14-1.2.25-.41.12,1.12-.04.28-.05-1.26-.02-2.54.14-3.79.22-.35.02-.78-.03-1.12.06-.18.05,1.08.25.18.03-1.15-.28-2.33-.46-3.48-.69-1.99-.4-3.64-.24-5.64.04-1.64.23-3.22.47-4.84.84-1.03.24-2.2.36-3.18.73-.7.27.62.1.3-.05-.4-.18-1.07-.1-1.51-.14-3.46-.31-6.88-.32-10.35-.43-1.73-.05-3.45-.11-5.18-.16-1.89-.06-3.95-.38-5.83-.05-.82.15-1.63.39-2.44.58s-2.43.27-3.16.75c-.06.04,1.82.34,1.12-.03-.39-.2-1.15-.22-1.58-.3-1.13-.21-2.26-.44-3.39-.64-1.92-.34-3.77.19-5.66.53-.52.09-1.07.16-1.59.29-1.36.34.06-.46.87.12-.56-.39-2.22-.3-2.88-.39-1.89-.26-3.63-.63-5.5-.14l-3.3.86c-.38.1-.91.15-1.26.33-.6.3,2.28.28.81-.03-3.61-.75-7.83-1.47-11.52-1.38-1.79.04-4.09,1.04-5.7,1.74-.79.34-.29-.1.13.08-.28-.12-.9-.04-1.19-.05-1.18-.05-2.38-.15-3.56-.14-.73,0-.67-.04.07.07-.36-.05-.73-.11-1.09-.17-1.2-.19-2.39-.38-3.59-.56-1.97-.3-3.7.17-5.64.56-.52.1-1.04.2-1.55.31-.74.17-.38-.03.19,0-1.1-.06-2.23.02-3.33.02-1.71.01-3.33.15-5.04.33-3.36.36-6.71.19-10.08.15-1-.01-2.22-.22-3.21-.04-.47.09,1.1.2.29.05-.53-.1-1.07-.17-1.6-.25-2.02-.31-3.91-.76-5.93-.43-1.13.18-2.26.38-3.38.56-.39.07-.79.12-1.18.2.97-.19.61-.07-.09-.04-1.13.05-2.26.13-3.39.2-.22.01-.97-.06-1.18.07-.3.18,1.04.19.54.09-.23-.05-.47-.08-.71-.13-2.02-.37-4.22-1.02-6.28-.82-.9.09-1.79.24-2.68.36l-1.79.24c-.45.06-1.64.03-.18.02-1.81,0-3.61.26-5.42.31s-3.63-.13-5.43-.02c-1.99.12-4.07.57-6.02.96-.58.12.97.14.16-.09-.39-.11-.91-.07-1.32-.11-1.15-.09-2.37-.31-3.53-.29-.77.02,1.08.18.2.04-.4-.06-.81-.12-1.21-.18-1.2-.18-2.41-.36-3.61-.53-1.96-.28-3.92.37-5.84.77-.4.08-.81.14-1.2.25-.75.22.69.22.2-.07-.77-.46-2.64-.29-3.53-.38-1.87-.2-3.37.11-5.21.49-.89.18-1.78.43-2.68.55.71-.1.82-.04.13-.15-.62-.1-1.27-.1-1.9-.15-1.76-.14-3.51-.26-5.27-.33-3.45-.14-6.89.51-10.32.18-3.64-.36-7.04-.23-10.68.27-1.18.16-2.36.33-3.54.49-.37.05-.75.11-1.12.15.01,0,1.01-.08,0-.04-1.73.07-3.45.26-5.18.32-3.63.12-7.22.16-10.85.45-1.81.14-3.65.48-5.46.49s-3.49-.35-5.2-.53-3.33-.29-5-.43c-1.81-.15-3.45.31-5.21.68-.55.12-1.1.22-1.64.35s-1.19.01.03.05c-.91-.03-1.85.1-2.76.14-1.7.09-3.29.12-4.99.03-3.56-.19-6.86.24-10.39.81-1.07.17-2.15.35-3.22.53-.47.08-.95.15-1.42.23-.73.13.53.05.3-.07-.75-.38-2.27-.27-3.1-.36l-2.41-.28c-1.62-.19-2.98,1.51-3,3-.02,1.78,1.4,2.81,3,3h0Z"/>
    <path d="m129.85,347.07c1.99.37,4.07,1,6.1,1.1,1.81.09,3.71,0,5.52-.12,1.9-.12,3.83-.48,5.73-.37l4,.22c.7.04.85.25-.09-.06.41.14.89.18,1.31.26,2.3.46,4.43.96,6.66,1.7l-1.79-1.38c.45.73.85,1.52,1.36,2.2.41.55-.13-.91-.11-.21.01.43.13.88.2,1.3.22,1.46.29,3.02.77,4.42l1.05,3.06c.15.43.28.87.44,1.29.31.81,0-.1.04-.27-.18.79-.04,1.79-.05,2.6-.02.93-.1,1.88-.06,2.81.07,1.8.8,3.66,1.24,5.39.07.27.09.63.22.88-.13-.26-.08-1.11-.09-.29,0,1.05.03,2.11.04,3.16.04,3.05.02,6.21.62,9.2l.72,3.6c.06.3.08.65.19.94-.39-1.03-.04-.96-.12-.57-.04.21-.03.45-.05.66-.14,1.89-.45,3.8-.26,5.69l1.49-2.59-1.41,1.09,1.51-.41c-2.11-.03-4.31-.27-6.4-.03-2.38.28-4.7.65-7.1.55s-4.9-.25-7.36-.46c-1.16-.1-2.47-.41-3.62-.1-1.36.37-2.7.96-4.03,1.43-.29.1-1.43.31-1.62.58.15-.21,1.23-.11.35-.08-.36.01-.72.04-1.09.07l-4.35.27c-1.62.1-3,1.31-3,3,0,1.55,1.37,3.1,3,3,1.95-.12,3.91-.18,5.86-.36,1.05-.1,2.01-.53,3-.89,1.07-.38,2.41-.64,3.39-1.2.46-.27-.48.16-.6.04.05.05.3.02.36.03.57.09,1.16.1,1.73.15,1.2.11,2.4.23,3.61.32,1.92.14,3.87.24,5.8.26s3.84-.43,5.73-.62,3.85,0,5.75.03c1.36.02,2.22-.49,3.25-1.29s1.74-1.55,1.73-2.92c0-.37-.08-.72-.07-1.09.05-2.08.63-4.24.27-6.3-.21-1.18-.47-2.36-.71-3.54-.1-.51-.19-1.03-.31-1.53-.18-.75.06,1.14.03.14-.05-1.89-.25-3.78-.28-5.67-.03-2.07.21-4.32-.31-6.34l-.96-3.76c-.08-.32-.12-.78-.27-1.07-.03-.05,0,1.04.1.57.04-.19,0-.42.01-.62.04-2.07.42-4.38-.26-6.37-.62-1.81-1.41-3.61-1.7-5.51l-.59-3.84c-.15-1.01-.63-1.76-1.16-2.63-.25-.4-.48-.82-.75-1.21-.61-.9-1.43-1.27-2.41-1.59-.81-.27-1.62-.58-2.45-.77-3.92-.88-8.05-1.63-12.08-1.31-1.99.16-3.97.34-5.96.38l-1.95.04c-.46,0-1.1-.1-1.55.03-.4.12.85.16.58.09-.17-.04-.35-.07-.52-.1l-1.91-.36c-.92-.17-1.84-.35-2.76-.52-1.59-.3-3.24.44-3.69,2.1-.4,1.46.49,3.39,2.1,3.69h0Z"/>
    <path d="m529.77,329.24c-3.64.24-7.32.58-10.97.52-.92-.01-1.84-.1-2.75-.16l-1.8-.1c-.24-.01-1.44-.16-.55,0s-.15-.02-.37-.05l-1.99-.27c-.92-.12-1.83-.25-2.75-.37-1.45-.2-2.61.33-3.97.78-1.02.34-2.04.67-3.07,1.01h1.6c-1.12-.32-2.24-.64-3.36-.96-1.83-.53-3.39-1.21-5.11.16-1.24.99-2.18,1.71-2.72,3.27-.46,1.31-.49,2.24-.34,3.6.14,1.25.26,2.5.41,3.75s.65,2.32,1.06,3.47l.74,2.06c.05.14.08.35.17.46.24.32.02-1.1-.08-.47-.21,1.31-.13,2.72-.19,4.04-.12,2.49.6,4.97,1.06,7.42v-1.6c-.24,1.68-.48,3.35-.73,5.03-.12.84-.18,1.62,0,2.46.21.98.47,1.96.7,2.94l.33,1.36c.05.22.23,1.17.11.31s-.04.01-.03.23l.05,1.6c.05,1.83-.07,3.56.74,5.24s1.65,3.38,2.48,5.08c.44.89,1.61,1.53,2.59,1.49,4.35-.22,8.65-.73,13-.84.5-.01,1.04.02,1.54-.04.58-.07-.71-.13-.54-.1.17.03.35.05.53.08l4.27.63c.93.14,1.78.26,2.72.15l4.2-.5c2.18-.26,4.4-.24,6.59-.34,1.62-.07,3-1.33,3-3,0-1.57-1.37-3.07-3-3-1.98.08-3.99.09-5.97.26-1.26.11-2.52.3-3.77.45-.53.06-1.26.03-1.77.21-.46.16.42.1.58.13-.19-.03-.38-.06-.56-.08-2.25-.33-4.62-.92-6.9-.86-2.11.06-4.23.05-6.33.26-2.53.25-5.04.48-7.59.6l2.59,1.49c-.91-1.86-1.81-3.72-2.72-5.57l.41,1.51c-.06-1.93.05-3.94-.21-5.86s-.88-3.84-1.33-5.74v1.6c.14-.97.28-1.94.42-2.91.16-1.11.49-2.34.49-3.46s-.41-2.38-.61-3.48l-.36-1.89c-.04-.19-.06-.39-.11-.58-.14-.58.05.58.07.53.12-.28.04-.79.05-1.09l.1-2.09c.05-1,.25-2.14-.02-3.12s-.73-2.04-1.09-3.04l-.6-1.67c-.38-1.06-.06.53-.09.12-.12-1.35-.29-2.7-.44-4.05-.03-.28-.04-.58-.09-.85-.15-.81.22.47-.13.42.06,0,.53-1.5.58-1.64l-.77,1.32,1.79-1.45-2.92.77,2.89.83c1.07.31,2.32.87,3.45.87s2.27-.59,3.28-.92,1.97-.65,2.95-.97h-1.6c3.07.42,6.1.84,9.19,1.02,2.75.16,5.49.13,8.24-.01,1.79-.09,3.57-.24,5.35-.36,1.62-.11,3-1.3,3-3,0-1.54-1.37-3.11-3-3h0Z"/>
    <path d="m117.95,470.23c-2.09,1.5-4.21,2.94-6.16,4.61-.97.83-2.11,1.6-2.97,2.54-1.04,1.13-1.79,2.64-2.62,3.92-.5.77-1.01,1.51-1.56,2.25l-1.6,2.12c-.2.26-.39.52-.59.78-.67.88.45-.44,0-.05-2,1.73-3.81,3.52-5.5,5.54-.44.53-1.07,1.08-1.4,1.67-.46.82.74-.21-.11.14-1.4.58-3.07,1.55-4.3,2.43-1.02.73-1.52,1.61-2.15,2.67-.49.82-1.02,1.64-1.47,2.48-.66,1.26.33-.16-.29.5-1.85,2-3.5,4-5.5,5.86-1.83,1.7-4.1,3.03-5.83,4.79-1.03,1.05-1.76,2.51-2.57,3.73-.22.33-.47.66-.67,1.01-.55.93.43-.41.02-.03-.59.56-1.18,1.13-1.78,1.69-2.06,1.96-3.69,4.1-5.44,6.35-1.65,2.12-.6,4.85,2.12,5.12,4.35.44,8.66.89,13.03.43,4.64-.49,9.16.01,13.82-.04.32,0,2.14.05.55-.11.44.05.88.15,1.32.23,1.34.23,2.69.54,4.04.7,1.18.13,2.17-.05,3.32-.25.71-.12,3.47-.14,3.93-.67-.3.34-2.33-.23-.76.11.73.16,1.5.23,2.24.34,1.37.21,2.75.53,4.13.38,1.01-.11,2.03-.33,3.04-.5.69-.11,1.39-.22,2.08-.34.92-.16-.78-.21.18.08,1.29.39,3.01.3,4.35.41,1.15.09-.04-.03.11,0,.69.13,1.38.26,2.08.39,2.56.48,4.5.68,7.09.43,2.18-.21,4.35-.48,6.52-.76s4.2.1,6.37.36c2.03.24,4.16.79,6.2.79,1,0,2.03-.35,2.99-.58l1.93-.46c.31-.07.67-.12.97-.23,1.31-.47-.43.7-.92-.13.27.46,2.92.79,3.45.93,1.28.35,2.36.73,3.7.54,1.16-.16,2.32-.51,3.46-.75.61-.13,1.23-.31,1.84-.4.45-.07-.2.12-.53.07.24.04.49.04.72.08,8.68,1.67,18.27,1.13,26.98,0-1.15.15-.26-.03.43.08l1.87.31c1.1.18,2.28.49,3.4.53,1.3.04,2.68-.19,3.98-.28.48-.03.98-.03,1.46-.1-1.2.17-.08,0,.64.1,2.58.4,4.8.83,7.38.35,1.24-.23,2.5-.56,3.76-.71.57-.07-.56.07-.52.07.27.02.54.01.81.03.81.07,1.62.07,2.43.1.67.03,1.35.08,2.02.09.57,0-1.07-.2-.1-.02,1.44.27,2.89.49,4.33.72,2.44.39,5.02-.44,7.31-1.34,1.04-.41-.17-.08.03-.05.61.07,1.23.14,1.84.21,1.17.13,2.34.32,3.51.4,2.02.13,4.06.05,6.08.16,2.4.14,4.67.56,7.01-.04,1.28-.33,2.87-.47,4.06-1.05.85-.41-1.96-.49-.8.04.7.31,1.6.43,2.33.62,1.13.3,2.4.83,3.59.85s2.6-.36,3.82-.53c2.18-.31,4.33-.66,6.5-1.03.2-.03,1.35-.1,1.45-.25-.33.45-2.19-.26-.68.14,1.42.38,2.9.65,4.34.92,2.26.43,4.51-.19,6.79-.16,1.94.03,3.88.55,5.82.49,2.05-.06,4.07-.63,6.12-.57,2.17.07,4.23.39,6.38.14,2.36-.27,4.71-.56,7.05-.91l2.1-.31c.59-.09,1.68.11.42-.06,1.38.19,2.83.18,4.22.26,2.18.14,4.44,0,6.61-.26.3-.04-1.08-.21.06-.03.64.1,1.28.2,1.93.3,1.26.19,2.57.52,3.84.58,2.16.1,4.55-.09,6.69-.44,1.35-.22,2.7-.48,4.05-.71.37-.06.73-.13,1.1-.19-1.6.3.47-.05.84-.1,1.24-.15,2.52-.24,3.75-.46.21-.04-1.07-.23.04-.02.81.15,1.62.28,2.42.43,2.43.43,4.69.57,7.16.61s4.55-.65,6.93-1.34c.42-.12,1.91-.35.42-.23.48-.04.98-.03,1.46-.05l2.28-.08c.22,0,2.18-.08,1.36-.11s.5.12.77.18l2.37.49c1.01.21,2.07.52,3.11.51,2.18-.03,4.29-.68,6.48-.47,2.49.24,4.44.62,6.79-.27.78-.3,3.27-.76,3.79-1.43-.25.33-2.22-.24-.68.08.83.17,1.68.28,2.51.42,2.64.44,4.76.26,7.4-.14.57-.09,1.14-.19,1.71-.26.73-.08-.94-.2,0,.1,1.26.41,3.02.34,4.35.43,2.07.13,4.21-.12,6.27-.33,1.05-.11,2.1-.28,3.14-.43l2.1-.29c2.01-.28-.05.18-.3-.14.41.5,3.19.48,3.87.59,1.16.18,2.24.41,3.41.17,1.25-.25,2.5-.83,3.71-1.23.5-.17,1.01-.35,1.51-.5-1.13.35-.12.1.55.11,2.37.03,4.69.03,7.06-.11.7-.04,1.58.03,2.27-.13,1.03-.25-.67-.21.05-.07,1.43.27,2.87.54,4.3.8,2.53.45,4.83-.3,7.32-.8,2-.4,4.06-.81,6.09-1.03.11-.01-1.01,0,.11.08.69.04,1.4,0,2.09,0,1.01,0,2.02.02,3.03,0,1.41-.03,2.84-.07,4.24-.17.33-.02,1.9-.07.34-.14.59.03,1.2.17,1.78.26,1.23.18,2.48.42,3.72.54,1.48.13,2.31-.24,3.67-.74,1.13-.42,2.25-.86,3.39-1.26-1.03.36-.52.07.23.15.85.09,1.7.11,2.55.16.57.04,1.15.1,1.73.11.84.01-1.02-.19,0-.01,1.45.24,2.91.45,4.37.67,2.37.35,5.08-.44,7.24-1.5.94-.46-.09-.09.05-.09.68,0,1.35.02,2.03.02,1.12.01,2.25.05,3.37.04,4.37-.04,8.79-.53,13.14-.11,1.13.11,2.35.38,3.48.34,1.23-.05,2.45-.7,3.58-1.12.64-.24,1.34-.44,1.96-.73.18-.08.37-.13.55-.21.6-.25-1.01-.04-.37.05,1.4.21,2.82.31,4.23.47,2.22.25,4.59-.56,6.68-1.29,1.34-.47-.01.24-.69-.18.33.21,1.1.23,1.48.31,1.32.28,2.65.66,3.98.84,1.25.17,2.05-.12,3.21-.49.51-.16,3.63-.76,3.84-1.24-.31.68-2.23-.23-1.08.05.22.05.49.07.71.1l2.14.32c1.05.15,2.21.44,3.27.43,2.2-.02,4.34-.66,6.55-.59s4.43.13,6.68-.06c4.67-.4,9.33-.88,14-1.32,2.21-.21,4.28-1.1,6.43-1.6.55-.13-.55.05-.53.05.24.02.49.02.72.04.59.07,1.2.07,1.79.11l3.6.22c3.02.18,4.01-4.17,1.51-5.59l-2.87-1.64c-.57-.33-1.16-.74-1.76-1-.05-.02-.38-.27-.49-.28-.67-.07,1.17,1.6.7.7-.97-1.85-2.54-3.88-4.03-5.36-3.38-3.36-7.28-6.15-11.46-8.41-.55-.3-1.09-.63-1.65-.9-.73-.34.61.75-.08-.06-.94-1.1-2.12-2.11-3.19-3.09-.55-.5-1.12-.96-1.7-1.43l-1.91-1.54c-.36-.29-1.47-1.13-.55-.23-1.69-1.64-2.63-4.41-4.75-5.57-1.13-.62-2.39-1.07-3.57-1.6-.41-.18-.82-.35-1.22-.55,1.07.52.03-.14-.45-.67-1.83-2.03-3.68-4.01-5.6-5.96-1.73-1.77-3.86-3.16-5.83-4.66-3.08-2.33-6.07,2.88-3.03,5.18l2.77,2.1c.46.35.95.67,1.38,1.05s-.39-.3-.38-.28c.22.25.47.47.7.71,1.57,1.68,3.2,3.29,4.74,5,.8.89,1.59,2.04,2.61,2.7.96.62,2.21.99,3.25,1.46.46.21.98.57,1.48.66,1.18.22-1.06-1.6-.34-.48.81,1.26,1.86,2.41,2.77,3.59,1.37,1.77,3.29,2.92,4.97,4.39,1.56,1.38,2.89,3.16,4.62,4.33s3.91,1.95,5.68,3.23c1.09.79,2.17,1.57,3.26,2.36.69.5-.67-.67.06.08.57.58,1.23,1.11,1.84,1.65.55.5,1.09,1.01,1.66,1.49.43.36-.26-.4-.26-.41.16.18.29.4.42.6.88,1.25,1.71,2.57,2.67,3.76,1.61,1.98,4.31,3.02,6.51,4.27l1.51-5.59c-2.25-.14-4.77-.65-7-.26-1.15.2-2.3.64-3.42.95-.55.15-1.17.24-1.69.47-.25.11-.96.18.41-.01-.26.04-.54.05-.8.06-4.76.26-9.49.95-14.24,1.35-2.23.19-4.42-.05-6.65-.03-.74,0-1.47.1-2.21.19l-2.27.26c-.33.04-2.43.26-.78.27-2.36-.02-4.87-1.26-7.23-.81-1.21.23-2.44.79-3.62,1.17-.31.1-1.39.24-1.58.51.18-.26,2.27.32.4-.14-2.46-.61-4.94-1.36-7.41-.67-1.27.35-2.66.58-3.88,1.08-.78.31.67.23-.12-.03-.63-.21-1.44-.16-2.1-.23-1.11-.12-2.34-.43-3.45-.28-1.22.15-2.46.83-3.6,1.25-.56.21-1.29.36-1.8.67-.67.41.61.24-.11.02-1.3-.4-3-.32-4.36-.42-4.01-.31-8.14.22-12.16.23-2.45,0-4.93-.36-7.28.43-1.21.4-2.77.66-3.88,1.29s1.73.35.8.1c-.7-.19-1.51-.23-2.22-.34-2.31-.36-4.57-.62-6.9-.77-2.77-.18-4.41.34-7.02,1.31-.24.09-1.44.33-1.58.59.05-.09,2.25.29.6-.04-1.44-.28-2.92-.42-4.37-.63-2.24-.32-4.5,0-6.76.05s-4.35-.19-6.49.1-4.18.64-6.24,1.05c-1.32.26-2.67.49-3.97.82-1.37.36.05-.2.69.14-.49-.26-1.39-.26-1.94-.36-2.51-.47-4.58-.75-7.12-.6-4.7.28-9.89-.62-14.19,1.87-1.08.63,1.76.36.8.1-.55-.15-1.17-.18-1.73-.26-1.17-.18-2.36-.43-3.54-.54s-2.41.11-3.64.28l-2.34.32c-.59.08-1.7.13-.51.06-2.19.12-4.38.5-6.57.29-2.38-.24-4.45-.45-6.81-.09-1.03.15-2.84.06-3.74.56.14-.08,2.19.27.6-.1-.74-.17-1.51-.25-2.26-.38-1.17-.19-2.57-.62-3.75-.48s-2.48.84-3.63,1.27c-.57.22-1.3.36-1.81.69-.67.42.6.24-.12.02-1.28-.39-3.01-.34-4.35-.42-2.04-.13-4.25.19-6.27.53,1.04-.17.36.04-.43-.13l-2.12-.44c-1.07-.22-2.17-.53-3.26-.58-2.25-.1-4.79-.04-6.98.52-1.32.34-2.69.69-3.97,1.14-.77.27-.76.09-.13.11-.7-.03-1.41-.02-2.12-.03-.81-.01-1.62-.05-2.43-.04-.64.01-1.09-.03-.13.08-1.32-.16-2.63-.46-3.94-.69-4.43-.78-9.45.37-13.83,1.29-1.06.22.88.01-.04,0-.62-.01-1.26.06-1.89.09-.8.04-1.63.04-2.43.12-.21.02-.42.01-.63.03-.69.07.97.13.34.09-2.3-.18-4.56-.96-6.86-.89s-4.72.32-7.14.17-4.64-.02-7.12.35c-.69.1-1.38.2-2.07.31-.97.16.66-.07.13-.01-1.4.15-2.79.32-4.18.48-2.14.25-4.25-.22-6.4-.22-1.97,0-3.92.6-5.89.62s-3.88-.52-5.81-.5c-1.4.01-2.85.13-4.24.28-.41.04-1.82-.02-.34.17-.59-.07-1.19-.25-1.77-.38-2.69-.57-4.69-.91-7.4-.45-2.17.37-4.34.72-6.53,1.02-.68.1-1.4.14-2.08.29-1.2.28,1.43.39.92,0-.9-.69-3.1-.83-4.2-1.13-2.58-.69-5.01.18-7.53.92-.73.21-.84.03-.04.09-.57-.05-1.13-.08-1.7-.12-1.27-.09-2.54-.22-3.81-.27-2.01-.09-4.03,0-6.03-.18-2.36-.21-4.57-.83-6.88-.19-1.3.36-2.93.61-4.13,1.23-1.13.58,1.76.37.8.08-.69-.21-1.5-.25-2.2-.36-2.41-.4-4.69-.65-7.13-.75s-4.61.3-7.04.76c-.26.05-1.33.06-1.53.29.38-.42,2.5.16.38-.17-1.4-.22-2.79-.45-4.19-.65-.98-.14-1.79-.09-2.77-.02l-2.28.16c-.36.02-2.43.1-.78.2-2.19-.13-4.35-.99-6.55-1.01-4.58-.05-9.09.97-13.68.91-2.36-.03-4.7-.15-7.06-.28-2.17-.12-4.35-.63-6.52-.68-.93-.02-1.81.22-2.73.42-.59.13-3.6.36-3.93.86.31-.47,2.29.4.76-.2-.71-.27-1.51-.41-2.24-.6-1.38-.37-2.69-.88-4.13-.68-1.01.14-2.04.48-3.04.72-.68.16-1.41.28-2.08.5-.91.29.7.25-.12-.06-1.87-.71-4.45-.58-6.47-.82-2.42-.29-4.33-.48-6.73-.17-2.18.28-4.36.52-6.55.73-.61.06-1.24.09-1.84.18-.33.05,1.11.26-.03.01-1.43-.3-2.88-.57-4.32-.82-2.21-.38-4.67-.79-6.91-.74-.96.02-1.97.28-2.92.44l-2.14.35c-.3.05-.62.07-.92.15-1.02.28.26-.6,1.08.07-.58-.47-2.71-.41-3.45-.52-1.26-.19-2.44-.43-3.7-.3s-2.48.42-3.7.63c-.42.07-1.25.04-1.61.27.3-.19,2.21.23.41-.13-2.37-.48-4.73-.9-7.14-.88s-4.71-.03-7.1-.21-4.5.08-6.87.31c-4.15.4-8.28-.08-12.41-.49l2.12,5.12c1.42-1.82,2.72-3.76,4.4-5.36,2.21-2.1,3.82-3.99,5.51-6.53.22-.34.47-.67.67-1.01.31-.52.47-.29-.14.15.45-.32.87-.68,1.31-1.02.99-.77,2.02-1.51,2.97-2.33,1.9-1.63,3.68-3.38,5.31-5.27,1.86-2.17,3.67-4.38,4.89-6.99.02-.04.43-.63.4-.68.58,1.1-1.77,1.19-.64.8.63-.22,1.25-.71,1.83-1.03,1.1-.62,2.38-1.15,3.31-2.02,1.82-1.69,3.17-3.84,5.01-5.54,2.14-1.98,3.81-4.04,5.55-6.39.81-1.09,1.52-2.24,2.26-3.38.38-.59.73-1.25,1.17-1.81-.98,1.23.58-.31.86-.55.72-.62,1.45-1.22,2.16-1.85,1.16-1.02-.37.17.44-.37,1.37-.92,2.68-1.93,4.02-2.89,3.11-2.23.12-7.44-3.03-5.18h0Z"/>
    <path d="m470.69,416.55c.32,2.74.65,5.49.98,8.23.36,2.97.92,5.83,1.55,8.75l2.1-3.69c-1.54.42-3.08.84-4.62,1.25-.25.07-.63.1-.86.23.12-.07,1.09.02.45-.12-.86-.19-1.83-.17-2.71-.25-2.89-.27-5.66-.18-8.57-.08s-4.21,4.09-1.51,5.59,5.15,2.9,7.69,4.42c.32.19.63.39.96.57.67.37-.09-.03-.22-.22.38.57,1.12,1.07,1.62,1.54,1.21,1.14,2.35,2.54,3.95,3.1s3.37,1.11,5.05,1.66l-1.32-.77c1.77,1.49,3.64,3.61,5.83,4.42,1.3.48,2.62.93,3.93,1.4.25.09.5.18.75.26.62.2-.42-.2-.39-.16.27.42,1.06.76,1.47,1.05,1.13.8,2.69.36,3.64-.47,2.44-2.14,4.41-4.72,6.83-6.86,1.29-1.14,3.18-2.31,3.96-3.9.81-1.67,1.51-3.4,2.25-5.1.83-1.91,1.1-4.13,1.57-6.16s-.9-3.68-2.89-3.8l-7.32-.42,1.51.41-1.72-.76,1.08,1.08-1.89-2.45.3,2.31c.34-2.27.69-4.55,1.02-6.82.18-1.23-.11-2.47-.28-3.7-.21-1.42-.36-2.86-.62-4.27-.17-.92-.59-1.82-.98-2.66-.72-1.56-3.38-2.47-5.12-2.47-1.2,0-2.53.43-3.7.64-1.24.23-2.5.41-3.73.69-.53.12,1.03-.05.56-.08-.21-.01-.43.02-.63.03l-2.34.1-3.81.16c-1.62.07-3,1.33-3,3,0,1.57,1.37,3.07,3,3,2.41-.1,4.89-.03,7.29-.34s4.78-.86,7.16-1.3h-1.6l2.38.62-2.1-2.1c.53,1.32.84,2.33,1.04,3.72l.71,4.88v-1.6c-.29,1.91-.57,3.82-.86,5.73-.18,1.2-.51,2.45.19,3.56.51.82,1.2,1.56,1.79,2.33,1.41,1.83,3.74,2.26,5.93,2.38l5.74.33-2.89-3.8c-.39,1.69-1.1,3.52-1.22,5.24-.05.66.43-.89.17-.32-.19.41-.36.82-.54,1.23l-1.4,3.18c-.08.18-.36.6-.35.8-.01-.27.76-.83.02-.18l-2.48,2.19c-1.14,1-2.14,2-3.16,3.12-1.33,1.46-2.62,2.82-4.1,4.12l3.64-.47c-1.13-.81-2.15-1.36-3.45-1.83s-2.7-.96-4.04-1.44l1.32.77c-.73-.62-1.46-1.23-2.19-1.85-.9-.76-1.89-1.82-2.97-2.31-1.8-.81-3.79-1.28-5.66-1.9l1.32.77-3.26-3.09c-.98-.93-2.02-1.58-3.18-2.28-2.37-1.42-4.77-2.77-7.19-4.12l-1.51,5.59,4.95-.18c1.29-.05,2.58.16,3.86.28,1.5.14,2.83.35,4.3-.05,1.6-.43,3.2-.87,4.79-1.3s2.44-2.11,2.1-3.69c-.32-1.48-.64-2.95-.96-4.43-.04-.19-.05-.43-.13-.6.36.74.13.98.05.32-.11-.9-.22-1.79-.33-2.69-.32-2.66-.63-5.32-.95-7.98-.19-1.61-1.24-3-3-3-1.47,0-3.19,1.38-3,3h0Z"/>
    <path d="m221.3,403.55c.6-1.04,2.9-3.75,2.8-4.87.28,3.17-2.24,1.2-.89,1.06.33-.03,1.12-.68,1.45-.88.95-.58,2.02-1.1,2.9-1.77,1.66-1.27,2.8-3.03,4.28-4.5.75-.75-1.06.48.84-.63,1.09-.63,2.14-1.35,3.23-1.99,1.46-.86,2.97-1.65,4.46-2.46,1.63-.88-.8.19.95-.43,1.23-.43,2.49-.79,3.72-1.25,1.75-.66,3.03-1.59,4.56-2.69.48-.35,2.74-1.53,1.13-1.01,1.28-.41,2.77-.33,4.09-.6,1.83-.38,3.08-.97,4.7-1.93.88-.52,2.04-.96,2.79-1.65-.53.48-2.61.03-1.34.52.59.23,1.61.03,2.24.04,2.15.04,3.64,0,5.68-.74,1.02-.36,2.06-.84,3.04-1.29.25-.12,1.31-.38,1.35-.57.04-.21-2.48-.02-1.14.38s4.62-.16,6.13-.53c.75-.19,1.49-.59,2.21-.88.47-.18,4.12-1.51,2.09-1.08,1.75-.37,3.67-.1,5.44-.33,2.13-.27,4.11-1.11,6.21-1.5-.7.13-.27,0,1.15.01,1.07,0,2.21.04,3.28-.05,1.94-.16,3.85-.66,5.72-1.22,2.15-.64-.12-.16.94-.18,1.16-.02,2.32.13,3.47.14,2.07.03,3.87-.38,5.9-.85.37-.09,1.35-.17,1.61-.37,1.88-1.43-3.77,4.07-1.5-.14.07-.13,2.87.39,3.1.42,2.03.28,3.79.47,5.83.13,1.15-.19,2.29-.43,3.44-.6,1.87-.27-.91-.07.97,0,1.75.06,3.5.06,5.25.09,1.15.02,2.31.1,3.45.08,2.26-.04-.13-.15.96.02,2.1.33,4.13.98,6.25,1.18,1.78.17,3.62.17,5.41.19.78.01,1.57-.01,2.35-.02.7,0,3.32.04,2.69-.07-.83-.15,1.71.69,2.12.83.85.3,1.74.7,2.62.91,1.77.44,3.72.65,5.53.84s3.95.24,5.78-.19c-.22.05,1.29-.06,1.33-.11-2.45,3.26-2.32-1.64-1.54-.3.48.81,2.64,1.69,3.48,2.17,1.78,1.01,3.4,1.43,5.4,1.9.54.13,1.07.25,1.61.38,1.72.4-1.37-.61.28,0,1.2.44,2.36,1.05,3.54,1.56,3.65,1.59,7.65,3.28,11.57,4.12.04,0,1.05.42,1.26.39-1.88.3-1.96-1.9-.84.11.57,1.02,1.61,2.24,2.43,3.08,1.07,1.09,4.15,3.57,5.63,3.61,1.22.03-.51,2.47-.87-1.08.05.47.72,1.07.95,1.47.6,1.04,1.31,2.04,1.96,3.04,1.07,1.65,2.16,3.28,3.24,4.92,3.17,4.82,10.97.31,7.77-4.54-2.04-3.09-3.9-6.62-6.2-9.52-1.36-1.71-3.13-2.56-5.02-3.61-.5-.28-1.1-.52-1.54-.88.2.16,1.12.96.27.02-.9-1-1.61-2.17-2.5-3.18-2.55-2.86-6.99-3.32-10.53-4.6-.98-.35-1.96-.69-2.93-1.06,1.65.63-.72-.32-1.27-.57-1.84-.81-3.59-1.61-5.54-2.12-1.12-.3-2.28-.48-3.4-.8-.83-.23.81.53-.73-.4-1.96-1.18-3.91-2.93-6.28-3.11-.8-.06-1.67.14-2.47.21-.54.05-3.55.36-2.85.35.78,0-1.75-.24-2.22-.31-.95-.14-1.97-.21-2.91-.45-1.81-.46-3.5-1.49-5.33-1.86-2.06-.42-4.3-.1-6.39-.12-1.78-.02-3.58-.04-5.35-.17-1.1-.08,1.27.36-.95-.16-1.29-.31-2.62-.62-3.93-.82-3.6-.56-7.52-.43-11.17-.4-1.71.02-3.3.25-4.99.54-.54.09-4.59.79-2.07.54,2.17-.22-1.25-.3-2.1-.42-2.04-.28-3.78-.49-5.82-.07-1.14.24-2.27.56-3.41.79-.49.1-1.76.13-.07.08-.57.02-1.15-.02-1.72-.07-1.92-.15-3.75-.2-5.63.19-1.12.23-2.28.53-3.38.87-.39.12-.84.25-1.24.32.99-.17.8-.12-.08-.09-1.98.05-3.99-.08-5.94.28-1,.18-2.01.54-2.99.8-.53.14-1.06.3-1.59.42-1.72.41,1.55-.12-.2.07-2,.21-4.16-.01-6.12.46-.75.18-1.49.59-2.21.88-.46.18-4.12,1.54-2.09,1.08-4.31.98-8.3.44-12.29,2.97-1.31.83,1.11-.44,1.41-.34-.52-.18-1.26.01-1.82-.03-1.09-.09-2.38-.14-3.48-.06-2.38.18-4.11,1.36-6.12,2.59-.42.26-.86.59-1.31.77-.82.33,1.26-.41-.06-.11-1.42.32-2.92.28-4.33.63-2.36.59-3.99,2.23-6,3.56-.29.2-1.12.75.28.04-.51.26-1.12.38-1.66.56-1.14.37-2.31.71-3.42,1.15-2.12.84-4.15,2.03-6.13,3.17-1.66.95-3.45,1.91-4.98,3.06-1.85,1.39-3.04,3.38-4.71,4.95,1.29-1.21-1.49.83-2.12,1.22-.97.59-2.17,1.16-2.99,1.97-1.57,1.57-2.51,4.05-3.6,5.95-2.89,5.03,4.88,9.57,7.77,4.54h0Z"/>
    <path d="m389.07,402.68c2.49,1.25,5.03,2.95,7.8,3.36,1.54.23,3.23.21,4.78.26.54.02,2.1.42.31-.04.62.16,1.26.38,1.86.6,2.42.89,4.97,1.62,7.48,2.23.62.15,1.28.31,1.88.51-1.76-.6-.14-.03.27.17,1.39.67,2.77,1.5,4.21,2.06,3.33,1.3,7.56.69,9.74-2.23,2.48-3.33,1.24-5.88.76-9.57-.25-1.93.05,1.56.03-.37,0-.88.05-1.78.09-2.66.04-1.07.1-2.13.17-3.2.19-2.85.22-5.63.18-8.49-.08-5.79-9.08-5.8-9,0,.1,7.3-.75,14.13.73,21.33l.45-3.47-1.39,2.24,3.89-2.23c-.37.03-2.85.05-2.95.27.3-.71,2.92,1.39.75.07-1.3-.79-2.87-1.5-4.29-2.1-2.5-1.05-5.22-1.53-7.81-2.34-3.19-.99-5.79-1.71-9.11-1.89-.62-.03-1.85-.35-2.46-.13-.77.27,2.54,1.41.45-.01-1.28-.87-2.88-1.45-4.27-2.15-5.16-2.6-9.72,5.16-4.54,7.77h0Z"/>
    <path d="m433.22,410.53c-2.27,1.24-5.26,2.28-6.81,4.44-1.27,1.77-3.09,4.88-3.39,7.07-.33,2.43,2.01,6.18,3.34,8.16,1.48,2.2,4.44,3.52,6.76,4.71,2.59,1.33,5.86.4,8.62-.16,3.07-.63,4.35-2.64,6.14-5.03,1.53-2.05,2.75-4.16,3-6.78.27-2.85-2.37-5.88-3.91-8.12s-4.6-3.84-7.17-5.01-5.83-.67-8.72-.62c-5.78.11-5.8,9.11,0,9,1.67-.03,3.44.1,5.1-.1.09-.01,1,.03,1.02-.02-.13.39-2.61-1.24-1.82-.42.6.62,1.94,1.07,2.69,1.49.46.25,1.71,1.28,2.19,1.21-.47.06-1.85-2.44-.66-.35.9,1.58,1.98,3.08,2.97,4.61l-.45-3.47c-.2.69-.44,1.38-.59,2.08-.22,1.03-.29.49.14-.12-.19.27-.38.55-.6.8-1.1,1.23-2.01,2.68-3,4.01l2.69-2.07c-2.07.35-4.15.69-6.22,1.04l3.47.45-2.38-1.36c-.58-.33-3.99-2.61-2.17-.92,1.66,1.54-.29-1.19-.68-1.93l-1.46-2.75v4.54c.32-.61,3.03-5.07,2.8-5.3.45.47-2.9,1.75-.76,1.08.61-.19,1.23-.67,1.78-.97l2.6-1.41c5.09-2.77.55-10.54-4.54-7.77h0Z"/>
    <path d="m422.12,435.31c-.83-2.95-1.58-5.73-2.93-8.48-.45-.92-.99-1.82-1.38-2.77-.56-1.36.38,1.23-.03-.23s-.74-3.03-1.1-4.54c-.56-2.3-3.27-3.86-5.54-3.14-3.51,1.1-8.13,2.19-10.99,4.62-1.76,1.49-2.22,3.88-3.39,5.8-.5.83.81-.95.2-.21-.38.46-.88.85-1.31,1.27l-2.27,2.19h6.36c-1.19-1.43-2.42-2.83-3.56-4.29-1.32-1.68.15.35-.37-.56-.46-.81-.89-1.63-1.33-2.45s-.95-1.61-1.33-2.45c-.41-.9.32,1.4-.09-.65-.36-1.81-.79-3.61-1.18-5.41-1.24-5.66-9.92-3.26-8.68,2.39.85,3.91,1.61,7.14,3.51,10.65s4.19,6.14,6.67,9.12c1.57,1.89,4.74,1.57,6.36,0,2.24-2.17,6.45-5.49,6.71-8.99.11-1.41-.42,1.06-1.14.91.24.05.88-.46,1.11-.54,1.04-.35,2.02-1.02,3.02-1.47.78-.35.18-.07-.26.09.54-.2,1.11-.35,1.66-.52.9-.27,1.79-.56,2.69-.84l-5.54-3.14c.69,2.84,1.31,5.39,2.59,8.01.45.92.98,1.82,1.38,2.77.59,1.36-.42-1.27.07.29s.93,3.3,1.4,4.95c1.57,5.56,10.26,3.2,8.68-2.39h0Z"/>
    <path d="m364.9,413.6c-1.52.74-3.32,1.35-4.71,2.3-1.72,1.18-3,3.53-4.05,5.3-.91,1.54-1.43,3.2-2.02,4.89-.16.46-.3.93-.49,1.37-.29.69.8-1.48.02-.2-.45.74-.86,1.5-1.29,2.25-1.12,1.94-.62,5.14,1.61,6.16,2.4,1.09,4.61,2.25,6.92,3.51,2.7,1.48,5.34,1.5,8.39,1.13,2.61-.32,5.23-2.24,7.28-3.84,2.93-2.29,2.37-5.69,2.18-9.06-.69-11.88-14.23-15.04-23.8-15.77-5.78-.44-5.75,8.56,0,9l3.64.28c.68.05,1.41.04,2.08.16-.88-.16-1.14-.32-.22.13,1.31.64,2.88.91,4.27,1.4,1.01.35-1.35-.77-.08.02.64.4,1.31.75,1.96,1.12.55.31,1.15.78,1.75,1,1.89.68-.68-1.36-.61-.78.12,1.08,1.53,3.12,2.16,3.97,1.35,1.81-1.73-1.19-.17-1.35-.02,0,.06,2.05.06,2.16l.11,3.78,2.23-3.89c-1.31.87-3.37,1.73-4.4,2.91s2.9-.08.62-.19c-.88-.04-2.55-.15-3.4.15-1.2.42,1.57.07,1.63.57-.01-.13-1-.56-1.14-.65-.85-.57-1.81-1.07-2.72-1.55-1.37-.72-2.8-1.32-4.21-1.96l1.61,6.16c.76-1.32,1.54-2.59,2.11-4.01.34-.86.62-1.75.93-2.62.24-.66,1.35-2.67.36-1.09.44-.7.91-1.38,1.37-2.07.26-.4,2.1-3.32.67-1.35-1.09,1.5.58.09,1.52-.37l2.36-1.15c5.2-2.54.65-10.31-4.54-7.77h0Z"/>
    <path d="m340.07,430.56c-1.91-3.74-3.32-8.3-5.99-11.52-.31-.38-2.21-3.09-2.58-3.03-.02,0,.4,2.22.69.97.11-.44-.54-2.07-.65-2.48-.74-2.82-1.69-4.2-3.95-6.04-1.17-.95-2.82-1.78-4.38-1.16-2.66,1.06-4.71,1.96-6.76,3.97-.51.5-3.72,3.34-2.12,2.2-1.27.91-2.7,1.6-4.01,2.45-4.69,3.04-7.76,6.71-10.91,11.24l8.22,1.07c-1.12-2.91-2.25-5.81-3.47-8.68-.35-.83-.75-1.65-1.07-2.5-.46-1.22.41,1.26-.23-.87-.45-1.52-.94-3.03-1.41-4.54-1.72-5.51-10.41-3.16-8.68,2.39.87,2.81,1.71,5.58,2.86,8.28.37.88.75,1.76,1.12,2.63l.52,1.23c-.36-.87-.4-.94-.12-.22.6,1.55,1.19,3.1,1.78,4.65,1.42,3.7,5.92,4.39,8.22,1.07.75-1.08,1.5-2.15,2.24-3.23.33-.49.64-1.04,1.03-1.48-1.29,1.44.29,0,.44-.13,1.11-.87,2.12-1.87,3.24-2.75,1.28-1.01-1.24.81.14-.05.57-.35,1.14-.7,1.71-1.04,2.05-1.25,3.81-2.42,5.52-4.1.71-.69,2.37-1.77,2.76-2.69-1.27,3.02-2.24,0-.26.4.35.07,1.29-.51,1.61-.64l-4.38-1.16c.3.25.74.77,1.1.9,1.64.59.32.64,0-.9.28,1.28.64,2.57,1,3.83.74,2.57,2.15,4.13,3.87,6.15.34.4.8.82,1.08,1.27-.52-.85-.45-.53-.17.2.48,1.22,1.01,2.44,1.56,3.63.82,1.76,1.75,3.48,2.63,5.21,2.64,5.16,10.41.61,7.77-4.54h0Z"/>
    <path d="m274.56,411.14c-5.59,4.3-11.43,8.05-16.8,12.62-1.18,1.01-1.58,2.94-1.16,4.38.93,3.18,1.41,6.25,3.77,8.66,1.19,1.22,2.67,3.02,4.21,3.83,1.97,1.04,4.14.34,6.2-.02.85-.15,1.7-.3,2.55-.44-2.12.35.9-.12,1.24-.16,1.83-.23,3.82-.28,5.5-1.07,3.14-1.48,5.6-3.93,7.78-6.53,1.4-1.67,1.63-3.5.7-5.45-.42-.88-.91-1.75-1.27-2.66-.43-1.08.35,1.02.1.14-.16-.56-.28-1.13-.42-1.69-.52-2.09-.83-3.77-2.39-5.34-3.1-3.09-6.36-4.3-10.45-5.54-5.55-1.69-7.93,7-2.39,8.68.46.14,4.74,1.51,4.76,1.45-.05.13-2.88-1.98-.13.27.14.11,2.17,1.85,2.22,1.81-.23.21-1.36-3.24-.5.23.23.91.39,1.87.68,2.76.51,1.53,1.33,2.99,2.02,4.44l.7-5.45c-.59.7-1.16,1.43-1.77,2.11-.99,1.1.96-.4-.89.82-.61.4-2.49,1.21-2.8,1.86-.37.77,2.92-.21.3-.05-3.56.21-7.16,1.01-10.67,1.62l4.38,1.16-1.79-1.7c-.43-.41-3.47-2.86-1.8-1.32,1.03.95.38.99.27.09-.08-.65-.39-1.34-.58-1.98l-.85-2.91-1.16,4.38c1.36-1.15,2.7-2.32,4.07-3.46,1.62-1.35-.4.21.49-.38s1.8-1.15,2.7-1.73c2.7-1.73,5.19-3.68,7.73-5.64,4.52-3.48.05-11.31-4.54-7.77h0Z"/>
    <path d="m247.75,432.51c-.03-5.35-.68-10.33-3.5-15.04-1.29-2.15.53-.43-.08.64.24-.43-.06-1.84-.07-2.28-.05-1.38.08-2.95-.47-4.23-1.33-3.1-4.63-4.31-7.71-3.87s-4.87.86-6.66,3.69c-.82,1.3-1.5,2.7-2.37,3.97,1.06-1.54-1.93,2.1-2.33,2.55-3.28,3.68-6.27,7.25-9.06,11.32l8.22,1.07c-1.17-3.15-2.16-6.08-4.03-8.87-.55-.82-1.15-1.62-1.66-2.47-.65-1.09.32,1.32-.16-.43s-.85-3.37-1.28-5.06c-1.42-5.61-10.1-3.23-8.68,2.39.78,3.07,1.29,5.91,2.98,8.59.56.88,1.14,1.79,1.77,2.63,1.03,1.39.41.37.48.51.8,1.59,1.28,3.44,1.91,5.11,1.38,3.71,5.95,4.38,8.22,1.07l1.92-2.79c.56-.81,1.71-2.3.93-1.38,1.25-1.48,2.62-2.88,3.91-4.33,3.02-3.37,5.36-6.6,7.68-10.48l-2.69,2.07,4.1-.61-4.38-1.16,1.59,1.38-1.32-3.18c.05,1.63-.08,3.38.16,4.99.34,2.23,1.58,4,2.45,6.05.35.73.33.68-.06-.17l.38,1.28c.25,1.01.69,1.98.88,3-.37-1.97-.09,1.1-.09,1.52l.02,2.51c.04,5.79,9.04,5.8,9,0h0Z"/>
  </g>
  <g>
    <polygon class="cls-2" points="155.83 149.26 456.8 100.87 466.64 112.14 480.36 154.36 491.95 199.6 496.14 224.75 177.76 280.9 155.83 149.26"/>
    <g>
      <path d="m146.59,154.68c5.23-1.02,10.35-2.22,15.47-3.7,1.02-.29,2.05-.55,3.07-.82.81-.21,1.62-.39,2.42-.63,1.33-.39-.95.02.43-.12,3.03-.31,5.79-.67,8.71-1.54.64-.19,1.54-.3,2.11-.64.54-.32-.72,0-.46.03.32.04.71-.05,1.03-.07,1.47-.11,2.94-.23,4.4-.32,2.58-.14,5.13-.1,7.67-.56,1.37-.25,2.86-.36,4.19-.75s2.67-1.1,3.98-1.63c.29-.12.64-.21.91-.37.73-.44-.21.47-.41-.04.03.09,1.78-.06,1.91-.07,1.44-.05,3.06.09,4.48-.24,1.58-.38,3.28-1,4.79-1.62.97-.4-.29.03-.28-.06,0,0,.77.1.81.11l2.9.38c1.75.23,2.87.23,4.46-.65l4.22-2.32-1.51.41c2.2.19,4.55.68,6.74.34s4.35-.65,6.49-1.13c4.64-1.04,9.19-2.28,13.88-3.05,2.19-.36,4.21-1.29,6.36-1.82.93-.23,1.9-.33,2.84-.48.71-.12,1.42-.23,2.12-.35,1.35-.23-.71.06.14-.03,2.27-.25,4.45-.7,6.72-.47,1.34.14,2.73.4,4.08.41,1.08,0,2.09-.59,3.06-1l2.33-.98c.09-.04.6-.17.67-.28.03-.05-.99,0-.48.07,1.49.22,3.19.04,4.7.03,2.54-.03,5.15-1.66,7.46-2.65l-1.51.41c1.86.16,3.8.52,5.67.48,1.99-.04,4.19-1.06,6.09-1.6.6-.17,1.2-.35,1.8-.52l1.97-.57c.38-.11,1.29-.19,1.59-.46.1-.09-1.19.14-.28.02.55-.07,1.11-.14,1.66-.22,1.1-.14,2.21-.35,3.32-.43,1.83-.13,3.68.12,5.51.05,1.96-.08,4.16-.81,6.01-1.39.96-.3-.83-.07-.16,0,.39.04.82-.04,1.21-.05,1.29-.06,2.6-.08,3.89-.17,1.95-.15,3.95-.76,5.84-1.27.84-.23.41-.08-.08-.05.44-.02.88-.1,1.32-.15,1.22-.14,2.45-.29,3.68-.41,1.84-.19,3.7-.27,5.54-.44,3.76-.33,7.39-1.54,10.95-2.73,1.73-.58,3.57-.7,5.38-.95.37-.05.73-.11,1.1-.15-1.55.17-.48.08-.15.07,1.36-.04,2.72-.13,4.07-.2,3.76-.19,7.49-1.36,11.08-2.45.1-.03,1.31-.48,1.36-.42.01.02-1.16.13-.53.07.21-.02.42-.05.62-.07,1.41-.16,2.83-.37,4.24-.48,1.93-.16,3.88.13,5.82.13s3.88-.11,5.78-.29c2.26-.21,4.72-1.88,6.76-2.82l-1.51.41c4.03.07,8.01.13,11.98-.75,1.87-.41,3.68-1.15,5.54-1.61,1.25-.31,2.53-.56,3.79-.84.38-.09.95-.11,1.3-.29.1-.05-.83-.08-.53.1.14.08.5.05.66.07,4.12.41,8.31.71,12.32-.62,1.23-.41,2.52-.75,3.73-1.23.05-.02.38-.08.4-.13.02-.06-1.01.13-.56.06.52-.07,1.04-.14,1.57-.2,2.21-.29,4.41-.57,6.62-.92,2.35-.37,4.64-.8,6.97-1.3.54-.12,1.27-.14,1.77-.38.12-.06-.89-.08-.5.1.19.09.55.05.76.08l3.85.38-1.51-.41c1.33.66,2.66,1.31,3.99,1.97l-1.08-1.08c1.46,2.02,3.1,3.98,4.4,6.1,1.04,1.69,1.68,3.7,2.51,5.51.62,1.36,1.26,2.72,1.89,4.08.09.19.16.4.27.58.15.25-.39-1.02-.17-.39s.48,1.26.73,1.88l.87,2.26c.05.13.15.58.25.65.34.23.05-.92-.04-.47-.25,1.35.15,3.11.22,4.48s.37,2.47,1.11,3.66c.78,1.27,1.56,2.53,2.35,3.8l-.41-1.51c.16,1.51.33,3.03.49,4.54s.59,2.7,1.34,4.05l1.41,2.54c.14.24.25.52.42.75.39.55-.26-.97-.12-.29.34,1.64,1.09,3.21,1.53,4.83.66,2.44.83,4.96,1.57,7.39.39,1.28.74,2.59,1.21,3.84.28.74.6,1.47.91,2.2.28.68.53,1.99,1.04,2.52.33.35,0-.48,0-.47-.02.23.03.49.05.71l.21,2.99c.09,1.32.23,2.59.47,3.89.58,3.04,1.15,6.08,1.78,9.11.48,2.33.94,4.74,1.83,6.95.55,1.36,1.28,2.74,1.68,4.15.44,1.55.6,3.22.93,4.8.3,1.44.97,2.81,1.5,4.18.16.41.29.87.49,1.27.38.74-.09-.15.03-.31-.34.44-.19,2.06-.25,2.61-.18,1.92-.51,3.41.47,5.16.85,1.5,1.77,2.97,2.66,4.46l-.41-1.51c-.25,1.87-.74,3.84-.76,5.72s.8,3.85,1.21,5.62l2.1-3.69-3.15.95c-.33.1-1.21.18-1.46.44-.24.24,1.02,0,.51-.06-.21-.03-.48.03-.69.05-2.37.16-4.71.29-7.05.68-4.32.73-8.54,1.82-12.8,2.82-.53.12-1.12.2-1.64.38-.55.19.48-.08.5-.05-.06-.07-.58-.02-.64-.02-1.37-.08-2.75-.08-4.12-.12-2.17-.06-4.55.55-6.65,1.05s-4.15,1.69-6.15,2.52c-.52.22.46-.17.44-.2-.02-.02-.54.08-.55.08-.71.06-1.42.22-2.12.32-.93.14-1.87.27-2.8.43-1.22.21-2.44.46-3.65.68-.51.1-1.06.14-1.55.29s.83-.03.52-.07c-.2-.02-.44.03-.63.05-2.18.17-4.37.32-6.54.55-1.23.14-2.47.26-3.7.41-1.09.13-2,.59-3.02,1.01l-1.96.81c-.22.09-.47.17-.68.28-.35.18-.63.1-.05.13.9.05-.47-.14-.69-.16l-2.28-.24c-1.06-.11-2.16-.36-3.21-.12-1.21.28-2.4.74-3.58,1.11-.34.11-1.33.23-1.58.49-.12.13.75-.02.58-.07-.21-.07-.55.01-.76.02-1.4.04-2.8.05-4.2.11-4.19.2-8.07,2-12.09,3-1.91.48-3.88.73-5.81,1.15-1.34.29-2.69.6-4.03.9-.24.05-.51.09-.75.17-.59.19.55-.12.54-.06,0,.01-1.27-.16-1.36-.17-1.33-.17-2.7-.45-4.04-.51-.99-.05-2.02.22-3,.39-1.16.2-2.41.28-3.54.6-1.03.29-2.07.92-3.04,1.36l-2.91,1.34,1.51-.41c-4.92.59-9.86.87-14.76,1.56-2.47.35-4.97.68-7.42,1.18-2.25.46-4.46,1.74-6.56,2.64l1.51-.41-4.91-.63c-1.45-.19-2.93.19-4.37.41s-2.76.36-4.1,1.03l-4.53,2.28,1.51-.41c-4.51.59-9.09.78-13.56,1.54-2.33.4-4.63.83-6.94,1.34-.62.14-1.27.24-1.88.42s1.08.04-.11-.06c-1.44-.13-2.91-.12-4.36-.18-1.06-.04-1.81.2-2.77.61l-2.13.89c-.35.14-1.5.4-1.69.71-.15.25.53-.05.54-.05-.11-.06-.37,0-.49-.02-.8-.07-1.61-.07-2.41-.1-1.11-.05-2.38-.27-3.48,0-2,.5-3.85,1.56-5.88,2-2.28.49-4.57.94-6.86,1.4l-2.54.51c-.23.05-.52.06-.74.15-.32.13,1.08,0,.47-.09-1.46-.21-3.1,0-4.58-.01-2.58,0-5.22,1.65-7.56,2.66l1.51-.41c-1.63-.19-3.27-.38-4.9-.58s-3.02.6-4.5,1.22c-.85.36-1.69.72-2.54,1.07-.98.41.13.05.14-.07,0,.04-.76.16-.82.17l-2.86.6c-.4.08-.81.16-1.21.25-.96.22.09-.07.19,0-.42-.28-1.73-.12-2.23-.15-.98-.07-1.98-.19-2.96-.2-1.38-.02-2.78.26-4.15.43s-2.62.35-3.95.89l-2.84,1.15c-.24.1-.59.16-.8.32-.46.35,1.07-.09.27.02-3.18.45-6.36.82-9.55,1.18-2.82.31-5.34,1.55-8.11,2.08l-2.87.54c-.44.08-.88.16-1.32.25-.82.18.33-.02.29-.02-1.6-.21-3.59.23-5.2.38-2.84.27-5.67,1.27-8.46,1.92-1.01.23-2.07.4-3.05.71-.84.26.92-.05.24-.01-.4.02-.8.08-1.19.11-1.55.15-3.12.4-4.68.38-1.92-.02-3.95-.33-5.85-.02-1.66.26-3.32.6-4.97.9l3.69,2.1c-.37-1.62-.82-3.24-1.1-4.87-.31-1.77-.4-3.58-.72-5.34-.29-1.62-.6-3.6-1.23-5.11-.27-.65.03,1.11.03.25,0-.47-.05-.94-.08-1.41-.06-1.14-.1-2.28-.19-3.42-.15-1.9-1.07-3.73-1.71-5.52-.02-.05-.3-.78-.28-.79-.07.04.13,1.26.04.16-.1-1.24-.22-2.47-.33-3.71-.16-1.82-.65-3.45-1.16-5.2-.15-.53-.28-1.08-.46-1.59-.28-.76,0,.26-.01.3.14-1.03-.15-2.27-.22-3.3-.22-3.32-.16-6.78-1.21-9.95-.35-1.05-.63-2.17-1.06-3.19-.32-.76.09.17-.01.31.17-.23.09-.96.12-1.25.17-1.84.69-3.85.06-5.62-.36-1-.79-1.98-1.18-2.96-.15-.38-.29-1.11-.57-1.42-.39-.44-.02,1.09.01.17.06-1.91.14-4.03-.19-5.92-.31-1.78-.79-3.52-1.11-5.29s-.46-3.54-.8-5.29c.05.25.07,1.04.08.08,0-.6-.02-1.19-.04-1.79-.02-1.03,0-2.07-.06-3.09-.12-2.05-.28-4.2-.65-6.23s-.7-4.21-1.52-6.04c-.77-1.72-1.62-3.42-2.44-5.12l.41,1.51c.1-2.11.57-4.51.1-6.58-.31-1.38-.75-2.74-1.12-4.1-.06-.23-.1-.51-.2-.73-.24-.55.17.48.04.54.09-.04-.05-1.45-.05-1.55-.09-2.46-.26-4.8-.61-7.23l-.31-2.14c-.03-.21-.05-.41-.09-.62-.06-.31.11,1.14.07.46-.09-1.36-.29-2.72-.44-4.07-.27-2.45-.85-4.84-1.36-7.24-.8-3.77-6.59-2.18-5.79,1.6.26,1.22.52,2.43.78,3.65.1.48.12,1.14.34,1.58.15.32-.08-.94-.07-.59,0,.29.06.59.09.87.27,2.48.55,4.96.91,7.43l.32,2.22c.04.25.07.5.11.74.1.64,0-.72-.07-.46-.34,1.17.11,3.04.15,4.25.08,2.25.63,4.92,1.53,6.98.23.52-.11-.47-.05-.5-.04.02-.02.49-.03.55-.08.83-.08,1.67-.12,2.5-.07,1.41-.28,2.68.32,4,.54,1.19,1.13,2.37,1.69,3.55.22.46.4.99.68,1.42.19.29-.16-.94-.22-.46-.03.21.13.58.18.8.28,1.23.35,3.08.96,4.19.23.41-.06-.78-.06-.52,0,.2.04.42.06.62l.23,2.32c.23,2.34.28,4.66.33,7.01s.52,4.7.93,6.97c.18,1.03.43,2.05.64,3.07.14.65.25,1.3.41,1.94.23.93,0-1.08-.01.21-.04,2.56-.11,4.94.84,7.32l.88,2.2c.11.28.21.59.34.86.19.37.09.65.13.08.07-.85-.13.54-.16.81l-.24,2.57c-.1,1.07-.23,1.96.07,3,.4,1.4.92,2.77,1.38,4.14.04.12.09.51.2.6.26.23-.04-1.05-.06-.52-.02.62.1,1.26.14,1.88.09,1.14.18,2.28.26,3.43.16,2.24.06,4.64.64,6.82.38,1.42.74,2.91,1.25,4.29.35.95-.03-1.02.04,0,.05.72.13,1.43.19,2.15.11,1.2.08,2.54.38,3.71.32,1.25.89,2.48,1.33,3.69.04.12.4,1.41.52,1.44-.08-.01-.06-1.09-.07-.5,0,.29.03.6.05.89.08,1.41.11,2.83.23,4.23.19,2.15,1.02,4.21,1.4,6.32s.52,4.42,1.01,6.6l.8,3.54c.38,1.68,2.15,2.37,3.69,2.1s3.03-.52,4.54-.83c.91-.18-.33,0-.34.03,0-.02.65.02.68.02.92.06,1.86.05,2.79.07,2.8.07,5.71-.07,8.47-.58,2.6-.48,5.19-1.2,7.76-1.83.87-.21,1.77-.39,2.63-.64.79-.24-.27-.1-.37,0,.09-.09.72-.05.84-.06,1.56-.11,3.13-.18,4.68-.34,2.78-.29,5.58-.93,8.24-1.77l2.61-.82s.69-.19.69-.22c0,.03-1.27.15-.15.03,1.61-.17,3.22-.34,4.82-.54,2.66-.32,5.42-.47,7.91-1.48l2.56-1.04c.26-.1.62-.19.85-.35.62-.41-.71.01-.34-.03,1.64-.17,3.28-.47,4.92-.6,1.45-.11,2.96.12,4.41.22,1.61.11,2.94-.09,4.52-.42s3.13-.6,4.64-1.24,3.13-1.32,4.69-1.98l-1.51.41,3.04.36c1.08.13,2.41.51,3.49.21,2.03-.56,4.02-1.72,5.95-2.55l-1.51.41c1.86,0,3.76.14,5.62.01,2.08-.14,4.19-.78,6.23-1.2,1.8-.37,3.68-.62,5.45-1.12.94-.27,1.86-.66,2.78-.99l1.72-.61c.15-.05.43-.1.56-.2.46-.34-.62-.03-.48.04.7.37,2.44.1,3.23.13.99.04,2.17.25,3.14-.02s1.86-.78,2.75-1.15l1.7-.71c.14-.06.44-.13.55-.23.4-.38-.57-.02-.49.02.71.37,2.44.1,3.23.13,1.05.04,2.1.17,3.15-.02,1.84-.33,3.65-.86,5.49-1.21,1.09-.21,2.2-.37,3.3-.56.55-.09,1.1-.18,1.65-.28,1.05-.19-1.05.06.02,0,1.91-.1,3.85-.23,5.75-.47,2.1-.26,4.68-.24,6.6-1.15,1.06-.5,2.1-1.06,3.15-1.58.49-.25.98-.48,1.47-.74.86-.46-.94.1.04.06,1.2-.04,2.46-.37,3.65-.54.44-.07.88-.12,1.31-.2-.94.16-.62.1.14.2,2.3.3,4.6,1,6.78.07,1.11-.47,2.22-.95,3.33-1.42.45-.19.89-.38,1.34-.57.38-.16-1.08.24.1.11,1.91-.2,3.8-.67,5.7-.94l3.77-.53c.21-.03.41-.06.62-.09.6-.09-.45-.02-.53.07.15-.16,1.2-.08,1.41-.1,1.96-.13,3.9-.26,5.85-.49,1.17-.14,2.35-.28,3.52-.42s2-.55,3.01-1.02c1.14-.52,2.27-1.04,3.41-1.57.95-.44,0,.07-.07.03.27.14,1.33-.23,1.62-.27,1.14-.19,2.28-.36,3.41-.58.8-.15-.79-.21-.25.08.43.23,1.31.17,1.79.23,1.15.14,2.33.4,3.49.44.92.03,1.85-.26,2.74-.46,3.83-.86,7.72-1.45,11.46-2.63,1.91-.6,3.75-1.11,5.7-1.54l1.86-.41c.2-.04.42-.07.61-.13.65-.23-.75.4-.54.06.19-.3,3.07-.08,3.46-.09,2.27-.06,4.05-.52,6.23-1.2.53-.17,1.09-.3,1.61-.5.86-.34-.64-.21-.18,0,.97.45,2.74.29,3.8.4.86.09,1.73.28,2.58.03,1.12-.34,2.22-.92,3.3-1.37.46-.19,1.08-.33,1.49-.62.75-.52-.8-.02-.2-.07,1.28-.11,2.57-.28,3.85-.42,3.97-.44,7.86-.7,11.8-1.44,1.91-.36,3.84-.63,5.76-.93,2.03-.31,3.93-1.36,5.81-2.16.39-.17.78-.34,1.17-.5-.59.24-.78.25-.01.14,1.33-.18,2.66-.51,3.98-.77.2-.04.42-.06.62-.12.62-.17-.58.3-.54.06,0-.02,1,.03,1.05.03,1.32.04,2.65.11,3.98.12,2.07,0,4.18-.74,6.18-1.21,1.87-.44,3.72-.95,5.59-1.38s3.77-.57,5.62-.98c.71-.16-1.19.08-.15.04.56-.02,1.12-.07,1.68-.11,1.14-.08,2.3-.11,3.44-.23,1.88-.19,3.74-.99,5.54-1.53,1.6-.48,2.47-2.08,2.1-3.69-.34-1.45-.51-3.11-1.05-4.49-.22-.56-.1.61.07.37.12-.17.1-.73.13-.94l.42-3.13c.22-1.62.03-2.68-.81-4.09s-1.6-2.68-2.4-4.02l.41,1.51c.21-2.26.96-4.98.21-7.15-.51-1.46-1.2-2.87-1.68-4.34-.32-.98-.45-2.02-.65-3.03-.51-2.64-1.41-4.82-2.4-7.33-.75-1.92-1.12-4.05-1.56-6.06-.5-2.29-.92-4.59-1.36-6.89l-.47-2.47c-.06-.34-.12-.67-.19-1.01-.18-.82-.03.34.03.37-.31-.13-.26-3.66-.29-4.09-.08-1.1-.12-2.09-.54-3.12-.57-1.39-1.2-2.78-1.73-4.19-.7-1.88-1.36-3.9-1.77-5.86-.62-2.99-1.13-5.77-2.06-8.69-.84-2.64-2.24-4.92-3.58-7.34l.41,1.51c-.22-2.07-.16-4.41-.72-6.41-.29-1.06-1.14-2.08-1.71-3-.53-.86-1.06-1.71-1.59-2.57l.41,1.51c-.09-1.84-.13-3.68-.27-5.52s-1.13-3.66-1.8-5.39c-1.21-3.15-2.78-6.18-4.16-9.27s-3.48-5.83-5.56-8.61c-1.14-1.52-3.36-2.27-5.05-3.05s-4.38-.88-6.22-.89-3.75.71-5.5,1.08c-1.62.35-3.27.56-4.91.82-.41.07-.84.1-1.25.2-.54.13,1.23-.16.22-.03-1.12.14-2.23.29-3.35.44-1.79.23-3.33.6-5.05,1.16-.79.26-1.94.4-2.62.87-.54.37,1.11-.08.26,0-.53.05-1.06.12-1.59.18-1.58.18-3.11.45-4.69.29-1.82-.18-3.81-.65-5.63-.3s-3.5.72-5.22,1.17c-1.01.26-2,.59-2.99.88-.58.17-1.18.32-1.75.51-.85.29-.34.14.09.08-1.85.26-3.75.63-5.61.7-2.21.08-4.84-.59-6.91.32-1.76.78-3.5,1.61-5.25,2.41l1.51-.41c-1.85.1-3.71.27-5.56.29s-3.74-.25-5.61-.18-3.69.4-5.51.62c-2.04.25-3.97,1.15-5.95,1.68-1.78.47-3.68.58-5.44,1.11-.68.21,1.18-.05.15-.04-.5,0-1.01.05-1.51.08-1.17.06-2.36.08-3.53.18-2.03.17-4.17.43-6.16.85-1.7.36-3.35,1.1-5.01,1.63-1.75.55-3.59.79-5.38,1.21-.9.21-.32-.01.08.03-.33-.04-.7.05-1.03.08-1.33.1-2.66.19-3.99.3-3.86.32-7.52.95-11.28,1.85-.19.05-.43.07-.61.15-.68.28.88-.51.54-.05-.08.11-.99.04-1.12.05-1.27.06-2.54.1-3.8.17-2.04.12-4,.8-5.97,1.31-.05.01-.76.27-.81.21-.61-.63,1.27.06.55-.1-.17-.04-.42,0-.59,0l-3.73-.04c-1.83-.02-3.63.32-5.44.56-2.3.3-4.46.98-6.69,1.63-.66.19-1.33.38-1.99.57-1.16.33-2.68.49-3.74,1.06-.63.34.67-.76.54-.04,0,0-.55-.05-.57-.05-.69-.1-1.39-.12-2.09-.18-.99-.08-2.03-.28-3.02-.26-1.17.03-2.59.87-3.67,1.33s-2.06.88-3.09,1.32l1.51-.41c-2.06-.01-4.66-.48-6.63.16-1.33.43-2.62,1.09-3.91,1.63-.09.04-1.11.47-1.11.46-.17-.37,1.28.05.38-.14-.32-.07-.67-.07-.99-.1-2.45-.25-4.49-.42-6.92-.13-2.55.31-5.08.68-7.62,1.09-2.28.37-4.38,1.23-6.6,1.82-1.89.5-3.89.59-5.81,1.01-4.41.95-8.7,2.27-13.16,3-.82.13-1.64.26-2.46.4-1.26.21.62.12-.21-.04-1.51-.29-3.19-.33-4.73-.4-2.5-.13-5.12,2.02-7.24,3.19l1.51-.41c-2.27-.3-4.92-1.14-7.16-.46-1.42.43-2.96.87-4.32,1.46-.91.4,1.06.04-.12.04-.82,0-1.64.06-2.45.09-1.17.04-2.51-.07-3.63.28-1.37.44-2.7,1.11-4.03,1.65-.88.36-1.63.52-2.57.69l-2.47.44c-.3.05-.61.1-.91.16-.95.19.18.11.26-.01-.09.14-1.25.05-1.42.06l-2.69.11c-.92.04-1.83.08-2.74.15-1.41.1-2.83.16-4.24.31s-2.69.67-3.99,1.06c-.61.18-1.37.3-1.94.59-.5.25.36-.04.5-.03-.21-.02-.46.05-.67.07-1.52.16-3.03.32-4.55.49-2.24.26-4.47.99-6.64,1.6-5.3,1.48-10.55,2.79-15.95,3.85-3.79.74-2.18,6.52,1.6,5.79h0Z"/>
      <g>
        <polyline class="cls-3" points="193.89 202.75 199.24 200.94 204.94 200.8 210.53 200.13 215.86 198.19 221.21 196.26 226.75 195.39 232.29 194.44 237.95 194.22 243.4 192.82 248.83 191.28 254.66 192.12 260.08 190.52 265.47 188.64 271.07 188.11 276.77 188.35 282.24 186.96 287.76 185.91 293.31 185.04 298.85 184.14 304.5 184.08 310.04 183.17 315.7 183.24 321.19 181.85 327.35 181.14 332.81 184.47 332.52 190.19 330.86 195.97 324.85 197.32 319.54 200.45 313.74 200.29 308.16 201.16 302.88 203.58 297.07 203.3 291.48 204.15 286.11 206.11 280.47 206.69 275.09 208.68 269.38 208.79 263.74 209.28 258.26 210.73 252.79 212.37 247.14 212.81 241.63 214.28 235.92 214.12 230.23 214 224.64 214.81 219.01 215.12 213.46 216.79 207.81 217.13 201.36 216.63 195.84 213.6 192.79 208.9 193.9 203.51"/>
        <path d="m194.68,205.65l2.68-.91,1.75-.59c.2-.07.41-.13.61-.21.59-.24.1.22-.47,0,.23.09.68-.02.92-.02l1.91-.05c.94-.02,1.9,0,2.84-.07,1.86-.13,3.73-.43,5.59-.66,2.03-.25,4.03-1.29,5.95-1.99,1.74-.63,3.48-1.33,5.24-1.89s3.67-.63,5.45-.92,3.65-.61,5.47-.94c.13-.02.27-.04.4-.07.35-.09-1.1.06-.62.09.43.03.89-.03,1.32-.05l3.71-.14c2.2-.08,4.44-.91,6.56-1.47,1.89-.5,3.76-1.06,5.64-1.6h-1.6l4.32.62c.5.07,1,.15,1.5.22,1.07.15,1.77-.04,2.74-.33,2.77-.82,5.49-1.68,8.21-2.63.26-.09,1.29-.26,1.45-.51-.12.18-1.24.14-.32.06.46-.04.91-.09,1.37-.13,1.26-.12,2.55-.33,3.82-.36,1.56-.03,3.15.13,4.72.2,1.33.06,2.47-.25,3.75-.58,4.95-1.26,9.94-2.06,14.97-2.88,1.62-.26,3.26-.49,4.87-.79.61-.11-.64.04-.53.07.21.05.52,0,.73,0l2.77-.03c1.31-.02,2.54-.08,3.84-.29,1.48-.24,3.13-.33,4.57-.75-1,.29-.9.09-.32.11.46.01.92.01,1.38.02l3.02.04c1.58.02,3.05-.47,4.58-.85.75-.19,1.68-.28,2.38-.6.47-.21-1.11.12-.49.05.35-.04.71-.08,1.06-.12,1.64-.19,3.28-.38,4.92-.57l-1.51-.41c1.82,1.11,3.64,2.22,5.46,3.33l-1.49-2.59c-.05.95-.1,1.91-.15,2.86l-.1,2.01c-.01.21-.03.43-.03.64,0,.53-.07-.32.09-.56-.17.25-.21.72-.29,1.01l-.57,1.97c-.27.92-.53,1.85-.8,2.77l2.1-2.1c-2.07.46-4.41.69-6.37,1.5s-3.82,2.19-5.67,3.28l1.51-.41-5.02-.14c-1.46-.04-2.92.3-4.36.52-1.52.24-2.81.42-4.21,1.06-1.52.7-3.05,1.4-4.57,2.1l1.51-.41c-1.86-.09-3.74-.29-5.6-.27s-3.8.52-5.63.8c-1.62.25-3.13.93-4.67,1.5-.42.15-.85.28-1.25.46-.86.36.41.05.25.06-1.02.07-2.05.21-3.07.32-.82.08-1.63.16-2.45.25-.96.11-1.79.47-2.69.81-1.04.38-2.12.71-3.13,1.16-.73.32.23.01.35.03-.37-.04-.78.02-1.15.02-1.64.03-3.3,0-4.94.13-1.97.17-4.08.16-6.02.57-3.48.75-6.92,1.88-10.33,2.91-.67.2-.73-.01.19.07-.3-.03-.64.05-.94.07l-3.59.27c-1.81.14-3.46.61-5.22,1.08l-1.52.41c-.15.04-.31.07-.45.12-.5.18.26-.19.56-.05-.66-.28-1.99-.06-2.7-.08-1.55-.04-3.09-.09-4.64-.12-1.83-.04-3.63-.15-5.44.11l-3.38.49c-.44.06-.88.13-1.33.19-.83.12,1.09-.07.25-.05-1.98.05-4.22-.04-6.16.4-1.74.39-3.64.94-5.3,1.59-.71.28.99-.02.33-.02-.46,0-.94.06-1.4.09l-3.42.21c-1.64.1-3.31-.17-4.94-.3l-2.13-.16,1.51.41c-1.84-1.01-3.68-2.03-5.52-3.04l1.08,1.08c-1.02-1.57-2.03-3.13-3.05-4.7l.3,2.31c.37-1.79.74-3.59,1.11-5.38.33-1.59-.46-3.24-2.1-3.69-1.48-.41-3.36.5-3.69,2.1-.29,1.4-.58,2.8-.86,4.2-.11.52-.24,1.05-.3,1.58-.12,1.13.32,1.86.88,2.73.83,1.28,1.62,2.59,2.49,3.84s2.37,1.82,3.65,2.52c1.38.76,2.89,1.89,4.49,2.05,1.36.14,2.72.21,4.08.32,2.57.2,5.04.05,7.62-.14,1.27-.09,2.4-.49,3.61-.86l2.39-.72c.2-.06.44-.09.62-.19.43-.22-1.13.06-.47.06,2.77-.02,5.54-.3,8.28-.7l2.56-.37c.25-.04.5-.07.75-.11.69-.11-1.01-.02-.42.08,1.46.24,3.11.07,4.59.1.9.02,1.81.04,2.71.07,1.52.04,3.23.32,4.73,0,1.28-.27,2.54-.68,3.79-1.01.5-.13,1.2-.2,1.66-.44.14-.07-1.17.1-.53.08.32-.01.64-.05.96-.07,1.48-.11,2.97-.19,4.45-.34s2.78-.7,4.13-1.1c2.42-.73,4.94-1.21,7.33-2.01.65-.22-.24.06-.48.03.18.03.42-.04.6-.05l2.45-.21c1.05-.09,2.11-.22,3.17-.24,1.56-.03,3.12-.03,4.67-.09,1.26-.05,2.3-.51,3.47-.94l2.26-.84c.22-.08.59-.14.77-.29.38-.29-1.14.1-.47.04,1.55-.13,3.09-.32,4.63-.48,2.49-.26,4.58-1.56,6.97-2.15,1.39-.34,2.89-.44,4.3-.65.31-.05.63-.09.94-.14.77-.12-.34.15-.46.06.25.21,1.5.07,1.8.09,1.32.06,2.68.24,4,.19,1.59-.05,3.52-1.33,4.93-1.98.55-.25,1.12-.5,1.67-.76.58-.28-.84.09-.4.2.21.05.64-.1.84-.13,1.5-.23,3.01-.42,4.5-.7.51-.09-1.13,0-.46.09.24.03.5.01.74.02l2.8.08c1.44.04,2.62.16,3.93-.57,1.45-.81,2.87-1.69,4.3-2.53.17-.1.38-.19.54-.32.36-.29-.95.2-.51.22.62.02,1.45-.33,2.05-.46,1.28-.29,2.57-.58,3.85-.86,1.01-.23,1.82-1.12,2.1-2.1.55-1.91,1.23-3.83,1.66-5.78.46-2.08.29-4.4.4-6.52.05-1.06-.61-2.06-1.49-2.59-1.22-.74-2.44-1.49-3.66-2.23s-2.35-1.62-3.87-1.45c-3.02.35-5.97.64-8.92,1.39l-2.38.6c-.13.03-.48.05-.59.15.84-.76,1.01-.02.66-.11-.15-.04-.35,0-.5,0-1.63-.02-3.28-.13-4.91-.06-1.47.06-2.97.44-4.42.68-.64.1-1.29.18-1.92.31-.51.11,1.15-.04.46-.08-.35-.02-.72,0-1.07.01-1.45.02-2.92-.04-4.36.05-1.66.11-3.34.52-4.98.78-2.34.38-4.7.7-7.03,1.11-2.74.48-5.44,1.04-8.13,1.73-.76.19-1.53.37-2.28.58-.86.23.07-.19.33,0-.12-.09-.6-.03-.74-.03-1.59-.07-3.2-.21-4.79-.2-2.92.02-5.93.41-8.68,1.37s-5.77,1.88-8.69,2.74h1.6l-3.16-.46c-1.19-.17-2.67-.58-3.87-.44-2,.24-4,1.1-5.95,1.63-1.18.32-2.37.61-3.55.91-.52.13-1.06.23-1.57.4-.59.2.61-.04.54-.05-.17-.02-.37.01-.54.02-2.22.08-4.45.06-6.65.43-4.13.71-8.47,1.03-12.41,2.45-1.93.69-3.86,1.39-5.79,2.1l-1.9.7c-.54.2-1.53.34-.11.22-1.17.1-2.33.28-3.49.41-2.39.28-4.76.31-7.17.38s-4.59,1.2-6.74,1.93c-1.53.52-2.54,2.06-2.1,3.69.41,1.5,2.15,2.62,3.69,2.1h0Z"/>
      </g>
      <path d="m424.25,133.33c-2,.19-4.1.64-6.11.42-1.39-.15-2.78-.33-4.17-.45-1.12-.09-2,.33-3.03.71l-2.13.8c-.26.1-.52.19-.78.29-.8.33-.01-.19.34.06-.19-.14-.96,0-1.19,0l-2.39-.02c-1.36,0-2.41-.03-3.7.53s-2.63,1.14-3.94,1.71c-.19.08-.39.17-.58.25-.48.21.62-.2.51-.22-.35-.06-1.11.31-1.45.4l-4.14,1.15c-2.07.58-4.08,1.54-6.08,2.34-2.36.94-4.06,3.26-5.83,5.04-1.45,1.46-3.14,2.74-4.39,4.37-.81,1.05-1.61,2.1-2.41,3.16-.65.85-.91,1.82-1.25,2.82-.76,2.24-1.51,4.48-2.24,6.72s-.85,4.69-1.04,7.16c-.17,2.19.33,4.4.62,6.57s.94,4.45,1.53,6.63c.27.99.58,1.97.87,2.96.32,1.08.52,2.41,1.09,3.39,1.04,1.78,2.5,3.33,3.64,5.05,1.35,2.03,2.51,4.57,4.55,5.96s3.82,2.83,6.08,3.66c1.35.49,2.7,1,4.05,1.48,1.04.37-.76-.42-.05-.03.58.32,1.19.6,1.78.9,1.03.52,2.05,1.08,3.1,1.57,1.17.55,2.47.85,3.7,1.23,1.05.33,2.01.71,3.11.62,1.36-.11,2.78-.21,4.13-.44,1.09-.19-.96-.26-.03-.1.67.12,1.35.22,2.02.33,1.28.21,3,.73,4.27.4s2.48-.83,3.71-1.24c.54-.18,1.84-.33.31-.26.49-.02.99-.11,1.48-.17,2.32-.27,4.48-.39,6.82-.38,1.04,0,2.11.06,3.15,0,1.27-.07,2.55-.7,3.74-1.1,2.05-.69,4.05-1.42,6.06-2.23,1.04-.42,2.08-.82,3.11-1.25,1.25-.51,2.28-1.49,3.35-2.3,3.61-2.74,7.08-5.59,10.18-8.9,1.61-1.72,1.61-4.73,2.3-6.9.6-1.88,1.54-3.64,2.13-5.52.43-1.36.88-2.71,1.28-4.07.3-1,.23-1.94.21-2.96-.06-2.56-.27-4.98-.62-7.52-.31-2.24-.85-4.38-1.38-6.59-.04-.16-.06-.42-.14-.57-.06-.12.15,1.15.07.53s-.16-1.24-.24-1.85c-.15-1.18-.31-2.35-.46-3.53-.36-2.74-3.46-3.96-5.3-5.72-1.49-1.43-2.8-3.09-4.16-4.64-.94-1.06-1.83-2.18-2.82-3.18-.78-.79-1.87-1.21-2.84-1.72-2.24-1.16-4.44-2.09-6.8-2.97-2.07-.77-4.14-1.53-6.21-2.29-.97-.36-1.87-.38-2.89-.39-1.34-.02-2.7-.11-4.05-.06-1.1.04-2.04.58-3.05,1l-3.03,1.28c-1.49.63-2.56,1.98-2.1,3.69.39,1.41,2.19,2.73,3.69,2.1s2.9-1.22,4.35-1.84c.18-.08.63-.17.76-.32-.11.13-1.16.04-.36.09.91.05,1.83.03,2.74.04.73.01,1.55.12,2.28.03.31-.04-.98-.34-.48-.03.31.19.74.27,1.08.4,1.33.49,2.67.98,4,1.47,1.56.58,3.11,1.19,4.68,1.75.75.26-.44-.22-.32-.14.24.16.54.28.8.42l2.7,1.4c.31.16.63.35.95.49.07.03.17.12.25.13.08,0-.6-.59-.49-.37.32.64,1.12,1.26,1.59,1.79.84.95,1.68,1.91,2.53,2.85,1.05,1.17,2.05,2.5,3.24,3.53,1.34,1.15,2.75,2.23,4.12,3.34l-.88-2.12c.33,2.52.52,5.1,1.13,7.58.65,2.69,1.14,5.27,1.53,8.02.04.29.08.59.12.88.1.67-.03-.75-.07-.52-.12.61.03,1.4.05,2.01l.06,2.39c0,.23-.04.54.02.76.08.28.3-.99.04-.47-.64,1.3-.92,2.93-1.36,4.31-.33,1.04-.76,2.04-1.16,3.06-1.02,2.59-1.66,5.19-2.35,7.89l.77-1.32c-2.16,2.15-4.28,4.2-6.63,6.14l-1.01.83c-.57.47-.36.28.16-.1-.62.45-1.22.93-1.83,1.39-.72.54-1.58,1.05-2.22,1.69-.49.48.64-.19.4-.09-.29.11-.59.23-.88.35-3.1,1.24-6.17,2.4-9.33,3.47l-1.21.41c-.24.08-1.01.24-.2.15s.08-.05-.13-.05h-1.31c-1.56,0-3.16-.1-4.72-.01-.9.05-1.8.21-2.69.31-.97.11-2.06.12-3.01.36-1.64.41-3.25,1.08-4.85,1.62h1.6c-2.04-.33-4.37-1.07-6.44-.84-1.32.14-2.74.15-4.04.43-.85.19.96.38.11.04-.63-.25-1.31-.41-1.95-.61l-1.97-.61c-1.25-.39.61.39-.06.01-1.2-.67-2.46-1.25-3.69-1.87-2.08-1.06-4.3-1.78-6.49-2.58-.26-.09-.52-.21-.79-.29-.45-.13.79.55.51.2-.34-.42-1.09-.75-1.53-1.05-1.07-.74-2.15-1.47-3.22-2.21l1.08,1.08c-1.08-1.64-2.12-3.31-3.23-4.92-.57-.83-1.19-1.63-1.78-2.45l-1.07-1.48c-.13-.18-.26-.39-.4-.56-.37-.43.15-.07.14.47,0-.32-.23-.77-.31-1.07l-.63-2.16c-.23-.79-.48-1.57-.69-2.36-.3-1.1-.55-2.21-.83-3.32l-.42-1.68c-.29-1.18.03.68-.05.08-.24-1.88-.76-3.9-.7-5.8.04-1.28.2-2.56.31-3.84.04-.49.1-.99.12-1.48.02-.58-.03.54-.09.57.07-.04.11-.35.14-.42.69-1.89,1.25-3.83,1.9-5.74.41-1.19.87-2.38,1.22-3.59.2-.69-.6.89,0,.19.43-.5.81-1.06,1.21-1.58s.83-1.09,1.25-1.63-.1.26-.25.33c.15-.07.32-.3.43-.41.96-.91,1.94-1.81,2.89-2.74,1.55-1.51,3.06-3.08,4.58-4.62l-1.32.77c2.82-1.11,5.57-2.25,8.49-3.06,1.58-.44,3.18-.81,4.69-1.46s3.12-1.35,4.67-2.03l-1.51.41c1.59.01,3.17.02,4.76.03s2.78-.57,4.19-1.1c.68-.25,1.68-.43,2.28-.85.36-.25-.97-.08-.41.07.34.09.74.08,1.09.12,1.4.15,2.87.46,4.28.43,1.72-.04,3.46-.33,5.17-.49,1.61-.15,3-1.27,3-3,0-1.5-1.38-3.16-3-3h0Z"/>
      <path d="m395.3,146.82c-.64,1.67-1.43,3.34-1.95,5.05s-.56,3.75-.79,5.55c-.04.33-.09.67-.13,1-.05.41.19-.75.07-.63-.07.07-.09.27-.14.36-.48,1-.81,2.1-1.21,3.13-.59,1.52-.92,2.92-1.25,4.52-.36,1.72-.67,3.36-.77,5.11-.09,1.61-.13,3.24-.31,4.85l-.41,3.53c-.05.39-.09.78-.14,1.17-.08.71.3-1.13-.01-.27-.6,1.66-1.11,3.43-1.54,5.14-.26,1.02-.43,2.06-.64,3.09s-.55,2.13-.6,3.2c-.1,1.89,0,3.81,0,5.7,0,3.86,6,3.87,6,0,0-1.79.17-3.66,0-5.45-.07-.74-.23.85-.07.37.13-.41.18-.88.27-1.3l.7-3.36c.34-1.62.89-3.19,1.37-4.77.51-1.7.66-3.42.86-5.19.18-1.53.32-3.03.41-4.56.06-1.08.14-2.16.18-3.24.03-.89-.04.18-.06.26.11-.38.16-.78.24-1.17.33-1.56.5-3.25,1.07-4.75.7-1.82,1.71-3.7,1.97-5.64.13-.97.25-1.95.38-2.92l.23-1.77c.03-.23.12-1.43.07-.52-.05.81.16-.16.28-.47l.69-1.78c.34-.88.68-1.77,1.02-2.65.58-1.51-.64-3.29-2.1-3.69-1.69-.47-3.1.58-3.69,2.1h0Z"/>
      <path d="m405.84,151.3c-.23,1.85-.48,3.69-.7,5.54-.08.69.23-1.03.04-.38-.14.47-.21.97-.31,1.44l-.74,3.42c-.68,3.18-1.75,6.29-2.52,9.46-.42,1.75-.67,3.3-.7,5.1-.02,1.62.02,3.23-.17,4.84l-.42,3.56c-.04.37-.09.75-.13,1.12-.05.46.22-.8.08-.65-.07.08-.09.29-.13.38-.65,1.67-1.19,3.42-1.75,5.12-.59,1.82-1.3,3.69-1.72,5.55s-.54,3.84-.8,5.73c-.22,1.6.39,3.22,2.1,3.69,1.4.39,3.47-.48,3.69-2.1.26-1.83.42-3.71.77-5.52.33-1.7,1.01-3.38,1.52-5.03.48-1.55,1.03-3.09,1.55-4.62.59-1.73.78-3.38.99-5.19.19-1.6.36-3.13.38-4.74l.05-3.46c0-.15.02-.31,0-.46-.05-.53-.05.49-.1.58.13-.23.16-.65.22-.91.83-3.46,1.87-6.85,2.73-10.3,1-4.03,1.53-8.07,2.05-12.18.2-1.61-1.53-3-3-3-1.79,0-2.79,1.39-3,3h0Z"/>
      <path d="m411.47,148.9c-.39,1.64-.77,3.27-1.16,4.91-.35,1.5-.42,3.07-.57,4.61-.29,2.96-.27,6.06.28,9,.33,1.81.75,3.6,1.13,5.4v-1.6c-.72,2.56-1.63,5.05-1.72,7.72-.05,1.64-.29,3.37-.03,5,.21,1.36.47,2.72.7,4.08.08.49.11,1.04.26,1.51-.33-1.07-.1-.85-.07-.32.03.46.06.91.09,1.37.09,1.27.23,2.55.25,3.82.04,2.6-.16,5.23-.32,7.82-.06.94-.12,1.88-.17,2.82-.04.86-.13-.04.06-.29-.12.15-.17.5-.23.68-.53,1.6-1.06,3.19-1.6,4.79s.59,3.28,2.1,3.69c1.64.45,3.18-.55,3.69-2.1.68-2.03,1.75-4.2,1.95-6.34.18-1.91.26-3.85.34-5.77.17-4.23.25-8.48-.47-12.68l-.69-4.02c-.03-.18-.06-.37-.09-.55-.1-.47-.02.94.09.63.15-.42.04-1.1.05-1.54.04-1.25.2-2.56.13-3.81-.03-.48-.31,1.19.02.2.22-.65.37-1.33.56-1.99.29-1.03.65-2.07.88-3.12.28-1.28-.24-2.79-.51-4.05-.21-1-.28-2.2-.66-3.15.29.74.11,1,.08.46,0-.21-.03-.43-.04-.64l-.15-2.32c-.16-2.42.08-4.67.31-7.09.02-.22.06-.44.06-.66.02-.44-.27,1.04-.06.52.22-.55.29-1.23.42-1.8.28-1.2.57-2.4.85-3.61.37-1.58-.49-3.25-2.1-3.69s-3.32.51-3.69,2.1h0Z"/>
      <path d="m422.72,155.47c-.18,3.06-.35,6.11-.44,9.17-.04,1.34-.04,2.59.06,3.93l.25,3.13c.02.22-.03.69.07.89-.06-.13.18-1.19.05-.3-.49,3.35-1.04,6.63-1.71,9.95-.32,1.6-.18,2.98-.04,4.61.07.83,0,1.87.24,2.67.18.6.24-.99.09-.38-.09.37-.15.75-.22,1.12-.39,1.99-1.09,4.14-.82,6.17.25,1.84.5,3.69.75,5.53.22,1.61,2.28,2.48,3.69,2.1,1.73-.48,2.32-2.08,2.1-3.69-.26-1.93-.53-3.85-.79-5.78v1.6c.52-2.66,1.32-5.3,1.08-8.01l-.25-2.85c-.03-.34-.03-.7-.09-1.03-.12-.61.02-.03-.12.43.48-1.48.64-3.14.94-4.67.21-1.05.36-2.1.51-3.16.2-1.4.6-2.93.59-4.36,0-1.61-.26-3.27-.39-4.87-.09-1.09-.02-2.16.02-3.26.09-2.98.26-5.95.44-8.93.09-1.62-1.45-3-3-3-1.7,0-2.9,1.38-3,3h0Z"/>
      <path d="m434.2,155.53c-.27,2.86-.52,5.68-.61,8.55-.04,1.27-.05,2.46.06,3.72l.26,3.01c.02.23-.02.58.07.8.1.26.12-.71.11-.67-.04.11-.05.24-.07.36-.7,3.3-1.16,6.56-1.51,9.91-.14,1.28,0,2.4.15,3.69.09.86.13,1.76.28,2.61.14.76-.01-.14.13-.35-.14.2-.17.58-.24.81-.5,1.7-1.34,3.56-1.4,5.35s.08,3.55.11,5.31c.08,3.86,6.08,3.87,6,0-.03-1.62-.07-3.23-.1-4.85,0-.14.06-.49-.01-.62.04.08-.27.98-.07.66.08-.13.1-.35.14-.49l.8-2.72c.19-.63.42-1.26.56-1.91.17-.77.03-1.49-.05-2.27-.15-1.37-.47-2.83-.42-4.21.06-1.66.39-3.31.53-4.97.06-.69-.2.98-.05.41.09-.33.13-.67.19-1l.58-2.99c.3-1.52.27-2.77.13-4.31-.11-1.26-.28-2.52-.24-3.79.11-3.38.34-6.68.66-10.05.15-1.62-1.49-3-3-3-1.75,0-2.85,1.38-3,3h0Z"/>
      <path d="m383.36,186.42c2.88-.17,5.74-.36,8.6-.69,2.56-.29,5.11-.29,7.68-.45,3.13-.2,6.19-.37,9.33-.39,1.25,0,2.5.03,3.74.06.81.02,1.69.14,2.5.06.55-.06-.97-.26-.47-.06.33.13.71.17,1.06.26,1.83.45,4.01,1.35,5.9.97,1.73-.34,3.44-.8,5.16-1.2h-1.6c1.78.27,3.56.56,5.34.82,1.97.29,4.11.16,6.09.07,3.8-.17,7.55-.76,11.25-1.61.78-.18-1.13-.07-.13.09.59.09,1.2.11,1.79.17l3.15.3c1.62.15,3-1.49,3-3,0-1.75-1.38-2.85-3-3-2.11-.2-4.38-.72-6.47-.33-1.35.25-2.69.54-4.03.81-.6.12-1.62.1-.23.09-.51,0-1.04.09-1.55.14-2.24.2-4.4.34-6.64.35-.65,0-1.31,0-1.96.01-1.16.03.93.21,0,.06-1.34-.22-2.69-.41-4.04-.62-.86-.13-1.7-.31-2.57-.15-.46.09-.92.22-1.38.32-1.32.31-2.63.61-3.95.92h1.6c-2.5-.61-4.95-1.39-7.53-1.45-2.71-.06-5.41-.08-8.12-.07-2.2.01-4.37.28-6.57.4-2.54.13-5.05.16-7.59.46-2.79.32-5.56.5-8.37.67-1.62.1-3,1.31-3,3,0,1.55,1.37,3.1,3,3h0Z"/>
      <path d="m389.19,172.6c1.85.14,3.72.41,5.58.44s3.73-.29,5.6-.32c.85-.01,1.71.05,2.56.07s2.16.31,3.01.09c.09-.02-1.13-.18-.59-.08.18.03.35.06.53.09l1.84.3c1.01.16,2.01.34,3.02.49,1.34.2,2.74-.21,4.06-.46,1.06-.2,2.11-.4,3.17-.6h-1.6c1.42.38,2.84.75,4.25,1.13.43.11.86.25,1.3.34.95.2,1.8-.05,2.71-.25l2.76-.62c.48-.11,1.31-.12,1.74-.39-.56.35-1.05.08-.46.1.35,0,.7-.02,1.05-.03l2.84-.07c.35,0,.71.01,1.05-.03.71-.08-.26.05-.46-.11.39.31,1.47.36,1.94.48,1.4.34,2.95.96,4.41.99s3.1-.2,4.62-.3c1.03-.07,2,.01,3.03.09l2.91.22c.69.05.75.33-.17-.06.17.07.42.08.6.11l4.96.89c1.59.29,3.23-.43,3.69-2.1.4-1.45-.49-3.4-2.1-3.69-4.46-.8-9-1.73-13.55-1.43l-2.4.16c-.38.03-1.24-.1-1.57.1.18-.11,1.09.23.56.06-.23-.07-.48-.12-.71-.18l-2.46-.6c-1.04-.26-2.12-.62-3.2-.64-1.4-.02-2.81.07-4.22.1-2.58.06-5.09.83-7.59,1.4h1.6c-.97-.26-1.93-.51-2.9-.77-1.07-.28-2.32-.81-3.46-.81s-2.3.39-3.37.6-2.03.39-3.05.58h1.6c-1.62-.26-3.25-.53-4.87-.79s-3.09-.27-4.66-.31c-2.74-.08-5.47.33-8.2.24-1.8-.06-3.62-.28-5.41-.42-1.62-.13-3,1.47-3,3,0,1.73,1.38,2.87,3,3h0Z"/>
      <path d="m393.02,161.61c3.66.39,7.34.58,11,.98,2.07.22,4.2.76,6.27.39,1.31-.23,2.61-.47,3.91-.71.22-.04,1.49-.28.58-.12-.74.13-.28.04-.07.06.27.03.57.02.84.02,3.9.11,7.81-.1,11.69.22,2,.16,3.93.25,5.94.24h1.85c.17,0,.37.02.53,0,.53-.09-.81-.17-.54-.09,1.1.32,2.28.46,3.41.68,1.02.21,2.04.47,3.09.46,1.42-.02,2.84-.08,4.26-.12,1.97-.05,3.99.39,5.95.62,1.61.19,3-1.52,3-3,0-1.78-1.38-2.81-3-3-1.79-.21-3.62-.58-5.42-.64-1.13-.04-2.29.06-3.42.09-.53.01-1.09-.02-1.62.04-.64.08,1.19.25.12.02-2.03-.43-4.19-1.09-6.28-1.08-1.97,0-3.93.08-5.9-.08s-3.83-.34-5.77-.31-3.95.05-5.92,0c-1.04-.03-2.1-.13-3.14-.09-1.11.04-2.28.37-3.37.57l-1.92.35c-.2.04-.41.07-.61.11-.67.13.36-.14.49-.06-.25-.15-.85-.1-1.14-.13l-2.09-.25c-4.23-.5-8.49-.73-12.73-1.18-1.61-.17-3,1.5-3,3,0,1.77,1.38,2.83,3,3h0Z"/>
      <path d="m154.1,150.56c4.01-.86,8.18-1.6,11.95-3.26,1.28-.57,2.56-1.14,3.84-1.71.55-.25,1.13-.38.05-.03.52-.17,1.03-.41,1.54-.61,1.15-.46,2.3-.9,3.45-1.37,1.05-.43,1.91-1.14,2.84-1.79l1.69-1.2c.47-.33,1.51-.8.19-.33,1.16-.42,2.3-.92,3.44-1.38,2-.8,4.05-1.4,6.11-2.03,1.93-.59,3.93-.97,5.86-1.54,2.05-.6,3.98-1.82,5.91-2.71,3.54-1.64,7.1-3.33,10.69-4.85l3.87-1.64c.17-.07.35-.15.52-.22.37-.16-1.03.4-.48.21s1.06-.42,1.59-.62c2.07-.81,4.14-1.6,6.24-2.35s4.19-1.15,6.46-1.54c2.11-.36,4.02-1.24,6.02-2.01,1.87-.72,3.75-1.42,5.61-2.17,1.04-.42,1.92-1.1,2.86-1.72l1.8-1.2c.17-.12.38-.22.54-.36.49-.43-.43.12-.4.11,2.06-.82,4.11-1.69,6.15-2.55,1.28-.54,2.56-1.09,3.85-1.63.21-.09.42-.18.63-.27.48-.2-.6.17-.51.22.17.1,1.2-.38,1.4-.44,2.04-.65,4.03-1.26,6.11-1.74,1.03-.24,2.12-.4,3.14-.72,1.19-.38,2.37-1.61,3.33-2.39.82-.66,1.64-1.32,2.45-1.98l-2.12.88c1.32-.18,2.64-.35,3.96-.53s2.58-.25,3.72-.96c1.27-.8,2.59-1.56,3.82-2.41.87-.6-.98.17.08-.03.81-.16,1.62-.38,2.43-.57,1.16-.27,2.36-.46,3.44-.98,1.33-.65,2.63-1.36,3.94-2.05,1.91-.99,3.91-1.77,5.84-2.71,1.23-.6,2.44-1.25,3.66-1.87.23-.12,1.7-.77.88-.48-.77.27-.09.04.07-.02.36-.13.71-.27,1.06-.41,2.69-1.03,5.28-2.14,7.88-3.38.45-.22.98-.39,1.4-.67-.42.28-.93.28-.39.22.32-.03.65-.14.97-.21,1.38-.3,2.83-.49,4.18-.9,2.17-.67,3.78-2.68,5.83-3.61,1.5-.68,3.04-1.32,4.57-1.93-1.4.56.1.08.59-.05l2.68-.69c.71-.18,1.55-.31,2.2-.68.55-.32,1.06-.86,1.55-1.28,1.14-.98,2.28-1.96,3.42-2.95l-1.32.77c1.79-.43,3.66-.75,5.41-1.31,1.93-.61,3.6-2.19,5.36-3.15,1.59-.88,3.37-1.47,5.02-2.24.16-.08-1.07.34-.17.14.58-.13,1.15-.3,1.72-.44,1.04-.27,2.11-.49,3.14-.81,1.9-.6,3.64-1.98,5.38-2.94,1.6-.88,3.26-1.66,4.9-2.47s3.33-1.54,4.96-2.38c.76-.39-.96.27-.17.08.48-.11.96-.3,1.43-.45,1.1-.35,2.21-.67,3.31-1.04,3.63-1.24,7.09-3.16,10.28-5.28.78-.52-.05,0-.15,0,.38.01.88-.23,1.24-.32,1.18-.31,2.36-.59,3.53-.92,1.92-.54,3.52-2.06,5.12-3.21,1.47-1.05,3.25-1.66,4.89-2.41.19-.09.38-.17.56-.26.46-.22-.02.21-.48.2.28.01.7-.24.96-.33l3.49-1.2c1.68-.58,3.39-1.07,5.09-1.59,1.95-.6,3.71-1.63,5.53-2.56,1.6-.81,3.07-1.81,4.59-2.77s3.14-1.78,4.75-2.63c.38-.2.83-.38,1.19-.63.28-.2-.66.19-.53.23.11.03.43-.09.54-.12l3.64-.8c.79-.17,1.51-.29,2.19-.74.94-.61,1.82-1.37,2.72-2.05.67-.5,1.34-1.01,2.01-1.51l-4.41-1.79c.44,1.6.79,3.26,1.32,4.83.39,1.14,1.36,1.9,2.19,2.72.61.59,1.19,1.23,1.83,1.79,1.56,1.37,4.66.94,6.62.82,2.36-.15,3.92-3.21,5-5.1,1-1.75.4-4.55.33-6.48-.03-.99-.53-2.14-1.49-2.59-1.75-.83-4.49-2.75-6.47-2.27s-5.33,1.41-6.12,3.49c-.3.78-.55,1.58-.82,2.37-.31.9-.83,1.92-.83,2.9,0,1.16.83,2.23,1.4,3.2l1.42,2.42c1.96,3.33,7.14.31,5.18-3.03l-2.41-4.1.3,2.31c.51-1.49,1.03-2.98,1.54-4.48l-2.1,2.1c1.34-.47,2.69-.93,4.03-1.4l-2.31-.3c1.39.66,2.77,1.31,4.16,1.97l-1.49-2.59.16,4.84.41-1.51c-.81,1.25-1.63,2.49-2.44,3.74l2.59-1.49-4.55.06,2.12.88-3.25-3.18.77,1.32c-.44-1.61-.88-3.22-1.32-4.83-.46-1.69-2.83-2.98-4.41-1.79-.75.56-1.49,1.13-2.24,1.69l-1.56,1.17c-.26.19-.9.51-1.06.8-.11.19.61-.2.55-.22-.11-.03-.43.09-.54.12l-1.86.41c-1,.22-2.05.37-3.03.67-1.91.59-3.88,1.88-5.6,2.88-1.6.93-3.08,2.06-4.69,2.97-.92.52-1.89.97-2.83,1.45-.52.27-1.05.52-1.56.8-.12.06-.34.12-.42.22-.2.22,1-.31.49-.22-1.81.32-3.68,1.09-5.43,1.67-1.97.66-4,1.26-5.89,2.11-1.7.76-3.6,1.41-5.14,2.45-1.07.72-2.1,1.5-3.15,2.25-.16.11-.94.5-.98.7-.01.06.8-.24.54-.23-.19,0-.4.1-.58.15-1.95.51-4.21.78-5.95,1.85-1.63,1.01-3.23,2.15-4.98,2.94l-3.55,1.59c-.18.08-.35.15-.53.24-.49.24.7-.22.48-.21-.39.02-.89.28-1.26.4-2.01.63-3.98,1.22-5.88,2.13-1.78.85-3.55,1.7-5.31,2.58s-3.46,1.74-5.15,2.71c-.84.48-2.29.97-2.95,1.69.33-.36.93-.34.05-.11l-1.96.51c-3.95,1.02-7.6,2.65-11.07,4.79l-1.55.95c-.17.1-.4.21-.55.34-.32.29.58-.18.5-.2-.29-.05-.89.22-1.17.28l-2.03.49c-1.25.3-2.46.46-3.49,1.3-.74.6-1.45,1.25-2.17,1.87l-2.18,1.88,1.32-.77c-2.03.52-4.2.88-6.13,1.7-1.74.73-3.67,1.33-5.29,2.3-1.07.64-2.09,1.4-3.13,2.1-.31.21-.96.48-1.17.79-.14.21.6-.2.54-.22-.14-.04-.5.11-.63.14-2.19.47-4.35.79-6.38,1.75-1.22.58-2.45,1.15-3.67,1.75-.9.44.45-.15.13-.04-.54.18-1.06.41-1.59.61-2.12.81-4.16,1.63-6.17,2.66-3.65,1.87-7.4,3.5-11.04,5.39-.51.26-1.07.5-1.55.81-.4.26.77-.16.45-.2-.19-.02-.49.12-.68.16-1.4.33-2.82.62-4.21.99-2.11.56-4.03,2.23-5.86,3.38l1.51-.41-3.26.44c-1.15.15-2.9.14-3.9.73-1.82,1.06-3.43,2.75-5.07,4.07l1.32-.77c-3.86.89-7.82,1.7-11.49,3.25-1.13.48-2.26.96-3.39,1.44-.48.2-.96.41-1.44.61-.51.22.75-.31.51-.21-.19.07-.37.15-.55.23-1.94.8-4.13,1.44-5.88,2.61l-3.38,2.27c-.14.09-.35.19-.46.31-.32.34.64-.21.5-.18-.48.11-.96.37-1.42.55-1.93.75-3.86,1.49-5.8,2.23-.97.37-1.96.86-2.97,1.14-.94.26-1.97.34-2.93.5-2.11.36-3.88.9-5.91,1.62-7.76,2.77-15.23,6.23-22.71,9.65-.75.34-1.48.7-2.22,1.05-.87.41-2.1.76-2.86,1.36.65-.52.9-.3.42-.22-.21.03-.41.11-.62.16l-2.07.53c-.82.21-1.64.4-2.45.63-1.8.51-3.63,1.03-5.39,1.67-1.95.71-4.29,1.4-6.02,2.55-1.09.72-2.14,1.52-3.21,2.27-.19.14-.9.48-1,.71-.06.13.94-.36.49-.19-.21.08-.42.17-.64.25-2.1.83-4.2,1.65-6.26,2.56-1.18.52-2.36,1.04-3.53,1.57-.79.36,1.03-.31.09-.08-.59.14-1.17.35-1.76.52-1.93.57-3.8,1.08-5.77,1.5l-2.86.61c-3.77.8-2.18,6.59,1.6,5.79h0Z"/>
    </g>
  </g>
  <path d="m487.49,80.73c2.3-.57,4.59-1.24,6.91-1.73s4.65-.68,6.94-1.19,4.5-1.42,6.77-2.01,4.55-.83,6.81-1.27,4.62-1.19,6.92-1.79l-1.9-1.45c.08,3.36.28,6.7-.01,10.05l1.1-1.45c-2.13.66-4.26,1.05-6.45,1.47-1.07.2-2.14.39-3.21.61.76-.16-.06-.02-.36,0l-2.04.16c-4.27.34-8.58.52-12.83.99-2.51.28-5.02.67-7.52,1l1.3.74c-.85-1.98-1.69-3.96-2.54-5.95-.67-1.57-3.22-.45-2.74,1.16.72,2.41,1.53,4.81,2.15,7.24s1.11,5,1.58,7.5c.31,1.65.6,3.31.9,4.96.11.62.21,1.25.34,1.87.08.41.03.09,0-.1.03.19.05.38.08.58.36,2.7.6,5.44,1.15,8.11l1.19,5.77c.04.19.1.39.12.58-.09-.79-.09.08-.12.32l-.25,2.51.74-1.3-1.38.71,1.16-.15c-1.53-.41-3.06-.82-4.6-1.22l1.05,1.05c-.26-1.37-.51-2.75-.77-4.12l-1.45,1.9,3.73.34c1.92.17,1.91-2.83,0-3l-3.73-.34c-1.05-.1-1.61,1.03-1.45,1.9.26,1.37.51,2.75.77,4.12.09.5.58.92,1.05,1.05,1.51.4,3.05.97,4.59,1.22.83.14,2.24-.47,2.85-1.09s.54-2.06.62-2.9c.16-1.63-.16-2.96-.5-4.56l-.66-3.22c-.07-.34-.13-.69-.21-1.03-.14-.57.03.35-.02.02-.89-6.6-1.95-13.11-3.33-19.63-.71-3.35-1.73-6.6-2.71-9.89l-2.74,1.16c.85,1.98,1.69,3.96,2.54,5.95.18.42.84.8,1.3.74,4.51-.6,8.97-1.11,13.5-1.45,4-.3,8.04-.42,11.98-1.18,2.61-.5,5.19-.93,7.72-1.72.68-.21,1.04-.76,1.1-1.45.29-3.35.09-6.69.01-10.05-.02-.98-.94-1.7-1.9-1.45-2.18.57-4.36,1.23-6.56,1.73-2.31.52-4.69.73-6.99,1.29s-4.5,1.49-6.8,2.03-4.61.73-6.89,1.19-4.74,1.17-7.1,1.76c-1.87.47-1.08,3.36.8,2.89h0Z"/>
  <path d="m518.67,73.33c.29,5.3.57,10.6.86,15.91l.43,7.95c.13,2.43.37,4.88.27,7.32-.08,2.04-.53,4.15-1.94,5.7-1.18,1.29-2.99,2.05-4.59,1.03s-1.66-2.87.04-3.8c1.97-1.08,4.22.14,5.76,1.42s3.61-.88,2.12-2.12c-3.16-2.64-8.33-4.24-11.23-.26-2.55,3.5.56,7.85,4.43,8.23,4.21.41,7.32-3.62,8.08-7.35.49-2.37.35-4.79.22-7.18-.15-2.82-.3-5.63-.46-8.45-.33-6.13-.66-12.26-.99-18.39-.1-1.92-3.1-1.93-3,0h0Z"/>
  <path d="m199.22,66.23c4.32-1.18,8.71-2.22,12.97-3.58,4.7-1.51,9.38-3.04,14.11-4.45,2.9-.87,5.79-1.73,8.69-2.6l-1.85-1.85c-.42,1.69-.85,3.37-1.27,5.06l1.05-1.05-3.69,1.11c-.59.18-1.21.32-1.79.54-.63.24.49,0-.18.07-2.9.32-5.8.68-8.69,1.02-1.73.2-3.54.24-5.19.83l-8.85,3.19c-.93.34-1.98.59-2.87,1.06-1.14.6-2.2,1.49-3.27,2.22l1.82.23c-.73-.93-1.45-1.86-2.18-2.78-.97-1.24-2.87.12-2.51,1.46,1.2,4.48,2.4,8.97,3.6,13.45.17.63.29,1.32.52,1.93-.09-.24-.05-.47,0,.03.06.53.12,1.06.18,1.59l.48,4.24.21,1.91c.03.28-.02,1.03.14,1.27.14.2,0-.15.05-.22-.09.13-.13.32-.19.47l-.88,2.15c-.46,1.12-.92,2.23-1.38,3.35l2.51-.66c-1.34-1.1-2.68-2.21-4.02-3.31l-.66,2.51c1.69-.36,3.38-.71,5.07-1.07,1.89-.4,1.09-3.29-.8-2.89-1.69.36-3.38.71-5.07,1.07-1.05.22-1.52,1.8-.66,2.51,1.34,1.1,2.68,2.21,4.02,3.31.93.77,2.06.43,2.51-.66l1.19-2.89c.41-1,1.02-2.06,1.28-3.11.18-.74-.08-1.65-.16-2.39l-.5-4.48c-.17-1.51-.27-3.01-.67-4.48l-2.11-7.9c-.58-2.17-1.16-4.34-1.74-6.51l-2.51,1.46c.73.93,1.45,1.86,2.18,2.78.38.49,1.32.57,1.82.23.54-.37,1.09-.74,1.63-1.11l1.12-.76c.2-.13.87-.51.18-.2,1.06-.46,2.2-.79,3.29-1.19l5.41-1.95c1.07-.39,2.49-.65,3.47-1.25.2-.13-.57.06-.25.02.16-.02.32-.04.48-.06l2.12-.25,5.7-.67c1.42-.17,2.85-.33,4.27-.5,1.08-.13,2.11-.53,3.15-.84,1.4-.42,3.85-.64,4.34-2.24s.81-3.23,1.22-4.84c.27-1.08-.72-2.18-1.85-1.85-4.27,1.28-8.57,2.49-12.82,3.86-4.71,1.51-9.38,3.08-14.15,4.38-2.93.8-5.87,1.6-8.8,2.4-1.86.51-1.07,3.4.8,2.89h0Z"/>
  <path d="m233.15,55.58c.3,8.46.64,16.91,1.06,25.36.09,1.89.08,3.66-.02,5.55l.44-1.06-1.75,1.35,1.46-.39c-2.25-.38-4.5-.75-6.75-1.13l.9,2.2c1.03-1.5,2.07-3.01,3.1-4.51l-1.69.69c2.01.41,4.03.81,6.04,1.22,1.89.38,2.69-2.51.8-2.89-2.01-.41-4.03-.81-6.04-1.22-.7-.14-1.29.11-1.69.69-1.03,1.5-2.07,3.01-3.1,4.51-.51.75-.03,2.05.9,2.2,1.44.24,2.88.48,4.33.73s2.88.79,4.09-.14c.57-.44,1.4-.87,1.78-1.5s.26-1.8.3-2.54c.05-.9.02-1.76-.02-2.67-.27-5.48-.56-10.96-.76-16.44-.12-3.34-.24-6.68-.36-10.03-.07-1.92-3.07-1.93-3,0h0Z"/>
</svg>